<svg xmlns="http://www.w3.org/2000/svg" width="391" height="854" fill="none" viewBox="0 0 391 854">
  <g clip-path="url(#a)">
    <path fill="url(#b)" fill-opacity=".1"
      d="M685.553-.39c-.249 3.305-2.345 5.841-3.694 8.67-2.785 5.85-2.177 8.394 2.5 12.594 11.339 10.189 17.789 22.921 19.526 38.11.858 7.498 1.701 14.975 1.539 22.554-.124 5.769-2.008 11.076-5.534 15.174-11.449 13.333-23.712 25.919-39.126 34.825-6.333 3.658-12.945 6.824-19.417 10.226-4.193 2.206-7.498 5.248-9.837 9.477-3.928 7.103-7.527 14.213-6.824 22.709.14 1.657-.469 3.365-.586 5.058-.99 14.066 4.889 25.479 13.963 35.573 4.303 4.779 10.599 6.238 16.06 9.06 6.802 3.518 12.988 7.689 17.093 14.389.499.814 1.261 1.488 1.957 2.162 7.081 6.869 8.4 15.518 4.677 23.838-6.099 13.627-16.089 23.742-31.269 27.444-3.313.806-6.605 1.136-10.101.44-14.748-2.932-26.878-9.903-35.322-22.533-5.945-8.891-13.04-16.676-21.228-23.5-4.566-3.805-9.697-4.567-15.407-3.079-14.945 3.878-29.906 7.733-44.917 11.354-6.406 1.547-13.091.807-19.615 1.708-15.883 2.199-31.32 5.762-45.415 13.847-4.332 2.485-8.847 4.654-13.157 7.176-5.593 3.277-9.903 7.821-12.784 13.7-.798 1.627-1.707 3.365-3.019 4.545-4.032 3.636-3.878 8.811-4.838 13.392-.572 2.734 1.407 5.908 1.363 8.869-.095 5.996 3.658 10.79 4.545 16.383.901 5.644 3.012 10.753 5.754 15.687 3.819 6.875 10.064 11.119 16.609 14.836 5.637 3.203 12.226 3.995 18.281 6.186.454.162.945.338 1.414.33 13.128-.161 26.241 2.896 39.325.645 5.211-.894 10.328-1.363 15.568-1.392 14.338-.066 25.728 5.497 33.872 17.416 1.825 2.668 2.052 5.879 3.019 8.804 3.555 10.687 1.364 21.557 1.972 32.318.161 2.859-.132 5.967-1.73 8.1-2.536 3.394-1.957 6.428-1.048 10.057 1.1 4.376.982 8.972-.168 13.385-1.247 4.786-1.342 9.529 1.136 13.832 3.943 6.839 6.655 14.367 11.764 20.561 4.266 5.167 8.906 9.895 14.066 14.183 3.907 3.248 5.402 7.572 5.321 12.667-.168 10.489-.044 20.993-.161 31.483-.029 2.756.609 5.285 1.495 7.836 1.012 2.88 2.852 3.32 5.469 2.213 6.677-2.822 11.199-8.063 15.253-13.751 1.759-2.47 3.115-5.234 4.742-7.807 2.382-3.775 2.316-7.41.154-11.354-1.95-3.548-4.39-6.751-4.493-11.347-.264-11.31 5.622-18.472 14.579-23.948 5.71-3.489 11.72-6.545 17.093-10.482 5.512-4.039 9.705-9.573 13.223-15.422 1.957-3.255.14-6.781-1.121-9.786-2.492-5.923-2.031-11.963-1.518-18.003.345-4.039 2.478-7.323 6.033-9.536 12.233-7.631 31.929-10.878 45.328-1.496 4.889 3.424 8.766 7.521 9.558 13.994.674 5.549 4.522 9.844 6.919 14.726 5.967 12.183 10.899 24.622 11.786 38.454.411 6.45 4.779 11.185 10.064 14.499 9.331 5.849 19.542 7.242 30.177 4.31 11.281-3.108 22.774-5.065 34.34-6.649 2.214-.3 4.274-1.011 6.223-2.023 5.578-2.902 11.604-4.383 17.731-5.373 13.209-2.133 20.656-16.617 15.305-28.851-3.13-7.147-8.1-13.312-10.401-20.854-.396-1.305-1.591-2.463-2.632-3.46-3.958-3.804-5.402-8.642-5.585-13.869-.198-5.703-.139-11.266 2.478-16.771 3.467-7.293 9.462-9.874 16.682-10.519 5.828-.52 11.691-.154 17.409 1.371 6.853 1.825 10.833 6.942 14.652 12.447 5.006 7.22 8.385 15.327 13.025 22.752 2.492 3.995 3.98 8.598 6.465 12.681 4.97 8.166 11.977 13.502 21.249 15.709 6.663 1.583 12.6 4.449 17.614 9.119 2.514 2.345 5.424 4.119 8.29 5.952 5.461 3.481 10.364 7.733 15.202 11.948 4.053 3.533 8.583 3.951 13.384 4.581 5.395.711 9.368-.55 11.596-6.003.85-2.082 2.485-3.915 4.024-5.623 4.244-4.72 5.373-10.482 5.6-16.485.432-11.501 10.068-21.712 21.468-20.781 9.47.777 16.46-3.269 23.88-7.785 4.31-2.616 7.39-5.966 10.41-9.888 7.44-9.646 12.6-20.532 17.58-31.453 3.85-8.445 4.56-17.864 6.37-26.917.41-2.052.68-4.229 1.73-5.922 2.43-3.959.69-6.773-2.17-9.156-5.27-4.398-9.58-9.654-14.1-14.763-2.86-3.24-5.25-6.714-7.31-10.452-5.61-10.248-12.25-19.902-17.07-30.611-3.91-8.672-1.41-18.091 5.79-24.307 6.42-5.541 13.09-10.812 18.8-17.262 4.7-5.314 10.66-9.573 16.33-13.949 9.72-7.492 13.19-21.382 7.25-32.004-2.93-5.219-7.22-9.507-12.41-12.644-7.5-4.545-14.71-9.456-21.77-14.697-7.74-5.747-16.66-8.892-26.5-9.339-14.74-.674-29.194 1.107-43.385 4.794-8.07 2.097-15.158 6.392-21.931 11.296-4.544 3.284-7.286 7.389-9.433 12.534-2.514 6.033-6.634 11.377-9.404 17.322-5.615 12.065-13.641 22.716-19.63 34.561-3.093 6.121-8.106 10.944-13.083 15.621-7.997 7.52-16.375 14.689-25.941 20.07-10.606 5.974-21.952 8.884-33.797 3.32-8.129-3.819-12.542-10.709-14.088-19.3-3.995-22.196 1.869-41.555 17.782-57.556 7.821-7.873 16.316-15.056 26.673-19.557 2.8-1.217 4.449-3.658 5.556-6.077 1.701-3.716 3.863-7.227 4.603-11.457 1.364-7.784 6.964-12.036 13.971-14.565 2.463-.887 3.687-2.419 4.581-4.728 3.306-8.503 6.025-17.467 12.402-24.255 12.673-13.487 27.296-23.581 46.838-23.471 10.738.066 21.271-2.075 31.936-2.727 8.99-.55 17.85-2.177 26.79-3.079 2.47-.249 4.68-1.238 7.1-1.634 9.33-1.525 18.44.234 27.55 1.678 4.32.682 7.52 3.812 10.91 6.407 8.92 6.832 18 13.341 29.01 16.61 2.93.872 5.22.608 7.94-.748 6.5-3.232 11.6-8.451 17.82-12.043 9.13-5.27 18.37-9.265 29.36-9.947 10.87-.674 21.56-.462 32.33.41 4.57.367 7.78-1.48 10.53-5.182 4.8-6.45 9.52-12.923 13.28-20.114 1.32.755.75 1.847.76 2.69.05 7.323-.49 14.697.19 21.954.59 6.37-2.36 10.541-7.07 13.231-4.83 2.756-7.51 6.37-9.67 11.391-4.85 11.288-13.46 19.183-24.6 24.358-4.31 2.001-8.51 4.215-12.52 6.817-5.09 3.291-8.89 7.792-11.39 13.048-3.99 8.371-6.99 17.145-5.92 26.725.19 1.716.79 3.24 1.86 4.67 4.27 5.71 10 9.587 16.29 12.549 11.28 5.307 21.96 11.633 32.63 18.01 5.96 3.555 12.16 6.707 17.85 10.724 1.29.916 2.47 1.693 2.44 3.687-.14 7.183-.06 14.374-.06 21.631-1.63.029-2.2-1.231-2.94-2.052-6.62-7.404-15.17-12.051-23.5-17.175-14.97-9.214-31.19-16.221-45.91-25.736-7.4-4.786-13.76-11.765-15.84-20.788-1.47-6.341-1.35-13.268.02-19.638 2.65-12.204 7.1-23.786 15.91-33.161 5.78-6.157 12.84-10.533 20.44-13.861 6.08-2.668 11.12-6.466 15.59-11.179.66-.689 1.08-1.612 1.59-2.441 1.45-2.309.63-3.416-1.92-3.423-4.89-.022-9.87-.586-14.62.213-4.44.747-8.99-.074-13.36 1.561-8.68 3.247-15.97 8.606-23.48 13.847-6.79 4.75-14.01 10.071-23.1 8.305-8.64-1.679-16.9-4.824-24.38-9.581-6.27-3.987-12.56-7.953-18.14-12.923-2.01-1.796-4.59-1.884-7.13-2.338-7.18-1.29-14.09-.821-21.3.484-9.04 1.642-18.21 2.917-27.46 3.496-8.461.528-16.891 1.708-25.342 2.566-1.693.168-3.416.315-5.109.22-13.296-.741-24.181 4.2-34.201 12.827-6.619 5.703-9.587 13.026-12.644 20.517-2.47 6.048-4.852 11.97-10.723 15.65-5.674 3.555-7.579 5.864-10.387 11.721-1.73 3.621-3.357 7.323-5.453 10.731-3.372 5.483-8.034 9.412-13.89 12.498-14.088 7.433-25.779 17.468-31.555 33.03-3.079 8.283-3.02 16.727-1.275 25.171 1.07 5.19 5.753 7.257 11.845 6.304 7.058-1.107 12.629-5.014 17.987-9.199 7.469-5.842 14.828-11.809 21.007-19.139 4.244-5.028 6.392-11.178 9.932-16.537 7.447-11.288 12.967-23.669 20.084-35.133 1.942-3.13 2.624-6.78 4.383-10.035 4.581-8.474 12.519-13.128 20.135-18.054 13.465-8.701 28.872-11.479 44.406-13.143 14.42-1.547 28.96-2.294 43 2.859 7.35 2.705 14.16 6.289 20.31 11.347 4.67 3.848 9.93 7.059 15.15 10.167 14.22 8.466 23.84 20.158 26.69 36.812.78 4.544.38 9.206-1.26 13.289-3.41 8.481-7.47 16.749-14.33 23.134-3.02 2.815-6.4 5.248-9.46 8.019-8.74 7.917-17.37 15.943-26.11 23.86-2.07 1.869-2.72 3.562-1.19 6.26 8.29 14.711 15.51 30.126 27.38 42.507 3.78 3.944 8.27 7.191 11.51 11.684.91 1.261 2.36 1.034 3.71 1.063 4.75.088 9.58-.337 14.23.418 7.24 1.173 12.47 5.842 16.6 11.691 1.84 2.617 4.09 4.714 6.47 6.854 20.21 18.216 23.09 49.442-.8 67.078-8.02 5.923-15.97 11.934-23.97 17.871-1.4 1.034-2.65 2.155-3.4 3.746-4.91 10.328-9.2 20.81-10.76 32.326-1.1 8.121-2.04 16.353-6.88 23.573-6.94 10.343-10.65 11.377-22.4 9.405-6.17-1.034-11.48-4.068-16.15-8.1-1.94-1.679-2.74-1.708-4.39.586-4.27 5.945-3.56 10.321 3.21 13.92 4 2.126 7.2 5.388 10.79 8.107 7.28 5.52 15.51 9.64 22.66 15.364 4.65 3.717 7.27 8.298 7.4 14.382.31 14.455-4.63 26.63-15.23 36.526-3.1 2.896-3.69 7.294-1.41 10.929 7.06 11.23 24.82 16.86 36.55 5.029 1.98-1.994 3.38-4.53 4.36-7.132 3.9-10.343 7.42-20.921 9-31.806 1.16-7.953.27-16.265-2.38-24.094-2.82-8.32-5.3-16.661-5.38-25.575-.03-3.855-1.54-7.564-1.4-11.545.3-8.583 1.48-16.991 4.55-25.003 3.19-8.305 9.8-13.15 17.48-17.248 7.39-3.943 15.3-6.985 22.14-11.94 5.5-3.988 8.55-9.427 9.36-16.141.59-4.838 2.19-9.522 2.78-14.287 1.8-14.711 2.44-29.335-4.87-43.167-3.55-6.707-4.34-14.228-5.47-21.763-1.39-9.243-4-18.384-10.9-25.787-9.91-10.629-21.88-18.524-33.43-27.034-3.23-2.382-6.5-4.698-9.74-7.073-9.58-7.015-6.65-25.781 3.34-32.114 7.97-5.043 16.08-4.948 24.55-2.946 5.93 1.4 11.51 4.17 17.37 5.592 12.21 2.962 23.17 8.811 34.57 13.649 9 3.819 15.91 9.786 19.54 19.117.52 1.356 1.02 2.874 1.98 3.9 4.76 5.05 5.3 11.105 5.04 17.643-.32 7.917-.08 15.855-.08 24.175-7.76-5.014-12.57-11.779-14.46-20.422-.86-3.885-1.9-7.484-4.5-10.592-1.89-2.257-3.13-4.962-4.18-7.689-1.77-4.611-4.96-7.601-9.47-9.5a340.492 340.492 0 0 1-16-7.198c-4.09-1.957-8.18-3.643-12.67-4.552-7.42-1.495-14.09-5.38-21.48-7.14-2.56-.608-5.08-.696-7.6-.454-1.83.176-3.51 1.085-4.04 3.189-.52 2.133.94 2.976 2.38 4.009 12.49 8.899 25.29 17.439 36.54 27.913 8.36 7.792 14.95 16.838 17.84 28.346 1.77 7.081 3.52 14.052 4.13 21.389.33 3.849 2.34 7.675 4.09 11.267 3.04 6.194 5.46 12.585 5.73 19.468.45 11.384 1.69 22.841-1.46 34.093-1.02 3.636-1.51 7.359-2.09 11.09-1.86 12.124-7.85 21.676-18.25 28.522-8.28 5.439-17.61 8.862-25.96 14.169-3.01 1.913-5.03 4.178-6.09 7.367-2.71 8.188-3.46 16.419-2.06 25.105 1.04 6.466 1.04 13.187 3.53 19.279 4.31 10.526 4.58 21.543 4.98 32.597.13 3.35-.57 6.597-1.48 9.705-3.71 12.534-5.58 25.729-12.81 37.032-7.04 11.017-17.14 16.866-30.24 17.614-12.7.726-23.42-3.782-32.45-12.417-4.54-4.34-8.16-9.434-9.14-15.877-.31-2.023-1.27-2.888-3.23-3.284-9.97-2.001-17.7-7.36-22.92-16.075-4.78-8.005-11.45-14.521-17.02-21.895-3.55-4.706-9.5-4.758-14.614-5.806-9.536-1.957-19.152-.828-28.659.895-7.74 1.407-15.078.381-21.74-3.885-9.075-5.821-17.204-12.513-23.06-21.94-4.486-7.22-10.621-13.311-17.137-18.823-2.514-2.126-5.673-3.211-9.097-3.35-2.25-.088-3.569.528-3.247 3.057.059.483-.073.989.03 1.458 3.034 14.543 2.756 29.914 10.936 43.167 4.405 7.133 8.407 14.529 15.986 19.066 3.145 1.884 6.355 2.969 9.976 2.991 6.45.044 12.842.029 19.277-1.268 4.589-.931 9.331-.198 14.022 1.334 6.443 2.103 13.465 2.287 19.725 5.116 4.779 2.163 10.298 2.199 14.692 5.278 6.73 4.713 10.16 11.647 12.57 19.197 2.09 6.502 5.91 11.97 10.04 17.277 1.56 2.002 3.81 2.991 5.82 4.355 9.8 6.626 18.95 14.066 27.77 21.931 1.72 1.54 3.41 3.145 5.24 4.538 3.29 2.499 7.04 1.444 10.53.828 14.49-2.536 28.49-7.315 43.09-9.463 10.45-1.54 20.8-3.871 31.26-5.249 9.26-1.216 17.62 1.357 24.39 8.166.76.77 1.64 1.51 2.6 1.987 8.3 4.163 15.58 9.954 23.59 14.594 3.88 2.25 8.12 1.327 12.19 1.253 3.34-.066 4.55.873 4.26 4.289-.3 3.511-.14 7.073-.03 10.614.06 1.993-.6 2.609-2.68 2.844-12.94 1.458-23.97-2.698-33.7-11.003-1.1-.938-2.36-1.774-3.67-2.382-5.78-2.705-11.16-5.982-15.93-10.248-2.95-2.639-6.39-3.012-10.2-2.338-13.29 2.36-26.63 4.354-39.87 6.942-9.9 1.935-19.61 4.779-29.49 6.809-8.25 1.694-16.81 3.189-24.5-1.678-4.47-2.837-8.38-6.634-12.31-10.248-8-7.367-16.7-13.766-25.79-19.703-5.74-3.746-9.33-9.5-12.99-15.13-3.417-5.255-5.799-10.987-7.705-16.918-1.297-4.053-3.753-6.619-8.063-7.506-2.36-.483-4.662-1.407-6.875-2.382-7.213-3.181-15.166-3.335-22.635-5.563-4.141-1.239-8.576 1.165-12.937 1.576-15.598 1.488-29.898-1.672-40.673-13.554-9.045-9.976-15.789-21.653-19.563-34.774-2.06-7.139-2.991-14.462-3.944-21.844-.777-6.01-2.213-11.897-2.052-18.047.227-8.81 7.931-16.478 16.822-16.969 12.798-.703 22.634 4.398 31.181 13.7 6.787 7.382 12.424 15.665 19.065 23.039 5.431 6.033 11.691 13.018 21.249 11.486 9.448-1.517 18.925-2.646 28.352-1.766 11.598 1.084 23.608 2.455 31.728 12.409 6.67 8.196 13.91 16.002 19.37 25.135 1.43 2.405 3.46 4.076 5.83 5.381 3.41 1.891 6.31 2.785 10.13-.323 6.86-5.585 10.56-12.483 11.85-21.001.5-3.283-.82-5.314-3.51-7.234-6.75-4.809-14.3-8.43-20.6-13.862-3.98-3.43-8.53-6.047-12.69-9.214-9.72-7.41-13.47-20.59-6.49-32.157 6.2-10.255 9.56-21.572 8.9-33.755-.2-3.885-3.04-6.429-5.81-8.408-3.96-2.837-8.77-3.504-13.62-2.8-2.29.33-3.64 1.833-3.93 4.193-.53 4.215-1.04 8.437-1.6 12.652-.76 5.783-4.82 9.756-8.04 14.11-1.97 2.661-3.87 5.329-5.32 8.269-3.069 6.245-8.493 8.972-14.935 9.675-6.553.711-13.15-.102-19.688-.769-3.438-.352-6.502-2.089-9.236-4.171-9.954-7.587-19.82-15.305-29.796-22.87-2.529-1.921-5.416-3.475-8.561-4.002-12.534-2.111-21.674-9.925-29.737-18.722-3.958-4.324-5.446-10.819-8.649-15.95-3.863-6.186-6.194-13.179-10.511-19.095-.645-.887-1.474-1.73-1.818-2.734-2.873-8.298-9.558-8.664-16.705-8.166-1.187.081-2.125.462-2.741 1.496-1.085 1.817-.389 8.73.872 10.518 8.056 11.377 15.18 23.537 18.427 36.974 3.511 14.528-1.422 29.122-15.334 37.94-7.08 4.486-14.535 7.132-22.517 8.906-1.532.345-3.122.748-4.493 1.481-7.491 4.01-15.701 4.919-23.932 5.937-6.274.777-12.446 2.229-18.537 3.951-16.221 4.589-31.995 3.834-46.42-5.365-10.885-6.942-18.273-16.515-19.065-30.252-.674-11.794-5.812-22.232-11.097-32.56-2.793-5.454-6.502-10.328-7.447-16.874-.645-4.471-6.04-4.669-9.925-5.336-3.657-.631-7.249.557-10.789 1.414-5.41 1.312-6.458 3.233-4.728 8.547 1.818 5.571 3.482 11.142 3.188 17.131-.131 2.771-.725 5.292-2.242 7.594-7.565 11.515-16.111 21.924-28.895 28.221-3.43 1.693-6.831 3.738-10.042 5.937-4.551 3.115-4.94 5.065-2.602 10.042 1.532 3.27 3.482 6.253 4.31 9.984 1.869 8.452-1.517 15.195-5.666 21.954-2.807 4.566-5.776 8.986-9.199 13.135-5.922 7.169-13.274 12.176-22.114 14.829-10.958 3.284-17.034-1.209-22.854-10.225-2.976-4.611-4.2-10.05-4.127-15.709.132-10.13.015-20.26.147-30.383.029-2.448-.806-4.002-2.734-5.52-9.324-7.337-16.199-16.727-21.491-27.224-2.023-4.017-4.413-7.821-6.201-11.999-3.247-7.543-3.233-15.13-1.671-22.907 1.026-5.087.974-4.999-3.871-4.662-8.773.609-17.518-.103-26.145-1.737-3.944-.748-7.828-1.921-11.874-1.803-13.062.373-25.413-3.724-38.064-5.938-7.161-1.253-14.418-2.001-21.631-2.961-2.242-.301-2.836 1.085-3.305 2.969-1.32 5.263-2.163 10.445-.037 15.73 1.202 2.991 1.129 6.319 1.048 9.39-.337 12.197 4.449 24.123 2.463 36.233-1.664 10.174-2.199 20.297-2.104 30.537.03 3.181.726 5.864 2.273 8.862 8.15 15.833 5.644 27.576-7.47 38.681-5.086 4.31-10.195 8.672-16.44 11.413-13.524 5.938-26.483 4.787-39.12-2.639-10.115-5.937-20.574-7.264-31.804-2.8-12.116 4.816-24.467 6.004-37.001.865-3.188-1.305-6.89-1.348-10.357-1.964-6.193-1.107-12.021-3.203-17.13-6.92-1.905-1.385-3.848-1.935-6.135-1.825-12.607.586-24.115-2.727-34.486-9.896-2.581-1.788-5.432-1.356-8.151-1.143-10.284.813-20.59 1.305-30.756 3.518-10.284 2.243-17.863 7.895-23.536 16.493-.535.814-.975 1.723-1.627 2.426-9.749 10.563-.096 26.059 12.526 26.865 4.948.315 9.954.235 14.902 1.107 7.784 1.371 14.506-2.551 21.396-5.138 13.208-4.97 26.548-8.767 40.9-8.056 7.491.374 14.139 2.419 19.519 7.74 4.105 4.069 5.586 9.544 6.231 14.895 1.202 10.028 1.4 20.165-.184 30.208-.454 2.88-1.597 5.622-2.983 8.224-1.129 2.126-.872 3.9 1.026 5.512 10.277 8.738 10.196 19.396 5.688 30.89-2.851 7.271-5.05 14.696-5.285 22.606-.087 3.042 1.276 5.145 3.68 6.692 8.356 5.388 23.294 4.992 31.313-.696 1.833-1.298 3.211-2.991 3.152-5.08-.198-6.854 1.217-13.568 1.459-20.363.344-9.742-2.383-19.044-5.256-28.214-2.477-7.887-4.522-15.914-7.748-23.588-2.396-5.696-.315-11.494 1.012-17.175 2.265-9.69 6.985-17.849 14.66-24.277 2.734-2.294 5.937-3.115 9.33-3.834 7-1.48 14.14-1.854 21.103-.989 10.152 1.253 21.3 10.731 16.331 25.582-2.851 8.532-4.896 17.336-9.001 25.457-1.737 3.446-2.287 6.869 1.488 10.079 3.98 3.387 4.999 8.826 7.44 13.29 3.503 6.414 8.15 12.248 10.606 19.168 5.05 14.221 4.134 28.111-2.991 41.599-5.497 10.401-11.566 20.348-20.377 28.323-5.886 5.329-12.688 9.478-19.27 13.81-7.022 4.618-9.36 14.492-8.422 21.573.11.835.506 1.283 1.327 1.488 10.276 2.565 20.509 3.093 29.327-3.761 4.339-3.371 8.546-7.212 11.881-11.75 2.83-3.848 6.011-7.323 9.756-10.321 3.006-2.404 4.23-5.944 4.772-9.595 1.92-13.011 7.198-24.475 16.001-34.187 4.009-4.421 8.143-8.445 10.13-14.433 2.683-8.115 8.253-13.671 16.946-15.584 5.007-1.107 9.595-.682 14.513 1.378 7.477 3.13 14.733 6.56 20.714 11.962 5.535 5 11.435 9.94 13.348 17.805 2.148 8.833-.755 15.863-7.652 21.331-5.673 4.501-12.072 7.667-18.933 10.064-7.132 2.485-13.062 6.466-17.423 13.114-5.116 7.814-2.236 12.769 4.317 17.123 4.464 2.969 8.605 6.341 13.04 9.324 6.369 4.288 12.93 7.99 20.128 10.827 5.951 2.345 11.405 5.959 17.107 8.95 4.677 2.455 9.646 4.339 14.953 4.097 11.735-.535 21.616 3.555 30.47 10.951 2.947 2.463 6.407 4.318 9.038 8.217-11.544-.549-22.583.924-33.549-.996a30.418 30.418 0 0 0-5.805-.455c-9.147.161-17.525-2.433-25.266-7.154-7.491-4.567-15.678-7.719-23.521-11.567-7.946-3.907-14.843-9.243-21.975-14.323-4.127-2.939-8.686-5.124-11.896-9.419-3.101-4.149-6.091-8.357-7.535-13.261-2.163-7.344 1.026-13.89 4.464-20.091 6.772-12.22 17.694-19.088 30.668-23.266 3.723-1.202 7-3.416 10.195-5.688 2.346-1.672 2.258-3.797.609-5.645-5.161-5.746-10.783-10.936-18.347-13.428a18.5 18.5 0 0 1-1.371-.513c-7.285-3.101-8.795-2.683-11.471 4.801-1.993 5.571-5.138 10.123-9.353 14.154-8.561 8.203-13.318 18.23-15.143 30.017-.982 6.333-3.364 12.674-8.591 16.984-7.007 5.776-12.277 13.143-18.559 19.586-12.922 13.253-28.432 15.841-45.701 12.989-1.32-.22-2.624-.594-3.951-.645-10.152-.41-14.528-4.332-15.195-14.33-.359-5.344-.857-10.886.125-16.075 1.898-10.043 6.494-18.758 15.444-24.652 5.893-3.877 11.742-7.857 17.313-12.175 3.745-2.903 6.721-6.766 9.338-10.702 4.105-6.172 8.371-12.476 10.357-19.63 3.255-11.692-.022-22.364-6.971-32.047-2.719-3.783-4.771-7.924-6.442-12.271-.755-1.957-1.848-3.687-3.445-5.102-5.373-4.764-6.48-10.907-5.6-17.658.601-4.633 2.096-8.979 4.2-13.15 3.041-6.026 4.163-12.718 6.428-19.022.806-2.25 0-3.694-2.778-3.797-4.413-.161-8.759.455-13.106.902-3.569.366-5.746 3.115-7.425 5.959-2.749 4.677-3.577 10.057-4.955 15.225-.234.872.169 1.649.462 2.463 5.519 15.092 10.496 30.368 13.003 46.275.902 5.725.638 11.64-.11 17.49-.535 4.214-.154 8.532-.528 12.776-1.282 14.316-10.481 21.528-23.235 25.406-11.926 3.629-23.639 2.969-34.868-2.419-13.04-6.252-19.285-18.01-15.136-33.704 1.898-7.176 3.62-14.381 6.289-21.345 1.942-5.058.96-7.294-3.379-10.673-5.271-4.097-8.32-13.216-5.014-20.268 4.332-9.228 3.863-18.684 3.848-28.272 0-.733.095-1.495-.073-2.192-1.759-7.337-1.869-9.624-10.775-9.932-11.618-.396-22.583 2.705-32.86 7.433-14.557 6.7-29.407 6.157-44.734 4.757-8.099-.74-14.337-4.706-20.398-9.001-3.863-2.734-6.385-7.279-8.43-11.743-5.585-12.168-3.306-23.31 4.054-34.056 5.358-7.828 11.383-14.873 19.534-19.85 7.535-4.603 16.088-6.018 24.562-7.828 8.51-1.818 17.196-1.305 25.749-2.617 6.685-1.027 13.326.234 19.08 4.515 6.692 4.97 14.381 7.14 22.642 6.92 7.022-.191 13.45.63 19.057 5.615 3.006 2.675 7.352 3.21 11.325 3.745 5.094.682 9.976 1.869 14.858 3.541 7.454 2.558 14.615.176 21.696-2.331 5.6-1.987 11.192-4.215 17.342-3.856 9.705.565 19.146 2.316 27.546 7.455 13.509 8.254 23.037 5.292 34.641-4.816 1.378-1.202 2.638-2.536 3.921-3.841 4.457-4.567 4.764-9.566.718-14.602-2.712-3.372-4.126-6.985-3.899-11.427.278-5.359.212-10.739.029-16.105-.242-7.352.711-14.543 2.06-21.748.667-3.555.931-7.367-.33-10.856-1.4-3.885-1.627-7.807-1.671-11.853-.081-7.418-.616-14.726-2.522-22.027-1.612-6.172-.293-12.615 1.4-18.75 1.349-4.904-.85-8.547-4.346-11.127-2.984-2.207-6.685-1.444-10.042.153-10.321 4.904-20.304 10.505-31.32 13.964-4.75 1.488-9.588 2.045-14.338 2.273-10.584.513-21.022 2.602-31.657 2.441-4.537-.066-7.733-1.958-10.599-5.381-3.79-4.53-6.546-9.653-9.434-14.719-4.984-8.744-2.785-18.288 3.445-27.158 7.198-10.233 18.391-12.087 28.521-16.317 4.339-1.81 9.001-2.998 13.758-3.54 2.316-.264 4.64-.572 6.868.235 4.933 1.788 9.697.52 14.278-1.034 5.19-1.767 5.432-3.966 5.527-11.054.117-8.884-10.665-22.525-18.574-24.827-5.995-1.752-10.401.088-14.967 3.159-4.889 3.284-8.913 7.536-13.172 11.538-6.333 5.952-14.271 8.693-22.517 10.724-2.36.579-4.713 1.209-7.029 1.95-4.823 1.554-8.239 4.508-9.58 9.617-2.749 10.475-5.806 20.869-8.334 31.395-2.353 9.771-8.159 17.072-15.635 23.214-5.028 4.127-11.163 4.648-17.357 3.929-3.306-.381-6.04-2.331-7.682-5.145-4.962-8.54-8.348-17.373-6.611-27.723 1.077-6.429 2.301-12.93 1.898-19.586-.139-2.375-.865-4.01-2.844-5.058-4.515-2.39-8.737-5.351-13.736-6.81-1.598-.469-3.181-1.319-4.515-2.323a818.219 818.219 0 0 0-13.216-9.764c-5.563-4.024-8.576-10.204-12.072-15.906-.953-1.554-1.634-3.27-2.426-4.919-2.969-6.209-7.132-10.079-14.74-10.291-17.204-.492-32.471-7.133-46.332-16.874-6.729-4.728-13.179-10.006-17.123-17.666-2.529-4.911-6.582-8.723-10.371-12.674-1.847-1.928-3.189-2.169-4.054 1.041-1.561 5.784-2.081 11.706-3.042 17.578-1.4 8.539-.315 17.035.213 25.494.689 10.966 4.845 20.854 15.554 25.252 7.264 2.984 15.268 5.102 23.507 4.002 8.825-1.18 17.65-1.949 26.541-.527 2.47.396 4.625 1.488 6.883 2.353 2.499.96 4.881 2.455 7.461 2.939 7.433 1.407 12.945 5.82 18.244 10.739 2.712 2.521 5.314 5.138 6.304 8.796 2.536 9.368 8.18 17.402 11.222 26.55 1.158 3.481 2.06 6.971 2.118 10.694.044 2.793.748 5.534 1.723 8.181 1.319 3.569 2.301 7.257 1.869 11.083-.543 4.801 1.524 8.715 4.442 11.985 3.203 3.591 7.022 6.597 10.862 9.609 5.175 4.061 10.504 4.017 16.339 4.215 13.516.455 27.017-.469 40.526-.22 8.613.154 15.056 3.145 19.527 10.973 5.622 9.838 14.682 12.476 25.171 8.254 4.522-1.825 9.045-3.592 13.853-4.603 2.001-.425 4.149-1.019 5.769-2.17 4.009-2.859 8.429-4.266 13.222-4.794 5.073-.557 10.152-1.048 15.217-1.7 10.9-1.415 24.995 7.257 27.516 19.725 1.913 9.456 3.233 18.787.821 28.126-2.125 8.217-6.355 15.686-12.666 21.382-5.182 4.669-12.218 5.153-18.962 5.409-5.615.213-11.185.499-16.521 2.493-1.019.381-2.119.799-3.181.791-11.208-.022-22.327 1.664-33.505 1.657-2.675 0-5.365-1.495-8.034-2.338-9.58-3.035-19.556-4.831-29.436-4.494-11.772.403-23.214-1.664-34.802-2.499-8.495-.609-12.805-5.139-15.019-13.576-.645-2.448-.484-5.417-2.258-7.213-2.331-2.353-4.573.873-7 1.012-6.369.374-11.808 3.599-17.474 6.099-5.16 2.279-10.401 4.28-16.199 2.741-1.165-.308-2.551-.572-3.342-1.349-4.391-4.339-9.47-1.334-14.235-1.524-.784-.03-1.341.63-1.458 1.414-1.459 9.5-7.535 16.772-11.948 24.849-6.384 11.677-13.67 22.739-22.517 32.722-.968 1.092-1.789 2.346-2.866 3.306-7.191 6.414-9.045 14.998-9.719 23.992-.279 3.753 1.825 6.553 4.31 9.302 8.121 8.972 13.757 19.468 17.144 31.021 1.436 4.903-.117 10.254.682 15.29.769 4.853.153 9.412-.939 14.067-2.873 12.27-10.848 19.762-22.356 23.83-4.119 1.459-8.414 2.309-12.863 2.456-5.615.183-9.405-2.463-11.589-7.287-3.1-6.868-5.226-14.132-8.818-20.832-3.056-5.703-7.066-10.504-11.757-14.807-2.851-2.616-7.916-3.313-11.244-1.216-6.59 4.148-13.135 8.4-19.402 13.011-4.647 3.423-4.163 8.986-.212 13.289 5.754 6.26 11.266 12.813 15.487 20.253 1.745 3.079 4.047 5.476 6.832 7.448 4.17 2.954 8.356 5.915 12.761 8.481 4.068 2.367 6.898 5.783 9.353 9.558 4.581 7.037 9.58 14.118 11.134 22.408 2.133 11.318 1.818 22.599-2.881 33.675-3.481 8.21-4.705 16.954-1.729 25.978 3.62 10.988 3.665 21.983-1.554 32.707-.851 1.744-1.737 2.353-3.548 2.324-4.515-.081-9.038-.132-13.546.022-2.426.08-3.137-.602-2.103-2.874.601-1.327.945-2.793 1.642-4.061 4.361-7.894 4.273-16.045 1.649-24.409-3.995-12.725-1.81-25.076 2.683-37.149 3.76-10.086 4.522-19.843-1.466-29.372-1.745-2.778-2.72-5.937-4.56-8.723-3.606-5.461-9.558-7.843-14.55-11.376-6.984-4.941-12.628-10.629-17.195-18.018-3.687-5.966-7.747-12.138-13.86-16.317-1.4-.96-2.42-2.367-3.255-3.899-5.688-10.387-3.24-25.033 5.915-32.531 7.821-6.407 16.507-11.619 25.054-17.028 7.806-4.941 24.672-1.32 30.63 4.149 9.962 9.14 16.574 20.311 21.426 32.714.696 1.789.931 4.787 2.426 4.985 2.646.351 5.453-.733 7.799-2.485 7.176-5.351 7.388-12.879 6.604-20.737-.088-.843-.396-1.694-.352-2.522.726-12.593-6.091-21.807-13.604-30.779-6.084-7.257-9.47-15.247-7.894-25.179 1.583-10.02 3.474-19.755 10.709-27.393 6.135-6.472 11.83-13.355 16.741-20.707 6.465-9.683 11.992-19.997 18.156-30.45-4.222-.366-7.894-.806-11.581-.975-3.724-.168-7.3-.887-10.511-2.719-2.257-1.29-3.064-.418-4.185 1.488-6.245 10.629-9.822 22.034-12.116 34.166-2.251 11.918-9.309 20.759-21.645 24.218-3.152.887-4.244 3.167-4.376 6.011-.704 15.042-9.075 26-19.578 35.434-5.872 5.27-13.157 6.978-21.462 5.739-7.169-1.07-14.608-.447-21.93-.366-2.786.029-3.842 2.448-3.68 4.64.791 10.775-3.658 19.931-9.427 28.258-5.966 8.62-14.498 14.22-25.09 16.126v-19.037c5.395-1.253 9.295-4.434 11.919-9.257 2.99-5.498 4.933-11.091 5.08-17.622.197-9.002 5.878-18.934 16.132-20.209 1.906-.235 3.093-1.151 2.815-3.401-.117-.909.271-1.906.52-2.83 1.899-6.941 1.056-13.465-2.939-19.52-.63-.953-1.415-1.671-2.61-1.796-4.94-.52-9.777-1.774-14.828-1.554-5.35.227-10.723.044-16.081.037v-17.578c11.896.308 23.924-1.011 35.593 2.324 2.954.843 4.325-.315 5.556-2.536 1.298-2.339 2.412-4.816 3.959-6.979 4.647-6.494 4.954-10.878.77-17.702-2.368-3.863-4.15-7.99-5.77-12.19-1.73-4.501-1.48-8.943 1.503-12.798 3.863-5 8.04-9.735 12.783-13.964 5.93-5.285 9.844-11.589 9.31-19.946-.162-2.558-1.122-3.87-3.944-3.166-10.277 2.565-19.542 7.227-28.271 13.172-5.879 4.002-10.665 9.258-16.31 13.458-4.639 3.453-9.205 7.228-15.18 8.342v-19.769c2.339-.587 4.054-2.141 5.667-3.79 3.254-3.313 6.86-6.201 10.51-9.053 12.85-10.028 26.952-17.563 43.137-20.348 9.873-1.701 17.525 1.913 20.494 11.853 1.466 4.918 1.825 9.844 1.4 14.814-.52 6.04-1.693 11.669-5.615 16.962-4.632 6.245-10.218 11.449-15.532 16.954-2.213 2.295-2.477 4.112-.938 6.7 2.052 3.445 4.141 6.868 5.417 10.739 2.726 8.268 3.701 16.639-.858 24.394-2.69 4.567-5.453 9.214-8.627 13.436-2.785 3.695-3.335 6.429-1.532 10.856 2.72 6.649 1.415 13.92.96 20.957-.073 1.144-.857 3.13.601 3.13 4.897.007 10.335 2.192 14.594-1.136 7.806-6.091 13.084-13.993 13.795-24.241.681-9.881 7.308-18.201 16.756-20.554 3.481-.864 5.63-3.173 7.52-5.952 1.847-2.712 2.448-5.849 2.822-8.972 1.789-14.924 8.459-27.861 16.448-40.198 1.62-2.5 1.847-4.164.037-6.363-4.94-6.01-4.009-12.996-1.166-18.97 5.835-12.249 16.053-18.435 29.914-18.303 4.544.044 8.854 1.59 13.391 1.524 9.228-.132 16.756 4.303 23.294 9.999 5.021 4.368 8.796 9.983 9.888 17.057.513 3.306 2.016 6.524 3.475 9.588.872 1.84 2.206 4.207 4.962 2.873 8.334-4.039 17.005-7 25.896-9.617 9.631-2.829 20.436 1.583 24.408 10.827 1.115 2.602 1.76 5.314 2.573 7.989.403 1.32.799 2.478 2.588 2.551 10.445.425 20.765 2.361 31.283 2.17 9.251-.169 18.398 1.385 27.429 3.438 5.651 1.283 11.031 4.325 17.085 3.086 5.813-1.188 11.662-.638 17.504-.726 2.47-.037 4.933-.3 7.183-1.121 5.124-1.877 10.372-2.595 15.767-2.529 3.555.044 7.014-.616 10.481-1.224 1.063-.184 2.111-.323 2.778-1.459 3.519-5.989 7.228-11.758 6.502-19.322-.337-3.548-1.158-6.942-1.723-10.409-.725-4.398-3.379-6.766-7.85-6.399-8.261.681-16.411.901-24.342 4.882-8.283 4.156-17.54 6.457-26.505 9.126-4.933 1.473-10.218 1.172-15.231.175-10.511-2.096-17.65-9.221-24.13-17.137-.96-1.173-1.341-2.874-3.364-2.976-2.668-.132-5.285-.792-7.99-.645-14.374.777-28.762.769-43.151.711-4.691-.022-8.847-1.386-12.512-4.318-1.422-1.136-2.844-2.382-4.471-3.13-6.428-2.983-10.958-8.232-15.246-13.443-3.738-4.552-7.762-9.845-7.52-15.936.374-9.5-4.376-17.944-4.413-27.246-.007-2.463-1.151-4.684-1.986-6.986-2.009-5.519-5.923-10.159-7.477-15.84-1.385-5.08-3.731-9.185-8.128-12.41-3.006-2.206-6.553-2.492-9.617-4.185-8.576-4.728-17.753-5.11-27.245-4.003-15.73 1.825-30.485-.264-44.258-9.228-12.438-8.1-17.122-19.975-18.515-33.506-1.129-10.981-1.612-22.079-.249-33.184 1.019-8.254 2.346-16.39 5.41-24.123 4.742-11.978 15.839-15.518 26.292-7.939 7.52 5.454 14.088 12.19 18.551 20.429 3.247 5.982 8.232 10.02 13.509 13.561 11.816 7.931 24.914 12.403 39.281 13.209 5.695.322 11.515 1.349 15.884 5.6 4.654 4.53 8.641 9.654 11.17 15.679 4.596 10.959 13.245 17.93 23.397 22.944 7.352 3.628 14.579 7.315 21.154 12.204 3.665 2.727 5.505 6.399 5.563 10.981.103 8.048-.374 16.001-1.803 23.984-.784 4.354-1.576 9.148 1.173 13.487 1.085 1.716 1.715 1.928 3.218.491 4.009-3.833 6.406-8.459 7.762-13.802 2.419-9.551 5.219-19.007 7.542-28.58 3.636-14.954 14.198-21.888 28.198-25.194 5.439-1.283 11.222-2.258 15.459-6.172 5.189-4.794 10.218-9.734 16.074-13.751 6.648-4.56 13.685-8.584 21.982-7.455 19.673 2.675 31.24 15.261 37.741 32.986 3.424 9.338 3.306 19.043-1.861 27.883-7.008 11.985-21.792 14.771-34.861 13.173-2.719-.338-5.27-.374-7.924.329-6.743 1.782-13.032 4.758-19.548 7.125-3.65 1.327-5.102 4.288-7.374 6.693-3.357 3.562-.682 6.414 1.144 9.397.82 1.349 1.282 2.932 2.191 4.215 1.407 1.986 2.807 3.32 5.959 2.946 6.018-.718 12.021-1.81 18.149-1.81 12.058 0 23.089-3.694 33.746-9.221 6.539-3.387 12.82-7.785 20.399-8.628 7.294-.814 14.572-1.385 20.451 4.831 2.118 2.235 5.152 3.599 6.868 6.414.652 1.062 1.825 1.619 3.159 1.532 2.946-.206 5.849.205 8.708.776 8.092 1.613 16.345 1.877 24.459 3.776 10.709 2.514 21.469 5.548 32.699 4.977 3.95-.198 7.747.718 11.522 1.678 6.546 1.672 13.26 1.803 19.915 1.884 6.817.081 10.504-4.112 10.526-10.892.022-4.758.33-9.537 0-14.272-.352-4.941-1.041-10.116-4.024-14.14-4.42-5.974-17.936-9.595-25.054-7.074-3.525 1.247-7.051 1.642-10.73 1.752-10.006.301-19.938-.733-29.899-1.187-15.891-.719-30.367-4.897-43.253-14.265-9.741-7.081-16.807-16.229-20.362-27.788-1.818-5.916-3.035-12.007-5.74-17.644-.74-1.546-.733-3.291-.857-5.006-.191-2.661-.213-5.454-1.092-7.917-2.822-7.938-.799-15.811 1.942-22.76 2.829-7.183 8.261-13.399 12.879-19.806 1.81-2.514 3.943-4.867 6.435-6.927 5.996-4.955 13.238-7.748 19.673-11.882 11.728-7.543 25.098-10.526 38.225-14.081 9.185-2.485 18.772-2.397 28.206-3.343 16.888-1.7 32.698-8.393 49.234-11.882 7.85-1.656 15.649-1.788 22.825 1.862 9.932 5.051 17.416 13.231 24.592 21.514 5.167 5.967 9.096 12.945 15.063 18.318 4.859 4.376 10.928 5.571 16.873 7.147 1.099.293 2.477.066 3.599-.301 7.975-2.602 13.384-8.158 17.335-15.327 1.033-1.869 1.099-4.002-.169-5.564-4.046-4.977-7.769-10.247-13.809-13.289-4.024-2.03-8.415-3.064-12.292-5.542-11.244-7.183-18.574-17.372-23.69-29.401-.645-1.51-1.004-2.565-3.071-1.612-7.052 3.24-14.594 2.199-21.99 2.081-2.016-.029-4.061-.938-5.622-2.411-5.864-5.52-10.584-11.992-15.231-18.516-.132-.191-.176-.455-.242-.689-2.236-8.019-6.172-15.371-9.009-23.141-1.693-4.633-3.98-8.547-7.674-11.729-4.031-3.481-6.23-8.033-7.476-13.128-.286-1.18-.55-2.419-1.129-3.467-7.205-13.055-10.79-27.4-14.411-41.657-2.015-7.96-3.752-16.42 2.141-23.794 4.962-6.208 12.043-9.866 19.482-10.387 9.705-.674 19.373-1.744 29.071-2.44 1.077-.081 2.367.205 2.924-1.02 2.25-4.932 3.335-10.166.946-15.18-1.825-3.826-6.172-4.618-9.94-4.94-3.782-.323-7.52-.667-11.134-1.767-7.359-2.243-15.004-1.561-22.465-1.825-5.505-.19-11.178.425-16.771.476-5.351.044-9.785 1.862-13.348 5.725-6.597 7.161-12.153 14.931-13.553 24.93-.476 3.372-1.084 6.729-1.37 10.108-.807 9.683-2.778 19.146 4.625 28.016 7.278 8.723 13.303 18.552 19.842 27.913 7.718 11.061 16.697 21.243 22.942 33.323 3.35 6.479 8.239 12.116 10.482 19.205 2.001 6.318 3.994 12.783.791 19.124-5.27 10.438-12.263 19.637-21.711 26.711-4.969 3.716-10.437 5.849-16.946 5.769-8.774-.11-17.504-1.371-26.292-.902-1.371.073-2.61-.432-3.885-.902-4.559-1.693-9.067-4.39-13.736-4.727-11.361-.807-22.605.513-33.065 5.732a70.304 70.304 0 0 1-8.752 3.679c-8.81 2.998-15.29 8.518-18.566 17.3-2.976 7.982-6.546 15.745-9.309 23.778-4.178 12.139-12.717 18.963-24.856 21.075-9.565 1.664-18.603 4.742-27.64 7.997-3.174 1.143-6.715 1.935-8.804 4.889-4.603 6.509-11.119 10.841-17.217 15.672-7.469 5.908-15.107 11.706-24.02 15.158-8.268 3.204-16.844 5.659-25.618 7.213-8.231 1.459-16.411 2.221-24.203-2.125-8.143-4.538-14.872-10.974-22.407-16.325-5.593-3.973-9.676-9.184-12.395-15.51-.564-1.32-1.525-2.5-2.448-3.621-8.349-10.131-9.896-21.939-4.801-33.279 4.735-10.533 6.516-21.573 9.463-32.429 2.111-7.777 5.9-14.374 12.299-19.388 2.866-2.25 6.384-4.053 8.429-6.905 6.524-9.096 13.487-17.731 21.462-25.611 4.31-4.259 4.061-5.725.762-10.761-4.515-6.883-10.782-12.204-16.235-18.23-7.125-7.872-10.519-16.595-8.305-27.063 4.596-21.755 26.27-25.611 41.186-16.94 5.784 3.365 10.988 8.042 14.975 13.722 2.031 2.888 4.127 5.659 7.191 7.668 9.814 6.436 20.721 6.304 31.76 5.541.352-.022.682-.249 1.026-.381 5.901-2.294 12.864-13.839 12.219-20.15-.139-1.342-.491-2.353-1.906-2.756-4.332-1.217-8.59-2.947-13.003-3.541-4.757-.645-8.488-2.536-11.816-5.835-5.13-5.08-11.867-8.056-17.283-12.798-.682-.594-1.774-.858-2.712-.997-4.926-.711-9.786-1.803-14.843-1.671-9.368.242-18.699.352-28.073 1.114-12.183.99-24.739 1.928-35.924-5.204-.704-.448-1.649-.492-2.389-.902-5.476-3.05-11.714-5.043-15.1-11.003-2.69-4.75-5.226-9.617-8.29-14.125-5.585-8.195-8.678-16.566-4.061-26.3 1.012-2.133 2.771-4.985.814-6.766-1.789-1.627-4.933-.96-7.315.088-9.419 4.127-18.809 8.657-25.545 16.58-8.935 10.512-12.717 16.589-4.566 30.127 4.991 8.29 10.445 16.076 20.281 19.66 4.391 1.605 8.408 4.413 12.358 7.037 7.558 5.021 11.919 12.842 16.295 20.348 5.431 9.302 6.926 20.18 10.43 30.274 2.639 7.594 1.803 15.913 4.955 23.478 1.363 3.277 3.877 5.967 4.588 9.493 2.192 10.936.917 21.374-5.182 30.881-4.867 7.587-9.58 15.24-14.044 23.083-5.915 10.416-13.45 19.476-25.141 23.984-12.395 4.779-18.383 3.365-26.805-6.626a428.167 428.167 0 0 1-10.335-12.703c-1.232-1.576-2.786-2.617-4.728-3.262-8.891-2.954-18.236-4.149-27.142-7.096-3.885-1.283-8.063-1.957-12.16-2.294-10.006-.814-19.828 7.235-23.046 18.179-2.983 10.152-6.164 20.245-9.411 30.317-2.543 7.894-3.262 15.562 1.473 22.98 1.173 1.84 2.023 3.9 2.962 5.879 3.738 7.887 6.655 15.921 5.673 24.937-.484 4.471-1.7 8.488-4.347 12.19-6.413 8.994-15.759 14.374-24.694 20.253-1.26.828-2.961 1.092-4.508 1.378-7.916 1.481-15.993 1.246-23.954 2.206-6.245.755-11.94-2.25-18.046-2.184v-17.578c1.95 0 4.024-.447 5.835.066 8.935 2.515 17.914.983 26.878.66 2.434-.088 5.08-.088 7.037-1.488 5.138-3.665 10.555-6.905 14.99-11.604 3.57-3.782 3.936-7.828 2.492-12.102-2.104-6.223-4.193-12.651-7.99-18.002-6.472-9.119-4.134-19.051-2.235-28.192 2.602-12.564 7.425-24.688 11.507-36.929 4.09-12.278 11.523-21.558 24.167-26.008 5.886-2.074 11.574-3.848 18.105-2.822 12.768 2.009 24.98 6.194 37.594 8.789 5.542 1.136 11.215 3.064 15.078 7.689 4.2 5.036 9.257 9.361 12.534 15.181 1.224 2.185 3.115 2.654 5.644 1.84 6.208-2.001 10.188-6.692 13.736-11.589 5.996-8.29 9.851-17.937 16.103-26.103 2.185-2.858 3.57-6.193 4.537-9.529 1.034-3.555.975-7.198-.974-10.907-3.108-5.915-5.424-12.249-6.465-18.926-2.705-17.373-6.231-34.43-17.357-48.834-1.833-2.367-3.775-4.332-6.465-5.739-5.725-2.983-11.603-5.791-16.903-9.427-11.669-7.997-18.61-19.732-23.756-32.538-2.668-6.641-2.367-13.759-.41-20.488 2.976-10.21 9.528-18.266 17.342-25.252 5.666-5.065 12.388-8.628 18.955-12.337 7.103-4.017 14.667-6.546 23.038-5.886 6.406.506 11.251 3.182 14.476 8.98 4.171 7.498 3.504 14.982.557 22.51-1.158 2.97-1.217 5.322.836 8.02 2.038 2.69 3.306 5.959 5.087 8.87 1.898 3.092 3.335 7.139 6.142 8.861 7.095 4.362 14.521 8.408 23.338 8.584 7.337.146 14.55-1.21 21.836-1.422 8.048-.242 16.111-.066 24.166.036 10.819.14 20.707 2.412 29.378 9.823 8.18 6.985 17.262 12.725 28.345 14.777 14.85 2.749 19.182 14.822 17.078 27.554-1.121 6.788-5.673 12.022-8.722 17.944-3.335 6.473-8.657 9.698-14.968 11.963-8.994 3.233-18.332 2.808-27.45 1.254-11.633-1.98-22.378-6.458-29.935-16.075-3.416-4.347-7.249-8.151-11.295-11.838-3.98-3.629-11.728-3.907-14.345-.514-2.961 3.841-2.485 10.534.975 14.221 6.157 6.568 12.299 13.135 17.987 20.136 7.125 8.759 8.393 19.93 4.142 27.275-3.203 5.534-6.861 10.988-12.395 14.653-2.851 1.891-4.72 4.559-6.406 7.367-4.369 7.279-9.683 13.605-16.829 18.391-4.259 2.852-6.795 6.817-7.975 12.117-2.419 10.863-4.12 21.932-9.595 32.018-3.372 6.208-2.58 12.703 2.514 18.281 1.796 1.957 3.328 4.215 4.317 6.744 1.525 3.907 4.435 6.619 7.682 9.082 3.687 2.793 7.3 5.681 10.973 8.488 5.263 4.017 10.423 7.704 17.87 6.113 9.433-2.015 19.131-3.562 27.553-8.173 11.815-6.472 23.059-14.029 31.635-24.812 1.994-2.5 4.493-4.545 7.425-5.835 11.816-5.197 23.69-10.123 36.657-11.977 4.669-.667 10.071-1.554 12.277-6.715 3.973-9.287 7.301-18.845 11.281-28.133 3.584-8.371 8.195-16.236 16.543-20.766 12.842-6.964 25.838-13.817 40.593-15.738 11.574-1.502 23.323-3.093 34.34 2.771 3.408 1.811 4.222.594 3.863-2.727-.088-.813.147-1.693.352-2.514 1.62-6.45-.77-12.476-4.002-17.306-4.149-6.187-10.101-11.172-15.29-16.669-.499-.528-1.063-1.114-1.884-.909-5.593 1.415-11.435 1.121-16.785 4.354-9.881 5.981-19.476 12.63-30.514 16.478-9.463 3.299-18.494 7.557-27.561 11.743-3.481 1.613-6.017 3.958-7.183 7.77-.814 2.668-2.235 5.102-3.621 7.55-8.341 14.814-20.003 25.355-37.015 29.086-7.33 1.605-13.509 4.457-17.621 11.464-3.995 6.825-9.778 12.3-15.701 17.666-5.387 4.874-9.807 10.797-15.62 15.327-6.318 4.926-13.098 8.694-21.381 7.873-9.529-.939-15.063-3.343-18.427-13.217-2.258-6.619-2.001-13.436-2.8-20.157-.674-5.703.887-10.988 3.35-16.222 2.169-4.618 5.153-8.921 6.369-13.927 2.192-8.994 8.056-14.924 15.84-19.051 6.187-3.277 10.511-6.949 13.033-14.382 3.73-11.017 13.882-16.903 24.694-19.865 10.474-2.873 20.347-6.164 28.843-13.304 6.421-5.395 13.523-9.91 18.229-17.167 3.709-5.71 9.016-9.25 15.715-11.12 9.998-2.792 17.54-17.035 11.772-26.586-2.434-4.032-4.002-8.606-5.791-13.004-2.345-5.769-3.826-11.677-.681-17.636 1.927-3.665 4.331-7.037 6.97-10.255 2.917-3.555 6.509-6.729 7.645-11.428.491-2.045 1.378-4.705-.476-6.142-1.723-1.334-3.614.513-5.219 1.598-11.398 7.675-22.07 16.441-34.626 22.364-6.143 2.895-11.669 7.176-18.611 8.268-5.497.865-10.972 1.18-15.883-2.162-11.875-8.07-15.466-23.91-8.254-36.218 2.097-3.57 4.743-6.817 6.839-10.35 4.017-6.788 5.446-15.1-1.202-21.302-3.716-3.467-9.089-4.618-13.223-.703-2.741 2.595-5.439 5.233-7.85 8.173-7.33 8.95-12.234 19.63-20.487 27.95-8.202 8.26-17.137 15.004-28.689 17.907-11.904 2.99-25.061-8.18-23.485-19.242.828-5.842.352-11.852-1.231-17.753-1.32-4.904-1.312-10.196-2.837-15.012-2.939-9.317-9.543-15.584-18.427-19.506h28.564c2.346 4.919 6.187 9.244 7.132 14.69 2.016 11.582 5.38 22.987 4.676 34.965-.278 4.793.712 5.263 5.307 3.342 10.321-4.317 17.687-12.095 23.646-21.125 7.792-11.816 15.305-23.757 27.355-31.872h25.633c.263.25.505.528.791.74 6.575 4.758 12.241 10.6 14.293 18.45 2.859 10.93 1.019 21.544-5.651 30.948-2.045 2.889-4.039 5.798-5.79 8.862-1.569 2.742-.975 8.13.887 10.365 2.602 3.13 5.57 1.481 7.967.213 9.998-5.3 20.34-10.086 29.459-16.867 4.984-3.709 10.012-7.3 15.143-10.804 5.673-3.87 11.779-4.42 18.185-3.746 6.216.652 13.326 7.337 13.883 13.429.843 9.236.279 18.2-5.834 26.08-2.976 3.841-6.487 7.264-9.046 11.457-1.07 1.76-1.312 3.262-.469 5.117a372.593 372.593 0 0 1 5.263 12.058c2.661 6.399 5.417 12.622 3.804 20.033-3.32 15.247-10.95 26.63-26.343 31.674-2.265.74-4.537 1.649-5.783 3.599-5.446 8.481-13.172 14.484-20.912 20.693-9.984 8.011-20.714 14.139-33.314 16.61-4.574.894-8.452 2.998-12.168 5.563-2.69 1.855-4.581 4.186-4.925 7.704-.33 3.343-2.141 6.055-4.274 8.701-3.694 4.589-8.282 7.821-13.501 10.336-5.007 2.411-9.009 5.622-10.116 11.61-.454 2.456-1.744 4.816-2.975 7.045-3.68 6.692-6.869 13.363-5.007 21.426.821 3.54-.703 8.422 3.247 10.093 4.017 1.701 7.396-1.737 10.658-4.119 5.878-4.296 9.719-10.629 15.261-15.166 5.959-4.875 10.13-11.098 14.674-17.116 4.75-6.289 10.174-11.523 18.581-13.18 6.025-1.187 12.131-2.851 17.548-6.076 8.795-5.234 13.97-13.385 17.665-22.592 1.663-4.141 3.862-7.652 7.234-10.746 6.113-5.615 13.795-8.173 21.037-11.479 11.72-5.351 24.225-8.943 35.161-16.082 6.611-4.318 13.223-8.767 21.117-10.614 2.162-.506 1.73-1.855.968-3.35-1.972-3.863-2.793-8.063-2.896-12.337-.146-6.098-1.935-10.738-8.253-13.142-4.867-1.848-7.843-5.791-9.661-10.82-3.789-10.489-2.191-20.121 3.914-29.181 2.434-3.614 4.494-7.294 3.621-11.853-.476-2.5-.769-5.13-1.788-7.418-2.426-5.424-2.192-10.717.264-15.892 4.332-9.14 9.946-17.57 15.326-26.088 5.256-8.327 11.332-16.119 17.05-24.138h21.974c.052.8-.403 1.364-.872 1.943-7.835 9.639-14.564 20.099-22.136 29.929-4.86 6.311-7.396 14.008-12.446 20.187-2.653 3.247-2.932 6.685-1.678 10.907 3.107 10.475 3.496 20.854-3.533 30.34-1.415 1.913-2.712 4.024-3.475 6.399-1.774 5.512-.381 9.023 4.655 11.655 8.297 4.346 12.908 11.266 13.875 20.546.814 7.814 1.503 15.533 9.741 19.777 2.243 1.158 1.738 4.522 3.548 6.245 4.684 4.471 8.539 9.683 12.944 14.396 9.229 9.867 13.737 21.243 11.677 34.855-.125.814-.564 1.532.081 2.404 2.778 3.739 8.055 4.794 12.013 2.133 6.377-4.273 11.083-10.079 15.217-16.492 2.228-3.46 2.426-6.554.916-10.299-3.071-7.638-8.495-13.891-12.072-21.243-2.661-5.461-6.839-10.05-10.218-15.085-3.951-5.886-9.565-10.431-12.761-16.852-4.706-9.434-11.97-17.123-17.929-25.7-2.705-3.892-5.094-7.682-5.893-12.336-1.906-11.098-.161-22.079 1.202-33.052 1.591-12.835 6.978-23.94 15.481-33.638 6.083-6.941 12.929-12.747 22.363-14.169 5.153-.777 10.423-.74 15.642-1.07 7.564-.484 15.085.55 22.62.616 4.94.044 9.682.813 14.381 2.184 1.275.374 2.631.85 3.914.762 7.205-.506 13.179 2.896 19.336 5.798 2.653 1.247 4.5 3.27 6.032 5.674 6.216 9.756 5.813 28.529-1.363 37.596-3.921 4.963-9.001 8.225-15.986 8.144-9.104-.103-18.127 1.65-27.304 1.627-6.729-.014-9.47 4.713-7.652 11.186 1.319 4.684 2.924 9.317 3.863 14.074 2.404 12.227 9.836 22.533 12.856 34.51.498 1.965 2.316 3.101 3.687 4.464 2.954 2.925 6.26 5.681 7.623 9.698 2.514 7.403 6.597 14.213 8.715 21.675 1.965 6.92 6.238 11.985 10.709 17.101 3.115 3.57 15.854-.044 17.159-3.951.11-.337.073-.725.088-1.092.249-4.369.557-8.737.733-13.113.169-4.296.579-8.635 2.558-12.418 1.84-3.511.543-5.505-2.125-7.337-3.108-2.133-5.197-5.102-6.986-8.313a21.835 21.835 0 0 0-2.954-4.148c-7.696-8.481-14.806-17.431-21.044-27.041-3.217-4.963-2.177-10.592 1.635-15.1 6.457-7.653 15.928-8.98 24.445-12.293 4.669-1.81 9.719-2.353 14.652-2.727 6.48-.498 9.544-2.902 9.463-9.976-.073-6.245 2.221-12.476 1.51-18.846-.696-6.238-2.353-12.644-6.216-17.299-6.575-7.916-11.383-16.947-17.518-25.098a24.58 24.58 0 0 1-4.039-8.13c6.59-.007 13.179-.007 19.776-.007 1.004 1.518 1.847 3.182 3.049 4.523 4.024 4.471 5.857 10.402 10.042 14.763 8.158 8.495 11.178 19.146 12.483 30.435.975 8.43-1.29 16.698-1.737 25.069-.169 3.166.139 6.582-1.877 9.543-3.701 5.432-8.312 9.552-14.916 10.9-10.078 2.06-20.355 3.233-29.986 7.25-2.338.975-3.313 1.517-1.583 3.995 2.103 3.012 4.932 5.431 6.882 8.488 4.325 6.78 11.039 11.684 14.616 19.066.821 1.693 2.514 3.269 4.625.953 6.15-6.766 14.257-10.6 22.319-14.294 14.631-6.707 26.058-17.38 36.803-28.91 3.394-3.636 7.198-7.066 6.846-13.106-.322-5.6-1.026-11.12-1.583-16.676-1.172-11.714-5.988-21.382-15.319-28.72-6.45-5.072-9.837-11.156-8.517-19.945.696-4.625 2.309-8.855 3.261-13.319h19.776v-.015Zm420.407 376.335c-7.61 0-9.31 1.481-10.21 8.408-.02.117 0 .249-.03.367-1.87 8.788-2.67 17.878-6.2 26.212-5.69 13.466-12.51 26.337-21.21 38.205-4.12 5.622-8.57 10.467-15.06 13.363-4.39 1.964-4.38 2.66-1.07 6.494 2.42 2.8 5.13 5.769 5.26 9.419.25 7.14 1.14 14.389-.97 21.448-.47 1.606-.62 3.072.82 4.347 3.2 2.822 6.25 5.842 9.95 7.997 6.36 3.702 9.39 2.39 10.96-4.874 1.37-6.29 2.61-12.623 3.57-18.985 1.68-11.01 6.52-20.825 11.33-30.648 1.49-3.042 3.61-5.871 6.34-7.96 8.02-6.135 16-12.329 24.27-18.106 7.33-5.116 11.82-11.618 11.48-20.715-.33-8.627-4.55-15.444-10.94-21-2.67-2.324-5.54-4.516-7.33-7.594-2.63-4.538-6.01-7.338-10.95-6.378h-.01ZM155.409 509.984c5.908.696 11.728-.872 17.613-1.657 2.009-.271 4.889-.036 5.754-1.216 1.019-1.4-.894-3.761-1.363-5.747-1.715-7.264-8.891-13.231-16.265-13.187-3.929.022-7.748-.667-11.581-1.224-5.805-.836-10.98 1.466-14.007 6.414-.777 1.275-1.144 2.426-.301 3.716 1.144 1.745 1.583 3.87 2.624 5.564 2.434 3.973 5.366 7.594 10.812 7.359 2.191-.095 4.383-.015 6.699-.015l.015-.007Z" />
  </g>
  <defs>
    <linearGradient id="b" x1="86" x2="319.289" y1="373" y2="385.044" gradientUnits="userSpaceOnUse">
      <stop stop-color="#161729" stop-opacity="0" />
      <stop offset="1" stop-color="#161729" />
    </linearGradient>
    <clipPath id="a">
      <path fill="#fff" d="M390.668 0H0v854h390.668z" />
    </clipPath>
  </defs>
</svg>
