<svg xmlns="http://www.w3.org/2000/svg" fill="none" viewBox="0 0 41 40">
  <g stroke-linecap="round" stroke-linejoin="round" stroke-width="2.5">
    <path stroke="url(#a)"
      d="m27.31 28.337.016.05a2.586 2.586 0 0 1-1.834 3.168L12.97 34.923a2.603 2.603 0 0 1-3.185-1.834L5.083 15.55a2.61 2.61 0 0 1 1.834-3.185l9.938-2.651" />
    <rect width="18.156" height="23.343" x="16.859" y="4.995" stroke="url(#b)" rx="2.593" />
    <path stroke="url(#c)"
      d="m27.058 13.198 2.094 2.663a1.42 1.42 0 0 1 0 1.732l-2.094 2.663a1.183 1.183 0 0 1-1.892 0l-2.094-2.663a1.42 1.42 0 0 1 0-1.732l2.094-2.663a1.183 1.183 0 0 1 1.892 0Z"
      clip-rule="evenodd" />
  </g>
  <defs>
    <linearGradient id="a" x1="21.264" x2="8.103" y1="15.802" y2="33.679" gradientUnits="userSpaceOnUse">
      <stop stop-color="#C058D2" />
      <stop offset="1" stop-color="#F9D75F" />
    </linearGradient>
    <linearGradient id="b" x1="30.034" x2="17.512" y1="10.613" y2="25.544" gradientUnits="userSpaceOnUse">
      <stop stop-color="#C058D2" />
      <stop offset="1" stop-color="#F9D75F" />
    </linearGradient>
    <linearGradient id="c" x1="27.617" x2="23.384" y1="14.651" y2="20.058" gradientUnits="userSpaceOnUse">
      <stop stop-color="#C058D2" />
      <stop offset="1" stop-color="#F9D75F" />
    </linearGradient>
  </defs>
</svg>
