<svg width="24" height="24" viewBox="0 0 24 24" fill="none" xmlns="http://www.w3.org/2000/svg">
<g stroke="url(#a)">
  <circle cx="9.5" cy="8" r="2" stroke-width="1.5" stroke-linecap="round" stroke-linejoin="round"/>
  <path d="M9.5 6C10.6046 6 11.5 6.89543 11.5 8C11.5 9.10457 10.6046 10 9.5 10" stroke-width="1.5" stroke-linecap="round" stroke-linejoin="round"/>
  <path d="M14 6C15.1046 6 16 6.89543 16 8C16 9.10457 15.1046 10 14 10" stroke-width="1.5" stroke-linecap="round" stroke-linejoin="round"/>
  <path d="M14 6C15.1046 6 16 6.89543 16 8C16 9.10457 15.1046 10 14 10" stroke-width="1.5" stroke-linecap="round" stroke-linejoin="round"/>
  <path d="M13 14.5C13 13.3954 12.1046 12.5 11 12.5H8C6.89543 12.5 6 13.3954 6 14.5" stroke-width="1.5" stroke-linecap="round" stroke-linejoin="round"/>
  <path d="M18 14.5C18 13.3954 17.1046 12.5 16 12.5H15" stroke-width="1.5" stroke-linecap="round" stroke-linejoin="round"/>
  <path fill-rule="evenodd" clip-rule="evenodd" d="M12.507 18H18C19.6569 18 21 16.6569 21 15V6C21 4.34315 19.6569 3 18 3H6C4.34315 3 3 4.34315 3 6V15C3 16.6569 4.34315 18 6 18H8.007V20.4429C8.007 20.6567 8.12954 20.8515 8.3222 20.9441C8.51487 21.0367 8.74357 21.0107 8.91049 20.8771L12.507 18Z" stroke-width="1.5" stroke-linecap="round" stroke-linejoin="round"/>
</g>

<defs>
    <linearGradient id="a" x1="33.129" x2="15.884" y1="11.609" y2="42.127" gradientUnits="userSpaceOnUse">
      <stop stop-color="#C058D2" />
      <stop offset="1" stop-color="#F9D75F" />
    </linearGradient>
  </defs>
</svg>
