<svg xmlns="http://www.w3.org/2000/svg" width="267" height="197" fill="none"><path fill="#F9D75F" fill-rule="evenodd" d="M100.756 194.146c44.389 12.483 65.987-35.42 104.019-31.776 20.82 1.995 62.318 12.107 62.225-61.549-.232-47.553-44.062-59.46-89.26-35.074-13.3 5.202-23.8 3.59-35.201-1.578-11.4-5.168-26.063-28.24-53.698-32.985C5.68 16.9-65.477 147.399 100.756 194.146Z" clip-rule="evenodd"/><path fill="#fff" fill-rule="evenodd" d="M206.24 74.513c.833-.405 2.327.38 1.46 1.644-1.919 2.799 5.503 8.388 3.121 3.463-.255-.527-1.562-4.17.287-2.289 1.849 1.88 4.426 10.19 2.759 13.052-1.463 2.513-5.334 3.708-10.619 3.85l-.238.004-.112.007c-3.116.145-5.478-1.783-7.003-5.537l-.073-.184c-1.543-3.93-1.12-7.08 1.376-9.204.045-.039.094-.074.145-.104l.078-.043 8.819-4.659Z" clip-rule="evenodd"/><path fill="#E7EAEE" fill-rule="evenodd" d="M37.94.959c-.363-.516-.952-.813-1.581-.736a1.658 1.658 0 0 0-1.379 1.144l-.052.165a25.872 25.872 0 0 1-.718 1.9 26.823 26.823 0 0 1-2.38 4.454c-2.04 3.05-4.497 5.172-7.378 5.99a.848.848 0 0 0-.584 1.046c.065.228 4.272 2.33 8.567 1.8 4.166-.513 8.424-3.654 8.458-3.868l.053-.445.015-.149a16.722 16.722 0 0 0-2.448-10.432 16.86 16.86 0 0 0-.573-.87Z" clip-rule="evenodd"/><path fill="#fff" fill-rule="evenodd" d="m46.608 1.902-.022.172c-.302 2.19-1.147 5.24-2.677 7.542-1.883 2.833-4.54 5-7.21 6.396-3.853 2.014-8.046 2.383-12.174-.234l-.183-.117c-2.17-1.419-3.816-2.102-6.075-1.538-2.26.564-3.356 2.209-4.331 3.736l-.045.064a1.059 1.059 0 0 1-.643.404l-4.283.679 1.56 1.937c.47.588.803 1.011 1 1.27l1.715 2.26c5.11 6.701 10.609 13.1 21.332 10.885l.363-.078c2.841-.632 5.223 1.064 8.211 3.564l.639.537c.79.67 3.18 2.776 4.158 3.79l.32.336.294.317.175.193.306.343.187-.22c2.022-2.436 3.29-6.145 3.945-9.204.248-1.156.39-2.263.45-3.284l.007-.133c.015-.299.022-.56.023-.777v-.162l-.306.09c-3.536 1.003-7.515 1.103-11.398.655-.938-.109 9.351-8.442 7.24-19.234-.482-2.46-.788-5.748-1.629-7.98a25.528 25.528 0 0 0-.812-1.923l-.137-.286Z" clip-rule="evenodd"/><path fill="#E7EAEE" fill-rule="evenodd" d="m206.686 75.846-8.803 4.279c-2.11 1.795-2.469 4.466-1.076 8.01.488 1.245 1.711 4.207 1.711 3.044 0-.364 8.168-5.703 9.735-5.18 1.449.482-1.154-3.872-1.884-5.874l.317-4.389.242-.437M194.943 79.057c.584 0-2.73 1.559-2.56 4.434.171 2.876 2.418 8.175 1.872 8.384-.547.209-1.583-1.336-1.792-1.883-1.299-3.4-1.545-4.787-1.499-6.77.061-2.597 1.427-4.165 3.979-4.165Z" clip-rule="evenodd"/><path fill="#E7EAEE" d="M209.696 87.075c1.264 0 2.289-2.315 2.289-5.17 0-2.854-1.025-5.169-2.289-5.169-1.263 0-2.288 2.315-2.288 5.17 0 2.854 1.025 5.169 2.288 5.169Z"/><path fill="#fff" fill-rule="evenodd" d="M49.863 136.409c0-8.97.997-12.869 11.698-17.764 21.933-8.865 21.933-9.207 63.951-25.452 11.112-4.274 34.538 5.964 44.725 1.673 6.791-2.86 13.142-4.984 18.753-7.821.543 3.548 4.056 9.555 5.293 10.587a86.354 86.354 0 0 0-19.067 6.398c-13.276 6.238-5.409 4.538-26.436 24.367-1.782 1.68-8.33 5.512-17.799 9.503 0 0-19.068-2.561-26.715-5.742-7.784-3.237-19.577-13.513-19.577-13.513s-13.755 8.973-21.662 13.007c-3.7 1.887-13.164 4.757-13.164 4.757Z" clip-rule="evenodd"/><path fill="#E7EAEE" fill-rule="evenodd" d="M49.862 131.744c0-2.105-.222-3.574 0-5.199.726-5.299 3.568-8.009 11.757-11.756 21.933-8.864 21.874-10.015 63.892-26.26 11.112-4.274 34.538 5.964 44.725 1.673 6.792-2.86 13.142-4.984 18.753-7.821.016.102-.568 4.95-.568 4.95s-13.851 7.314-23.014 8.865c-9.735 1.648-23.106-5.994-36.458-2.235-20.332 5.724-67.188 23.714-72.731 28.222-4.355 3.543-6.356 9.561-6.356 9.561ZM37.94.959c-.363-.516-.952-.813-1.581-.736a1.658 1.658 0 0 0-1.379 1.144l-.052.165a25.872 25.872 0 0 1-.718 1.9 26.823 26.823 0 0 1-2.38 4.454c-2.04 3.05-4.497 5.172-7.378 5.99a.848.848 0 0 0-.584 1.046c.128.45 7.127-2.74 9.37-6.093a28.49 28.49 0 0 0 2.533-4.737c.206-.487.386-.946.539-1.369l.075-.209c.06-.17.111-.323.155-.458.011-.097.022-.129.031-.097 4.855 3.321 2.947 11.564 3.413 11.604a.848.848 0 0 0 .91-.709l.052-.445.015-.149a16.722 16.722 0 0 0-2.448-10.432 16.86 16.86 0 0 0-.573-.87Z" clip-rule="evenodd"/><path fill="#E7EAEE" fill-rule="evenodd" d="m48.05.935.106.19.13.246c.08.15.168.326.264.524.333.685.67 1.46.991 2.315.907 2.407 1.54 5.005 1.757 7.711.294 3.673-.236 7.138-1.58 10.291l-.114.265c-1.09 2.463-2.68 4.72-4.743 6.745l-.204.198.174.008c2.97.125 5.908-.141 8.49-.964a1.868 1.868 0 0 1 1.635.246c.476.331.772.864.802 1.444l.007.18.004.237v.091c0 .332-.01.704-.034 1.111a23.792 23.792 0 0 1-.492 3.606c-.767 3.579-2.301 6.931-4.809 9.756-.333.375-.8.6-1.298.626l-.115.002a1.884 1.884 0 0 1-1.362-.604l-.253-.294-.123-.14-.264-.292-.288-.312a33.074 33.074 0 0 0-3.328-3.1c-2.99-2.413-5.876-3.776-8.34-3.628-4.03.242-7.368.054-10.465-.815-4.003-1.123-7.146-3.327-9.226-6.836l-.117-.2c-1.077-1.878-2.668-4.041-4.544-6.293a78.311 78.311 0 0 0-1.697-1.97l-.232-.26a49.598 49.598 0 0 0-.803-.875 1.878 1.878 0 0 1-.429-1.86l.03-.087a1.873 1.873 0 0 1 1.393-1.186l3.434-.679.04-.058c1.23-1.747 2.984-3.226 5.316-3.823 2.431-.621 4.99-.08 7.566 1.554l.18.116c3.48 2.276 6.93 2.15 10.209.436 2.342-1.225 4.576-3.305 6.267-5.85 1.573-2.368 2.508-4.898 2.575-6.895a1.87 1.87 0 0 1 3.49-.878Zm-1.44.966-.023.171c-.301 2.19-1.147 5.241-2.676 7.543-1.883 2.833-4.54 5-7.211 6.396-3.852 2.014-8.046 2.383-12.175-.234l-.182-.117c-2.17-1.42-3.816-2.103-6.075-1.539-2.259.564-3.356 2.21-4.331 3.736l-.045.065a1.058 1.058 0 0 1-.643.404l-4.283.678 1.56 1.938c.47.588.803 1.01 1 1.27l1.715 2.26c5.11 6.7 10.609 13.099 21.332 10.884l.363-.078c2.841-.632 5.223 1.065 8.211 3.564l.639.538c.79.669 3.18 2.775 4.158 3.79l.32.335.294.317.176.193.305.344.187-.22c2.022-2.436 3.29-6.145 3.945-9.205.248-1.155.39-2.262.45-3.283l.007-.134c.015-.298.022-.559.023-.776v-.162l-.306.09c-3.536 1.003-7.515 1.102-11.398.654-.938-.108 9.351-8.441 7.24-19.233-.482-2.46-.788-5.748-1.628-7.98a25.366 25.366 0 0 0-.813-1.924l-.137-.285Z" clip-rule="evenodd"/><path fill="#00160A" fill-rule="evenodd" d="M19.749 20.974c.818 0 1.483-.665 1.483-1.483 0-.818-.665-1.483-1.483-1.483-.818 0-1.483.665-1.483 1.483 0 .818.665 1.483 1.483 1.483Z" clip-rule="evenodd"/><path fill="#FFB61D" d="M21.02 26.907c1.287 0 2.33-.853 2.33-1.906s-1.043-1.907-2.33-1.907c-1.287 0-2.33.854-2.33 1.907s1.043 1.906 2.33 1.906Z"/><path fill="#FFB61D" d="M21.02 26.907c1.287 0 2.33-.853 2.33-1.906s-1.043-1.907-2.33-1.907c-1.287 0-2.33.854-2.33 1.907s1.043 1.906 2.33 1.906Z"/><path fill="#00160A" fill-rule="evenodd" d="m48.048.935.107.19.13.246c.079.15.168.326.264.524.333.685.669 1.46.99 2.315.908 2.407 1.541 5.005 1.758 7.711.293 3.673-.237 7.138-1.58 10.291l-.114.265c-1.091 2.463-2.68 4.72-4.743 6.745l-.205.198.174.008c2.97.125 5.908-.141 8.49-.964a1.868 1.868 0 0 1 1.636.246c.476.331.772.864.801 1.444l.007.18.004.237v.091c0 .332-.01.704-.033 1.111a23.893 23.893 0 0 1-.492 3.606c-.768 3.579-2.302 6.931-4.809 9.756-.333.375-.801.6-1.299.626l-.115.002a1.883 1.883 0 0 1-1.361-.604l-.253-.294-.124-.14-.263-.292-.288-.312-.313-.328c-.92-.954-1.936-1.9-3.016-2.771-2.99-2.414-5.875-3.777-8.34-3.629-4.03.242-7.367.054-10.464-.815-4.004-1.123-7.147-3.327-9.227-6.836l-.117-.2c-1.077-1.878-2.667-4.041-4.543-6.293a78.311 78.311 0 0 0-1.697-1.97l-.232-.26a49.81 49.81 0 0 0-.803-.875 1.878 1.878 0 0 1-.43-1.86l.03-.087a1.874 1.874 0 0 1 1.393-1.186l3.435-.679.04-.058c1.23-1.747 2.984-3.226 5.315-3.823 2.294-.586 4.702-.138 7.132 1.289 2.69-.902 5.001-2.96 6.935-5.853a26.829 26.829 0 0 0 2.381-4.453 26.105 26.105 0 0 0 .718-1.9l.052-.166A1.656 1.656 0 0 1 36.358.224c.629-.077 1.218.22 1.58.736.202.285.393.576.574.87 1.692 2.748 2.411 5.565 2.51 8.202.336-.425.657-.868.962-1.325 1.573-2.368 2.508-4.898 2.574-6.895a1.87 1.87 0 0 1 3.49-.878ZM35.717 14.557c-3.186 1.665-6.532 1.832-9.91-.246 2.274-1.052 5.924-3.23 7.43-5.481a28.498 28.498 0 0 0 2.533-4.737c.206-.487.385-.946.539-1.37l.075-.208c.06-.17.111-.323.155-.458.011-.097.021-.129.031-.097 3.227 2.208 3.466 6.59 3.4 9.292-1.297 1.385-2.752 2.52-4.253 3.305Zm.981 1.454a20.457 20.457 0 0 0 3.783-2.558.85.85 0 0 0 .24-.209 18.56 18.56 0 0 0 3.188-3.63c1.53-2.3 2.375-5.351 2.677-7.542l.022-.171.137.285c.272.575.547 1.22.812 1.923.585 1.554.911 3.619 1.218 5.56.133.848.263 1.673.41 2.42 1.618 8.272-4.048 15.1-6.36 17.886-.705.85-1.099 1.323-.88 1.348 3.883.448 7.862.349 11.4-.654l.305-.09v.162c-.002.217-.008.478-.024.776l-.007.134a21.774 21.774 0 0 1-.45 3.284c-.655 3.059-1.922 6.768-3.944 9.203l-.188.22-.305-.343a30.991 30.991 0 0 0-.175-.193l-.295-.317-.32-.335c-.978-1.015-3.368-3.121-4.158-3.79l-.638-.538c-2.989-2.5-5.37-4.196-8.211-3.564l-.364.078C23.848 37.571 18.35 31.173 13.24 24.471l-1.715-2.259c-.198-.26-.531-.682-1-1.27l-1.56-1.938 4.283-.678c.257-.051.486-.196.642-.404l.045-.065c.975-1.527 2.072-3.172 4.332-3.736 2.259-.564 3.905.12 6.075 1.539l.182.117c4.129 2.617 8.322 2.248 12.174.234ZM206.24 74.512c.833-.405 2.327.38 1.46 1.644-1.312 1.914.146 6.356 1.034 9.062.41 1.252.699 2.131.535 2.217-.518.271-1.158.07-1.429-.448-1.468-2.807-2.311-5.037-2.521-6.732a12.395 12.395 0 0 1-.068-2.446l.008-.091-6.784 3.297-.086.08c-1.532 1.436-2.206 3.103-1.085 6.058l.066.171c1.217 3.098 3.276 5.32 5.419 5.227l.167-.008c4.762-.096 7.608-1.529 8.624-3.274 1.277-2.193 1.623-4.725-.759-9.65-.255-.527-1.562-4.169.287-2.289 1.849 1.88 4.426 10.19 2.759 13.052-1.392 2.39-4.963 3.588-9.856 3.82.028.126.035.258.015.392-.464 3.145-1.9 5.124-4.3 5.697-1.837.437-3.81-.142-5.618-1.54a85.368 85.368 0 0 0-18.442 6.236l-.88.417c-3.033 1.449-4.772 2.42-6.042 3.364a13.452 13.452 0 0 0-2.022 1.85l-.107.122c-.321.372-1.02 1.226-1.816 2.198l-.001.002-.001.001h-.001v.001l-.002.003-.002.002c-1.059 1.293-2.286 2.792-3.019 3.641l-.354.408c-2.984 3.418-6.744 7.296-11.912 12.171l-.145.132c-1.938 1.732-7.087 4.659-13.508 7.611 17.721-.629 30.499-7.393 38.457-20.302a1.06 1.06 0 0 1 1.622-.222c13.683 12.673 29.538 18.538 47.626 17.622 18.135-.918 31.444-5.632 39.967-14.094a1.059 1.059 0 1 1 1.493 1.503c-8.941 8.878-27.922 15.539-46.536 16.482-18.103.916-28.904-6.542-42.715-18.802l-.337-.302-.121.186c-8.747 13.256-27.751 22.924-46.715 23.061l-.595.002c-19.397 0-30.584-9.392-43.67-22.23l-.103-.1-.046.039-.342.288-.497.418-.305.256c-12.262 10.32-21.412 18.02-35.176 19.987l-.439.061c-15.518 3.14-39.054-5.224-42.671-9.323-3.314-3.756.551-1.422 1.612-.78l.213.127c10.272 5.88 22.114 8.12 36.323 6.182 1.96-.268 3.91-.622 5.845-1.062l-.022-.209c-.62-5.892-.624-8.468.27-11.424 1.216-4.02 4.168-7.075 9.478-9.504l1.462-.647c6.56-2.891 11.77-5.061 17.173-7.17l.395-.154c.606-.236 1.22-.473 1.847-.713l.614-.235c.222-.078 3.11-1.223 7.5-2.964h.002l.011-.005.002-.001h.001c10.15-4.024 28.31-11.223 40.157-15.804 2.563-.985 5.666-1.313 9.472-1.116l.328.018c2.851.168 5.655.555 10.252 1.35l4.04.708c4.51.78 6.696 1.088 9.248 1.27.802.057 1.564.128 2.288.195h.001c2.683.25 4.842.45 6.563-.274 1.53-.645 3.03-1.267 4.5-1.877h.001c4.808-1.994 9.293-3.855 13.455-5.924.285-1.85 1.014-3.217 2.157-4.117 1.763-1.388 4.258-1.412 6.423-.57.545.212.815.826.603 1.371-.068.177-.509.096-1.133-.02-1.304-.24-3.408-.628-4.582.883-1.306 1.682-1.74 4.258-.583 9.33.838 3.676 6.272 9.926 8.567 9.926 2.559 0 3.157-2.484 3.497-3.893l.021-.088c-3.043.079-5.356-1.847-6.857-5.543l-.073-.183c-1.544-3.93-1.12-7.081 1.376-9.206.045-.038.094-.073.145-.103l.079-.042 8.818-4.66Zm-14.086 22.324a15.61 15.61 0 0 1-.318-.399 2.654 2.654 0 0 1-.111-.125c-.097-.117-.195-.236-.297-.357-.82-.986-1.772-2.13-2.517-3.777l-.108-.24c-1.195-2.677-1.337-5.684-1.264-8.163l.011-.288-.063.032c-4.937 2.444-10.307 4.895-16.111 7.354l-.728.307c-2.485 1.047-5.588 1.786-9.521 1.532l-.304-.02c-2.687-.192-4.947-.513-9.685-1.336l-3.538-.62c-9.974-1.727-14.964-1.996-19.077-.459 0 0-61.328 23.071-69.183 26.424-4.777 2.185-6.398 4.242-8.373 7.573-1.022 1.724-.919 6.477-.847 9.779v.001c.012.553.023 1.066.028 1.517 11.596-2.9 22.743-8.929 33.448-18.1a1.059 1.059 0 0 1 1.442.059 70.689 70.689 0 0 0 2.642 2.538l44.163-18.451c.122-.051.247-.077.37-.082a6.395 6.395 0 0 1 1.077-.389c3.85-1.023 6.926.642 9.051 4.742l3.849-2.808a1.06 1.06 0 0 1 1.618.488c3.513 9.494 2.49 15.999-3.295 19.138-5.834 3.166-10.906.556-14.862-7.356-.2-.401-.121-.865.156-1.178-.943-3.83-1.118-6.882-.476-9.092l-38.693 17.535c5.786 4.697 12.139 8.24 19.064 10.63.158-.152.33-.282.499-.374 5.833-3.196 20.204-6.928 23.754-7.85l.666-.174c1.666-.446-.041 1.11-.544 1.342l-.064.027-20.975 8.077c6.239 1.778 12.921 2.666 20.047 2.666.406 0 .808-.003 1.209-.009l.469-.305.001-.001h.001c4.485-2.916 11.986-7.791 13.288-9.019l.608-.574c4.318-4.191 7.532-8.211 10.338-11.721 3.078-3.85 5.665-7.085 8.679-9.255 2.343-1.688 3.192-2.073 5.189-2.979.533-.242 1.149-.522 1.898-.874 5.294-2.488 11.306-3.928 16.95-5.28l.439-.106Zm-58.32 6.358c3.051-.811 5.337.622 7.079 4.623l-4.501 3.568-.005.002-4.65 1.835-.116-.51c-1.274-5.773-.444-8.817 2.193-9.518Zm7.079 4.623-4.497 3.567a1.082 1.082 0 0 1 .529-.064 1.06 1.06 0 0 1 .793.548c1.061 1.911 1.882 2.366 2.715 1.899.882-.495 1.159-2.354.515-5.677l-.055-.273Zm-58.35 43.497c.493-.317 3.889-1.974.865 1.141-3.025 3.114-26.578 16.326-39.291 17.058-12.254.705-23.134-4.413-32.6-11.111l-.314-.223-.063.08c-.419.532-.85 1.014-1.292 1.446l-.19.183c-.802.753-2.19 1.605-4.194 2.595-.525.259-2.378.497-1.42-.481.96-.978 3.059-2.386 4.281-3.194.8-.527 1.052-1.144 1.302-1.756.133-.325.265-.648.478-.956a1.06 1.06 0 0 1 1.507-.246c9.331 6.994 20.232 10.723 32.505 10.017 12.322-.71 25.05-5.946 38.427-14.553Zm72.48 6.754c.43-.397.43-3.227 0-2.83-4.759 4.392-14.724 8.255-27.021 8.962-12.312.709-21.992-1.227-29.058-5.771-.492-.316-2.928-1.153-1.465.318 1.465 1.472 17.92 9.148 30.645 8.416l.381-.023c12.538-.765 21.378-4.328 26.518-9.072Zm-8.691-52.247-.064-.19-3.189 2.327.058.329c.642 3.751.204 6.203-1.574 7.274l-.094.054c-1.854 1.04-3.599.305-5.059-1.831l-.064-.095-4.288 1.732.099.18c3.278 5.916 6.911 7.561 11.187 5.317l.138-.074c4.295-2.33 5.353-7.086 2.998-14.562l-.148-.461Zm-125.12-86.33c0 .819-.664 1.484-1.482 1.484a1.485 1.485 0 0 1-1.483-1.483c0-.818.665-1.483 1.483-1.483.818 0 1.483.665 1.483 1.483Z" clip-rule="evenodd"/></svg>
