<svg xmlns="http://www.w3.org/2000/svg" fill="none" viewBox="0 0 32 32">
  <path stroke="#262432" stroke-linecap="round" stroke-linejoin="round" stroke-width="2"
    d="M27.726 12.698a2.697 2.697 0 1 1-3.815 3.815 2.697 2.697 0 0 1 3.815-3.815M18.942 7.883a4.153 4.153 0 1 1-5.874 5.874 4.153 4.153 0 0 1 5.874-5.874M8.093 12.698a2.697 2.697 0 1 1-3.815 3.815 2.697 2.697 0 0 1 3.815-3.815M30.67 25.333v-1.461a3.333 3.333 0 0 0-3.333-3.333H26.27M1.336 25.333v-1.461a3.333 3.333 0 0 1 3.333-3.333h1.068M23.122 25.333V23.2a4.667 4.667 0 0 0-4.667-4.667H13.55a4.667 4.667 0 0 0-4.667 4.667v2.134" />
</svg>
