<svg xmlns="http://www.w3.org/2000/svg" fill="none" viewBox="0 0 32 32">
  <path stroke="#262432" stroke-linecap="round" stroke-linejoin="round" stroke-width="2"
    d="M2.664 25.333C2.664 22.4 5.064 20 7.997 20h5.334c2.933 0 5.333 2.4 5.333 5.333M14 8c1.866 1.867 1.866 4.8 0 6.533-1.867 1.734-4.8 1.867-6.534 0C5.733 12.667 5.6 9.867 7.333 8s4.8-1.733 6.667 0M21.332 18.667h4c2.267 0 4 1.733 4 4M25.73 8.933c1.334 1.334 1.334 3.467 0 4.667-1.333 1.2-3.466 1.333-4.666 0-1.2-1.333-1.333-3.467 0-4.667 1.2-1.2 3.333-1.2 4.667 0" />
</svg>
