<svg xmlns="http://www.w3.org/2000/svg" fill="none" viewBox="0 0 24 24">
  <path stroke="url(#a)" stroke-linecap="round" stroke-linejoin="round" stroke-width="1.429"
    d="M2.473 18.667a3.82 3.82 0 0 1 3.81-3.81h3.809a3.82 3.82 0 0 1 3.81 3.81" />
  <path stroke="url(#b)" stroke-linecap="round" stroke-linejoin="round" stroke-width="1.429"
    d="M10.57 6.286c1.333 1.333 1.333 3.428 0 4.666-1.333 1.238-3.429 1.334-4.667 0C4.665 9.62 4.57 7.62 5.808 6.286c1.238-1.334 3.429-1.238 4.762 0" />
  <path stroke="url(#c)" stroke-linecap="round" stroke-linejoin="round" stroke-width="1.429"
    d="M15.805 13.905h2.857c1.619 0 2.857 1.238 2.857 2.857" />
  <path stroke="url(#d)" stroke-linecap="round" stroke-linejoin="round" stroke-width="1.429"
    d="M18.946 6.952c.952.953.952 2.476 0 3.334-.952.857-2.476.952-3.333 0-.857-.953-.953-2.477 0-3.334.857-.857 2.38-.857 3.333 0" />
  <defs>
    <linearGradient id="a" x1="10.766" x2="9.904" y1="15.774" y2="19.737" gradientUnits="userSpaceOnUse">
      <stop stop-color="#C058D2" />
      <stop offset="1" stop-color="#F9D75F" />
    </linearGradient>
    <linearGradient id="b" x1="9.747" x2="6.468" y1="6.909" y2="11.972" gradientUnits="userSpaceOnUse">
      <stop stop-color="#C058D2" />
      <stop offset="1" stop-color="#F9D75F" />
    </linearGradient>
    <linearGradient id="c" x1="19.951" x2="19.034" y1="14.592" y2="17.406" gradientUnits="userSpaceOnUse">
      <stop stop-color="#C058D2" />
      <stop offset="1" stop-color="#F9D75F" />
    </linearGradient>
    <linearGradient id="d" x1="18.364" x2="16.057" y1="7.43" y2="11.02" gradientUnits="userSpaceOnUse">
      <stop stop-color="#C058D2" />
      <stop offset="1" stop-color="#F9D75F" />
    </linearGradient>
  </defs>
</svg>
