<svg xmlns="http://www.w3.org/2000/svg" fill="none" viewBox="0 0 185 338">
  <path fill="url(#a)" fill-opacity=".02"
    d="M185.478 226.399c-2.22-2.309-4.106-4.211-5.919-6.172-2.006-2.17-4.356-4.017-6.372-6.157-4.215-4.485-7.967-9.219-7.946-15.705.005-3.848.386-7.511 1.751-11.259 1.115-3.077 1.729-6.561-.026-10.06-1.438-2.868-2.897-5.879-3.184-9.154-.365-4.152-.63-8.318 1.324-12.245.312-.623.296-1.14-.266-1.618-1.11-.936-2.074-2.001-3.387-2.758-3.006-1.732-4.272-4.719-5.757-7.576-2.152-4.136-3.814-8.586-7.67-11.722-.615-.498-1.182-.981-1.964-1.265-1.125-.413-2.084-1.095-3.038-1.821-2.881-2.19-6.32-2.793-9.857-2.419-2.449.258-5.674 4.146-5.966 6.59-.068.587.25.801.688.966 4.251 1.612 7.351 4.798 10.905 7.352a29.168 29.168 0 0 1 4.064 3.529c3.73 3.887 5.731 8.636 7.398 13.529 1.381 4.082 3.554 7.815 5.32 11.723 1.787 3.937 3.538 7.934 3.147 12.474-.297 3.474-1.146 6.59-3.345 9.462-2.506 3.27-5.2 6.123-9.535 7.053-2.511.533-5.023 1.066-7.534 1.583-1.183.244-2.324.503-3.324 1.245-1.683 1.264-3.788 1.792-5.617 2.827-1.219.697-2.105 1.414-2.24 2.982-.255 2.976-2.407 4.967-4.45 6.998-3.501 3.475-4.877 7.86-5.335 12.499-.25 2.554 1.735 4.231 4.434 4.361 2.725.129 5.408-.344 7.471-1.897 2.147-1.608 3.606-3.917 4.591-6.446.823-2.1 1.672-4.216 2.803-6.172 2.464-4.271 6.19-6.805 11.478-6.859.802-.005 1.615.054 2.407-.02 3.163-.314 5.242 1.304 7.258 3.355 2.689 2.737 4.606 5.983 6.872 8.994.97 1.299 1.85 2.678 2.262 4.226.594 2.235 1.964 4.047 3.199 5.954.661 1.015 1.761 1.378 2.709 1.946 3.449 2.061 7.024 2.748 10.822.766 1.276-.667 1.964-.418 1.844 1.185-.13 1.747-.078 3.514-.021 5.267.032.896-.291 1.314-1.182 1.702-3.804 1.662-7.545 1.528-11.291-.115-1.459-.637-2.944-1.229-4.366-1.936-4.778-2.359-7.466-6.376-9.076-11.065-.928-2.683-3.012-4.644-4.257-7.098-.954-1.872-2.631-3.171-3.976-4.719-1.453-1.673-5.939-.463-7.232 1.936-1 1.842-1.86 3.768-2.615 5.719-1.469 3.798-3.918 6.964-6.992 9.632-2.673 2.32-6.221 2.962-9.665 3.49-1.725.263-3.554.044-5.32-.095-6.351-.488-11.692-7.452-10.379-14.465.777-4.132 2.345-7.994 4.241-11.752.969-1.907 2.626-3.291 4.189-4.729.813-.747 1.485-1.454 1.485-2.638.006-2.614 1.303-4.64 3.491-6.093 5.929-3.937 12.307-6.77 19.539-7.92 5.194-.826 7.956-4.589 8.128-9.596.14-4.246-1.49-7.95-3.585-11.454-1.87-3.141-2.98-6.526-4.158-9.891-2.141-6.117-5.335-11.428-11.098-15.097-1.813-1.15-3.48-2.499-5.215-3.753-.797-.573-1.402-.727-1.542.552-.391 3.654-1.725 7.004-3.71 10.135-.636.995-.193 1.817.37 2.837 2.094 3.808 5.773 6.392 8.175 9.876 3.788 5.51 4.027 12.215-3.184 16.073-1.427.766-2.396 2.021-3.652 2.976-2.22 1.703-4.616 2.663-7.451 2.37-1.808-.184-2.85.418-3.558 2.066-1.188 2.767-3.132 4.997-5.528 6.993-2.892 2.404-5.404 5.217-8.4 7.536-3.813 2.947-4.34 6.944-3.636 11.175.516 3.116.677 6.173.255 9.299-.365 2.673.5 5.236 1.511 7.67 1.308 3.166 2.449 6.377 3.376 9.652 1.793 6.326 5.924 10.189 12.719 11.438 3.589.663 7.138 1.588 10.748 2.111 3.22.468 6.456.314 9.551-.966 2.667-1.105 5.226-2.324 7.737-3.798 2.824-1.657 6.351-2.294 9.775-1.762 1.63.254 3.027 1.464 3.907 2.788 1.303 1.946 3.121 3.499 4.34 5.49.448.727 1.214.657 1.845.478 5.523-1.558 11.264-1.732 16.907-2.504 2.428-.338 4.814-.906 7.008-2.09 1.527-.822 1.725-.643 1.73.975.005 1.922-.094 3.843.021 5.759.067 1.195-.464 1.588-1.553 1.917-3.793 1.13-7.69 1.672-11.635 1.926-4.069.264-7.987 1.269-11.968 1.971-1.891.329-2.032.543-.927 1.996 4.444 5.834 5.705 12.445 5.299 19.473-.094 1.638-.61 3.265-1.97 4.236-3.449 2.464-6.512 5.555-11.202 6.018-4.47.438-8.571.1-12.296-2.778-3.194-2.473-6.695-4.569-9.691-7.322-2.037-1.881-4.788-2.732-7.425-3.673-1.021-.369-1.422.363-1.719.936-1.11 2.11-2.053 4.305-2.173 6.7-.109 2.085-1.052 3.673-2.464 5.251-2.319 2.588-5.596 3.942-8.133 6.252-2.23 2.036-2.71 4.365-2.006 7.028.823 3.111 2.157 6.063 1.881 9.433-.443 5.376-2.293 9.96-6.717 13.519-2.105 1.698-3.965 3.709-6.742 4.396-8.498 2.115-16.923-1.225-20.012-9.318a48.493 48.493 0 0 1-3.053-13.594c-.1-1.33-.714-2.45-1.668-3.336-5.663-5.241-12.25-7.874-20.283-6.724-2.538.363-5.143.448-7.712.383-3.72-.1-6.919 1.03-10.024 2.872-5.445 3.226-11.312 4.43-17.71 3.206-6.377-1.225-10.035-5.341-12.124-10.687-1.48-3.788.339-7.472 2.464-10.717 2.324-3.549 5.706-5.894 9.994-7.039 3.329-.891 5.903-3.106 8.68-4.918 6.174-4.037 12.963-4.664 20.075-3.424 3.705.647 7.362 1.488 11.062 2.18 6.564 1.234 13.088 2.962 18.616 6.814 2.75 1.912 5.57 2.076 8.623 1.394 5.398-1.214 5.6-1.981 4.158-6.934a14.488 14.488 0 0 0-3.361-5.878c-1.334-1.419-3.413-1.912-4.887-3.251-2.116-1.916-4.392-3.673-6.596-5.505-1.074-.891-1.636-2.066-2.11-3.335-1.96-5.257-2.043-10.468.166-15.695 1.761-4.171 1.855-8.412.323-12.683-1.308-3.663-4.507-4.983-8.04-5.57-5.407-.906-10.785-1.867-16.057-3.335-3.955-1.105-7.988-1.951-12.088-2.349-6.763-.662-8.826-6.083-7.696-11.439.823-3.923 2.689-7.815 6.143-10.408 3.074-2.315 6.148-4.874 10.197-5.56 2.699-.463 5.48-.697 8.107.443 2.475 1.075 5.158 1.523 7.748 2.1 3.365.747 6.56 1.931 9.831 2.892 2.507.737 4.992.667 7.487.588 1.24-.035 2.45-.613 2.866-1.997.115-.363.328-.701.505-1.04 1.517-2.942 1.558-3.021-.729-5.396-1.865-1.936-3.835-3.788-5.846-5.59-.781-.701-1.724-1.438-2.714-1.677-2.955-.707-5.185-2.534-7.57-4.117-2.299-1.533-3.252-3.967-4.06-6.346-1.578-4.639-4.767-8.084-8.706-10.896-1.725-1.23-3.105-2.559-3.95-4.415-1.677-3.664-3.49-7.278-4.975-11.011-1.527-3.838-.224-7.442 1.667-10.866 1.594-2.882 3.955-4.844 7.3-5.844 2.511-.747 4.86-1.986 7.622-1.598.396.055.844-.05 1.193.095 2.991 1.289 6.32 1.453 9.348 2.573 2.954 1.085 5.658 1.1 8.195-.941.678-.542 1.22-1.08 1.574-1.881.943-2.175 2.011-4.296 2.98-6.466 1.834-4.112 5.513-6.611 9.238-8.756 2.428-1.399 3.517-3.35 4.507-5.49 1.042-2.255 1.448-4.669 1.459-7.193.015-4.898.432-9.736 3.584-13.953 1.204-1.617 1.449-3.479.996-5.495-.97-4.3.911-7.67 3.756-10.9 4.351-4.954 9.009-9.628 13.646-14.337 3.683-3.743 7.242-7.725 9.618-12.324 1.631-3.161 2.798-6.7 2.933-10.379.011-.274.073-.592-.047-.811-1.302-2.484-2.058-5.252-4.017-7.402-5.569-6.127-7.435-12.907-4.606-20.807 1.454-4.071 3.309-7.73 6.55-10.801 1.318-1.245 2.381-2.907 2.709-4.843.12-.737.552-1.439 1.152-1.992 3.412-3.14 4.095-7.023 3.277-11.269-.422-2.19-.5-2.18 1.792-2.18 1.605.005 3.215.05 4.82 0 1.031-.03 1.495.259 1.698 1.329.87 4.719-.156 9.129-2.126 13.425-.922 2.006-.932 2.145 1.246 2.947 3.048 1.114 5.632 3.195 8.894 3.872.75.154 1.464.239 2.198.045 2.882-.757 5.789-.742 8.665-.075 1.068.24 1.85-.179 2.48-.756.641-.583-.078-1.235-.365-1.772-.937-1.777-1.438-3.694-2.073-5.57-.157-.473-.183-.986-.745-1.21-3.476-1.379-4.32-4.28-4.747-7.432-.167-1.194-.25-2.404-.526-3.574-.209-.89-.005-1.21.959-1.194 2.063.035 4.131.03 6.2.015.734-.01 1.188.134 1.235.965.046.871.317 1.732.338 2.599.021.836.36 1.319 1.157 1.617 1.797.672 2.787 2.061 3.355 3.734a114.602 114.602 0 0 0 3.611 9.213c1.162 2.629.735 5.605-.474 8.308-.62 1.379-2.016 1.857-3.413 1.832-2.105-.03-3.767 1.28-5.773 1.483-.213.025-.443.334-.583.558-1.683 2.802-3.601 5.46-5.622 8.044-1.996 2.538-2.168 5.614-2.642 8.556-.552 3.455.224 6.72 2.001 9.816.844 1.474 1.464 3.111 1.928 4.739 1.021 3.579 2.85 6.8 4.46 10.135 1.62 3.35 2.438 6.819-.287 10.064-1.344 1.598-3.277 2.559-5.111 3.544-2.397 1.29-4.893 2.4-7.383 3.525-3.845 1.737-6.492 4.514-8.279 8.178-1.214 2.499-.151 4.46 1.266 6.396 1.308 1.767 2.996 2.46 5.387 2.464 3.809.005 7.503-.816 11.296-.841 4.689-.03 7.592 2.17 9.749 5.809 1.214 2.05 1.959 4.316 3.23 6.346 1.349 2.166 3.585 3.704 4.554 6.133.302.757 1.063.582 1.62.279 1.985-1.07 4.064-2.026 4.512-4.575.235-1.344.995-2.563 1.965-3.609 1.109-1.2 1.464-2.493.89-4.076-.859-2.34-2.016-4.316-4.6-5.346-3.111-1.23-4.424-4.162-6.378-6.486-4.183-4.968-2.808-10.25-1.193-15.615 1.006-3.345 2.996-6.153 5.216-8.786 1.167-1.379 2.725-2.509 4.257-3.544 3.058-2.05 2.511-4.106.349-7.043-1.97-2.663-4.57-4.898-6.878-7.332-1.954-2.066-3.006-4.426-3.027-7.288-.031-2.971.474-5.898.458-8.86a4.338 4.338 0 0 1 .516-2.06c2.194-3.883 3.726-8.14 6.914-11.474 1.24-1.294 2.85-2.006 4.471-2.718.625-.279.828-.01.823.562-.016 2.743.276 5.53-.146 8.214-.271 1.747-1.443 3.494-2.522 4.947-1.912 2.579-1.75 5.44-2.199 8.258-.479 3.027.433 5.526 2.955 7.407 1.558 1.165 1.922 2.608 1.886 4.445-.125 6.307-.089 12.619-.068 18.93.005 1.006-.286 1.713-1.052 2.444-3.351 3.21-4.716 7.283-5.226 11.678-.115.98.177 1.822.807 2.603 1.475 1.827 2.366 4.152 4.867 5.092.573.22.536.782.536 1.29-.02 8.78-.057 17.556-.047 26.336-.005 1.538-1.276 2.026-2.292 2.579-1.183.647-1.266 1.224-.474 2.15 2.339 2.738 3.1 5.864 2.751 9.358-.193 1.956-.042 3.948-.047 5.929-.01 4.723-4.564 10.288-9.368 11.334-2.293.498-4.549.293-6.68-.782-6.205-3.126-11.999-6.799-17.214-11.309-1.855-1.603-2.746-3.763-4.064-5.67-.964-1.388-2.043-2.568-3.757-2.902-3.694-.726-6.138-3.225-8.852-5.395-3.126-2.489-5.237-5.615-6.737-9.17-1.35-3.2-3.71-5.171-7.378-5.574-1.042-.115-1.381.269-1.417 1.284-.109 2.852 1.011 5.371 2.246 7.845 1.365 2.723 2.615 5.366 2.688 8.542.083 3.583-1.771 6.092-4.147 8.312-2.204 2.066-4.924 3.554-7.722 4.868-4.684 2.201-7.836 5.65-9.571 10.424-1.423 3.922-1.907 7.974-2.506 12.036-.261 1.752-.975 3.31-2.032 4.808-3.012 4.271-7.248 6.177-12.505 6.362-1.568.059-2.662.786-3.376 2.155-1.037 1.996-.86 2.548 1.49 3.066 3.902.861 7.826 1.628 11.744 2.404 4.199.832 7.956 2.484 10.91 5.506 3.137 3.215 5.19 7.058 6.659 11.184.547 1.519 1.302 1.927 2.767 1.041.713-.438 1.328-1.026 1.99-1.548.745-.598 1.448-1.255 2.245-1.777 2.965-1.937 3.158-3.729.699-6.327-1.621-1.702-3.564-3.121-4.908-5.057-1.261-1.822-2.684-3.574-3.684-5.515-1.907-3.704-1.339-7.352 1-10.737 1.819-2.633 1.991-5.66 2.501-8.612 1.105-6.321 3.408-12.13 7.883-17.013 2.189-2.39 5.237-3.271 8.316-3.47 5.627-.373 10.884.836 15.464 4.276 1.547 1.16 3.501 1.777 4.965 3.146 3.361 3.131 6.175 6.585 7.936 10.801.891 2.126 2.099 4.137 3.209 6.178.282.522.672 1.04 1.136 1.418 4.017 3.301 8.248 6.222 13.541 7.452 1.933.453 3.768 1.294 5.674 1.872.756.229.766.682.766 1.249-.01 1.817-.062 3.629.006 5.436.046 1.169-.454 1.378-1.558 1.224-3.33-.448-6.294-1.981-9.467-2.892-1.553-.443-2.084-.015-2.381 1.309-.943 4.162-.266 8.089 1.474 11.996 1.063 2.385 2.454 4.719 2.6 7.432.052.956 1.058 1.274 1.834 1.533 1.829.622 3.647 1.334 5.617 1.474 1.266.089 1.964.522 1.839 1.936-.146 1.578-.136 3.181-.021 4.768.115 1.484-.599 1.648-1.86 1.414-2.412-.453-4.825-.911-7.159-1.662-.854-.279-1.104-.065-1.521.672-2.064 3.663-1.886 7.581-1.105 11.388.594 2.863 2.819 5.088 4.867 7.218 1.933 2.011 4.043 3.863 6.085 5.774.386.364.615.762.61 1.304-.026 3.554-.026 7.108-.037 11.195l.011-.02Zm-38.254-141.67c-1.308-.004-2.991.15-4.627-.044-3.053-.363-4.835-2.628-6.664-4.63-3.267-3.578-5.21-7.675-3.788-12.533 1.819-6.197 5.768-10.876 11.677-13.962 2.87-1.499 5.882-2.748 8.779-4.202 2.313-1.16 2.371-1.523 1.261-3.718-.975-1.921-2.011-3.823-2.866-5.794-1.61-3.743-2.569-7.73-4.595-11.33-.532-.95-.891-2.035-1.105-3.1-.667-3.37-.511-6.755.021-10.125.641-4.042 1.652-7.95 4.522-11.175.594-.662 1.105-1.398 1.626-2.12.584-.816.323-1.095-.693-1.145-3.152-.15-6.054-1.11-8.748-2.663-2.074-1.19-4.319-2.03-6.528-2.947-.761-.318-1.199-.1-1.777.428-3.204 2.912-5.122 6.491-6.299 10.523-1.199 4.082-.006 7.79 2.646 10.737 2.97 3.3 4.669 7.108 6.414 10.97.334.732.448 1.593.474 2.4.172 5.326-1.412 10.378-3.772 15.023-2.626 5.161-6.591 9.616-10.686 13.817-4.684 4.809-9.509 9.488-13.854 14.595-1.261 1.483-2.11 2.982-1.662 4.928.818 3.51.198 6.884-1.897 9.746-2.225 3.042-2.636 6.421-2.621 9.836.011 5.077-1.344 9.682-3.814 14.127-1.375 2.489-3.147 4.281-5.783 5.585-2.584 1.274-4.944 3.051-6.34 5.6-1.168 2.13-1.923 4.47-3.127 6.58-2.652 4.664-6.648 7.546-12.364 7.9-4.934.303-9.4-1.593-13.995-2.798-1.62-.423-3.053-.831-4.6.055-.532.304-1.167.448-1.767.647-2.652.866-4.569 4.44-3.537 6.939 1.266 3.056 2.454 6.147 4.053 9.069.37.682.651 1.414 1.365 1.857 2.684 1.662 4.778 3.902 6.784 6.237 2.042 2.384 4.106 4.793 4.887 7.845.823 3.2 2.939 5.052 6.044 6.087 1.141.384 2.24.832 3.241 1.504 4.892 3.265 8.946 7.332 12.364 11.981 2.334 3.176 2.173 6.58-.25 9.746a7.442 7.442 0 0 0-.954 1.742c-.73 1.867-2.037 3.271-3.73 4.396-4.955 3.28-10.358 2.543-15.714 1.413-3.116-.657-6.122-1.762-9.191-2.623-2.965-.831-5.992-1.463-8.894-2.444-1.97-.667-3.871-.836-5.648.065-3.746 1.901-6.971 4.33-8.378 8.437-.72 2.101-.282 2.962 2.047 3.156 1.892.154 3.726.507 5.57.921 7.065 1.588 14.026 3.594 21.222 4.604 4.272.597 8.164 2.071 11.02 5.187 4.511 4.933 5.434 10.941 4.835 17.247-.329 3.465-2.038 6.601-2.798 9.971-.594 2.628-.01 5.405 1.51 7.167 2.163 2.499 4.82 4.804 8.02 6.312 1.015.478 2.135 1.031 2.802 1.857 3.934 4.888 7.138 10.09 6.711 16.61-.182 2.768-1.203 4.998-3.59 6.765-2.443 1.812-5.158 2.763-8.128 3.3-4.877.881-9.498.782-13.812-2.11a34.666 34.666 0 0 0-7.404-3.754c-5.919-2.165-12.265-2.578-18.32-4.171-6.945-1.827-13.218-.572-18.777 3.947-2.287 1.867-5.038 3.067-7.92 3.853-2.172.593-3.767 1.852-5.09 3.465-1.079 1.319-2.032 3.051-1.49 4.539.896 2.469 2.813 4.44 5.658 5.053 3.955.851 7.8.109 11.176-1.877 4.241-2.494 8.587-4.201 13.656-4.355 2.626-.08 5.278.034 7.899-.299 3.032-.388 6.112-.478 9.092-.105 7.32.931 13.328 4.48 18.45 9.418 2.01 1.936 3.5 4.301 3.678 7.083.234 3.749 1.193 7.337 2.11 10.951.328 1.299.896 2.509 1.756 3.544 2.173 2.584 6.68 3.564 9.337 1.927 4.152-2.559 7.09-5.983 6.851-11.17-.094-1.927-1.021-3.574-1.464-5.376-.901-3.664-1.464-7.322.48-10.856 2.011-3.634 4.986-6.332 8.69-8.403 1.74-.965 3.142-2.314 3.303-4.475.209-2.787 1.433-5.286 2.663-7.76 1.23-2.469 3.324-4.146 5.861-5.346 1.449-.682 3.101-.99 4.507-.383 3.799 1.633 7.92 2.767 11.083 5.52 3.058 2.658 6.419 4.933 9.712 7.297 3.688 2.658 9.696 1.653 12.15-2.085.172-.254.219-.617.229-.936.156-4.669-.88-9.025-3.835-12.852-1.985-2.574-3.418-5.366-2.172-8.537.693-1.767.422-2.892-.949-4.027-.38-.314-.62-.787-.937-1.17-1.324-1.603-2.804-2.046-4.533-.831-2.736 1.921-5.872 2.907-8.905 4.201-4.413 1.892-9.003 2.031-13.593 1.399-4.346-.607-8.623-1.683-12.911-2.643-8.993-2.021-14.464-7.586-17.168-15.839-1.006-3.076-1.944-6.173-3.152-9.194-1.668-4.151-2.923-8.377-2.064-12.957.313-1.628.271-3.375-.192-5.062-.787-2.857-.438-5.784-.277-8.671.13-2.375 1.173-4.495 2.616-6.501 3.569-4.938 8.904-8.164 13.047-12.539 1.333-1.409 2.933-2.593 2.302-4.913-.291-1.065.178-2.3 1.089-2.986 1.569-1.185 1.324-2.355.407-3.704a7.854 7.854 0 0 1-.698-1.324c-1.767-4.151-4.83-6.819-9.52-7.666-2.188-.393-4.387-.766-6.549-1.294-3.475-.856-7.143-1.15-10.264-3.101-1.761-1.105-3.46-2.359-3.741-4.475-.552-4.131.755-7.76 3.631-10.916 2.7-2.966 6.414-3.39 10.114-3.833 2.313-.283 4.486-2.105 4.882-4.36.73-4.201 1.344-8.392 2.62-12.524 1.819-5.883 5.555-10.219 10.556-13.758 2.632-1.862 5.815-2.852 8.42-4.784 2.261-1.677 2.85-3.574 1.537-6.013-1.683-3.131-3.194-6.321-3.902-9.796-.704-3.444-.99-6.869 1.078-10.03 1.053-1.603 2.277-3.076 4.481-3.22 2.241-.145 4.517.02 6.654.547 5.903 1.459 10.045 4.903 12.395 10.404 2.001 4.694 5.585 8.034 10.582 9.865 3.136 1.15 5.789 2.833 7.555 5.645 1.797 2.862 3.72 5.515 6.69 7.561 3.444 2.379 7.008 4.525 10.655 6.581.985.552 2.094 1.239 3.095.099 1.61-1.822 2.813-3.858 3.058-6.302.365-3.653-1.271-6.705-3.647-9.263-3.043-3.275-5.544-6.929-8.467-10.284-2.402-2.758-3.819-6.098-5.304-9.363-.615-1.349-1.552-1.832-3.074-1.847-3.506-.03-6.914 1.16-10.79.588l.005-.005Z" />
  <defs>
    <linearGradient id="a" x1="104.844" x2="93.487" y1="-22.5" y2="337.031" gradientUnits="userSpaceOnUse">
      <stop stop-color="#fff" />
      <stop offset="1" stop-color="#fff" stop-opacity="0" />
    </linearGradient>
  </defs>
</svg>
