<svg xmlns="http://www.w3.org/2000/svg" fill="none" viewBox="0 0 32 32">
  <path stroke="#262432" stroke-linecap="round" stroke-linejoin="round" stroke-width="2"
    d="M27.05 4.952a3.251 3.251 0 1 1-4.599 4.597 3.251 3.251 0 0 1 4.598-4.597" />
  <path stroke="#262432" stroke-linecap="round" stroke-linejoin="round" stroke-width="2"
    d="M27.887 13.6a10.987 10.987 0 0 0-1.23-3.73M22.133 5.344a10.984 10.984 0 0 0-3.73-1.23M9.55 22.45a3.251 3.251 0 1 1-4.599 4.598 3.251 3.251 0 0 1 4.598-4.597" />
  <path stroke="#262432" stroke-linecap="round" stroke-linejoin="round" stroke-width="2"
    d="M4.114 18.4c.181 1.339.617 2.59 1.23 3.73M13.602 27.887a10.986 10.986 0 0 1-3.73-1.231M9.55 4.952A3.251 3.251 0 1 1 4.95 9.549 3.251 3.251 0 0 1 9.55 4.952" />
  <path stroke="#262432" stroke-linecap="round" stroke-linejoin="round" stroke-width="1.846"
    d="M17.412 12.923c1.168 0 1.952 1.089 1.952 2.103 0 2.058-3.254 3.743-3.313 3.743-.06 0-3.313-1.685-3.313-3.743 0-1.014.784-2.103 1.952-2.103.668 0 1.107.33 1.361.625a1.753 1.753 0 0 1 1.361-.625Z"
    clip-rule="evenodd" />
  <path stroke="#262432" stroke-linecap="round" stroke-linejoin="round" stroke-width="2"
    d="M9.871 5.344a10.986 10.986 0 0 1 3.73-1.232M5.345 9.87a10.985 10.985 0 0 0-1.231 3.73M27.05 22.45a3.251 3.251 0 1 1-4.599 4.598 3.251 3.251 0 0 1 4.598-4.597" />
  <path stroke="#262432" stroke-linecap="round" stroke-linejoin="round" stroke-width="2"
    d="M26.657 22.13a10.986 10.986 0 0 0 1.23-3.73M22.133 26.656a10.986 10.986 0 0 1-3.73 1.23" />
</svg>
