<svg xmlns="http://www.w3.org/2000/svg" fill="none" viewBox="0 0 40 40">
  <path stroke="url(#a)" stroke-linecap="round" stroke-linejoin="round" stroke-width="2.5"
    d="m17.43 26.888 1.777-.935a1.701 1.701 0 0 1 1.582 0l1.778.935a1.696 1.696 0 0 0 1.79-.13l.664-.481c.523-.38.785-1.025.677-1.662l-.34-1.98a1.702 1.702 0 0 1 .488-1.505l1.438-1.402c.463-.451.63-1.126.43-1.741l-.253-.78a1.7 1.7 0 0 0-1.372-1.157l-1.988-.288a1.701 1.701 0 0 1-1.28-.93l-.89-1.802a1.697 1.697 0 0 0-1.524-.947h-.82c-.646 0-1.238.367-1.523.947l-.888 1.802a1.7 1.7 0 0 1-1.28.93l-1.989.288a1.7 1.7 0 0 0-1.371 1.157l-.253.78c-.2.615-.034 1.29.43 1.741l1.438 1.402c.4.39.583.953.488 1.505l-.34 1.98c-.11.638.154 1.282.677 1.662l.663.481c.524.38 1.217.43 1.79.13v0Z"
    clip-rule="evenodd" />
  <path stroke="url(#b)" stroke-linecap="round" stroke-linejoin="round" stroke-width="2.5"
    d="M9.394 9.393c5.858-5.858 15.355-5.858 21.213 0 5.858 5.859 5.858 15.355 0 21.214-5.858 5.858-15.355 5.858-21.213 0-5.859-5.859-5.859-15.355 0-21.214" />
  <defs>
    <linearGradient id="a" x1="23.518" x2="16.16" y1="15.694" y2="27.422" gradientUnits="userSpaceOnUse">
      <stop stop-color="#C058D2" />
      <stop offset="1" stop-color="#F9D75F" />
    </linearGradient>
    <linearGradient id="b" x1="26.771" x2="11.812" y1="12.22" y2="35.151" gradientUnits="userSpaceOnUse">
      <stop stop-color="#C058D2" />
      <stop offset="1" stop-color="#F9D75F" />
    </linearGradient>
  </defs>
</svg>
