<svg xmlns="http://www.w3.org/2000/svg" fill="none" viewBox="0 0 47 42"><path stroke="url(#a)" stroke-linecap="round" stroke-linejoin="round" stroke-width="4" d="m12.838 17.193 9.731-12.67c1.81-2.36 5.347-2.418 7.238-.122a4.78 4.78 0 0 1 1.09 3.042v8.723h8.256a4.8 4.8 0 0 1 3.99 2.13l.877 1.31a4.799 4.799 0 0 1 .624 3.997L41.02 36.195a4.798 4.798 0 0 1-4.61 3.472H19.638a4.798 4.798 0 0 1-3.515-1.53L12.839 34.6m-2.816 5.066H4.988a2.817 2.817 0 0 1-2.816-2.816V17.15a2.817 2.817 0 0 1 2.816-2.816h5.035a2.817 2.817 0 0 1 2.816 2.816V36.85a2.817 2.817 0 0 1-2.816 2.816Z"/><defs><linearGradient id="a" x1="33.129" x2="15.884" y1="11.609" y2="42.127" gradientUnits="userSpaceOnUse"><stop stop-color="#C058D2"/><stop offset="1" stop-color="#F9D75F"/></linearGradient></defs></svg>
