<svg xmlns="http://www.w3.org/2000/svg" fill="none" viewBox="0 0 24 24">
  <path fill="#323232"
    d="M12 11.25a3.744 3.744 0 0 1-3.733-3.733h-1.5A5.244 5.244 0 0 0 12 12.75v-1.5ZM8.267 7.517C8.267 5.456 9.954 3.75 12 3.75v-1.5c-2.888 0-5.233 2.392-5.233 5.267h1.5ZM12 3.75a3.744 3.744 0 0 1 3.733 3.733h1.5A5.244 5.244 0 0 0 12 2.25v1.5Zm3.733 3.733c0 2.061-1.687 3.767-3.733 3.767v1.5c2.888 0 5.233-2.392 5.233-5.267h-1.5ZM19 20.25H5v1.5h14v-1.5Zm-14 0a.253.253 0 0 1-.25-.25h-1.5c0 .964.786 1.75 1.75 1.75v-1.5ZM4.75 20v-1h-1.5v1h1.5Zm0-1A3.262 3.262 0 0 1 8 15.75v-1.5A4.762 4.762 0 0 0 3.25 19h1.5ZM8 15.75h8v-1.5H8v1.5Zm8 0A3.262 3.262 0 0 1 19.25 19h1.5A4.762 4.762 0 0 0 16 14.25v1.5ZM19.25 19v1h1.5v-1h-1.5Zm0 1c0 .136-.114.25-.25.25v1.5c.964 0 1.75-.786 1.75-1.75h-1.5Z" />
</svg>
