<svg width="72" height="166" viewBox="0 0 72 166" fill="none" xmlns="http://www.w3.org/2000/svg">
  <path
    d="M25.1901 121.507C25.5868 125.099 28.1653 127.493 31.5372 127.493H39.2727C43.6364 127.493 45.6198 124.3 45.8182 120.111L46.0165 115.123C46.2149 111.132 46.8099 104.947 51.9669 96.5673L60.8926 82.0024C69.0248 68.6346 72 60.6539 72 47.8846V37.7091C72 12.9688 56.1322 0 35.5041 0C14.0826 0 0 16.3606 0 37.3101V46.488C0 50.0793 3.17355 52.8726 6.54545 52.8726H16.4628C20.8264 52.8726 22.8099 49.0817 22.8099 44.6923V40.9014C22.8099 24.5409 29.3554 21.5481 35.5041 21.5481C44.8265 21.5481 49.1901 28.3317 49.1901 38.3077V45.6899C49.1901 58.6587 45.6198 65.4423 40.0661 74.0216L33.3223 84.3966C27.5702 93.1755 24.595 100.558 24.595 109.337C24.595 112.728 24.9917 117.916 25.1901 121.507Z"
    fill="#C058D2" />
  <path
    d="M30.1488 166C26.5785 166 23.8016 163.207 23.8016 159.615V148.642C23.8016 145.05 26.5785 142.257 30.1488 142.257H40.8595C44.4297 142.257 47.2066 145.05 47.2066 148.642V159.615C47.2066 163.207 44.4297 166 40.8595 166H30.1488Z"
    fill="#F9D75F" />
</svg>
