<?xml version="1.0" standalone="no"?>
<!DOCTYPE svg PUBLIC "-//W3C//DTD SVG 1.1//EN" "http://www.w3.org/Graphics/SVG/1.1/DTD/svg11.dtd" >
<svg xmlns="http://www.w3.org/2000/svg" xmlns:xlink="http://www.w3.org/1999/xlink" version="1.1">
<metadata></metadata>
<defs>
<font id="aptlyregular" horiz-adv-x="958" >
<font-face units-per-em="2048" ascent="1698" descent="-350" />
<missing-glyph horiz-adv-x="450" />
<glyph unicode="fi" horiz-adv-x="1157" d="M53 1190v59q0 22 14.5 36.5t36.5 14.5h84q20 0 32.5 13.5t12.5 34.5v26q0 74 13 131q17 67 61 111q22 21 43.5 34.5t69.5 26.5t112 13h64q22 0 36.5 -15t14.5 -37v-59q0 -22 -14.5 -36.5t-36.5 -14.5h-47q-87 0 -117 -33q-26 -29 -26 -100v-47q0 -21 12.5 -34.5 t32.5 -13.5h145q22 0 36.5 -14.5t14.5 -36.5v-59q0 -22 -14.5 -36.5t-36.5 -14.5h-145q-20 0 -32.5 -14t-12.5 -35v-1039q0 -22 -15 -36.5t-37 -14.5h-69q-22 0 -37 14.5t-15 36.5v1039q0 21 -12.5 35t-32.5 14h-84q-22 0 -36.5 14.5t-14.5 36.5zM836 1556v82q0 22 14.5 37 t36.5 15h82q22 0 36.5 -15t14.5 -37v-82q0 -22 -14.5 -36.5t-36.5 -14.5h-82q-22 0 -36.5 14.5t-14.5 36.5zM842 51v1198q0 22 14.5 36.5t36.5 14.5h70q22 0 36.5 -14.5t14.5 -36.5v-1198q0 -22 -14.5 -36.5t-36.5 -14.5h-70q-22 0 -36.5 14.5t-14.5 36.5z" />
<glyph unicode="fl" horiz-adv-x="1157" d="M53 1190v59q0 22 14.5 36.5t36.5 14.5h84q20 0 32.5 13.5t12.5 34.5v26q0 74 13 131q17 67 61 111q22 21 43.5 34.5t69.5 26.5t112 13h64q22 0 36.5 -15t14.5 -37v-59q0 -22 -14.5 -36.5t-36.5 -14.5h-47q-87 0 -117 -33q-26 -29 -26 -100v-47q0 -21 12.5 -34.5 t32.5 -13.5h145q22 0 36.5 -14.5t14.5 -36.5v-59q0 -22 -14.5 -36.5t-36.5 -14.5h-145q-20 0 -32.5 -14t-12.5 -35v-1039q0 -22 -15 -36.5t-37 -14.5h-69q-22 0 -37 14.5t-15 36.5v1039q0 21 -12.5 35t-32.5 14h-84q-22 0 -36.5 14.5t-14.5 36.5zM842 51v1587q0 22 14.5 37 t36.5 15h70q22 0 36.5 -15t14.5 -37v-1587q0 -22 -14.5 -36.5t-36.5 -14.5h-70q-22 0 -36.5 14.5t-14.5 36.5z" />
<glyph horiz-adv-x="0" />
<glyph horiz-adv-x="0" />
<glyph unicode=" "  horiz-adv-x="450" />
<glyph unicode="&#x09;" horiz-adv-x="450" />
<glyph unicode="&#xa0;" horiz-adv-x="450" />
<glyph unicode="!" horiz-adv-x="491" d="M152 51v92q0 22 14.5 37t36.5 15h86q22 0 36.5 -15t14.5 -37v-92q0 -22 -14.5 -36.5t-36.5 -14.5h-86q-22 0 -36.5 14.5t-14.5 36.5zM160 1389v249q0 22 14.5 37t36.5 15h70q22 0 36.5 -15t14.5 -37v-249l-8 -949q0 -22 -15 -36.5t-37 -14.5h-53q-22 0 -36.5 14.5 t-14.5 36.5z" />
<glyph unicode="&#x22;" horiz-adv-x="880" d="M184 1534v104q0 22 15 37t37 15h69q22 0 36.5 -15t14.5 -37v-104l-10 -217q-1 -20 -16.5 -32.5t-36.5 -12.5h-45q-21 0 -36.5 12.5t-16.5 32.5zM524 1534v104q0 22 14.5 37t36.5 15h70q22 0 36.5 -15t14.5 -37v-104l-10 -217q-1 -20 -16.5 -32.5t-36.5 -12.5h-45 q-21 0 -36.5 12.5t-16.5 32.5z" />
<glyph unicode="#" horiz-adv-x="1124" d="M74 598v35q0 22 14.5 36.5t36.5 14.5h111q46 0 51 43l30 223q2 18 2 25q0 41 -45 41h-77q-22 0 -37 14.5t-15 36.5v35q0 22 15 36.5t37 14.5h102q46 0 51 43l62 444q4 33 20.5 46.5t44.5 13.5h23q59 0 59 -58q0 -9 -4 -49l-51 -374q-2 -18 -2 -25q0 -41 45 -41h117 q48 0 53 43l59 444q4 34 20 47t46 13h22q60 0 60 -58q0 -9 -4 -49l-52 -374q-2 -18 -2 -25q0 -41 45 -41h86q22 0 37 -14.5t15 -36.5v-35q0 -22 -15 -36.5t-37 -14.5h-110q-46 0 -51 -43l-31 -215q-4 -24 -4 -35q0 -39 47 -39h78q22 0 36.5 -14.5t14.5 -36.5v-35 q0 -22 -14.5 -36.5t-36.5 -14.5h-103q-46 0 -51 -43l-61 -445q-4 -33 -20.5 -46t-45.5 -13h-22q-60 0 -60 57q0 9 4 49l51 375q1 7 1.5 13t1 8t0.5 4q0 41 -46 41h-116q-48 0 -53 -43l-60 -445q-4 -34 -19.5 -46.5t-45.5 -12.5h-23q-59 0 -59 57q0 9 4 49l51 375q2 18 2 25 q0 41 -45 41h-86q-22 0 -36.5 14.5t-14.5 36.5zM438 725q0 -41 45 -41h117q48 0 53 43l29 223q2 18 2 25q0 41 -45 41h-117q-48 0 -53 -43l-29 -223q-2 -18 -2 -25z" />
<glyph unicode="$" d="M129 463v29q0 22 15 36.5t38 14.5h72q22 0 37.5 -14.5t15.5 -36.5v-19q0 -147 47 -199q51 -51 125 -51q79 0 129 47q49 49 49 148v94q0 44 -5.5 75t-13.5 52t-28.5 39t-40 30t-57.5 31l-154 80q-65 34 -104 61t-64 66q-57 83 -57 238v84q0 168 107 264q38 36 112 61 q37 15 37 43v117q0 22 14.5 36.5t36.5 14.5h72q23 0 39 -14.5t16 -36.5v-117q0 -31 39 -43q78 -25 137 -88q88 -95 88 -252v-39q0 -22 -15 -36.5t-38 -14.5h-71q-22 0 -38 15t-16 36v46q0 107 -49 159q-51 51 -127 51q-75 0 -125 -47q-43 -43 -43 -147v-90q0 -72 16 -114 t42.5 -63t85.5 -51l155 -79q122 -59 168 -129q55 -83 55 -236v-84q-2 -115 -60.5 -202t-166.5 -126q-37 -13 -37 -43v-143q0 -22 -16 -36.5t-39 -14.5h-72q-22 0 -36.5 14.5t-14.5 36.5v143q0 29 -39 43q-221 71 -221 361z" />
<glyph unicode="%" horiz-adv-x="1593" d="M119 1255v154q0 134 65 209q79 86 201 86q123 0 199 -86q67 -73 67 -209v-154q0 -132 -67 -208q-74 -84 -199 -84q-124 0 -201 84q-65 68 -65 208zM279 1245q0 -85 28 -115q26 -30 78 -30t78 30q31 34 31 115v172q0 83 -31 117q-31 31 -78 31t-78 -31q-28 -30 -28 -117 v-172zM426 43q0 9 8 37l567 1565q16 45 54 45h65q22 0 35 -13q10 -10 10 -30q0 -9 -8 -37l-567 -1565q-16 -45 -53 -45h-66q-23 0 -37 14q-8 8 -8 29zM942 279v153q0 133 66 209q79 86 200 86q123 0 199 -86q68 -74 68 -209v-153q0 -132 -68 -209q-74 -84 -199 -84 q-123 0 -200 84q-66 69 -66 209zM1102 268q0 -84 28 -114q27 -31 78 -31t78 31q31 34 31 114v172q0 83 -31 117q-31 31 -78 31t-78 -31q-28 -30 -28 -117v-172z" />
<glyph unicode="&#x26;" horiz-adv-x="1054" d="M127 381v154q0 86 16.5 152.5t65.5 115.5l16 16q17 17 17 33t-17 33l-16 16q-49 49 -65.5 115.5t-16.5 152.5v140q0 171 86 270q96 111 258 111h143q22 0 37 -15t15 -37v-63q0 -22 -15 -36.5t-37 -14.5h-145q-75 0 -123 -51q-47 -50 -47 -185v-117q0 -132 49 -184 q48 -51 125 -51h125q20 0 32.5 14t12.5 35v117q0 22 14.5 36.5t36.5 14.5h70q22 0 36.5 -14.5t14.5 -36.5v-117q0 -21 12.5 -35t32.5 -14h53q22 0 37 -14.5t15 -36.5v-60q0 -22 -15 -36.5t-37 -14.5h-53q-20 0 -32.5 -13.5t-12.5 -33.5v-676q0 -22 -14.5 -36.5t-36.5 -14.5 h-291q-162 0 -258 111q-88 101 -88 270zM299 401q0 -132 49 -184q48 -51 123 -51h127q20 0 32.5 13.5t12.5 33.5v514q0 20 -12.5 33.5t-32.5 13.5h-127q-73 0 -123 -53q-49 -52 -49 -184v-136z" />
<glyph unicode="'" horiz-adv-x="454" d="M141 1534v104q0 22 15 37t37 15h69q22 0 36.5 -15t14.5 -37v-104l-10 -217q-1 -20 -16.5 -32.5t-36.5 -12.5h-45q-21 0 -36.5 12.5t-16.5 32.5z" />
<glyph unicode="(" horiz-adv-x="647" d="M111 70v1417q0 121 21.5 185t66.5 116q92 106 272 106h12q22 0 37 -14.5t15 -36.5v-53q0 -20 -16.5 -34.5t-35.5 -16.5l-26 -2q-45 -3 -83 -25.5t-61 -56.5q-30 -46 -30 -197v-1364q0 -146 30 -192q22 -33 62 -56t82 -26l26 -2q18 0 35 -15t17 -36v-54q0 -22 -15 -36.5 t-37 -14.5h-12q-179 0 -272 107q-45 52 -66.5 116t-21.5 185z" />
<glyph unicode=")" horiz-adv-x="647" d="M111 -233q0 21 16.5 36t34.5 15l26 2q42 3 82 26t62 56q30 46 30 192v1364q0 151 -30 197q-23 34 -61 56.5t-83 25.5l-26 2q-19 2 -35 16.5t-16 34.5v53q0 22 14.5 36.5t36.5 14.5h12q180 0 272 -106q45 -52 67 -116t22 -185v-1417q0 -121 -22 -185t-67 -116 q-93 -107 -272 -107h-12q-22 0 -36.5 14.5t-14.5 36.5v54z" />
<glyph unicode="*" horiz-adv-x="935" d="M201 1243q0 32 24 47l80 49q27 16 27 41t-27 41l-80 49q-24 15 -24 48q0 22 16 38q15 15 31 15q15 0 28 -10l66 -41q15 -11 27 -11q19 0 32 12t13 33v91q0 45 45 45h16q45 0 45 -45v-91q0 -21 13 -33t32 -12q12 0 27 11l65 41q13 10 29 10t31 -15q16 -16 16 -38 q0 -33 -24 -48l-80 -49q-27 -16 -27 -41t27 -41l80 -49q24 -15 24 -47q0 -23 -16 -39q-14 -14 -31 -14q-16 0 -29 10l-65 41q-13 10 -27 10q-19 0 -32 -12t-13 -33v-90q0 -45 -45 -45h-16q-45 0 -45 45v90q0 21 -13 33t-32 12q-14 0 -27 -10l-66 -41q-13 -10 -28 -10 q-17 0 -31 14q-16 16 -16 39z" />
<glyph unicode="+" horiz-adv-x="1124" d="M152 653v66q0 22 14.5 36.5t36.5 14.5h229q45 0 45 41v256q0 22 14.5 36.5t36.5 14.5h70q22 0 36.5 -14.5t14.5 -36.5v-256q0 -41 45 -41h228q22 0 36.5 -14.5t14.5 -36.5v-66q0 -22 -14.5 -36.5t-36.5 -14.5h-228q-45 0 -45 -39v-258q0 -22 -14.5 -36.5t-36.5 -14.5h-70 q-22 0 -36.5 14.5t-14.5 36.5v258q0 39 -45 39h-229q-22 0 -36.5 14.5t-14.5 36.5z" />
<glyph unicode="," horiz-adv-x="466" d="M90 -225q0 29 35 53l16 12q70 58 70 125q0 28 -27 35l-8 2q-35 10 -35 49v92q0 22 15 37t37 15h81q22 0 37 -15t15 -37v-125q0 -161 -101 -251l-18 -17q-39 -29 -64 -29q-20 0 -36.5 15t-16.5 39z" />
<glyph unicode="-" horiz-adv-x="667" d="M129 651v76q0 22 14.5 36.5t36.5 14.5h305q22 0 37 -14.5t15 -36.5v-76q0 -22 -15 -36.5t-37 -14.5h-305q-22 0 -36.5 14.5t-14.5 36.5z" />
<glyph unicode="." horiz-adv-x="466" d="M141 51v92q0 22 15 37t37 15h81q22 0 37 -15t15 -37v-92q0 -22 -15 -36.5t-37 -14.5h-81q-22 0 -37 14.5t-15 36.5z" />
<glyph unicode="/" horiz-adv-x="712" d="M86 -59q0 18 4 36l404 1749q7 24 14 31q12 15 37 15h35q17 0 32 -11q13 -10 13 -32q0 -5 -7 -37l-403 -1749q-8 -27 -14 -33q-10 -12 -35 -12h-35q-20 0 -31 8q-14 8 -14 35z" />
<glyph unicode="0" d="M127 367v956q0 169 88 270q100 111 264 111t264 -111q88 -101 88 -270v-956q0 -170 -88 -271q-99 -110 -264 -110t-264 110q-88 101 -88 271zM303 381q0 -133 51 -184q49 -52 125 -52t125 52q51 51 51 184v928q0 133 -51 184q-48 51 -125 51t-125 -51q-51 -51 -51 -184 v-928z" />
<glyph unicode="1" horiz-adv-x="655" d="M51 1436v53q0 22 15.5 36.5t37.5 14.5h109q41 0 51 43l19 66q12 51 63 51h53q22 0 37 -14.5t15 -36.5v-1598q0 -22 -15 -36.5t-37 -14.5h-71q-22 0 -37 14.5t-15 36.5v1295q0 38 -47 38h-125q-22 0 -37.5 15t-15.5 37z" />
<glyph unicode="2" horiz-adv-x="946" d="M127 51v142q0 60 16 120.5t38 108t61.5 105.5t69.5 95t79 95l35 41q143 170 185 250t42 192v109q0 132 -49 184q-48 51 -125 51t-125 -51q-49 -49 -49 -184v-95q0 -22 -14.5 -36.5t-36.5 -14.5h-72q-22 0 -38.5 15t-16.5 36v109q0 169 88 270q100 111 264 111 q166 0 262 -111q88 -98 88 -270v-100q0 -83 -18 -156t-58 -144.5t-83.5 -130t-114.5 -141.5l-35 -41q-215 -252 -215 -381v-12q0 -49 43 -49h430q22 0 36.5 -14.5t14.5 -36.5v-66q0 -22 -14.5 -36.5t-36.5 -14.5h-598q-22 0 -37.5 14.5t-15.5 36.5z" />
<glyph unicode="3" horiz-adv-x="946" d="M127 367v125q0 22 15.5 36.5t37.5 14.5h72q22 0 36.5 -14.5t14.5 -36.5v-103q0 -133 51 -184q50 -53 127 -53t125 51q49 52 49 184v148q0 132 -49 184q-48 51 -125 51h-73q-22 0 -37 14.5t-15 36.5v66q0 22 15 36.5t37 14.5h71q79 0 127 51q49 52 49 185v129 q0 134 -47 184q-54 57 -129 57q-77 0 -125 -51q-51 -51 -51 -184v-95q0 -22 -14.5 -36.5t-36.5 -14.5h-72q-22 0 -37.5 14.5t-15.5 36.5v109q0 169 88 270q100 111 264 111q168 0 264 -111q88 -98 88 -270v-168q0 -87 -16.5 -153t-66.5 -115l-17 -17q-16 -16 -16 -32 q0 -17 16 -33l17 -17q50 -49 66.5 -115t16.5 -153v-153q0 -171 -90 -271q-95 -110 -262 -110q-165 0 -264 110q-88 101 -88 271z" />
<glyph unicode="4" horiz-adv-x="978" d="M96 406v75q0 36 82 377l189 787q7 30 22.5 41.5t46.5 11.5h56q23 0 38 -13.5t15 -37.5q0 -35 -24.5 -138t-129.5 -512l-18 -71q-86 -337 -86 -365q6 -37 51 -37l160 2q20 0 32.5 14t12.5 35v328q0 22 15.5 36.5t37.5 14.5h72q22 0 36.5 -14.5t14.5 -36.5v-328 q0 -21 12.5 -35t32.5 -14h74q22 0 37.5 -14.5t15.5 -36.5v-67q0 -22 -15.5 -37t-37.5 -15h-74q-20 0 -32.5 -13.5t-12.5 -33.5v-258q0 -22 -14.5 -36.5t-36.5 -14.5h-72q-22 0 -37.5 14.5t-15.5 36.5v258q0 20 -12.5 33.5t-32.5 13.5h-355q-21 0 -34 14.5t-13 35.5z" />
<glyph unicode="5" horiz-adv-x="942" d="M127 367v125q0 22 15.5 36.5t37.5 14.5h72q22 0 36.5 -14.5t14.5 -36.5v-111q0 -133 51 -184q49 -52 125 -52t125 52t49 184v246q0 132 -49 184q-48 51 -125 51q-66 0 -137 -31l-27 -12q-30 -12 -49 -12h-8q-35 0 -59.5 25t-24.5 65v741q0 22 14.5 37t36.5 15h490 q22 0 36.5 -15t14.5 -37v-65q0 -22 -14.5 -36.5t-36.5 -14.5h-320q-20 0 -33.5 -13.5t-13.5 -33.5v-209q0 -57 -0.5 -104.5t-1 -75t-0.5 -35.5q0 -43 43 -43q4 0 39 6t74 6q167 0 258 -123q35 -48 52 -103.5t17 -138.5v-288q0 -173 -88 -271q-95 -110 -262 -110 q-165 0 -264 110q-88 101 -88 271z" />
<glyph unicode="6" horiz-adv-x="952" d="M127 367v956q0 169 88 270q100 111 264 111q168 0 264 -111q88 -98 88 -270v-109q0 -22 -14.5 -36.5t-36.5 -14.5h-69q-22 0 -39 15t-17 36v95q0 132 -49 184q-48 51 -127 51q-77 0 -125 -51q-51 -51 -51 -184v-328q0 -20 12.5 -33.5t32.5 -13.5h131q168 0 264 -111 q88 -98 88 -270v-186q0 -173 -88 -271q-95 -110 -264 -110q-165 0 -264 110q-88 101 -88 271zM303 381q0 -133 51 -184q49 -52 125 -52q80 0 129 52q47 50 47 184v158q0 137 -45 184q-48 51 -129 51h-133q-20 0 -32.5 -13.5t-12.5 -33.5v-346z" />
<glyph unicode="7" horiz-adv-x="864" d="M51 1573v65q0 22 15.5 37t37.5 15h598q22 0 37 -15t15 -37v-71q0 -51 -82 -377l-123 -504q-124 -507 -135 -569l-13 -64q-6 -30 -22.5 -41.5t-48.5 -11.5h-56q-23 0 -38 13.5t-15 37.5v4q0 42 197 826l59 241q86 337 86 363q0 37 -51 37h-408q-22 0 -37.5 14.5 t-15.5 36.5z" />
<glyph unicode="8" d="M127 367v168q0 184 84 268l16 16q19 19 19 33t-19 33l-16 16q-84 84 -84 268v154q0 169 88 270q100 111 262 111q166 0 266 -111q88 -101 88 -270v-154q0 -185 -83 -268l-17 -16q-18 -18 -18 -33t18 -33l17 -16q83 -83 83 -268v-168q0 -167 -90 -271q-99 -110 -264 -110 q-161 0 -260 110q-90 104 -90 271zM303 387q0 -133 51 -184q48 -51 125 -51t125 51q51 51 51 184v152q0 133 -51 184q-48 51 -125 51t-125 -51q-51 -51 -51 -184v-152zM303 1169q0 -133 51 -184q48 -51 123 -51q79 0 127 51q51 51 51 184v134q0 135 -49 184q-48 51 -125 51 q-81 0 -129 -51q-49 -49 -49 -184v-134z" />
<glyph unicode="9" horiz-adv-x="952" d="M127 1137v186q0 169 88 270q100 111 266 111t262 -111q88 -98 88 -270v-956q0 -173 -88 -271q-95 -110 -262 -110q-165 0 -264 110q-88 101 -88 271v125q0 22 15.5 36.5t37.5 14.5h70q22 0 37.5 -14.5t15.5 -36.5v-111q0 -133 51 -184q49 -52 125 -52t125 52t49 184v328 q0 20 -12.5 33.5t-32.5 13.5h-131q-165 0 -264 110q-88 101 -88 271zM303 1151q0 -69 10 -113t37 -71q49 -52 127 -52h133q20 0 32.5 13.5t12.5 34.5v346q0 132 -49 184q-48 51 -129 51q-79 0 -127 -51q-27 -27 -37 -71t-10 -113v-158z" />
<glyph unicode=":" horiz-adv-x="466" d="M141 51v92q0 22 15 37t37 15h81q22 0 37 -15t15 -37v-92q0 -22 -15 -36.5t-37 -14.5h-81q-22 0 -37 14.5t-15 36.5zM141 1034v92q0 22 15 37t37 15h81q22 0 37 -15t15 -37v-92q0 -22 -15 -36.5t-37 -14.5h-81q-22 0 -37 14.5t-15 36.5z" />
<glyph unicode=";" horiz-adv-x="466" d="M90 -225q0 29 35 53l16 12q70 58 70 125q0 28 -27 35l-8 2q-35 10 -35 49v92q0 22 15 37t37 15h81q22 0 37 -15t15 -37v-125q0 -161 -101 -251l-18 -17q-39 -29 -64 -29q-20 0 -36.5 15t-16.5 39zM141 1034v92q0 22 15 37t37 15h81q22 0 37 -15t15 -37v-92 q0 -22 -15 -36.5t-37 -14.5h-81q-22 0 -37 14.5t-15 36.5z" />
<glyph unicode="&#x3c;" horiz-adv-x="1124" d="M156 643v86q0 50 23 77.5t73 41.5l649 178q24 6 37 6q43 0 43 -45v-43q0 -21 -9.5 -32.5t-35.5 -18.5l-551 -160q-23 -7 -35 -16.5t-12 -28.5t12 -28.5t35 -16.5l545 -160q28 -9 37.5 -20.5t9.5 -32.5v-63q0 -45 -45 -45q-17 0 -35 6l-645 196q-55 17 -75.5 42.5 t-20.5 76.5z" />
<glyph unicode="=" horiz-adv-x="1124" d="M96 469v66q0 22 14.5 36.5t36.5 14.5h719q22 0 37 -14.5t15 -36.5v-66q0 -22 -15 -36.5t-37 -14.5h-719q-22 0 -36.5 14.5t-14.5 36.5zM96 838v65q0 22 14.5 36.5t36.5 14.5h719q22 0 37 -14.5t15 -36.5v-65q0 -22 -15 -37t-37 -15h-719q-22 0 -36.5 15t-14.5 37z" />
<glyph unicode="&#x3e;" horiz-adv-x="1124" d="M156 367v63q0 21 9.5 32.5t35.5 18.5l551 160q23 7 35 16.5t12 28.5t-12 28.5t-35 16.5l-545 160q-28 9 -37.5 20.5t-9.5 32.5v64q0 45 45 45q17 0 35 -6l645 -197q55 -17 75.5 -42.5t20.5 -76.5v-86q0 -51 -20.5 -76.5t-75.5 -42.5l-649 -198q-24 -6 -37 -6 q-43 0 -43 45z" />
<glyph unicode="?" horiz-adv-x="923" d="M127 1214v109q0 169 88 270q100 111 264 111q166 0 262 -111q88 -98 88 -270v-57q0 -135 -27 -214t-122 -221l-29 -40q-55 -84 -70 -131.5t-24 -163.5l-4 -62q-1 -20 -16.5 -32.5t-36.5 -12.5h-43q-22 0 -38.5 12.5t-17.5 32.5q-6 117 -6 156q0 63 17.5 118t39 88.5 t68.5 98.5l23 33q53 76 81.5 148t28.5 173v60q0 132 -49 184q-48 51 -125 51t-125 -51q-49 -49 -49 -184v-95q0 -22 -14.5 -36.5t-36.5 -14.5h-72q-22 0 -38.5 15t-16.5 36zM385 51v92q0 22 14.5 37t36.5 15h84q22 0 37.5 -15t15.5 -37v-92q0 -22 -15.5 -36.5t-37.5 -14.5 h-84q-22 0 -36.5 14.5t-14.5 36.5z" />
<glyph unicode="@" horiz-adv-x="1570" d="M86 729v234q0 162 57.5 302.5t153.5 236t224 150t267 54.5q147 0 276 -54t221 -148t145 -227t53 -286v-53q0 -146 -31.5 -264t-85.5 -193.5t-124.5 -116t-151.5 -40.5q-73 0 -127 26l-9 4q-4 2 -14.5 8.5t-20.5 9.5t-26 3q-11 0 -23.5 -4t-32.5 -13t-32 -14 q-58 -20 -115 -20q-114 0 -196 79q-99 99 -99 252q0 81 19 203l28 191q24 158 111.5 246.5t237.5 88.5q55 0 93 -13t58.5 -25.5t32.5 -12.5q19 0 43 21l8 6q27 24 59 24q25 0 41.5 -16t16.5 -45l-99 -674q-12 -90 -12 -114q0 -54 24 -82.5t64 -28.5q53 0 111 49 q66 60 102.5 178.5t36.5 286.5v53q0 143 -47.5 260t-128.5 192t-184.5 115.5t-218.5 40.5q-136 0 -249.5 -52.5t-187.5 -140.5t-114.5 -202.5t-40.5 -240.5v-234q0 -303 166.5 -470t449.5 -167q125 0 220.5 38.5t187.5 111.5l10 8q4 3 11.5 10t11.5 10t11.5 6t16.5 3 q18 0 31 -13l10 -10q14 -14 14 -31q0 -15 -7.5 -26t-28.5 -29q-107 -91 -238 -137q-136 -47 -256 -47q-156 0 -290 53t-229.5 148.5t-149.5 235t-54 306.5zM557 639q0 -68 37 -111q43 -49 113 -49q86 0 135 58q36 43 45 110l41 309q10 72 10 138t-59 108q-45 31 -97 31 q-60 0 -100 -27q-59 -38 -74 -137l-37 -274q-14 -105 -14 -156z" />
<glyph unicode="A" d="M127 51v1272q0 169 88 270q100 111 264 111t264 -111q88 -101 88 -270v-1272q0 -22 -15.5 -36.5t-37.5 -14.5h-71q-22 0 -37 14.5t-15 36.5v615q0 19 -13 32t-32 13h-262q-19 0 -32 -13t-13 -32v-615q0 -22 -14.5 -36.5t-36.5 -14.5h-72q-22 0 -37.5 14.5t-15.5 36.5z M303 920q0 -19 13 -32.5t32 -13.5h262q19 0 32 13.5t13 32.5v389q0 133 -51 184q-48 51 -125 51t-125 -51q-51 -51 -51 -184v-389z" />
<glyph unicode="B" d="M131 51v1587q0 22 15.5 37t37.5 15h293q166 0 262 -111q88 -98 88 -270v-140q0 -86 -17 -152.5t-67 -115.5l-16 -16q-16 -16 -16 -33t16 -33l16 -16q50 -49 67 -115.5t17 -152.5v-154q0 -170 -90 -270q-96 -111 -262 -111h-291q-22 0 -37.5 14.5t-15.5 36.5zM307 211 q0 -45 45 -45h125q77 0 125 51q49 52 49 184v136q0 132 -49 184q-48 51 -125 51h-125q-20 0 -32.5 -13.5t-12.5 -33.5v-514zM307 981q0 -45 45 -45h123q79 0 127 51q49 52 49 184v117q0 135 -47 185q-48 51 -125 51h-121q-51 0 -51 -45v-498z" />
<glyph unicode="C" horiz-adv-x="946" d="M127 367v956q0 169 88 270q100 111 264 111q168 0 264 -111q88 -98 88 -270v-109q0 -22 -14.5 -36.5t-36.5 -14.5h-71q-22 0 -38 15t-16 36v95q0 132 -49 184q-48 51 -127 51q-77 0 -125 -51q-51 -51 -51 -184v-928q0 -133 51 -184q49 -52 125 -52q78 0 127 52t49 184 v111q0 21 16 36t38 15h71q22 0 36.5 -14.5t14.5 -36.5v-125q0 -173 -88 -271q-95 -110 -264 -110q-165 0 -264 110q-88 101 -88 271z" />
<glyph unicode="D" d="M127 51v1587q0 22 15.5 37t37.5 15h301q166 0 262 -111q88 -98 88 -270v-928q0 -170 -90 -270q-96 -111 -262 -111h-299q-22 0 -37.5 14.5t-15.5 36.5zM303 211q0 -45 45 -45h133q77 0 125 51q49 52 49 184v887q0 135 -47 185q-48 51 -125 51h-129q-51 0 -51 -45v-1268z " />
<glyph unicode="E" horiz-adv-x="751" d="M127 51v1587q0 22 15.5 37t37.5 15h430q22 0 37 -15t15 -37v-65q0 -40 -52 -51h-262q-20 0 -32.5 -13.5t-12.5 -33.5v-490q0 -20 12.5 -33.5t32.5 -13.5h262q22 0 37 -14.5t15 -36.5v-66q0 -22 -15 -36.5t-37 -14.5h-262q-20 0 -32.5 -13.5t-12.5 -33.5v-508 q0 -20 12.5 -33.5t32.5 -13.5h262q22 0 37 -14.5t15 -36.5v-66q0 -22 -15 -36.5t-37 -14.5h-430q-22 0 -37.5 14.5t-15.5 36.5z" />
<glyph unicode="F" horiz-adv-x="731" d="M127 51v1587q0 22 15.5 37t37.5 15h430q22 0 37 -15t15 -37v-65q0 -40 -52 -51h-262q-20 0 -32.5 -13.5t-12.5 -33.5v-549q0 -20 12.5 -33.5t32.5 -13.5h262q22 0 37 -15t15 -37v-65q0 -22 -15 -36.5t-37 -14.5h-262q-20 0 -32.5 -13.5t-12.5 -33.5v-613 q0 -22 -14.5 -36.5t-36.5 -14.5h-72q-22 0 -37.5 14.5t-15.5 36.5z" />
<glyph unicode="G" d="M127 367v956q0 169 88 270q100 111 264 111q168 0 264 -111q88 -98 88 -270v-109q0 -22 -14.5 -36.5t-36.5 -14.5h-71q-22 0 -38 15t-16 36v95q0 132 -49 184q-48 51 -127 51q-77 0 -125 -51q-51 -51 -51 -184v-928q0 -133 51 -184q49 -52 125 -52q78 0 127 52t49 184 v283q0 19 -12 32t-33 13h-65q-22 0 -36.5 14.5t-14.5 36.5v67q0 22 14.5 37t36.5 15h235q22 0 36.5 -15t14.5 -37v-770q0 -36 -20 -53q-17 -14 -45 -14q-26 0 -55 22l-9 6q-23 17 -47 17q-7 0 -18 -4t-29.5 -11t-32.5 -12q-68 -22 -124 -22q-59 0 -118 24t-95 60 q-57 61 -84 122.5t-27 174.5z" />
<glyph unicode="H" d="M127 51v1587q0 22 15.5 37t37.5 15h72q22 0 36.5 -15t14.5 -37v-657q0 -45 45 -45h260q20 0 33.5 12.5t13.5 32.5v657q0 22 16 37t38 15h71q22 0 36.5 -15t14.5 -37v-1587q0 -22 -14.5 -36.5t-36.5 -14.5h-71q-22 0 -38 15t-16 36v674q0 20 -13.5 33.5t-33.5 13.5h-260 q-20 0 -32.5 -13.5t-12.5 -33.5v-674q0 -22 -14.5 -36.5t-36.5 -14.5h-72q-22 0 -37.5 14.5t-15.5 36.5z" />
<glyph unicode="I" horiz-adv-x="466" d="M145 51v1587q0 22 16 37t38 15h71q22 0 37 -15t15 -37v-1587q0 -22 -15 -36.5t-37 -14.5h-71q-22 0 -38 15t-16 36z" />
<glyph unicode="J" horiz-adv-x="665" d="M82 51v66q0 22 15.5 36.5t37.5 14.5h55q76 0 127 51q48 53 48 184v1235q0 22 15 37t38 15h69q23 0 37.5 -15t14.5 -37v-1257q0 -169 -88 -270q-96 -111 -258 -111h-58q-22 0 -37.5 14.5t-15.5 36.5z" />
<glyph unicode="K" d="M127 51v1587q0 22 15.5 37t37.5 15h72q22 0 36.5 -15t14.5 -37v-657q0 -45 45 -45h131q79 0 127 51q49 52 49 184v467q0 22 16 37t38 15h71q22 0 36.5 -15t14.5 -37v-462q0 -89 -16.5 -158.5t-66.5 -118.5l-17 -16q-16 -16 -16 -33t16 -33l17 -16q50 -49 66.5 -117 t16.5 -156v-477q0 -22 -14.5 -36.5t-36.5 -14.5h-71q-22 0 -38 15t-16 36v484q0 132 -49 184q-50 53 -127 53h-133q-20 0 -31.5 -13t-11.5 -34v-674q0 -22 -14.5 -36.5t-36.5 -14.5h-72q-22 0 -37.5 14.5t-15.5 36.5z" />
<glyph unicode="L" horiz-adv-x="722" d="M127 51v1587q0 22 15.5 37t37.5 15h72q22 0 36.5 -15t14.5 -37v-1423q0 -20 12.5 -33.5t32.5 -13.5h246q22 0 36.5 -14.5t14.5 -36.5v-66q0 -22 -14.5 -36.5t-36.5 -14.5h-414q-22 0 -37.5 14.5t-15.5 36.5z" />
<glyph unicode="M" horiz-adv-x="1449" d="M127 51v1577q0 37 23 53q18 15 43 15t57 -21l8 -6q21 -16 45 -16q7 0 18 4t30 12t36 14q69 21 115 21q106 0 200 -82q9 -12 29 -12q15 0 33 12q94 82 237 82q59 0 122 -25.5t104 -70.5q96 -103 96 -281v-1276q0 -22 -14.5 -36.5t-36.5 -14.5h-72q-22 0 -37.5 14.5 t-15.5 36.5v1270q0 122 -49 174q-43 49 -119 49q-73 0 -119 -49q-47 -47 -47 -174v-1270q0 -22 -14.5 -36.5t-36.5 -14.5h-72q-22 0 -37.5 14.5t-15.5 36.5v1270q0 122 -49 174q-43 49 -119 49q-73 0 -119 -49q-47 -47 -47 -174v-1270q0 -22 -14.5 -36.5t-36.5 -14.5h-72 q-22 0 -37.5 14.5t-15.5 36.5z" />
<glyph unicode="N" d="M127 51v1577q0 37 23 53q18 15 43 15t57 -21l8 -6q21 -16 45 -16q7 0 18 3.5t31.5 11.5t36.5 13q76 23 129 23q59 0 118.5 -24t102.5 -70q92 -95 92 -285v-1274q0 -22 -14.5 -36.5t-36.5 -14.5h-71q-22 0 -38 15t-16 36v1258q0 130 -51 184q-48 51 -125 51t-125 -51 q-51 -51 -51 -184v-1258q0 -22 -14.5 -36.5t-36.5 -14.5h-72q-22 0 -37.5 14.5t-15.5 36.5z" />
<glyph unicode="O" d="M127 367v956q0 169 88 270q100 111 264 111t264 -111q88 -101 88 -270v-956q0 -170 -88 -271q-99 -110 -264 -110t-264 110q-88 101 -88 271zM303 381q0 -133 51 -184q49 -52 125 -52t125 52q51 51 51 184v928q0 133 -51 184q-48 51 -125 51t-125 -51q-51 -51 -51 -184 v-928z" />
<glyph unicode="P" horiz-adv-x="952" d="M127 51v1587q0 22 15.5 37t37.5 15h299q168 0 264 -111q88 -98 88 -270v-240q0 -170 -90 -270q-96 -111 -262 -111h-131q-20 0 -32.5 -13.5t-12.5 -33.5v-590q0 -22 -14.5 -36.5t-36.5 -14.5h-72q-22 0 -37.5 14.5t-15.5 36.5zM303 899q0 -45 45 -45h133q71 0 125 57 q49 52 49 185v192q0 135 -47 185q-48 51 -129 51h-125q-51 0 -51 -45v-580z" />
<glyph unicode="Q" d="M127 381v942q0 169 88 270q100 111 264 111q168 0 264 -111q88 -98 88 -270v-889q0 -68 -15.5 -111t-47.5 -87q-8 -11 -8 -25q0 -18 14 -30.5t33 -12.5h104q22 0 37 -14.5t15 -36.5v-66q0 -22 -15 -36.5t-37 -14.5h-430q-164 0 -264 111q-90 104 -90 270zM303 401 q0 -133 51 -184q48 -51 125 -51q79 0 127 51q49 52 49 184v908q0 132 -49 184q-48 51 -127 51q-77 0 -125 -51q-51 -51 -51 -184v-908z" />
<glyph unicode="R" d="M131 51v1587q0 22 15.5 37t37.5 15h295q164 0 260 -111q88 -98 88 -270v-181q0 -86 -17 -152.5t-67 -115.5l-16 -16q-16 -16 -16 -33t16 -33l16 -16q50 -49 67 -115.5t17 -152.5v-443q0 -22 -14.5 -36.5t-36.5 -14.5h-71q-22 0 -38 15t-16 36v443q0 132 -49 184 q-50 53 -127 53h-123q-20 0 -32.5 -13.5t-12.5 -33.5v-633q0 -22 -14.5 -36.5t-36.5 -14.5h-72q-22 0 -37.5 14.5t-15.5 36.5zM307 940q0 -45 47 -45h121q79 0 127 51q49 52 49 184v158q0 135 -47 185q-48 51 -125 51h-119q-53 0 -53 -45v-539z" />
<glyph unicode="S" horiz-adv-x="948" d="M123 367v125q0 22 15.5 36.5t37.5 14.5h72q22 0 36.5 -14.5t14.5 -36.5v-111q0 -132 47 -184q52 -52 133 -52q73 0 123 50q47 52 47 180v117q0 101 -31 145q-29 43 -112 82l-162 72q-101 46 -160 129q-59 86 -59 235v174q0 197 121 297q97 78 231 78q164 0 258 -109 q86 -95 86 -268v-113q0 -22 -15 -36.5t-38 -14.5h-70q-23 0 -38 14.5t-15 36.5v101q0 125 -49 180q-52 49 -123 49q-73 0 -125 -49q-47 -52 -47 -180v-152q0 -101 31 -143q25 -40 110 -82l162 -74q109 -48 162 -123q31 -44 45 -98t14 -139v-144q0 -201 -120 -297 q-96 -77 -230 -77q-165 0 -264 110q-88 101 -88 271z" />
<glyph unicode="T" horiz-adv-x="843" d="M57 1573v65q0 22 16 37t38 15h624q22 0 36.5 -15t14.5 -37v-65q0 -22 -14.5 -36.5t-36.5 -14.5h-180q-20 0 -32.5 -14t-12.5 -35v-1422q0 -22 -15 -36.5t-38 -14.5h-70q-23 0 -38 14.5t-15 36.5v1422q0 21 -12.5 35t-32.5 14h-178q-22 0 -38 15t-16 36z" />
<glyph unicode="U" d="M127 367v1271q0 22 15.5 37t37.5 15h72q22 0 36.5 -15t14.5 -37v-1257q0 -133 51 -184q49 -52 125 -52q78 0 127 52t49 184v1257q0 22 16 37t38 15h71q22 0 36.5 -15t14.5 -37v-1271q0 -173 -88 -271q-95 -110 -264 -110q-165 0 -264 110q-88 101 -88 271z" />
<glyph unicode="V" horiz-adv-x="1026" d="M98 1640q0 18 14.5 34t39.5 16h71q47 0 53 -50l191 -1431q6 -47 45 -47t45 47l193 1431q3 23 17.5 36.5t37.5 13.5h69q24 0 38 -16t14 -34q0 -9 -8 -55l-216 -1499q-6 -39 -32.5 -62.5t-65.5 -23.5h-188q-39 0 -66 23.5t-33 62.5l-211 1499q-8 46 -8 55z" />
<glyph unicode="W" horiz-adv-x="1449" d="M127 1638q0 22 15.5 37t37.5 15h72q22 0 36.5 -15t14.5 -37v-1269q0 -127 47 -174q47 -50 119 -50q75 0 119 50q49 52 49 174v1269q0 22 15.5 37t37.5 15h72q22 0 36.5 -15t14.5 -37v-1269q0 -127 47 -174q47 -50 119 -50q75 0 119 50q49 52 49 174v1269q0 22 15.5 37 t37.5 15h72q22 0 36.5 -15t14.5 -37v-1276q0 -170 -102 -280q-43 -46 -102.5 -71t-117.5 -25q-135 0 -227 69l-16 13q-18 12 -31 12q-16 0 -31 -12l-14 -13q-80 -69 -229 -69q-59 0 -122.5 25.5t-105.5 70.5q-96 103 -96 280z" />
<glyph unicode="X" d="M127 51v479q0 86 17 153t67 116l16 16q17 17 17 33t-17 33l-16 16q-50 49 -67 115.5t-17 152.5v473q0 22 15.5 37t37.5 15h72q22 0 36.5 -15t14.5 -37v-469q0 -133 51 -184q48 -51 125 -51t125 51q51 51 51 184v469q0 22 15 37t37 15h71q22 0 37.5 -15t15.5 -37v-473 q0 -87 -16.5 -153t-66.5 -115l-17 -16q-16 -16 -16 -33t16 -33l17 -16q50 -49 66.5 -115.5t16.5 -153.5v-479q0 -22 -15.5 -36.5t-37.5 -14.5h-71q-22 0 -37 14.5t-15 36.5v486q0 133 -51 184q-50 53 -125 53t-125 -53q-51 -51 -51 -184v-486q0 -22 -14.5 -36.5t-36.5 -14.5 h-72q-22 0 -37.5 14.5t-15.5 36.5z" />
<glyph unicode="Y" d="M127 1049v589q0 22 15.5 37t37.5 15h72q22 0 36.5 -15t14.5 -37v-577q0 -133 51 -184q49 -52 125 -52q78 0 127 52t49 184v577q0 22 16 37t38 15h71q22 0 36.5 -15t14.5 -37v-589q0 -141 -61 -235.5t-147 -125.5l-23 -8q-31 -16 -31 -43v-586q0 -22 -15.5 -36.5 t-37.5 -14.5h-72q-22 0 -36.5 14.5t-14.5 36.5v582q0 29 -28 45l-25 10q-213 93 -213 361z" />
<glyph unicode="Z" horiz-adv-x="831" d="M111 51v49q0 53 16 99l371 1247q6 12 6 29q0 20 -12.5 32.5t-34.5 12.5h-285q-23 0 -38 14.5t-15 36.5v67q0 22 15 37t38 15h485q23 0 38.5 -15t15.5 -37v-69q0 -21 -17 -78l-370 -1247q-7 -14 -7 -29q0 -19 12 -32t33 -13h304q23 0 38 -14.5t15 -36.5v-68 q0 -22 -15 -36.5t-38 -14.5h-502q-23 0 -38 14.5t-15 36.5z" />
<glyph unicode="[" horiz-adv-x="647" d="M106 -287v2130q0 22 15 36.5t37 14.5h331q22 0 37 -14.5t15 -36.5v-55q0 -40 -52 -51h-165q-20 0 -32.5 -13.5t-12.5 -33.5v-1823q0 -20 12.5 -33.5t32.5 -13.5h165q22 0 37 -14.5t15 -36.5v-56q0 -22 -15 -36.5t-37 -14.5h-331q-22 0 -37 14.5t-15 36.5z" />
<glyph unicode="\" horiz-adv-x="712" d="M86 1729q0 23 12 32q15 11 33 11h35q25 0 37 -15q7 -7 14 -31l404 -1749q4 -18 4 -36q0 -26 -15 -35q-11 -8 -30 -8h-35q-25 0 -35 12q-6 6 -14 33l-404 1749q-6 27 -6 37z" />
<glyph unicode="]" horiz-adv-x="647" d="M106 -231q0 22 15 36.5t37 14.5h166q20 0 32.5 13.5t12.5 33.5v1823q0 20 -12.5 33.5t-32.5 13.5h-166q-52 11 -52 51v55q0 22 15 36.5t37 14.5h331q22 0 37 -14.5t15 -36.5v-2130q0 -22 -15 -36.5t-37 -14.5h-331q-22 0 -37 14.5t-15 36.5v56z" />
<glyph unicode="^" horiz-adv-x="1124" d="M154 516q0 13 6 37l219 614q19 52 48.5 74.5t80.5 22.5h106q54 0 83 -20.5t46 -76.5l220 -614q6 -24 6 -37q0 -43 -45 -43h-97q-21 0 -32.5 9.5t-18.5 35.5l-170 514q-7 23 -16.5 35t-28.5 12t-28.5 -12t-16.5 -35l-170 -514q-7 -26 -18.5 -35.5t-32.5 -9.5h-96 q-45 0 -45 43z" />
<glyph unicode="_" horiz-adv-x="1124" d="M102 -190q0 22 15 36.5t37 14.5h815q22 0 36.5 -14.5t14.5 -36.5v-66q0 -22 -14.5 -36.5t-36.5 -14.5h-815q-22 0 -37 14.5t-15 36.5v66z" />
<glyph unicode="`" horiz-adv-x="937" d="M272 1647q0 18 12 30.5t33 12.5h89q32 0 48 -8t38 -33l129 -162q24 -28 24 -45q0 -19 -11.5 -32t-31.5 -13q-22 0 -41 16l-270 193q-19 17 -19 41z" />
<glyph unicode="a" horiz-adv-x="927" d="M109 365v32q0 91 36 169.5t103 127.5q81 62 221 62h117q20 0 32.5 13.5t12.5 33.5v117q0 132 -49 184q-48 51 -123 51t-123 -51q-49 -52 -49 -164v-2q0 -22 -14.5 -36.5t-36.5 -14.5h-70q-22 0 -36.5 14.5t-14.5 36.5v14q0 153 86 252q96 111 258 111t258 -111 q86 -99 86 -270v-873q0 -35 -21 -53q-17 -14 -43 -14q-28 0 -55 20l-8 6q-23 17 -45 17q-7 0 -18.5 -4.5t-29 -12t-32.5 -12.5q-64 -22 -119 -22q-147 0 -235 109.5t-88 269.5zM287 346q0 -83 41 -139q45 -62 131 -62q69 0 120.5 43.5t51.5 126.5v238q0 20 -12.5 33.5 t-32.5 13.5h-131q-87 0 -133 -63q-35 -49 -35 -134v-57z" />
<glyph unicode="b" horiz-adv-x="931" d="M125 57v1581q0 22 14.5 37t36.5 15h70q22 0 36.5 -15t14.5 -37v-245q0 -16 -1 -31t-1 -27q0 -20 12.5 -33.5t32.5 -13.5q17 0 47 10q60 17 105 17q143 0 235 -109q86 -99 86 -272v-567q0 -176 -84 -273q-92 -108 -225 -108q-50 0 -123 20q-15 5 -35 13t-31 12t-18 4 q-22 0 -45 -17l-8 -6q-29 -22 -56 -22q-26 0 -43 14q-20 17 -20 53zM297 381q0 -132 49 -184t123 -52t123 52t49 184v539q0 132 -49 184q-48 51 -123 51t-123 -51q-49 -52 -49 -184v-539z" />
<glyph unicode="c" horiz-adv-x="917" d="M125 367v567q0 171 86 270q96 111 258 111t258 -111q86 -99 86 -252v-47q0 -22 -14.5 -36.5t-36.5 -14.5h-70q-22 0 -36.5 14.5t-14.5 36.5v45q0 102 -49 154q-48 51 -123 51t-123 -51q-49 -52 -49 -184v-539q0 -132 49 -184t123 -52t123 52t49 178v22q0 22 14.5 37 t36.5 15h70q22 0 36.5 -15t14.5 -37v-30q0 -172 -86 -271q-95 -110 -258 -110t-258 110q-86 99 -86 271z" />
<glyph unicode="d" horiz-adv-x="931" d="M119 367v567q0 173 86 272q92 109 235 109q45 0 105 -17q30 -10 47 -10q20 0 32.5 13.5t12.5 33.5q0 12 -1 27t-1 31v245q0 22 14.5 37t36.5 15h70q22 0 36.5 -15t14.5 -37v-1581q0 -35 -21 -53q-17 -14 -43 -14t-55 22l-8 6q-23 17 -45 17q-7 0 -18 -4t-31 -12t-35 -13 q-73 -20 -123 -20q-133 0 -225 108q-84 97 -84 273zM291 381q0 -132 49 -184t123 -52t123 52t49 184v539q0 132 -49 184q-48 51 -123 51t-123 -51q-49 -52 -49 -184v-539z" />
<glyph unicode="e" horiz-adv-x="935" d="M125 367v567q0 171 86 270q96 111 258 111t258 -111q86 -99 86 -270v-281q0 -22 -15.5 -37.5t-37.5 -15.5h-418q-20 0 -32.5 -12.5t-12.5 -32.5v-174q0 -132 49 -184t123 -52t123 52t49 184v16q0 22 14.5 37t36.5 15h70q22 0 36.5 -15t14.5 -37v-30q0 -172 -86 -271 q-95 -110 -258 -110t-258 110q-86 99 -86 271zM297 801q0 -45 45 -45h252q20 0 33.5 13.5t13.5 33.5v117q0 132 -49 184q-48 51 -123 51t-123 -51q-49 -52 -49 -184v-119z" />
<glyph unicode="f" horiz-adv-x="700" d="M53 1190v59q0 22 14.5 36.5t36.5 14.5h84q20 0 32.5 13.5t12.5 34.5v26q0 74 13 131q17 67 61 111q22 21 43.5 34.5t69.5 26.5t112 13h64q22 0 36.5 -15t14.5 -37v-59q0 -22 -14.5 -36.5t-36.5 -14.5h-47q-87 0 -117 -33q-26 -29 -26 -100v-47q0 -21 12.5 -34.5 t32.5 -13.5h145q22 0 36.5 -14.5t14.5 -36.5v-59q0 -22 -14.5 -36.5t-36.5 -14.5h-145q-20 0 -32.5 -14t-12.5 -35v-1039q0 -22 -15 -36.5t-37 -14.5h-69q-22 0 -37 14.5t-15 36.5v1039q0 21 -12.5 35t-32.5 14h-84q-22 0 -36.5 14.5t-14.5 36.5z" />
<glyph unicode="g" horiz-adv-x="933" d="M125 494v440q0 177 84 274q91 107 225 107q20 0 40.5 -3t30.5 -5.5t29.5 -8t22.5 -6.5q16 -5 35 -13.5t30.5 -12.5t18.5 -4q24 0 45 16l8 6q31 23 56 23t43 -15q20 -17 20 -53v-1204q0 -180 -98 -283q-99 -102 -246 -102t-246 102q-42 44 -68 102t-26 115v6q0 22 14.5 37 t36.5 15h64q48 0 57 -54l2 -10q14 -75 43 -104q49 -49 123 -49t123 49q49 52 49 174v63q0 20 -11.5 32.5t-31.5 12.5q-9 0 -27 -6.5t-24 -7.5l-23 -6q-41 -12 -92 -12q-52 0 -109.5 23.5t-101.5 70.5q-96 101 -96 291zM297 504q0 -133 49 -185q48 -51 123 -51t123 51 q49 52 49 185v416q0 132 -49 184q-48 51 -123 51t-123 -51q-49 -52 -49 -184v-416z" />
<glyph unicode="h" horiz-adv-x="937" d="M125 51v1587q0 22 14.5 37t36.5 15h70q22 0 36.5 -15t14.5 -37v-198q0 -26 -2 -57t-2 -44q0 -27 12.5 -44t32.5 -17t47 12l21 8q49 17 102 17q58 0 115 -24t100 -70q90 -97 90 -285v-885q0 -22 -14.5 -36.5t-36.5 -14.5h-70q-22 0 -36.5 14.5t-14.5 36.5v869 q0 132 -49 184q-48 51 -123 51t-123 -51q-49 -52 -49 -184v-869q0 -22 -14.5 -36.5t-36.5 -14.5h-70q-22 0 -36.5 14.5t-14.5 36.5z" />
<glyph unicode="i" horiz-adv-x="456" d="M135 1556v82q0 22 14.5 37t36.5 15h82q22 0 36.5 -15t14.5 -37v-82q0 -22 -14.5 -36.5t-36.5 -14.5h-82q-22 0 -36.5 14.5t-14.5 36.5zM141 51v1198q0 22 15 36.5t37 14.5h69q22 0 36.5 -14.5t14.5 -36.5v-1198q0 -22 -14.5 -36.5t-36.5 -14.5h-69q-22 0 -37 14.5 t-15 36.5z" />
<glyph unicode="j" horiz-adv-x="456" d="M-53 -227q0 22 14.5 36.5t36.5 14.5h18q73 0 101 39q26 36 26 108v1278q0 22 15 36.5t37 14.5h69q22 0 36.5 -14.5t14.5 -36.5v-1245q0 -178 -73 -260q-76 -82 -236 -82h-8q-22 0 -36.5 14.5t-14.5 36.5v60zM137 1556v82q0 22 14.5 37t36.5 15h82q22 0 37 -15t15 -37v-82 q0 -22 -15 -36.5t-37 -14.5h-82q-22 0 -36.5 14.5t-14.5 36.5z" />
<glyph unicode="k" horiz-adv-x="942" d="M125 51v1587q0 22 14.5 37t36.5 15h70q22 0 36.5 -15t14.5 -37v-827q0 -45 45 -45h125q77 0 125 51q49 52 49 184v248q0 22 14.5 36.5t36.5 14.5h70q22 0 36.5 -14.5t14.5 -36.5v-248q0 -86 -16.5 -152.5t-65.5 -115.5l-16 -16q-17 -17 -17 -33t17 -33l16 -16 q49 -49 65.5 -115.5t16.5 -152.5v-316q0 -22 -14.5 -36.5t-36.5 -14.5h-70q-22 0 -36.5 14.5t-14.5 36.5v322q0 132 -49 184q-50 53 -125 53h-127q-20 0 -31.5 -13t-11.5 -34v-512q0 -22 -14.5 -36.5t-36.5 -14.5h-70q-22 0 -36.5 14.5t-14.5 36.5z" />
<glyph unicode="l" horiz-adv-x="456" d="M141 51v1587q0 22 15 37t37 15h69q22 0 36.5 -15t14.5 -37v-1587q0 -22 -14.5 -36.5t-36.5 -14.5h-69q-22 0 -37 14.5t-15 36.5z" />
<glyph unicode="m" horiz-adv-x="1419" d="M125 51v940v248q0 36 20 53q18 15 43 15t56 -23l8 -6q21 -16 45 -16q7 0 17.5 4t28.5 12t34 14q76 23 112 23q106 0 197 -82q12 -12 29 -12q15 0 30 12q96 82 234 82q57 0 118.5 -25.5t102.5 -70.5q94 -101 94 -281v-887q0 -21 -22 -36t-45 -15h-53q-22 0 -37 14.5 t-15 36.5v883q0 124 -45 172q-44 47 -116 47q-73 0 -117 -47q-49 -52 -49 -172v-883q0 -22 -15 -36.5t-37 -14.5h-69q-22 0 -36.5 14.5t-14.5 36.5v883q0 124 -45 172q-44 47 -117 47t-117 -47q-47 -50 -47 -172v-883q0 -22 -14.5 -36.5t-36.5 -14.5h-70q-22 0 -36.5 14.5 t-14.5 36.5z" />
<glyph unicode="n" horiz-adv-x="937" d="M125 51v1188q0 36 20 53q18 15 43 15t56 -23l8 -6q21 -16 45 -16q7 0 18.5 4t30.5 12.5t35 13.5q76 23 127 23q58 0 115 -24t100 -70q90 -97 90 -285v-885q0 -22 -14.5 -36.5t-36.5 -14.5h-70q-22 0 -36.5 14.5t-14.5 36.5v869q0 132 -49 184q-48 51 -123 51t-123 -51 q-49 -52 -49 -184v-869q0 -22 -14.5 -36.5t-36.5 -14.5h-70q-22 0 -36.5 14.5t-14.5 36.5z" />
<glyph unicode="o" horiz-adv-x="937" d="M125 367v567q0 171 86 270q96 111 258 111t258 -111q86 -99 86 -270v-567q0 -172 -86 -271q-95 -110 -258 -110t-258 110q-86 99 -86 271zM297 381q0 -132 49 -184t123 -52t123 52t49 184v539q0 132 -49 184q-48 51 -123 51t-123 -51q-49 -52 -49 -184v-539z" />
<glyph unicode="p" horiz-adv-x="931" d="M125 -287v1530q0 36 20 53q18 15 43 15t56 -23l8 -6q21 -16 45 -16q7 0 18 3.5t31 11.5t35 13q76 21 123 21q132 0 225 -109q84 -97 84 -272v-567q0 -174 -86 -273q-91 -108 -235 -108q-49 0 -105 16q-30 10 -47 10q-20 0 -32.5 -13.5t-12.5 -33.5q0 -12 1 -26.5t1 -30.5 v-195q0 -22 -14.5 -36.5t-36.5 -14.5h-70q-22 0 -36.5 14.5t-14.5 36.5zM297 381q0 -132 49 -184t123 -52t123 52t49 184v539q0 132 -49 184q-48 51 -123 51t-123 -51q-49 -52 -49 -184v-539z" />
<glyph unicode="q" horiz-adv-x="931" d="M119 367v567q0 175 84 272q93 109 225 109q47 0 123 -21q15 -5 35 -13t31 -11.5t18 -3.5q24 0 45 16l8 6q31 23 55 23q25 0 43 -15q21 -18 21 -53v-1530q0 -22 -14.5 -36.5t-36.5 -14.5h-70q-22 0 -36.5 14.5t-14.5 36.5v195q0 16 1 30.5t1 26.5q0 20 -12.5 33.5 t-32.5 13.5q-17 0 -47 -10q-56 -16 -105 -16q-144 0 -235 108q-86 99 -86 273zM291 381q0 -132 49 -184t123 -52t123 52t49 184v539q0 132 -49 184q-48 51 -123 51t-123 -51q-49 -52 -49 -184v-539z" />
<glyph unicode="r" horiz-adv-x="645" d="M125 51v1188q0 36 20 53q18 15 43 15t56 -23l8 -6q21 -16 45 -16q8 0 84 26q65 21 123 21h37q24 0 38.5 -14t14.5 -38v-67q0 -22 -14.5 -36.5t-36.5 -14.5h-60q-99 0 -143 -47q-43 -48 -43 -177v-864q0 -22 -14.5 -36.5t-36.5 -14.5h-70q-22 0 -36.5 14.5t-14.5 36.5z " />
<glyph unicode="s" horiz-adv-x="923" d="M121 367v30q0 22 14.5 37t36.5 15h70q22 0 36.5 -15t14.5 -37v-2q0 -146 47 -198q49 -52 121 -52q77 0 125 48q47 47 47 147v8q0 83 -29 127q-29 46 -100 78l-144 63q-79 35 -116.5 64t-67.5 70q-51 71 -51 198v19q0 161 93 254.5t241 93.5q162 0 258 -111 q86 -99 86 -252v-14q0 -22 -14.5 -36.5t-36.5 -14.5h-70q-22 0 -36.5 14.5t-14.5 36.5q0 114 -49 166q-48 51 -123 51q-74 0 -121 -47q-43 -43 -43 -147v-5q0 -64 27 -110q22 -37 94 -70l143 -63q81 -36 121.5 -66t69.5 -69q53 -74 53 -191v-53q0 -160 -96.5 -254 t-245.5 -94q-159 0 -254 110q-86 99 -86 271z" />
<glyph unicode="t" horiz-adv-x="688" d="M53 1190v59q0 22 14.5 36.5t36.5 14.5h76q20 0 32.5 14.5t12.5 35.5v143q0 22 14.5 36.5t36.5 14.5h70q22 0 36.5 -14.5t14.5 -36.5v-143q0 -21 12.5 -35.5t32.5 -14.5h142q22 0 36.5 -14.5t14.5 -36.5v-59q0 -22 -14.5 -36.5t-36.5 -14.5h-142q-20 0 -32.5 -13.5 t-12.5 -33.5v-826q0 -56 27 -80q24 -24 65 -24h95q22 0 36.5 -14.5t14.5 -36.5v-60q0 -22 -14.5 -36.5t-36.5 -14.5h-70q-161 0 -229 74q-60 66 -60 200v818q0 20 -12.5 33.5t-32.5 13.5h-76q-22 0 -36.5 14.5t-14.5 36.5z" />
<glyph unicode="u" horiz-adv-x="937" d="M125 365v884q0 22 14.5 36.5t36.5 14.5h70q22 0 36.5 -14.5t14.5 -36.5v-868q0 -132 49 -184t123 -52t123 52t49 184v868q0 22 14.5 36.5t36.5 14.5h70q22 0 36.5 -14.5t14.5 -36.5v-1192q0 -36 -20 -53q-17 -14 -43 -14q-27 0 -56 22l-8 6q-23 17 -45 17q-7 0 -18 -4 t-31 -12t-35 -13q-66 -20 -127 -20q-58 0 -115 24t-100 70q-90 97 -90 285z" />
<glyph unicode="v" horiz-adv-x="983" d="M106 1251q0 17 14 33t38 16h71q46 0 52 -49l168 -1042q6 -47 45 -47t45 47l166 1042q6 49 53 49h67q24 0 38 -16t14 -33q0 -3 -9 -55l-192 -1110q-6 -40 -32 -63t-64 -23h-177q-38 0 -64 23t-32 63l-192 1110q-9 52 -9 55z" />
<glyph unicode="w" horiz-adv-x="1419" d="M125 352v897q0 22 14.5 36.5t36.5 14.5h70q22 0 36.5 -14.5t14.5 -36.5v-882q0 -122 47 -172q45 -48 117 -48t117 48t45 172v882q0 22 14.5 36.5t36.5 14.5h69q22 0 37 -14.5t15 -36.5v-882q0 -120 49 -172q45 -48 117 -48q71 0 116 48t45 172v882q0 22 15 36.5t37 14.5 h53q23 0 45 -15t22 -36v-897q0 -164 -100 -272q-41 -44 -100 -69t-115 -25q-119 0 -201 51q-21 14 -39 29q-15 12 -28 12q-16 0 -31 -12q-7 -6 -19 -15l-16 -12q-90 -53 -205 -53q-57 0 -118.5 25t-102.5 69q-94 98 -94 272z" />
<glyph unicode="x" horiz-adv-x="937" d="M125 51v316q0 86 16.5 152.5t65.5 115.5l16 16q17 17 17 33t-17 33l-16 16q-49 49 -65.5 115.5t-16.5 152.5v248q0 22 14.5 36.5t36.5 14.5h70q22 0 36.5 -14.5t14.5 -36.5v-250q0 -132 49 -184q48 -51 123 -51t123 51q49 52 49 184v250q0 22 14.5 36.5t36.5 14.5h70 q22 0 36.5 -14.5t14.5 -36.5v-248q0 -86 -16.5 -152.5t-65.5 -115.5l-16 -16q-17 -17 -17 -33t17 -33l16 -16q49 -49 65.5 -115.5t16.5 -152.5v-316q0 -22 -14.5 -36.5t-36.5 -14.5h-70q-22 0 -36.5 14.5t-14.5 36.5v324q0 132 -49 184q-50 53 -123 53t-123 -53 q-49 -52 -49 -184v-324q0 -22 -14.5 -36.5t-36.5 -14.5h-70q-22 0 -36.5 14.5t-14.5 36.5z" />
<glyph unicode="y" horiz-adv-x="937" d="M125 494v755q0 22 14.5 36.5t36.5 14.5h70q22 0 36.5 -14.5t14.5 -36.5v-745q0 -133 49 -185q48 -51 123 -51t123 51q49 52 49 185v745q0 22 14.5 36.5t36.5 14.5h70q22 0 36.5 -14.5t14.5 -36.5v-1214q0 -180 -98 -283q-99 -102 -246 -102t-246 102q-42 44 -68 102 t-26 115v6q0 22 14.5 37t36.5 15h64q48 0 57 -54l2 -10q14 -75 43 -104q49 -49 123 -49t123 49q49 52 49 174v61q0 21 -11.5 34t-31.5 13q-9 0 -27 -6.5t-24 -7.5l-23 -6q-41 -12 -92 -12q-52 0 -109.5 23.5t-101.5 70.5q-96 101 -96 291z" />
<glyph unicode="z" horiz-adv-x="790" d="M106 51v49q0 50 17 99l332 866q6 12 6 29q0 19 -12 32t-33 13h-252q-22 0 -36.5 14.5t-14.5 36.5v59q0 22 14.5 36.5t36.5 14.5h454q22 0 37 -14.5t15 -36.5v-69q0 -31 -17 -78l-334 -866q-6 -12 -6 -29q0 -19 12 -32t33 -13h277q22 0 36.5 -14.5t14.5 -36.5v-60 q0 -22 -14.5 -36.5t-36.5 -14.5h-477q-22 0 -37 14.5t-15 36.5z" />
<glyph unicode="{" horiz-adv-x="827" d="M82 745v66q0 22 14.5 36.5t36.5 14.5h12q75 0 122.5 53.5t47.5 165.5v424q0 183 92 283t269 106h22q45 0 45 -45v-67q0 -38 -45 -41q-95 -9 -151 -51q-30 -23 -45 -68t-15 -145v-299q0 -139 -16 -222.5t-68 -130.5l-18 -16q-14 -14 -14 -31q0 -16 14 -30l18 -17 q52 -47 68 -130t16 -222v-299q0 -100 15 -145t45 -68q56 -42 151 -51q45 -3 45 -41v-68q0 -45 -45 -45h-22q-177 6 -269 106t-92 283v424q0 112 -47.5 165.5t-122.5 53.5h-12q-22 0 -36.5 14.5t-14.5 36.5z" />
<glyph unicode="|" horiz-adv-x="409" d="M123 -287v2130q0 22 14.5 36.5t36.5 14.5h62q22 0 36.5 -14.5t14.5 -36.5v-2130q0 -22 -14.5 -36.5t-36.5 -14.5h-62q-22 0 -36.5 14.5t-14.5 36.5z" />
<glyph unicode="}" horiz-adv-x="827" d="M82 -225q0 38 45 41q96 9 152 51q30 23 44.5 67.5t14.5 145.5v299q0 139 16 222t68 130l18 17q15 15 15 30q0 16 -15 31l-18 16q-52 47 -68 130.5t-16 222.5v299q0 101 -14.5 145.5t-44.5 67.5q-56 42 -152 51q-45 3 -45 41v67q0 45 45 45h23q177 -6 268.5 -106 t91.5 -283v-424q0 -112 47.5 -165.5t122.5 -53.5h12q22 0 36.5 -14.5t14.5 -36.5v-66q0 -22 -14.5 -36.5t-36.5 -14.5h-12q-75 0 -122.5 -53.5t-47.5 -165.5v-424q0 -183 -91.5 -283t-268.5 -106h-23q-45 0 -45 45v68z" />
<glyph unicode="~" horiz-adv-x="1124" d="M115 518v25q0 169 72.5 265.5t181.5 96.5q58 0 106 -20.5t78 -50.5t57 -66t46 -66t43.5 -50.5t50.5 -20.5q45 0 65.5 53.5t20.5 171.5q0 45 45 45h82q45 0 45 -45v-25q0 -169 -72.5 -265.5t-181.5 -96.5q-58 0 -106 20.5t-78 50.5t-57 66t-46 66t-43.5 50.5t-50.5 20.5 q-45 0 -65.5 -53.5t-20.5 -171.5q0 -45 -45 -45h-82q-45 0 -45 45z" />
<glyph unicode="&#xa1;" horiz-adv-x="491" d="M150 1198v92q0 22 14.5 36.5t36.5 14.5h88q22 0 36.5 -14.5t14.5 -36.5v-92q0 -22 -14.5 -36.5t-36.5 -14.5h-88q-22 0 -36.5 14.5t-14.5 36.5zM158 -37l8 938q0 22 14.5 36.5t36.5 14.5h55q22 0 37 -14.5t15 -36.5l8 -938v-250q0 -22 -14.5 -36.5t-36.5 -14.5h-72 q-22 0 -36.5 14.5t-14.5 36.5v250z" />
<glyph unicode="&#xa2;" d="M127 561v567q0 198 123 297q47 38 106 58q35 14 35 43v127q0 22 14.5 36.5t36.5 14.5h70q22 0 37.5 -14.5t15.5 -36.5v-127q0 -30 37 -43q78 -26 133 -88q86 -95 86 -269v-18q0 -22 -14.5 -36.5t-36.5 -14.5h-72q-22 0 -37.5 14.5t-15.5 36.5v16q0 129 -47 181 q-49 49 -123 49t-123 -49q-49 -52 -49 -181v-559q0 -128 49 -180q49 -49 123 -49t123 49q47 52 47 180v17q0 22 15.5 36.5t37.5 14.5h72q22 0 36.5 -14.5t14.5 -36.5v-19q0 -173 -86 -268q-55 -62 -133 -88q-37 -13 -37 -43v-127q0 -22 -15.5 -36.5t-37.5 -14.5h-70 q-22 0 -36.5 14.5t-14.5 36.5v127q0 29 -35 43q-61 21 -106 57q-123 99 -123 297z" />
<glyph unicode="&#xa3;" horiz-adv-x="1042" d="M98 737v66q0 21 16 36t38 15h41q47 0 47 41v428q0 169 88 270q93 111 252 111q158 0 251 -111q84 -97 84 -270v-109q0 -22 -14.5 -36.5t-36.5 -14.5h-71q-22 0 -37 14.5t-15 36.5v111q0 122 -47 172q-44 47 -116 47q-74 0 -115 -47q-49 -52 -49 -172v-430q0 -20 13 -30.5 t34 -10.5h209q22 0 36.5 -14.5t14.5 -36.5v-66q0 -22 -14.5 -36.5t-36.5 -14.5h-209q-47 0 -47 -39v-158q0 -97 -8 -149t-31 -94q-10 -17 -10 -33q0 -19 13 -32t32 -13h452q22 0 36.5 -14.5t14.5 -36.5v-66q0 -22 -14.5 -36.5t-36.5 -14.5h-692q-22 0 -36.5 14.5t-14.5 36.5 v64q0 33 28 61l25 25q68 66 68 241v205q0 39 -47 39h-41q-22 0 -38 15t-16 36z" />
<glyph unicode="&#xa4;" horiz-adv-x="935" d="M139 487q0 16 17 33l61 62q16 16 16 34q0 11 -12 35q-31 70 -31 127v140q0 56 31 126q12 24 12 35q0 19 -16 35l-61 62q-17 17 -17 32q0 14 17 31l18 18q15 15 31 15q15 0 33 -15l65 -65q14 -14 33 -14q2 0 33 10q41 18 98 18t98 -18q31 -10 33 -10q19 0 33 14l65 65 q15 15 33 15q16 0 31 -15l18 -18q17 -17 17 -31q0 -15 -17 -32l-61 -62q-17 -17 -17 -35q0 -9 13 -35q30 -68 30 -126v-140q0 -60 -30 -127q-13 -26 -13 -35q0 -17 17 -34l61 -62q17 -17 17 -33q0 -13 -17 -30l-18 -19q-16 -16 -31 -16q-17 0 -33 16l-65 66q-14 14 -33 14 q-2 0 -33 -10q-44 -19 -98 -19t-98 19q-31 10 -33 10q-19 0 -33 -14l-65 -66q-19 -16 -33 -16q-15 0 -31 16l-18 19q-17 17 -17 30zM348 752q0 -53 37 -82t82 -29t82 29t37 82v192q0 53 -37 82t-82 29t-82 -29t-37 -82v-192z" />
<glyph unicode="&#xa5;" d="M104 483v66q0 22 15.5 36.5t38.5 14.5h186q47 0 47 45v39q0 45 -47 45h-186q-23 0 -38.5 14.5t-15.5 36.5v66q0 22 15.5 36.5t38.5 14.5h188q20 0 33.5 13t13.5 32q0 30 -47 45q-2 1 -6 2t-6 2q-109 37 -157 125t-48 230v292q0 22 15.5 37t37.5 15h72q22 0 36.5 -15 t14.5 -37v-346q0 -80 53 -127q46 -43 121 -43q73 0 119 43q53 47 53 127v346q0 22 16 37t38 15h71q22 0 36.5 -15t14.5 -37v-292q0 -143 -47 -230.5t-157 -124.5q-2 -1 -6.5 -2t-6.5 -2q-45 -16 -45 -45q0 -19 13 -32t32 -13h191q22 0 36.5 -14.5t14.5 -36.5v-66 q0 -22 -14.5 -36.5t-36.5 -14.5h-189q-45 0 -45 -45v-39q0 -20 11.5 -32.5t33.5 -12.5h189q22 0 36.5 -14.5t14.5 -36.5v-66q0 -22 -14.5 -36.5t-36.5 -14.5h-189q-45 0 -45 -45v-336q0 -22 -15.5 -36.5t-37.5 -14.5h-72q-22 0 -36.5 14.5t-14.5 36.5v336q0 45 -47 45h-186 q-23 0 -38.5 14.5t-15.5 36.5z" />
<glyph unicode="&#xa6;" horiz-adv-x="1024" d="M426 -57v698q0 45 45 45h82q45 0 45 -45v-698q0 -45 -45 -45h-82q-45 0 -45 45zM426 1049v698q0 45 45 45h82q45 0 45 -45v-698q0 -45 -45 -45h-82q-45 0 -45 45z" />
<glyph unicode="&#xa7;" horiz-adv-x="935" d="M115 592v178q0 98 36.5 158.5t114.5 99.5l8 4q21 10 21 37q0 20 -19 35q-35 28 -48.5 43.5t-23 49t-9.5 91.5v127q0 133 98 221q78 68 180 68q107 0 184 -70q95 -85 95 -211v-22q0 -22 -15 -36.5t-37 -14.5h-69q-22 0 -36.5 14.5t-14.5 36.5v43q0 45 -29 74 q-34 34 -84 34q-43 0 -78 -28t-35 -80v-119q0 -70 28.5 -105t90.5 -61l119 -49q135 -57 182 -131.5t47 -214.5v-178q0 -98 -36.5 -158.5t-114.5 -99.5l-8 -4q-21 -10 -21 -37q0 -21 18 -35q35 -28 49 -43.5t23.5 -49t9.5 -91.5v-127q0 -134 -92 -217q-75 -72 -186 -72 q-125 0 -205 90q-74 80 -74 190v23q0 22 15 36.5t37 14.5h69q22 0 36.5 -14.5t14.5 -36.5v-43q0 -38 23 -68q33 -41 90 -41q42 0 77.5 28.5t35.5 80.5v119q0 70 -28.5 105t-90.5 61l-119 49q-135 57 -182 131.5t-47 214.5zM274 580q0 -64 26.5 -101.5t80.5 -64.5 q26 -13 37.5 -17.5t31.5 -9t44 -4.5q69 0 116 52t47 138v209q0 61 -25 97.5t-77 62.5q-26 13 -37.5 17.5t-31.5 9t-44 4.5q-69 0 -118.5 -51.5t-49.5 -133.5v-208z" />
<glyph unicode="&#xa8;" horiz-adv-x="937" d="M135 1526v65q0 22 14.5 36.5t36.5 14.5h66q22 0 36.5 -14.5t14.5 -36.5v-65q0 -22 -14.5 -36.5t-36.5 -14.5h-66q-22 0 -36.5 14.5t-14.5 36.5zM526 1526v65q0 22 15 36.5t37 14.5h65q22 0 36.5 -14.5t14.5 -36.5v-65q0 -22 -14.5 -36.5t-36.5 -14.5h-65q-22 0 -37 14.5 t-15 36.5z" />
<glyph unicode="&#xa9;" horiz-adv-x="1703" d="M170 688v316q0 320 215 522q93 87 214 132.5t253 45.5q147 0 281.5 -58.5t230.5 -166.5q170 -191 170 -475v-316q0 -309 -201 -510q-94 -93 -219.5 -142.5t-261.5 -49.5q-140 0 -268 51.5t-222 148.5q-91 92 -141.5 220t-50.5 282zM283 688q0 -265 157 -428 q77 -80 184 -124t230 -44q120 0 224.5 42t181.5 120q161 164 161 434v316q0 249 -139 407q-78 91 -189 138.5t-243 47.5q-232 0 -387 -143q-86 -78 -133 -193t-47 -257v-316zM530 598v496q0 159 80 252q92 102 240 102q145 0 237 -102q80 -93 80 -252v-76q0 -22 -14.5 -36.5 t-36.5 -14.5h-57q-22 0 -36.5 14.5t-14.5 36.5v63q0 125 -45 170q-44 47 -113 47q-71 0 -115 -47q-45 -45 -45 -170v-471q0 -125 45 -170q44 -47 115 -47q69 0 113 47q45 45 45 170v80q0 22 14.5 36.5t36.5 14.5h57q22 0 36.5 -14.5t14.5 -36.5v-92q0 -159 -80 -252 q-90 -100 -237 -100q-150 0 -240 100q-80 93 -80 252z" />
<glyph unicode="&#xaa;" horiz-adv-x="782" d="M117 1024q0 127 62.5 212t191.5 85h92q20 0 32.5 13.5t12.5 33.5v74q0 60 -29 96q-32 37 -84 37q-65 0 -98 -55q-18 -27 -18 -74q0 -45 -43 -45h-74q-45 0 -45 45q0 43 21.5 94t60.5 90q76 76 196 76q115 0 189 -74q82 -82 82 -207v-616q0 -28 -19 -44.5t-45 -16.5 q-31 0 -55 24l-6 6q-15 15 -39 15q-13 0 -55.5 -22.5t-81.5 -22.5q-108 0 -178 75t-70 201zM274 1004q0 -54 36.5 -86.5t86.5 -32.5q43 0 77 26t34 78v158q0 20 -12.5 33.5t-32.5 13.5h-78q-46 0 -78.5 -33t-32.5 -92v-65z" />
<glyph unicode="&#xab;" horiz-adv-x="880" d="M98 829q0 27 23 50l178 186q23 27 49 27q16 0 28.5 -12t12.5 -33q0 -11 -14 -39l-80 -148q-10 -20 -10 -31q0 -10 10 -30l80 -150q14 -23 14 -37q0 -21 -12.5 -33t-28.5 -12q-26 0 -49 27l-178 186q-23 23 -23 49zM465 829q0 28 22 50l179 186q23 27 49 27q16 0 28.5 -12 t12.5 -33q0 -9 -15 -39l-79 -148q-11 -22 -11 -31q0 -8 11 -30l79 -150q15 -25 15 -37q0 -21 -12.5 -33t-28.5 -12q-26 0 -49 27l-179 186q-22 22 -22 49z" />
<glyph unicode="&#xac;" horiz-adv-x="1124" d="M154 805v78q0 20 11.5 32.5t33.5 12.5h729q45 0 45 -45v-416q0 -45 -45 -45h-76q-45 0 -45 45v248q0 45 -45 45h-563q-45 0 -45 45z" />
<glyph unicode="&#xad;" horiz-adv-x="667" d="M129 651v76q0 22 14.5 36.5t36.5 14.5h305q22 0 37 -14.5t15 -36.5v-76q0 -22 -15 -36.5t-37 -14.5h-305q-22 0 -36.5 14.5t-14.5 36.5z" />
<glyph unicode="&#xae;" horiz-adv-x="1703" d="M170 688v316q0 180 70 323q85 178 251 277.5t361 99.5q194 0 359 -98t251 -275q72 -150 72 -327v-316q0 -264 -150 -452q-96 -120 -236 -185t-296 -65q-158 0 -299 65.5t-236 186.5q-147 184 -147 450zM283 688q0 -276 176 -444q161 -152 395 -152q114 0 215.5 39.5 t177.5 112.5q174 166 174 444v316q0 178 -82 323q-74 128 -202 199t-287 71t-287.5 -72.5t-202.5 -203.5q-77 -138 -77 -317v-316zM573 309v1071q0 24 20 43t42 19h190q148 0 233 -86t85 -250v-8q0 -77 -20 -132.5t-70 -105.5l-17 -16q-16 -16 -16 -33t16 -33l17 -16 q82 -82 82 -297v-156q0 -22 -15 -36.5t-37 -14.5h-49q-22 0 -36.5 14.5t-14.5 36.5v164q0 86 -9.5 134t-33.5 77q-44 53 -111 53h-61q-20 0 -31.5 -13t-11.5 -34v-381q0 -22 -14.5 -36.5t-36.5 -14.5h-49q-22 0 -37 14.5t-15 36.5zM725 932q0 -45 45 -45h64q63 0 104 41 q45 45 45 125v77q0 81 -41.5 123.5t-105.5 42.5h-62q-49 0 -49 -45v-319z" />
<glyph unicode="&#xaf;" horiz-adv-x="937" d="M188 1544v31q0 45 45 45h431q45 0 45 -45v-31q0 -45 -45 -45h-431q-45 0 -45 45z" />
<glyph unicode="&#xb0;" horiz-adv-x="704" d="M53 1405q0 123 87.5 211t211.5 88q123 0 210 -88t87 -211t-87 -211t-210 -88q-124 0 -211.5 88t-87.5 211zM209 1405q0 -60 41.5 -104t101.5 -44q58 0 99 44t41 104t-41 103.5t-99 43.5q-60 0 -101.5 -43.5t-41.5 -103.5z" />
<glyph unicode="&#xb1;" horiz-adv-x="1124" d="M152 51v66q0 22 14.5 36.5t36.5 14.5h719q22 0 36.5 -14.5t14.5 -36.5v-66q0 -22 -14.5 -36.5t-36.5 -14.5h-719q-22 0 -36.5 14.5t-14.5 36.5zM154 653v66q0 22 14.5 36.5t36.5 14.5h229q45 0 45 41v256q0 22 14.5 36.5t36.5 14.5h70q22 0 36.5 -14.5t14.5 -36.5v-256 q0 -41 45 -41h228q22 0 36.5 -14.5t14.5 -36.5v-66q0 -22 -14.5 -36.5t-36.5 -14.5h-228q-45 0 -45 -39v-258q0 -22 -14.5 -36.5t-36.5 -14.5h-70q-22 0 -36.5 14.5t-14.5 36.5v258q0 39 -45 39h-229q-22 0 -36.5 14.5t-14.5 36.5z" />
<glyph unicode="&#xb2;" horiz-adv-x="813" d="M139 621v57q0 128 111 295q32 48 86.5 115t89 110t61.5 98t27 101v16q0 74 -29 103q-31 36 -82 36q-47 0 -75 -32q-33 -33 -33 -119v-27q0 -45 -45 -45h-66q-45 0 -45 45v51q0 119 74 199q73 80 186 80q104 0 179 -62q96 -80 96 -223q0 -65 -26.5 -138.5t-72.5 -133.5 l-120 -154q-51 -65 -90 -123q-28 -41 -37 -59t-9 -35q0 -19 12.5 -31t33.5 -12h262q22 0 33.5 -12.5t11.5 -32.5v-67q0 -46 -45 -46h-443q-17 0 -31 12t-14 34z" />
<glyph unicode="&#xb3;" horiz-adv-x="819" d="M141 840v49q0 45 43 45h68q45 0 45 -45v-25q0 -86 33 -119q28 -32 76 -32q49 0 81 37q29 29 29 116v35q0 88 -29 117q-32 37 -79 37h-39q-45 0 -45 45v65q0 45 45 45h39q47 0 79 37q29 29 29 117v35q0 88 -29 117q-31 36 -81 36q-48 0 -76 -32q-33 -33 -33 -119v-27 q0 -43 -45 -43h-68q-43 0 -43 45v49q0 122 76 201q75 78 184 78q115 0 183 -62q46 -39 70 -98.5t24 -126.5v-16q-2 -75 -18 -128.5t-60 -94.5l-16 -15q-15 -15 -15 -30q0 -16 15 -31l16 -15q44 -41 60 -94.5t18 -128.5v-16q0 -67 -24 -126.5t-70 -98.5q-68 -62 -183 -62 q-109 0 -184 78q-76 79 -76 201z" />
<glyph unicode="&#xb4;" horiz-adv-x="937" d="M272 1442q0 12 25 47l119 160q20 26 36.5 33.5t49.5 7.5h94q21 0 33 -12.5t12 -30.5q0 -28 -29 -48l-256 -186q-22 -16 -41 -16q-20 0 -31.5 13t-11.5 32z" />
<glyph unicode="&#xb5;" horiz-adv-x="935" d="M125 -287v1536q0 22 14.5 36.5t36.5 14.5h70q22 0 36.5 -14.5t14.5 -36.5v-868q0 -132 49 -184t123 -52t123 52t49 184v868q0 22 14.5 36.5t36.5 14.5h70q22 0 36.5 -14.5t14.5 -36.5v-884q0 -188 -90 -285q-43 -46 -100 -70t-115 -24q-56 0 -102 16l-21 8q-29 13 -47 13 q-20 0 -32.5 -17.5t-12.5 -44.5q0 -14 2 -44.5t2 -55.5v-148q0 -22 -14.5 -36.5t-36.5 -14.5h-70q-22 0 -36.5 14.5t-14.5 36.5z" />
<glyph unicode="&#xb6;" horiz-adv-x="1263" d="M86 1241v25q0 192 78 299q88 125 268 125h653q22 0 37 -15t15 -37v-26q0 -22 -15 -36.5t-37 -14.5h-73q-20 0 -32.5 -12.5t-12.5 -32.5v-1709q0 -22 -15 -36.5t-37 -14.5h-38q-22 0 -37 14.5t-15 36.5v1709q0 20 -12.5 32.5t-32.5 12.5h-71q-20 0 -32.5 -12.5 t-12.5 -32.5v-1711q0 -22 -15 -36.5t-37 -14.5h-39q-22 0 -36.5 14.5t-14.5 36.5v973q0 20 -12.5 33.5t-32.5 13.5h-45q-178 0 -266 119q-80 107 -80 297z" />
<glyph unicode="&#xb7;" horiz-adv-x="454" d="M137 811v92q0 22 14.5 36.5t36.5 14.5h82q22 0 37 -14.5t15 -36.5v-92q0 -22 -15 -36.5t-37 -14.5h-82q-22 0 -36.5 14.5t-14.5 36.5z" />
<glyph unicode="&#xb8;" horiz-adv-x="937" d="M293 -98q0 33 39 43q24 8 61 8q69 0 114.5 -41.5t45.5 -110.5t-45.5 -110t-114.5 -41q-30 0 -57 6q-43 10 -43 45q0 16 5 26t16.5 14.5t21 6t29.5 2.5q30 1 46.5 15t16.5 36t-16.5 36.5t-46.5 15.5q-20 1 -29.5 2.5t-21 6t-16.5 14.5t-5 26z" />
<glyph unicode="&#xb9;" horiz-adv-x="589" d="M61 1456v66q0 45 45 45h46q39 0 54.5 9.5t24.5 39.5l11 31q14 45 47 45h61q45 0 45 -47v-1033q0 -47 -45 -47h-65q-20 0 -32.5 13.5t-12.5 33.5v752q0 20 -13.5 33.5t-33.5 13.5h-87q-22 0 -33.5 12.5t-11.5 32.5z" />
<glyph unicode="&#xba;" horiz-adv-x="802" d="M131 1036v381q0 119 75 204t195 85q121 0 196 -85t75 -204v-381q0 -118 -75 -203t-196 -85t-195.5 84.5t-74.5 203.5zM289 1004q0 -61 33.5 -93t78.5 -32q51 0 82 35.5t31 89.5v446q0 46 -33.5 85.5t-79.5 39.5q-55 0 -83.5 -38t-28.5 -87v-446z" />
<glyph unicode="&#xbb;" horiz-adv-x="880" d="M125 612q0 14 14 37l80 150q10 20 10 30q0 11 -10 31l-80 148q-14 28 -14 39q0 21 12.5 33t28.5 12q26 0 49 -27l178 -186q23 -23 23 -50q0 -26 -23 -49l-178 -186q-23 -27 -49 -27q-16 0 -28.5 12t-12.5 33zM492 612q0 14 14 37l80 150q10 20 10 30q0 11 -10 31l-80 148 q-14 28 -14 39q0 21 12 33t28 12q27 0 50 -27l178 -186q22 -22 22 -50q0 -27 -22 -49l-178 -186q-23 -27 -50 -27q-16 0 -28 12t-12 33z" />
<glyph unicode="&#xbc;" horiz-adv-x="1916" d="M180 1456v66q0 45 45 45h45q39 0 55 10t25 39l10 31q14 45 48 45h61q45 0 45 -47v-1033q0 -47 -45 -47h-66q-20 0 -32.5 13.5t-12.5 33.5v752q0 20 -13.5 33.5t-33.5 13.5h-86q-22 0 -33.5 12.5t-11.5 32.5zM565 35q0 16 6 37l445 1581q7 26 18.5 35.5t32.5 9.5h59 q43 0 43 -43q0 -25 -14 -74l-436 -1544q-7 -26 -18.5 -35.5t-32.5 -9.5h-60q-43 0 -43 43zM1133 279v61q0 65 34 186l152 547q7 26 18 35.5t31 9.5h66q45 0 45 -43q0 -19 -23 -100l-137 -486q-14 -56 -14 -61q0 -19 12.5 -32t32.5 -13h57q45 0 45 45v170q0 20 12.5 33.5 t32.5 13.5h68q45 0 45 -47v-166q0 -20 12.5 -33.5t32.5 -13.5h35q22 0 33.5 -12.5t11.5 -32.5v-64q0 -45 -45 -45h-35q-20 0 -32.5 -13.5t-12.5 -33.5v-135q0 -47 -45 -47h-68q-20 0 -32.5 13.5t-12.5 33.5v137q0 20 -12.5 33.5t-32.5 13.5h-229q-22 0 -33.5 13t-11.5 33z " />
<glyph unicode="&#xbd;" horiz-adv-x="1916" d="M182 1456v66q0 45 45 45h45q39 0 55 10t25 39l10 31q14 45 48 45h61q45 0 45 -47v-1033q0 -47 -45 -47h-65q-20 0 -33 13.5t-13 33.5v752q0 20 -13.5 33.5t-33.5 13.5h-86q-22 0 -33.5 12.5t-11.5 32.5zM565 35q0 16 6 37l445 1581q7 26 18.5 35.5t32.5 9.5h59 q43 0 43 -43q0 -22 -14 -74l-436 -1544q-7 -26 -18.5 -35.5t-32.5 -9.5h-60q-43 0 -43 43zM1198 45v57q0 128 111 295q32 48 86.5 115t89 110t61.5 98t27 101v17q0 73 -29 102q-32 37 -82 37q-47 0 -76 -33q-32 -32 -32 -119v-26q0 -45 -45 -45h-66q-45 0 -45 45v51 q0 122 76 201q74 77 184 77q119 0 193 -71q82 -79 82 -213q0 -65 -27 -139t-72 -134l-90 -114q-76 -98 -121 -162q-27 -40 -36 -58t-9 -36q0 -19 12 -31t33 -12h263q22 0 33.5 -12.5t11.5 -32.5v-68q0 -45 -45 -45h-443q-17 0 -31 12t-14 33z" />
<glyph unicode="&#xbe;" horiz-adv-x="1916" d="M147 840v49q0 45 43 45h68q45 0 45 -45v-25q0 -86 33 -119q28 -32 76 -32q50 0 82 37q28 28 28 116v35q0 89 -28 117q-32 37 -80 37h-39q-45 0 -45 45v65q0 45 45 45h39q48 0 80 37q28 28 28 117v35q0 89 -28 117q-31 36 -82 36q-48 0 -76 -32q-33 -33 -33 -119v-27 q0 -43 -45 -43h-68q-43 0 -43 45v49q0 122 76 201q75 78 185 78q114 0 182 -62q46 -39 70 -98.5t24 -126.5v-16q-2 -75 -18 -128.5t-60 -94.5l-16 -15q-15 -15 -15 -30q0 -16 15 -31l16 -15q44 -41 60 -94.5t18 -128.5v-16q0 -67 -24 -126.5t-70 -98.5q-68 -62 -182 -62 q-110 0 -185 78q-76 79 -76 201zM670 35q0 16 6 37l444 1581q7 26 18.5 35.5t32.5 9.5h60q43 0 43 -43q0 -25 -14 -74l-437 -1544q-7 -26 -18.5 -35.5t-32.5 -9.5h-59q-43 0 -43 43zM1206 279v61q0 61 35 186l152 547q7 26 18 35.5t31 9.5h65q45 0 45 -43q0 -23 -22 -100 l-137 -486q-1 -5 -5.5 -18t-7 -24t-2.5 -19q0 -19 12.5 -32t32.5 -13h58q45 0 45 45v170q0 20 12.5 33.5t32.5 13.5h67q45 0 45 -47v-166q0 -20 13 -33.5t33 -13.5h34q22 0 33.5 -12.5t11.5 -32.5v-64q0 -45 -45 -45h-34q-20 0 -33 -13.5t-13 -33.5v-135q0 -47 -45 -47h-67 q-20 0 -32.5 13.5t-12.5 33.5v137q0 20 -12.5 33.5t-32.5 13.5h-230q-22 0 -33.5 13t-11.5 33z" />
<glyph unicode="&#xbf;" horiz-adv-x="923" d="M94 31v47q0 135 27.5 212t124.5 220l26 41q57 84 72 132t23 163l4 61q1 20 16.5 32.5t36.5 12.5h45q21 0 36.5 -12.5t16.5 -32.5q6 -117 6 -155q0 -91 -28 -151.5t-97 -154.5l-22 -32q-54 -77 -82.5 -148t-28.5 -172v-49q0 -132 49 -184q51 -51 127 -51q74 0 125 51 q47 50 47 184v88q0 22 15.5 36.5t38.5 14.5h69q23 0 39.5 -14.5t16.5 -36.5v-102q0 -173 -88 -271q-95 -110 -263 -110q-165 0 -264 110q-88 101 -88 271zM352 1198v92q0 22 14.5 36.5t36.5 14.5h84q22 0 38 -15t16 -36v-92q0 -21 -16 -36t-38 -15h-84q-22 0 -36.5 14.5 t-14.5 36.5z" />
<glyph unicode="&#xc0;" d="M127 51v1272q0 169 88 270q100 111 264 111t264 -111q88 -101 88 -270v-1272q0 -22 -15.5 -36.5t-37.5 -14.5h-71q-22 0 -37 14.5t-15 36.5v615q0 19 -13 32t-32 13h-262q-19 0 -32 -13t-13 -32v-615q0 -22 -14.5 -36.5t-36.5 -14.5h-72q-22 0 -37.5 14.5t-15.5 36.5z M274 2036q0 18 12 30.5t33 12.5h95q33 0 49.5 -7.5t36.5 -33.5l118 -160q25 -35 25 -47q0 -19 -11.5 -32t-31.5 -13q-19 0 -41 16l-256 187q-29 20 -29 47zM303 920q0 -19 13 -32.5t32 -13.5h262q19 0 32 13.5t13 32.5v389q0 133 -51 184q-48 51 -125 51t-125 -51 q-51 -51 -51 -184v-389z" />
<glyph unicode="&#xc1;" horiz-adv-x="935" d="M117 51v1272q0 169 88 270q100 111 264 111t264 -111q88 -101 88 -270v-1272q0 -22 -15.5 -36.5t-37.5 -14.5h-72q-22 0 -36.5 14.5t-14.5 36.5v615q0 19 -13 32t-32 13h-262q-19 0 -32 -13t-13 -32v-615q0 -22 -14.5 -36.5t-36.5 -14.5h-72q-22 0 -37.5 14.5t-15.5 36.5 zM293 920q0 -19 13 -32.5t32 -13.5h262q19 0 32 13.5t13 32.5v389q0 133 -51 184q-48 51 -125 51t-125 -51q-51 -51 -51 -184v-389zM315 1831q0 12 25 47l119 160q20 26 36.5 33.5t49.5 7.5h94q21 0 33 -12.5t12 -30.5q0 -27 -29 -47l-256 -187q-22 -16 -41 -16 q-20 0 -31.5 13t-11.5 32z" />
<glyph unicode="&#xc2;" horiz-adv-x="935" d="M125 51v1272q0 169 88 270q100 111 264 111t264 -111q88 -101 88 -270v-1272q0 -22 -15.5 -36.5t-37.5 -14.5h-71q-22 0 -37 14.5t-15 36.5v615q0 19 -13 32t-32 13h-262q-19 0 -32 -13t-13 -32v-615q0 -22 -14.5 -36.5t-36.5 -14.5h-72q-22 0 -37.5 14.5t-15.5 36.5z M258 1839q0 16 27 47l147 180q21 25 47 25t47 -25l148 -180q26 -30 26 -47q0 -19 -13 -32t-34 -13q-15 0 -35 16l-94 72q-30 21 -45 21q-17 0 -43 -21l-96 -72q-20 -16 -35 -16q-21 0 -34 13t-13 32zM301 920q0 -19 13 -32.5t32 -13.5h262q19 0 32 13.5t13 32.5v389 q0 133 -51 184q-48 51 -125 51t-125 -51q-51 -51 -51 -184v-389z" />
<glyph unicode="&#xc3;" d="M127 51v1272q0 169 88 270q100 111 264 111t264 -111q88 -101 88 -270v-1272q0 -22 -15.5 -36.5t-37.5 -14.5h-71q-22 0 -37 14.5t-15 36.5v615q0 19 -13 32t-32 13h-262q-19 0 -32 -13t-13 -32v-615q0 -22 -14.5 -36.5t-36.5 -14.5h-72q-22 0 -37.5 14.5t-15.5 36.5z M238 1880q0 59 49.5 108.5t103.5 49.5q70 0 119 -43l20 -19q29 -26 50 -26q33 0 43 37l4 16q11 37 47 37q19 0 33 -14t14 -35q0 -60 -47.5 -110t-100.5 -50q-73 0 -122 43l-21 18q-30 27 -49 27q-33 0 -43 -37l-4 -16q-5 -16 -18 -26.5t-31 -10.5q-19 0 -33 14t-14 37z M303 920q0 -19 13 -32.5t32 -13.5h262q19 0 32 13.5t13 32.5v389q0 133 -51 184q-48 51 -125 51t-125 -51q-51 -51 -51 -184v-389z" />
<glyph unicode="&#xc4;" d="M127 51v1272q0 169 88 270q100 111 264 111t264 -111q88 -101 88 -270v-1272q0 -22 -15.5 -36.5t-37.5 -14.5h-71q-22 0 -37 14.5t-15 36.5v615q0 19 -13 32t-32 13h-262q-19 0 -32 -13t-13 -32v-615q0 -22 -14.5 -36.5t-36.5 -14.5h-72q-22 0 -37.5 14.5t-15.5 36.5z M201 1909v65q0 22 14.5 36.5t36.5 14.5h65q22 0 37 -14.5t15 -36.5v-65q0 -22 -15 -36.5t-37 -14.5h-65q-22 0 -36.5 14.5t-14.5 36.5zM303 920q0 -19 13 -32.5t32 -13.5h262q19 0 32 13.5t13 32.5v389q0 133 -51 184q-48 51 -125 51t-125 -51q-51 -51 -51 -184v-389z M592 1909v65q0 22 14.5 36.5t36.5 14.5h66q22 0 36.5 -14.5t14.5 -36.5v-65q0 -22 -14.5 -36.5t-36.5 -14.5h-66q-22 0 -36.5 14.5t-14.5 36.5z" />
<glyph unicode="&#xc5;" d="M127 51v1272q0 169 88 270q100 111 264 111t264 -111q88 -101 88 -270v-1272q0 -22 -15.5 -36.5t-37.5 -14.5h-71q-22 0 -37 14.5t-15 36.5v615q0 19 -13 32t-32 13h-262q-19 0 -32 -13t-13 -32v-615q0 -22 -14.5 -36.5t-36.5 -14.5h-72q-22 0 -37.5 14.5t-15.5 36.5z M303 920q0 -19 13 -32.5t32 -13.5h262q19 0 32 13.5t13 32.5v389q0 133 -51 184q-48 51 -125 51t-125 -51q-51 -51 -51 -184v-389zM319 1933q0 66 47 113t113 47t113 -47t47 -113t-47 -112.5t-113 -46.5t-113 46.5t-47 112.5zM420 1933q0 -25 17 -42t42 -17t42.5 17t17.5 42 t-17.5 42.5t-42.5 17.5t-42 -17.5t-17 -42.5z" />
<glyph unicode="&#xc6;" horiz-adv-x="1226" d="M127 51v1274q0 166 82 268q93 111 244 111q77 0 163 -35q12 -4 21 -4q13 0 33 10q26 15 53 15h360q22 0 38 -15t16 -37v-65q0 -40 -54 -51h-231q-21 0 -34 -13t-13 -34v-490q0 -21 13 -34t34 -13h231q22 0 38 -15t16 -36v-66q0 -21 -16 -36t-38 -15h-231q-21 0 -34 -13 t-13 -34v-508q0 -21 13 -34t34 -13h231q22 0 38 -15t16 -36v-66q0 -21 -16 -36t-38 -15h-401q-22 0 -37.5 14.5t-15.5 36.5v676q0 19 -12.5 32t-32.5 13h-236q-19 0 -32 -13t-13 -32v-676q0 -22 -14.5 -36.5t-36.5 -14.5h-72q-22 0 -37.5 14.5t-15.5 36.5zM303 981 q0 -19 13 -32t32 -13h236q19 0 32 13t13 32v330q0 132 -47 184q-45 51 -115 51q-72 0 -117 -51q-47 -50 -47 -184v-330z" />
<glyph unicode="&#xc7;" horiz-adv-x="946" d="M127 367v956q0 169 88 270q100 111 264 111q168 0 264 -111q88 -98 88 -270v-109q0 -22 -14.5 -36.5t-36.5 -14.5h-71q-22 0 -38 15t-16 36v95q0 132 -49 184q-48 51 -127 51q-77 0 -125 -51q-51 -51 -51 -184v-928q0 -133 51 -184q49 -52 125 -52q78 0 127 52t49 184 v111q0 21 16 36t38 15h71q22 0 36.5 -14.5t14.5 -36.5v-125q0 -173 -88 -271q-95 -110 -264 -110q-165 0 -264 110q-88 101 -88 271zM346 -98q0 33 39 43q24 8 61 8q69 0 114.5 -41.5t45.5 -110.5t-45.5 -110t-114.5 -41q-30 0 -57 6q-43 10 -43 45q0 16 5 26t16.5 14.5 t21 6t29.5 2.5q30 1 46.5 15t16.5 36t-16.5 36.5t-46.5 15.5q-20 1 -29.5 2.5t-21 6t-16.5 14.5t-5 26z" />
<glyph unicode="&#xc8;" horiz-adv-x="751" d="M127 51v1587q0 22 15.5 37t37.5 15h430q22 0 37 -15t15 -37v-65q0 -40 -52 -51h-262q-20 0 -32.5 -13.5t-12.5 -33.5v-490q0 -20 12.5 -33.5t32.5 -13.5h262q22 0 37 -14.5t15 -36.5v-66q0 -22 -15 -36.5t-37 -14.5h-262q-20 0 -32.5 -13.5t-12.5 -33.5v-508 q0 -20 12.5 -33.5t32.5 -13.5h262q22 0 37 -14.5t15 -36.5v-66q0 -22 -15 -36.5t-37 -14.5h-430q-22 0 -37.5 14.5t-15.5 36.5zM207 2036q0 18 12 30.5t33 12.5h94q33 0 49.5 -7.5t36.5 -33.5l119 -160q24 -33 24 -47q0 -19 -11.5 -32t-31.5 -13q-18 0 -40 16l-256 187 q-29 20 -29 47z" />
<glyph unicode="&#xc9;" horiz-adv-x="751" d="M127 51v1587q0 22 15.5 37t37.5 15h430q22 0 37 -15t15 -37v-65q0 -40 -52 -51h-262q-20 0 -32.5 -13.5t-12.5 -33.5v-490q0 -20 12.5 -33.5t32.5 -13.5h262q22 0 37 -14.5t15 -36.5v-66q0 -22 -15 -36.5t-37 -14.5h-262q-20 0 -32.5 -13.5t-12.5 -33.5v-508 q0 -20 12.5 -33.5t32.5 -13.5h262q22 0 37 -14.5t15 -36.5v-66q0 -22 -15 -36.5t-37 -14.5h-430q-22 0 -37.5 14.5t-15.5 36.5zM217 1831q0 12 25 47l118 160q20 26 36.5 33.5t49.5 7.5h95q21 0 33 -12.5t12 -30.5q0 -27 -29 -47l-256 -187q-22 -16 -41 -16q-20 0 -31.5 13 t-11.5 32z" />
<glyph unicode="&#xca;" horiz-adv-x="751" d="M127 51v1587q0 22 15.5 37t37.5 15h430q22 0 37 -15t15 -37v-65q0 -40 -52 -51h-262q-20 0 -32.5 -13.5t-12.5 -33.5v-490q0 -20 12.5 -33.5t32.5 -13.5h262q22 0 37 -14.5t15 -36.5v-66q0 -22 -15 -36.5t-37 -14.5h-262q-20 0 -32.5 -13.5t-12.5 -33.5v-508 q0 -20 12.5 -33.5t32.5 -13.5h262q22 0 37 -14.5t15 -36.5v-66q0 -22 -15 -36.5t-37 -14.5h-430q-22 0 -37.5 14.5t-15.5 36.5zM178 1839q0 16 27 47l147 180q21 25 47 25t47 -25l148 -180q27 -31 27 -47q0 -19 -13.5 -32t-34.5 -13q-14 0 -34 16l-95 72q-30 21 -45 21 q-17 0 -43 -21l-96 -72q-20 -16 -35 -16q-21 0 -34 13t-13 32z" />
<glyph unicode="&#xcb;" horiz-adv-x="765" d="M127 51v1587q0 22 15.5 37t37.5 15h430q22 0 37 -15t15 -37v-65q0 -40 -52 -51h-262q-20 0 -32.5 -13.5t-12.5 -33.5v-490q0 -20 12.5 -33.5t32.5 -13.5h262q22 0 37 -14.5t15 -36.5v-66q0 -22 -15 -36.5t-37 -14.5h-262q-20 0 -32.5 -13.5t-12.5 -33.5v-508 q0 -20 12.5 -33.5t32.5 -13.5h262q22 0 37 -14.5t15 -36.5v-66q0 -22 -15 -36.5t-37 -14.5h-430q-22 0 -37.5 14.5t-15.5 36.5zM127 1909v65q0 22 14.5 36.5t36.5 14.5h66q22 0 36.5 -14.5t14.5 -36.5v-65q0 -22 -14.5 -36.5t-36.5 -14.5h-66q-22 0 -36.5 14.5t-14.5 36.5z M494 1909v65q0 22 14.5 36.5t36.5 14.5h65q22 0 37 -14.5t15 -36.5v-65q0 -22 -15 -36.5t-37 -14.5h-65q-22 0 -36.5 14.5t-14.5 36.5z" />
<glyph unicode="&#xcc;" horiz-adv-x="466" d="M-49 2036q0 18 12 30.5t33 12.5h94q33 0 49.5 -7.5t36.5 -33.5l119 -160q24 -33 24 -47q0 -19 -11.5 -32t-31.5 -13q-18 0 -40 16l-256 187q-29 20 -29 47zM145 51v1587q0 22 16 37t38 15h71q22 0 37 -15t15 -37v-1587q0 -22 -15 -36.5t-37 -14.5h-71q-22 0 -38 15 t-16 36z" />
<glyph unicode="&#xcd;" horiz-adv-x="466" d="M145 51v1587q0 22 16 37t38 15h71q22 0 37 -15t15 -37v-1587q0 -22 -15 -36.5t-37 -14.5h-71q-22 0 -38 15t-16 36zM145 1831q0 12 25 47l119 160q20 26 36.5 33.5t49.5 7.5h94q21 0 33 -12.5t12 -30.5q0 -27 -29 -47l-256 -187q-22 -16 -41 -16q-20 0 -31.5 13t-11.5 32 z" />
<glyph unicode="&#xce;" horiz-adv-x="466" d="M12 1839q0 16 27 47l147 180q21 25 47 25q27 0 48 -25l147 -180q27 -31 27 -47q0 -19 -13 -32t-34 -13q-15 0 -35 16l-94 72q-30 21 -46 21q-17 0 -43 -21l-96 -72q-20 -16 -35 -16q-21 0 -34 13t-13 32zM145 51v1587q0 22 16 37t38 15h71q22 0 37 -15t15 -37v-1587 q0 -22 -15 -36.5t-37 -14.5h-71q-22 0 -38 15t-16 36z" />
<glyph unicode="&#xcf;" horiz-adv-x="466" d="M-27 1901v79q0 45 45 45h80q47 0 47 -45v-79q0 -46 -47 -46h-80q-45 0 -45 46zM145 51v1587q0 22 16 37t38 15h71q22 0 37 -15t15 -37v-1587q0 -22 -15 -36.5t-37 -14.5h-71q-22 0 -38 15t-16 36zM322 1901v79q0 45 45 45h79q48 0 48 -45v-79q0 -46 -48 -46h-79 q-45 0 -45 46z" />
<glyph unicode="&#xd0;" d="M-10 840v24q0 22 15 36.5t38 14.5h23q20 0 32.5 13.5t12.5 34.5l-2 675q0 22 15.5 37t37.5 15h299q166 0 262 -111q88 -98 88 -270v-928q0 -170 -90 -270q-96 -111 -262 -111h-297q-22 0 -37.5 14.5t-15.5 36.5l2 690q0 20 -12.5 33.5t-32.5 13.5h-23q-23 0 -38 15 t-15 37zM285 213q0 -20 12.5 -33.5t32.5 -13.5h129h2q77 0 125 51q49 52 49 184v887q0 135 -47 185q-48 51 -125 51h-133q-20 0 -32.5 -13.5t-12.5 -33.5v-514q0 -21 12.5 -34.5t32.5 -13.5h86q23 0 38 -14.5t15 -36.5v-24q0 -22 -15 -37t-38 -15h-86q-20 0 -32.5 -13.5 t-12.5 -33.5v-528z" />
<glyph unicode="&#xd1;" d="M127 51v1577q0 37 23 53q18 15 43 15t57 -21l8 -6q21 -16 45 -16q7 0 18 3.5t31.5 11.5t36.5 13q76 23 129 23q59 0 118.5 -24t102.5 -70q92 -95 92 -285v-1274q0 -22 -14.5 -36.5t-36.5 -14.5h-71q-22 0 -38 15t-16 36v1258q0 130 -51 184q-48 51 -125 51t-125 -51 q-51 -51 -51 -184v-1258q0 -22 -14.5 -36.5t-36.5 -14.5h-72q-22 0 -37.5 14.5t-15.5 36.5zM238 1880q0 59 49.5 108.5t103.5 49.5q70 0 119 -43l20 -19q29 -26 50 -26q33 0 43 37l4 16q11 37 47 37q19 0 33 -14t14 -35q0 -60 -47.5 -110t-100.5 -50q-73 0 -122 43l-21 18 q-30 27 -49 27q-33 0 -43 -37l-4 -16q-5 -16 -18 -26.5t-31 -10.5q-19 0 -33 14t-14 37z" />
<glyph unicode="&#xd2;" d="M127 367v956q0 169 88 270q100 111 264 111t264 -111q88 -101 88 -270v-956q0 -170 -88 -271q-99 -110 -264 -110t-264 110q-88 101 -88 271zM274 2036q0 18 12 30.5t33 12.5h95q33 0 49.5 -7.5t36.5 -33.5l118 -160q25 -35 25 -47q0 -19 -11.5 -32t-31.5 -13 q-19 0 -41 16l-256 187q-29 20 -29 47zM303 381q0 -133 51 -184q49 -52 125 -52t125 52q51 51 51 184v928q0 133 -51 184q-48 51 -125 51t-125 -51q-51 -51 -51 -184v-928z" />
<glyph unicode="&#xd3;" d="M127 367v956q0 169 88 270q100 111 264 111t264 -111q88 -101 88 -270v-956q0 -170 -88 -271q-99 -110 -264 -110t-264 110q-88 101 -88 271zM303 381q0 -133 51 -184q49 -52 125 -52t125 52q51 51 51 184v928q0 133 -51 184q-48 51 -125 51t-125 -51q-51 -51 -51 -184 v-928zM315 1831q0 12 25 47l119 160q20 26 36.5 33.5t49.5 7.5h94q21 0 33 -12.5t12 -30.5q0 -27 -29 -47l-256 -187q-22 -16 -41 -16q-20 0 -31.5 13t-11.5 32z" />
<glyph unicode="&#xd4;" d="M127 367v956q0 169 88 270q100 111 264 111t264 -111q88 -101 88 -270v-956q0 -170 -88 -271q-99 -110 -264 -110t-264 110q-88 101 -88 271zM246 1839q0 17 26 47l148 180q21 25 47 25t47 -25l148 -180q26 -30 26 -47q0 -19 -13 -32t-34 -13q-15 0 -35 16l-94 72 q-30 21 -45 21q-17 0 -43 -21l-96 -72q-20 -16 -35 -16q-21 0 -34 13t-13 32zM303 381q0 -133 51 -184q49 -52 125 -52t125 52q51 51 51 184v928q0 133 -51 184q-48 51 -125 51t-125 -51q-51 -51 -51 -184v-928z" />
<glyph unicode="&#xd5;" d="M127 367v956q0 169 88 270q100 111 264 111t264 -111q88 -101 88 -270v-956q0 -170 -88 -271q-99 -110 -264 -110t-264 110q-88 101 -88 271zM238 1880q0 59 49.5 108.5t103.5 49.5q70 0 119 -43l20 -19q29 -26 50 -26q33 0 43 37l4 16q11 37 47 37q19 0 33 -14t14 -35 q0 -60 -47.5 -110t-100.5 -50q-73 0 -122 43l-21 18q-30 27 -49 27q-33 0 -43 -37l-4 -16q-5 -16 -18 -26.5t-31 -10.5q-19 0 -33 14t-14 37zM303 381q0 -133 51 -184q49 -52 125 -52t125 52q51 51 51 184v928q0 133 -51 184q-48 51 -125 51t-125 -51q-51 -51 -51 -184v-928 z" />
<glyph unicode="&#xd6;" d="M127 367v956q0 169 88 270q100 111 264 111t264 -111q88 -101 88 -270v-956q0 -170 -88 -271q-99 -110 -264 -110t-264 110q-88 101 -88 271zM201 1909v65q0 22 14.5 36.5t36.5 14.5h65q22 0 37 -14.5t15 -36.5v-65q0 -22 -15 -36.5t-37 -14.5h-65q-22 0 -36.5 14.5 t-14.5 36.5zM303 381q0 -133 51 -184q49 -52 125 -52t125 52q51 51 51 184v928q0 133 -51 184q-48 51 -125 51t-125 -51q-51 -51 -51 -184v-928zM592 1909v65q0 22 14.5 36.5t36.5 14.5h66q22 0 36.5 -14.5t14.5 -36.5v-65q0 -22 -14.5 -36.5t-36.5 -14.5h-66 q-22 0 -36.5 14.5t-14.5 36.5z" />
<glyph unicode="&#xd7;" horiz-adv-x="1124" d="M195 408q0 22 16 38l205 205q16 16 16 35t-16 35l-205 205q-16 13 -16 37q0 22 16 38l39 39q17 17 37 17q22 0 39 -17l204 -204q17 -17 31 -17t31 17l205 204q17 17 37 17q21 0 38 -17l39 -39q17 -17 17 -38q0 -20 -17 -37l-204 -205q-17 -17 -17 -35t17 -35l204 -205 q17 -17 17 -38q0 -20 -17 -37l-39 -39q-17 -17 -38 -17q-20 0 -37 17l-205 205q-16 16 -31 16t-31 -16l-204 -205q-17 -17 -39 -17q-23 0 -37 17l-39 39q-16 13 -16 37z" />
<glyph unicode="&#xd8;" d="M86 16q0 15 12 43l49 115q9 22 9 31q0 10 -4 24q-25 63 -25 181v913q0 171 86 270q100 111 266 111q126 0 209 -62l8 -6q11 -8 27 -8q29 0 43 29l12 22q16 37 47 37q20 0 32.5 -12.5t12.5 -30.5q0 -15 -12 -43l-47 -114q-8 -20 -8 -31t4 -25q24 -68 24 -180v-913 q0 -173 -88 -271q-95 -110 -264 -110q-130 0 -209 61l-8 6q-11 8 -29 8q-29 0 -43 -28l-10 -23q-16 -37 -49 -37q-20 0 -32.5 12.5t-12.5 30.5zM301 760q0 -19 11.5 -32t29.5 -13q30 0 41 28l235 564q21 53 21 96q0 54 -33 90q-48 51 -127 51t-127 -51q-51 -51 -51 -184 v-549zM317 287q0 -55 35 -90q49 -52 127 -52t127 52t49 184v549q0 19 -11.5 32t-29.5 13q-28 0 -39 -29l-237 -563q-21 -53 -21 -96z" />
<glyph unicode="&#xd9;" d="M127 367v1271q0 22 15.5 37t37.5 15h72q22 0 36.5 -15t14.5 -37v-1257q0 -133 51 -184q49 -52 125 -52q78 0 127 52t49 184v1257q0 22 16 37t38 15h71q22 0 36.5 -15t14.5 -37v-1271q0 -173 -88 -271q-95 -110 -264 -110q-165 0 -264 110q-88 101 -88 271zM274 2036 q0 18 12 30.5t33 12.5h95q33 0 49.5 -7.5t36.5 -33.5l118 -160q25 -35 25 -47q0 -19 -11.5 -32t-31.5 -13q-19 0 -41 16l-256 187q-29 20 -29 47z" />
<glyph unicode="&#xda;" d="M127 367v1271q0 22 15.5 37t37.5 15h72q22 0 36.5 -15t14.5 -37v-1257q0 -133 51 -184q49 -52 125 -52q78 0 127 52t49 184v1257q0 22 16 37t38 15h71q22 0 36.5 -15t14.5 -37v-1271q0 -173 -88 -271q-95 -110 -264 -110q-165 0 -264 110q-88 101 -88 271zM295 1831 q0 14 24 47l119 160q20 26 36.5 33.5t49.5 7.5h94q21 0 33.5 -12.5t12.5 -30.5q0 -27 -29 -47l-256 -187q-22 -16 -41 -16q-20 0 -31.5 13t-11.5 32z" />
<glyph unicode="&#xdb;" d="M127 367v1271q0 22 15.5 37t37.5 15h72q22 0 36.5 -15t14.5 -37v-1257q0 -133 51 -184q49 -52 125 -52q78 0 127 52t49 184v1257q0 22 16 37t38 15h71q22 0 36.5 -15t14.5 -37v-1271q0 -173 -88 -271q-95 -110 -264 -110q-165 0 -264 110q-88 101 -88 271zM258 1839 q0 16 27 47l147 180q21 25 47 25t47 -25l148 -180q26 -30 26 -47q0 -19 -13 -32t-34 -13q-15 0 -35 16l-94 72q-30 21 -45 21q-17 0 -43 -21l-96 -72q-20 -16 -35 -16q-21 0 -34 13t-13 32z" />
<glyph unicode="&#xdc;" d="M127 367v1271q0 22 15.5 37t37.5 15h72q22 0 36.5 -15t14.5 -37v-1257q0 -133 51 -184q49 -52 125 -52q78 0 127 52t49 184v1257q0 22 16 37t38 15h71q22 0 36.5 -15t14.5 -37v-1271q0 -173 -88 -271q-95 -110 -264 -110q-165 0 -264 110q-88 101 -88 271zM201 1909v65 q0 22 14.5 36.5t36.5 14.5h65q22 0 37 -14.5t15 -36.5v-65q0 -22 -15 -36.5t-37 -14.5h-65q-22 0 -36.5 14.5t-14.5 36.5zM592 1909v65q0 22 14.5 36.5t36.5 14.5h66q22 0 36.5 -14.5t14.5 -36.5v-65q0 -22 -14.5 -36.5t-36.5 -14.5h-66q-22 0 -36.5 14.5t-14.5 36.5z" />
<glyph unicode="&#xdd;" d="M127 1049v589q0 22 15.5 37t37.5 15h72q22 0 36.5 -15t14.5 -37v-577q0 -133 51 -184q49 -52 125 -52q78 0 127 52t49 184v577q0 22 16 37t38 15h71q22 0 36.5 -15t14.5 -37v-589q0 -141 -61 -235.5t-147 -125.5l-23 -8q-31 -16 -31 -43v-586q0 -22 -15.5 -36.5 t-37.5 -14.5h-72q-22 0 -36.5 14.5t-14.5 36.5v582q0 29 -28 45l-25 10q-213 93 -213 361zM295 1831q0 14 24 47l119 160q20 26 36.5 33.5t49.5 7.5h94q21 0 33.5 -12.5t12.5 -30.5q0 -27 -29 -47l-256 -187q-22 -16 -41 -16q-20 0 -31.5 13t-11.5 32z" />
<glyph unicode="&#xde;" d="M127 51v1587q0 22 15.5 37t37.5 15h72q22 0 36.5 -15t14.5 -37v-219q0 -20 12.5 -33.5t32.5 -13.5h154q167 0 262 -110q88 -98 88 -271v-250q0 -170 -90 -270q-96 -111 -262 -111h-152q-20 0 -32.5 -13.5t-12.5 -33.5v-262q0 -22 -14.5 -36.5t-36.5 -14.5h-72 q-22 0 -37.5 14.5t-15.5 36.5zM303 571q0 -45 45 -45h154q76 0 125 52t49 184v207q0 134 -47 184q-50 53 -127 53h-148q-51 0 -51 -45v-590z" />
<glyph unicode="&#xdf;" horiz-adv-x="935" d="M125 51v1272q0 171 86 270q96 111 258 111t258 -111q37 -41 60.5 -102.5t23.5 -122.5q0 -86 -15.5 -149.5t-64.5 -112.5l-16 -16q-17 -17 -17 -33t17 -33l16 -16q82 -82 82 -275v-352q0 -169 -88 -270q-96 -111 -256 -111h-12q-22 0 -36.5 14.5t-14.5 36.5v62 q0 22 14.5 36.5t36.5 14.5h12q75 0 123 51q49 52 49 184v340q0 132 -45 185q-45 51 -117 51h-22q-22 0 -36.5 14.5t-14.5 36.5v59q0 22 14.5 37t36.5 15h22q72 0 117 51q41 48 41 182q0 76 -45 123q-48 51 -123 51t-123 -51q-49 -52 -49 -184v-1258q0 -22 -14.5 -36.5 t-36.5 -14.5h-70q-22 0 -36.5 14.5t-14.5 36.5z" />
<glyph unicode="&#xe0;" horiz-adv-x="927" d="M109 365v32q0 91 36 169.5t103 127.5q81 62 221 62h117q20 0 32.5 13.5t12.5 33.5v117q0 132 -49 184q-48 51 -123 51t-123 -51q-49 -52 -49 -164v-2q0 -22 -14.5 -36.5t-36.5 -14.5h-70q-22 0 -36.5 14.5t-14.5 36.5v14q0 153 86 252q96 111 258 111t258 -111 q86 -99 86 -270v-873q0 -35 -21 -53q-17 -14 -43 -14q-28 0 -55 20l-8 6q-23 17 -45 17q-7 0 -18.5 -4.5t-29 -12t-32.5 -12.5q-64 -22 -119 -22q-147 0 -235 109.5t-88 269.5zM231 1647q0 18 12 30.5t33 12.5h89q32 0 48 -8t38 -33l129 -162q24 -28 24 -45q0 -19 -11.5 -32 t-31.5 -13q-22 0 -41 16l-270 193q-19 17 -19 41zM287 346q0 -83 41 -139q45 -62 131 -62q69 0 120.5 43.5t51.5 126.5v238q0 20 -12.5 33.5t-32.5 13.5h-131q-87 0 -133 -63q-35 -49 -35 -134v-57z" />
<glyph unicode="&#xe1;" horiz-adv-x="927" d="M109 365v32q0 91 36 169.5t103 127.5q81 62 221 62h117q20 0 32.5 13.5t12.5 33.5v117q0 132 -49 184q-48 51 -123 51t-123 -51q-49 -52 -49 -164v-2q0 -22 -14.5 -36.5t-36.5 -14.5h-70q-22 0 -36.5 14.5t-14.5 36.5v14q0 153 86 252q96 111 258 111t258 -111 q86 -99 86 -270v-873q0 -35 -21 -53q-17 -14 -43 -14q-28 0 -55 20l-8 6q-23 17 -45 17q-7 0 -18.5 -4.5t-29 -12t-32.5 -12.5q-64 -22 -119 -22q-147 0 -235 109.5t-88 269.5zM287 346q0 -83 41 -139q45 -62 131 -62q69 0 120.5 43.5t51.5 126.5v238q0 20 -12.5 33.5 t-32.5 13.5h-131q-87 0 -133 -63q-35 -49 -35 -134v-57zM292 1442q0 12 25 47l119 160q20 26 36.5 33.5t49.5 7.5h94q21 0 33 -12.5t12 -30.5q0 -28 -29 -48l-256 -186q-22 -16 -41 -16q-20 0 -31.5 13t-11.5 32z" />
<glyph unicode="&#xe2;" horiz-adv-x="927" d="M109 365v32q0 91 36 169.5t103 127.5q81 62 221 62h117q20 0 32.5 13.5t12.5 33.5v117q0 132 -49 184q-48 51 -123 51t-123 -51q-49 -52 -49 -164v-2q0 -22 -14.5 -36.5t-36.5 -14.5h-70q-22 0 -36.5 14.5t-14.5 36.5v14q0 153 86 252q96 111 258 111t258 -111 q86 -99 86 -270v-873q0 -35 -21 -53q-17 -14 -43 -14q-28 0 -55 20l-8 6q-23 17 -45 17q-7 0 -18.5 -4.5t-29 -12t-32.5 -12.5q-64 -22 -119 -22q-147 0 -235 109.5t-88 269.5zM234 1452q0 16 27 47l147 180q21 25 47 25t47 -25l148 -180q26 -30 26 -47q0 -19 -13 -32 t-34 -13q-15 0 -35 16l-94 72q-30 21 -45 21q-17 0 -43 -21l-96 -72q-20 -16 -35 -16q-21 0 -34 13t-13 32zM287 346q0 -83 41 -139q45 -62 131 -62q69 0 120.5 43.5t51.5 126.5v238q0 20 -12.5 33.5t-32.5 13.5h-131q-87 0 -133 -63q-35 -49 -35 -134v-57z" />
<glyph unicode="&#xe3;" horiz-adv-x="927" d="M109 365v32q0 91 36 169.5t103 127.5q81 62 221 62h117q20 0 32.5 13.5t12.5 33.5v117q0 132 -49 184q-48 51 -123 51t-123 -51q-49 -52 -49 -164v-2q0 -22 -14.5 -36.5t-36.5 -14.5h-70q-22 0 -36.5 14.5t-14.5 36.5v14q0 153 86 252q96 111 258 111t258 -111 q86 -99 86 -270v-873q0 -35 -21 -53q-17 -14 -43 -14q-28 0 -55 20l-8 6q-23 17 -45 17q-7 0 -18.5 -4.5t-29 -12t-32.5 -12.5q-64 -22 -119 -22q-147 0 -235 109.5t-88 269.5zM213 1532q0 59 50 108.5t104 49.5q70 0 119 -43l20 -19q29 -26 49 -26q34 0 43 36l4 17 q11 37 47 37q19 0 33.5 -14.5t14.5 -35.5q0 -60 -47 -109.5t-101 -49.5q-74 0 -123 43l-20 18q-30 27 -49 27q-33 0 -43 -37l-5 -16q-5 -16 -18 -26.5t-31 -10.5q-19 0 -33 14t-14 37zM287 346q0 -83 41 -139q45 -62 131 -62q69 0 120.5 43.5t51.5 126.5v238 q0 20 -12.5 33.5t-32.5 13.5h-131q-87 0 -133 -63q-35 -49 -35 -134v-57z" />
<glyph unicode="&#xe4;" horiz-adv-x="927" d="M109 365v32q0 91 36 169.5t103 127.5q81 62 221 62h117q20 0 32.5 13.5t12.5 33.5v117q0 132 -49 184q-48 51 -123 51t-123 -51q-49 -52 -49 -164v-2q0 -22 -14.5 -36.5t-36.5 -14.5h-70q-22 0 -36.5 14.5t-14.5 36.5v14q0 153 86 252q96 111 258 111t258 -111 q86 -99 86 -270v-873q0 -35 -21 -53q-17 -14 -43 -14q-28 0 -55 20l-8 6q-23 17 -45 17q-7 0 -18.5 -4.5t-29 -12t-32.5 -12.5q-64 -22 -119 -22q-147 0 -235 109.5t-88 269.5zM176 1526v65q0 22 14.5 36.5t36.5 14.5h66q22 0 36.5 -14.5t14.5 -36.5v-65q0 -22 -14.5 -36.5 t-36.5 -14.5h-66q-22 0 -36.5 14.5t-14.5 36.5zM287 346q0 -83 41 -139q45 -62 131 -62q69 0 120.5 43.5t51.5 126.5v238q0 20 -12.5 33.5t-32.5 13.5h-131q-87 0 -133 -63q-35 -49 -35 -134v-57zM567 1526v65q0 22 14.5 36.5t36.5 14.5h66q22 0 36.5 -14.5t14.5 -36.5v-65 q0 -22 -14.5 -36.5t-36.5 -14.5h-66q-22 0 -36.5 14.5t-14.5 36.5z" />
<glyph unicode="&#xe5;" horiz-adv-x="927" d="M109 365v32q0 91 36 169.5t103 127.5q81 62 221 62h117q20 0 32.5 13.5t12.5 33.5v117q0 132 -49 184q-48 51 -123 51t-123 -51q-49 -52 -49 -164v-2q0 -22 -14.5 -36.5t-36.5 -14.5h-70q-22 0 -36.5 14.5t-14.5 36.5v14q0 153 86 252q96 111 258 111t258 -111 q86 -99 86 -270v-873q0 -35 -21 -53q-17 -14 -43 -14q-28 0 -55 20l-8 6q-23 17 -45 17q-7 0 -18.5 -4.5t-29 -12t-32.5 -12.5q-64 -22 -119 -22q-147 0 -235 109.5t-88 269.5zM287 346q0 -83 41 -139q45 -62 131 -62q69 0 120.5 43.5t51.5 126.5v238q0 20 -12.5 33.5 t-32.5 13.5h-131q-87 0 -133 -63q-35 -49 -35 -134v-57zM295 1544q0 66 47 113t113 47t112.5 -47t46.5 -113t-46.5 -113t-112.5 -47t-113 47t-47 113zM395 1544q0 -25 17.5 -42t42.5 -17t42 17t17 42t-17 42.5t-42 17.5t-42.5 -17.5t-17.5 -42.5z" />
<glyph unicode="&#xe6;" horiz-adv-x="1406" d="M109 354v52q0 91 36.5 170.5t102.5 128.5q80 61 221 61h100q20 0 32.5 13.5t12.5 33.5v107q0 132 -49 184q-42 51 -116 51q-75 0 -117 -51q-44 -47 -47 -154v-45q0 -22 -14.5 -36.5t-34.5 -14.5h-74q-20 0 -34.5 14.5t-14.5 36.5v47q0 155 84 252q93 111 249 111 q134 0 203 -72l17 -16q17 -17 32 -17q16 0 33 17l14 16q72 72 205 72q153 0 246 -111q86 -99 86 -270v-270q0 -22 -15.5 -38t-35.5 -16h-402q-41 0 -41 -45v-184q0 -133 48 -184q46 -52 114 -52q67 0 113 52q47 52 47 184v16q0 22 14 37t33 15h76q20 0 34.5 -15t14.5 -37 v-30q0 -172 -86 -271q-92 -110 -244 -110q-131 0 -202 71l-15 17q-16 16 -33 16q-16 0 -32 -16l-17 -15q-83 -73 -213 -73q-147 0 -239 101.5t-92 266.5zM283 360q0 -100 39 -153q39 -62 127 -62q86 0 125.5 57.5t39.5 151.5v209q0 20 -12.5 33.5t-32.5 13.5h-114 q-94 0 -140 -63q-32 -49 -32 -133v-54zM788 811q0 -24 9 -34.5t32 -10.5h236q18 0 31.5 13.5t13.5 33.5v107q0 132 -47 184q-45 51 -119 51q-63 0 -108 -51q-48 -51 -48 -184v-109z" />
<glyph unicode="&#xe7;" horiz-adv-x="917" d="M125 367v567q0 171 86 270q96 111 258 111t258 -111q86 -99 86 -252v-47q0 -22 -14.5 -36.5t-36.5 -14.5h-70q-22 0 -36.5 14.5t-14.5 36.5v45q0 102 -49 154q-48 51 -123 51t-123 -51q-49 -52 -49 -184v-539q0 -132 49 -184t123 -52t123 52t49 178v22q0 22 14.5 37 t36.5 15h70q22 0 36.5 -15t14.5 -37v-30q0 -172 -86 -271q-95 -110 -258 -110t-258 110q-86 99 -86 271zM326 -98q0 33 39 43q24 8 61 8q69 0 114.5 -41.5t45.5 -110.5t-45.5 -110t-114.5 -41q-30 0 -57 6q-43 10 -43 45q0 16 5 26t16.5 14.5t21 6t29.5 2.5q30 1 46.5 15 t16.5 36t-16.5 36.5t-46.5 15.5q-20 1 -29.5 2.5t-21 6t-16.5 14.5t-5 26z" />
<glyph unicode="&#xe8;" horiz-adv-x="935" d="M125 367v567q0 171 86 270q96 111 258 111t258 -111q86 -99 86 -270v-281q0 -22 -15.5 -37.5t-37.5 -15.5h-418q-20 0 -32.5 -12.5t-12.5 -32.5v-174q0 -132 49 -184t123 -52t123 52t49 184v16q0 22 14.5 37t36.5 15h70q22 0 36.5 -15t14.5 -37v-30q0 -172 -86 -271 q-95 -110 -258 -110t-258 110q-86 99 -86 271zM248 1647q0 18 12 30.5t33 12.5h88q32 0 48 -8t38 -33l129 -162q25 -29 25 -45q0 -19 -11.5 -32t-31.5 -13q-22 0 -41 16l-271 193q-18 16 -18 41zM297 801q0 -45 45 -45h252q20 0 33.5 13.5t13.5 33.5v117q0 132 -49 184 q-48 51 -123 51t-123 -51q-49 -52 -49 -184v-119z" />
<glyph unicode="&#xe9;" horiz-adv-x="935" d="M125 367v567q0 171 86 270q96 111 258 111t258 -111q86 -99 86 -270v-281q0 -22 -15.5 -37.5t-37.5 -15.5h-418q-20 0 -32.5 -12.5t-12.5 -32.5v-174q0 -132 49 -184t123 -52t123 52t49 184v16q0 22 14.5 37t36.5 15h70q22 0 36.5 -15t14.5 -37v-30q0 -172 -86 -271 q-95 -110 -258 -110t-258 110q-86 99 -86 271zM297 801q0 -45 45 -45h252q20 0 33.5 13.5t13.5 33.5v117q0 132 -49 184q-48 51 -123 51t-123 -51q-49 -52 -49 -184v-119zM303 1442q0 12 25 47l119 160q20 26 36.5 33.5t49.5 7.5h94q21 0 33 -12.5t12 -30.5q0 -28 -29 -48 l-256 -186q-22 -16 -41 -16q-20 0 -31.5 13t-11.5 32z" />
<glyph unicode="&#xea;" horiz-adv-x="935" d="M125 367v567q0 171 86 270q96 111 258 111t258 -111q86 -99 86 -270v-281q0 -22 -15.5 -37.5t-37.5 -15.5h-418q-20 0 -32.5 -12.5t-12.5 -32.5v-174q0 -132 49 -184t123 -52t123 52t49 184v16q0 22 14.5 37t36.5 15h70q22 0 36.5 -15t14.5 -37v-30q0 -172 -86 -271 q-95 -110 -258 -110t-258 110q-86 99 -86 271zM234 1452q0 16 27 47l147 180q21 25 47 25t47 -25l148 -180q26 -30 26 -47q0 -19 -13 -32t-34 -13q-15 0 -35 16l-94 72q-30 21 -45 21q-17 0 -43 -21l-96 -72q-20 -16 -35 -16q-21 0 -34 13t-13 32zM297 801q0 -45 45 -45h252 q20 0 33.5 13.5t13.5 33.5v117q0 132 -49 184q-48 51 -123 51t-123 -51q-49 -52 -49 -184v-119z" />
<glyph unicode="&#xeb;" horiz-adv-x="935" d="M125 367v567q0 171 86 270q96 111 258 111t258 -111q86 -99 86 -270v-281q0 -22 -15.5 -37.5t-37.5 -15.5h-418q-20 0 -32.5 -12.5t-12.5 -32.5v-174q0 -132 49 -184t123 -52t123 52t49 184v16q0 22 14.5 37t36.5 15h70q22 0 36.5 -15t14.5 -37v-30q0 -172 -86 -271 q-95 -110 -258 -110t-258 110q-86 99 -86 271zM176 1526v65q0 22 14.5 36.5t36.5 14.5h66q22 0 36.5 -14.5t14.5 -36.5v-65q0 -22 -14.5 -36.5t-36.5 -14.5h-66q-22 0 -36.5 14.5t-14.5 36.5zM297 801q0 -45 45 -45h252q20 0 33.5 13.5t13.5 33.5v117q0 132 -49 184 q-48 51 -123 51t-123 -51q-49 -52 -49 -184v-119zM567 1526v65q0 22 14.5 36.5t36.5 14.5h66q22 0 36.5 -14.5t14.5 -36.5v-65q0 -22 -14.5 -36.5t-36.5 -14.5h-66q-22 0 -36.5 14.5t-14.5 36.5z" />
<glyph unicode="&#xec;" horiz-adv-x="456" d="M-45 1647q0 18 12 30.5t33 12.5h88q32 0 48 -8t38 -33l129 -162q25 -29 25 -45q0 -19 -11.5 -32t-31.5 -13q-22 0 -41 16l-271 193q-18 16 -18 41zM141 51v1198q0 22 15 36.5t37 14.5h69q22 0 36.5 -14.5t14.5 -36.5v-1198q0 -22 -14.5 -36.5t-36.5 -14.5h-69 q-22 0 -37 14.5t-15 36.5z" />
<glyph unicode="&#xed;" horiz-adv-x="456" d="M129 1442q0 12 25 47l119 160q20 26 36.5 33.5t49.5 7.5h94q21 0 33 -12.5t12 -30.5q0 -28 -29 -48l-256 -186q-22 -16 -41 -16q-20 0 -31.5 13t-11.5 32zM141 51v1198q0 22 15 36.5t37 14.5h69q22 0 36.5 -14.5t14.5 -36.5v-1198q0 -22 -14.5 -36.5t-36.5 -14.5h-69 q-22 0 -37 14.5t-15 36.5z" />
<glyph unicode="&#xee;" horiz-adv-x="456" d="M6 1452q0 16 27 47l147 180q21 25 47 25t47 -25l148 -180q26 -30 26 -47q0 -19 -13 -32t-34 -13q-15 0 -35 16l-94 72q-30 21 -45 21q-17 0 -43 -21l-96 -72q-20 -16 -35 -16q-21 0 -34 13t-13 32zM141 51v1198q0 22 15 36.5t37 14.5h69q22 0 36.5 -14.5t14.5 -36.5 v-1198q0 -22 -14.5 -36.5t-36.5 -14.5h-69q-22 0 -37 14.5t-15 36.5z" />
<glyph unicode="&#xef;" horiz-adv-x="456" d="M-12 1526v65q0 22 14.5 36.5t36.5 14.5h65q22 0 37 -14.5t15 -36.5v-65q0 -22 -15 -36.5t-37 -14.5h-65q-22 0 -36.5 14.5t-14.5 36.5zM141 51v1198q0 22 15 36.5t37 14.5h69q22 0 36.5 -14.5t14.5 -36.5v-1198q0 -22 -14.5 -36.5t-36.5 -14.5h-69q-22 0 -37 14.5 t-15 36.5zM299 1526v65q0 22 14.5 36.5t36.5 14.5h66q22 0 36.5 -14.5t14.5 -36.5v-65q0 -22 -14.5 -36.5t-36.5 -14.5h-66q-22 0 -36.5 14.5t-14.5 36.5z" />
<glyph unicode="&#xf0;" horiz-adv-x="935" d="M125 367v559q0 186 91.5 284.5t244.5 98.5h26q19 0 32 12.5t13 32.5q0 19 -36 55q-23 23 -41 23t-41 -23l-21 -20q-19 -19 -39 -19q-18 0 -32 14l-19 21q-10 10 -10 22q0 20 22 39l11 9q14 14 14 28q0 28 -39 41l-47 21q-35 15 -35 41q0 19 8 32l23 37q17 27 41 27 q11 0 45 -14q33 -14 115 -62q9 -6 24 -6q21 0 33 12l57 51q19 19 39 19q19 0 33 -14l18 -21q11 -11 11 -22q0 -16 -23 -39l-37 -33q-16 -16 -16 -35q0 -18 16 -31q207 -183 207 -587v-553q0 -172 -86 -271q-95 -110 -258 -110t-258 110q-86 99 -86 271zM297 381 q0 -132 49 -184t123 -52t123 52t49 184v539q0 132 -49 184q-48 51 -123 51t-123 -51q-49 -52 -49 -184v-539z" />
<glyph unicode="&#xf1;" horiz-adv-x="937" d="M125 51v1188q0 36 20 53q18 15 43 15t56 -23l8 -6q21 -16 45 -16q7 0 18.5 4t30.5 12.5t35 13.5q76 23 127 23q58 0 115 -24t100 -70q90 -97 90 -285v-885q0 -22 -14.5 -36.5t-36.5 -14.5h-70q-22 0 -36.5 14.5t-14.5 36.5v869q0 132 -49 184q-48 51 -123 51t-123 -51 q-49 -52 -49 -184v-869q0 -22 -14.5 -36.5t-36.5 -14.5h-70q-22 0 -36.5 14.5t-14.5 36.5zM225 1532q0 59 50 108.5t104 49.5q70 0 119 -43l20 -19q29 -26 49 -26q34 0 43 36l4 17q11 37 47 37q19 0 33.5 -14.5t14.5 -35.5q0 -60 -47 -109.5t-101 -49.5q-74 0 -123 43 l-20 18q-30 27 -49 27q-33 0 -43 -37l-5 -16q-5 -16 -18 -26.5t-31 -10.5q-19 0 -33 14t-14 37z" />
<glyph unicode="&#xf2;" horiz-adv-x="937" d="M125 367v567q0 171 86 270q96 111 258 111t258 -111q86 -99 86 -270v-567q0 -172 -86 -271q-95 -110 -258 -110t-258 110q-86 99 -86 271zM260 1647q0 18 12 30.5t33 12.5h88q32 0 48 -8t38 -33l129 -162q25 -29 25 -45q0 -19 -11.5 -32t-31.5 -13q-22 0 -41 16l-270 193 q-19 17 -19 41zM297 381q0 -132 49 -184t123 -52t123 52t49 184v539q0 132 -49 184q-48 51 -123 51t-123 -51q-49 -52 -49 -184v-539z" />
<glyph unicode="&#xf3;" horiz-adv-x="937" d="M125 367v567q0 171 86 270q96 111 258 111t258 -111q86 -99 86 -270v-567q0 -172 -86 -271q-95 -110 -258 -110t-258 110q-86 99 -86 271zM297 381q0 -132 49 -184t123 -52t123 52t49 184v539q0 132 -49 184q-48 51 -123 51t-123 -51q-49 -52 -49 -184v-539zM303 1442 q0 12 25 47l119 160q20 26 36.5 33.5t49.5 7.5h94q21 0 33 -12.5t12 -30.5q0 -28 -29 -48l-256 -186q-22 -16 -41 -16q-20 0 -31.5 13t-11.5 32z" />
<glyph unicode="&#xf4;" horiz-adv-x="937" d="M125 367v567q0 171 86 270q96 111 258 111t258 -111q86 -99 86 -270v-567q0 -172 -86 -271q-95 -110 -258 -110t-258 110q-86 99 -86 271zM246 1452q0 16 27 47l147 180q21 25 47 25t47 -25l148 -180q26 -30 26 -47q0 -19 -13 -32t-34 -13q-15 0 -35 16l-94 72 q-30 21 -45 21q-17 0 -43 -21l-96 -72q-20 -16 -35 -16q-21 0 -34 13t-13 32zM297 381q0 -132 49 -184t123 -52t123 52t49 184v539q0 132 -49 184q-48 51 -123 51t-123 -51q-49 -52 -49 -184v-539z" />
<glyph unicode="&#xf5;" horiz-adv-x="937" d="M125 367v567q0 171 86 270q96 111 258 111t258 -111q86 -99 86 -270v-567q0 -172 -86 -271q-95 -110 -258 -110t-258 110q-86 99 -86 271zM225 1532q0 59 50 108.5t104 49.5q70 0 119 -43l20 -19q29 -26 49 -26q34 0 43 36l4 17q11 37 47 37q19 0 33.5 -14.5t14.5 -35.5 q0 -60 -47 -109.5t-101 -49.5q-74 0 -123 43l-20 18q-30 27 -49 27q-33 0 -43 -37l-5 -16q-5 -16 -18 -26.5t-31 -10.5q-19 0 -33 14t-14 37zM297 381q0 -132 49 -184t123 -52t123 52t49 184v539q0 132 -49 184q-48 51 -123 51t-123 -51q-49 -52 -49 -184v-539z" />
<glyph unicode="&#xf6;" horiz-adv-x="937" d="M125 367v567q0 171 86 270q96 111 258 111t258 -111q86 -99 86 -270v-567q0 -172 -86 -271q-95 -110 -258 -110t-258 110q-86 99 -86 271zM188 1526v65q0 22 15 36.5t37 14.5h65q22 0 36.5 -14.5t14.5 -36.5v-65q0 -22 -14.5 -36.5t-36.5 -14.5h-65q-22 0 -37 14.5 t-15 36.5zM297 381q0 -132 49 -184t123 -52t123 52t49 184v539q0 132 -49 184q-48 51 -123 51t-123 -51q-49 -52 -49 -184v-539zM580 1526v65q0 22 14.5 36.5t36.5 14.5h65q22 0 37 -14.5t15 -36.5v-65q0 -22 -15 -36.5t-37 -14.5h-65q-22 0 -36.5 14.5t-14.5 36.5z" />
<glyph unicode="&#xf7;" horiz-adv-x="1124" d="M152 653v66q0 22 14.5 36.5t36.5 14.5h719q22 0 36.5 -14.5t14.5 -36.5v-66q0 -22 -14.5 -36.5t-36.5 -14.5h-719q-22 0 -36.5 14.5t-14.5 36.5zM469 223v92q0 22 14.5 37t36.5 15h82q22 0 36.5 -15t14.5 -37v-92q0 -22 -14.5 -36.5t-36.5 -14.5h-82q-22 0 -36.5 14.5 t-14.5 36.5zM469 1057v92q0 22 14.5 36.5t36.5 14.5h82q22 0 36.5 -14.5t14.5 -36.5v-92q0 -22 -14.5 -36.5t-36.5 -14.5h-82q-22 0 -36.5 14.5t-14.5 36.5z" />
<glyph unicode="&#xf8;" horiz-adv-x="937" d="M125 379v512q0 248 127 354q82 70 217 70q87 0 143 -25l9 -4q12 -6 24 -6q29 0 43 29q17 39 41 39q22 0 37.5 -10.5t15.5 -28.5q0 -14 -14 -47l-14 -35q-9 -18 -9 -35q0 -11 7 -25q61 -112 61 -245v-512q0 -249 -127 -355q-81 -69 -217 -69q-89 0 -143 24l-9 4 q-12 6 -24 6q-29 0 -43 -28q-17 -39 -41 -39q-22 0 -37.5 10.5t-15.5 28.5q0 14 14 47l14 35q9 18 9 35q0 10 -7 24q-61 112 -61 246zM297 565q0 -19 11.5 -32t29.5 -13q28 0 39 29l213 512q6 18 6 24q0 19 -12 31q-39 39 -113 39q-77 0 -125 -51q-49 -52 -49 -184v-355z M342 215q0 -19 12 -31q39 -39 113 -39q76 0 125 52t49 184v354q0 19 -11.5 32t-29.5 13q-28 0 -39 -28l-213 -512q-6 -18 -6 -25z" />
<glyph unicode="&#xf9;" horiz-adv-x="937" d="M125 365v884q0 22 14.5 36.5t36.5 14.5h70q22 0 36.5 -14.5t14.5 -36.5v-868q0 -132 49 -184t123 -52t123 52t49 184v868q0 22 14.5 36.5t36.5 14.5h70q22 0 36.5 -14.5t14.5 -36.5v-1192q0 -36 -20 -53q-17 -14 -43 -14q-27 0 -56 22l-8 6q-23 17 -45 17q-7 0 -18 -4 t-31 -12t-35 -13q-66 -20 -127 -20q-58 0 -115 24t-100 70q-90 97 -90 285zM260 1647q0 18 12 30.5t33 12.5h88q32 0 48 -8t38 -33l129 -162q25 -29 25 -45q0 -19 -11.5 -32t-31.5 -13q-22 0 -41 16l-270 193q-19 17 -19 41z" />
<glyph unicode="&#xfa;" horiz-adv-x="937" d="M125 365v884q0 22 14.5 36.5t36.5 14.5h70q22 0 36.5 -14.5t14.5 -36.5v-868q0 -132 49 -184t123 -52t123 52t49 184v868q0 22 14.5 36.5t36.5 14.5h70q22 0 36.5 -14.5t14.5 -36.5v-1192q0 -36 -20 -53q-17 -14 -43 -14q-27 0 -56 22l-8 6q-23 17 -45 17q-7 0 -18 -4 t-31 -12t-35 -13q-66 -20 -127 -20q-58 0 -115 24t-100 70q-90 97 -90 285zM303 1442q0 12 25 47l119 160q20 26 36.5 33.5t49.5 7.5h94q21 0 33 -12.5t12 -30.5q0 -28 -29 -48l-256 -186q-22 -16 -41 -16q-20 0 -31.5 13t-11.5 32z" />
<glyph unicode="&#xfb;" horiz-adv-x="937" d="M125 365v884q0 22 14.5 36.5t36.5 14.5h70q22 0 36.5 -14.5t14.5 -36.5v-868q0 -132 49 -184t123 -52t123 52t49 184v868q0 22 14.5 36.5t36.5 14.5h70q22 0 36.5 -14.5t14.5 -36.5v-1192q0 -36 -20 -53q-17 -14 -43 -14q-27 0 -56 22l-8 6q-23 17 -45 17q-7 0 -18 -4 t-31 -12t-35 -13q-66 -20 -127 -20q-58 0 -115 24t-100 70q-90 97 -90 285zM246 1452q0 16 27 47l147 180q21 25 47 25t47 -25l148 -180q26 -30 26 -47q0 -19 -13 -32t-34 -13q-15 0 -35 16l-94 72q-30 21 -45 21q-17 0 -43 -21l-96 -72q-20 -16 -35 -16q-21 0 -34 13 t-13 32z" />
<glyph unicode="&#xfc;" horiz-adv-x="937" d="M125 365v884q0 22 14.5 36.5t36.5 14.5h70q22 0 36.5 -14.5t14.5 -36.5v-868q0 -132 49 -184t123 -52t123 52t49 184v868q0 22 14.5 36.5t36.5 14.5h70q22 0 36.5 -14.5t14.5 -36.5v-1192q0 -36 -20 -53q-17 -14 -43 -14q-27 0 -56 22l-8 6q-23 17 -45 17q-7 0 -18 -4 t-31 -12t-35 -13q-66 -20 -127 -20q-58 0 -115 24t-100 70q-90 97 -90 285zM188 1526v65q0 22 15 36.5t37 14.5h65q22 0 36.5 -14.5t14.5 -36.5v-65q0 -22 -14.5 -36.5t-36.5 -14.5h-65q-22 0 -37 14.5t-15 36.5zM580 1526v65q0 22 14.5 36.5t36.5 14.5h65q22 0 37 -14.5 t15 -36.5v-65q0 -22 -15 -36.5t-37 -14.5h-65q-22 0 -36.5 14.5t-14.5 36.5z" />
<glyph unicode="&#xfd;" horiz-adv-x="937" d="M125 494v755q0 22 14.5 36.5t36.5 14.5h70q22 0 36.5 -14.5t14.5 -36.5v-745q0 -133 49 -185q48 -51 123 -51t123 51q49 52 49 185v745q0 22 14.5 36.5t36.5 14.5h70q22 0 36.5 -14.5t14.5 -36.5v-1214q0 -180 -98 -283q-99 -102 -246 -102t-246 102q-42 44 -68 102 t-26 115v6q0 22 14.5 37t36.5 15h64q48 0 57 -54l2 -10q14 -75 43 -104q49 -49 123 -49t123 49q49 52 49 174v61q0 21 -11.5 34t-31.5 13q-9 0 -27 -6.5t-24 -7.5l-23 -6q-41 -12 -92 -12q-52 0 -109.5 23.5t-101.5 70.5q-96 101 -96 291zM303 1442q0 12 25 47l119 160 q20 26 36.5 33.5t49.5 7.5h94q21 0 33 -12.5t12 -30.5q0 -28 -29 -48l-256 -186q-22 -16 -41 -16q-20 0 -31.5 13t-11.5 32z" />
<glyph unicode="&#xfe;" horiz-adv-x="931" d="M125 -287v1925q0 22 14.5 37t36.5 15h70q22 0 36.5 -15t14.5 -37v-245q0 -16 -1 -31t-1 -27q0 -20 12.5 -33.5t32.5 -13.5q17 0 47 10q60 17 105 17q143 0 235 -109q86 -99 86 -272v-567q0 -174 -86 -273q-91 -108 -235 -108q-49 0 -105 16q-30 10 -47 10 q-20 0 -32.5 -13.5t-12.5 -33.5q0 -12 1 -26.5t1 -30.5v-195q0 -22 -14.5 -36.5t-36.5 -14.5h-70q-22 0 -36.5 14.5t-14.5 36.5zM297 381q0 -132 49 -184t123 -52t123 52t49 184v539q0 132 -49 184q-48 51 -123 51t-123 -51q-49 -52 -49 -184v-539z" />
<glyph unicode="&#xff;" horiz-adv-x="937" d="M125 494v755q0 22 14.5 36.5t36.5 14.5h70q22 0 36.5 -14.5t14.5 -36.5v-745q0 -133 49 -185q48 -51 123 -51t123 51q49 52 49 185v745q0 22 14.5 36.5t36.5 14.5h70q22 0 36.5 -14.5t14.5 -36.5v-1214q0 -180 -98 -283q-99 -102 -246 -102t-246 102q-42 44 -68 102 t-26 115v6q0 22 14.5 37t36.5 15h64q48 0 57 -54l2 -10q14 -75 43 -104q49 -49 123 -49t123 49q49 52 49 174v61q0 21 -11.5 34t-31.5 13q-9 0 -27 -6.5t-24 -7.5l-23 -6q-41 -12 -92 -12q-52 0 -109.5 23.5t-101.5 70.5q-96 101 -96 291zM188 1526v65q0 22 14.5 36.5 t36.5 14.5h66q22 0 36.5 -14.5t14.5 -36.5v-65q0 -22 -14.5 -36.5t-36.5 -14.5h-66q-22 0 -36.5 14.5t-14.5 36.5zM579 1526v65q0 22 15 36.5t37 14.5h65q22 0 36.5 -14.5t14.5 -36.5v-65q0 -22 -14.5 -36.5t-36.5 -14.5h-65q-22 0 -37 14.5t-15 36.5z" />
<glyph unicode="&#x100;" d="M127 51v1272q0 169 88 270q100 111 264 111t264 -111q88 -101 88 -270v-1272q0 -22 -15.5 -36.5t-37.5 -14.5h-71q-22 0 -37 14.5t-15 36.5v615q0 19 -13 32t-32 13h-262q-19 0 -32 -13t-13 -32v-615q0 -22 -14.5 -36.5t-36.5 -14.5h-72q-22 0 -37.5 14.5t-15.5 36.5z M250 1927v19q0 45 45 45h369q45 0 45 -45v-19q0 -45 -45 -45h-369q-45 0 -45 45zM303 920q0 -19 13 -32.5t32 -13.5h262q19 0 32 13.5t13 32.5v389q0 133 -51 184q-48 51 -125 51t-125 -51q-51 -51 -51 -184v-389z" />
<glyph unicode="&#x101;" horiz-adv-x="923" d="M109 365v32q0 91 36 169.5t103 127.5q81 62 221 62h117q20 0 32.5 13.5t12.5 33.5v117q0 132 -49 184q-48 51 -123 51t-123 -51q-49 -52 -49 -164v-2q0 -22 -14.5 -36.5t-36.5 -14.5h-70q-22 0 -36.5 14.5t-14.5 36.5v14q0 153 86 252q96 111 258 111t258 -111 q86 -99 86 -270v-873q0 -35 -21 -53q-17 -14 -43 -14q-28 0 -55 20l-8 6q-23 17 -45 17q-7 0 -18.5 -4.5t-29 -12t-32.5 -12.5q-64 -22 -119 -22q-147 0 -235 109.5t-88 269.5zM195 1544v31q0 45 45 45h430q45 0 45 -45v-31q0 -45 -45 -45h-430q-45 0 -45 45zM287 346 q0 -83 41 -139q45 -62 131 -62q69 0 120.5 43.5t51.5 126.5v238q0 20 -12.5 33.5t-32.5 13.5h-131q-87 0 -133 -63q-35 -49 -35 -134v-57z" />
<glyph unicode="&#x102;" d="M127 51v1272q0 169 88 270q100 111 264 111t264 -111q88 -101 88 -270v-1272q0 -22 -15.5 -36.5t-37.5 -14.5h-71q-22 0 -37 14.5t-15 36.5v615q0 19 -13 32t-32 13h-262q-19 0 -32 -13t-13 -32v-615q0 -22 -14.5 -36.5t-36.5 -14.5h-72q-22 0 -37.5 14.5t-15.5 36.5z M283 1987q0 51 11.5 75.5t43.5 24.5q22 0 35 -16q12 -15 12 -46v-10q0 -43 27 -68.5t67 -25.5t67 25.5t27 68.5v10q0 30 13 46t35 16q32 0 43.5 -24.5t11.5 -75.5q0 -87 -57.5 -138t-139.5 -51q-80 0 -138 51t-58 138zM303 920q0 -19 13 -32.5t32 -13.5h262q19 0 32 13.5 t13 32.5v389q0 133 -51 184q-48 51 -125 51t-125 -51q-51 -51 -51 -184v-389z" />
<glyph unicode="&#x103;" horiz-adv-x="927" d="M109 365v32q0 91 36 169.5t103 127.5q81 62 221 62h117q20 0 32.5 13.5t12.5 33.5v117q0 132 -49 184q-48 51 -123 51t-123 -51q-49 -52 -49 -164v-2q0 -22 -14.5 -36.5t-36.5 -14.5h-70q-22 0 -36.5 14.5t-14.5 36.5v14q0 153 86 252q96 111 258 111t258 -111 q86 -99 86 -270v-873q0 -35 -21 -53q-17 -14 -43 -14q-28 0 -55 20l-8 6q-23 17 -45 17q-7 0 -18.5 -4.5t-29 -12t-32.5 -12.5q-64 -22 -119 -22q-147 0 -235 109.5t-88 269.5zM271 1597q0 51 11.5 76t43.5 25q21 0 35 -17q12 -15 12 -45v-10q0 -43 27 -68.5t67 -25.5 t67 25.5t27 68.5v10q0 29 13 45q14 17 34 17q32 0 44 -25t12 -76q0 -87 -57.5 -137.5t-139.5 -50.5q-80 0 -138 50.5t-58 137.5zM287 346q0 -83 41 -139q45 -62 131 -62q69 0 120.5 43.5t51.5 126.5v238q0 20 -12.5 33.5t-32.5 13.5h-131q-87 0 -133 -63q-35 -49 -35 -134 v-57z" />
<glyph unicode="&#x104;" d="M127 51v1272q0 169 88 270q100 111 264 111q166 0 262 -111q88 -98 88 -270v-1278q0 -34 -10.5 -54.5t-40.5 -49.5l-65 -62q-22 -22 -28.5 -34.5t-6.5 -32.5q0 -19 14 -31t31 -12q11 0 30 12t33 12q20 0 34 -15t14 -32q0 -40 -45.5 -68t-104.5 -28q-73 0 -116.5 38.5 t-43.5 98.5q0 59 76 129l18 18q35 35 35 74v658q0 19 -12.5 32t-32.5 13h-260q-19 0 -32 -13t-13 -32v-615q0 -22 -14.5 -36.5t-36.5 -14.5h-72q-22 0 -37.5 14.5t-15.5 36.5zM303 920q0 -19 13 -32.5t32 -13.5h260q19 0 32 13.5t13 32.5v389q0 132 -49 184q-48 51 -125 51 t-125 -51q-51 -51 -51 -184v-389z" />
<glyph unicode="&#x105;" horiz-adv-x="927" d="M109 365v43q0 91 36 169.5t103 127.5q80 61 221 61h117q20 0 32.5 13.5t12.5 33.5v107q0 132 -49 184q-48 51 -123 51t-123 -51q-46 -49 -49 -150v-49q0 -22 -14.5 -36.5t-36.5 -14.5h-70q-22 0 -36.5 14.5t-14.5 36.5v47q0 153 86 252q96 111 258 111t258 -111 q86 -99 86 -270v-899q0 -39 -8 -64.5t-33 -50.5l-72 -61q-23 -20 -30 -30.5t-7 -29.5t14 -31t31 -12q11 0 30 12.5t32 12.5q20 0 31.5 -14t11.5 -31q0 -29 -40 -57.5t-114 -28.5q-65 0 -105 33.5t-40 91.5q0 25 14 50.5t26.5 38t33.5 30.5l57 47q24 20 30.5 29t6.5 22 q0 19 -13 32t-30 13q-9 0 -20.5 -4.5t-29.5 -13t-34 -13.5q-62 -20 -113 -20q-147 0 -235 109.5t-88 269.5zM287 346q0 -83 41 -139q45 -62 131 -62q67 0 112 37q60 46 60 133v248q0 20 -12.5 33.5t-32.5 13.5h-131q-87 0 -133 -63q-35 -49 -35 -133v-68z" />
<glyph unicode="&#x106;" horiz-adv-x="946" d="M127 367v956q0 169 88 270q100 111 264 111q168 0 264 -111q88 -98 88 -270v-109q0 -22 -14.5 -36.5t-36.5 -14.5h-71q-22 0 -38 15t-16 36v95q0 132 -49 184q-48 51 -127 51q-77 0 -125 -51q-51 -51 -51 -184v-928q0 -133 51 -184q49 -52 125 -52q78 0 127 52t49 184 v111q0 21 16 36t38 15h71q22 0 36.5 -14.5t14.5 -36.5v-125q0 -173 -88 -271q-95 -110 -264 -110q-165 0 -264 110q-88 101 -88 271zM322 1831q0 14 24 47l119 160q20 26 36.5 33.5t49.5 7.5h94q21 0 33 -12.5t12 -30.5q0 -28 -28 -47l-256 -187q-22 -16 -41 -16 q-20 0 -31.5 13t-11.5 32z" />
<glyph unicode="&#x107;" horiz-adv-x="917" d="M125 367v567q0 171 86 270q96 111 258 111t258 -111q86 -99 86 -252v-47q0 -22 -14.5 -36.5t-36.5 -14.5h-70q-22 0 -36.5 14.5t-14.5 36.5v45q0 102 -49 154q-48 51 -123 51t-123 -51q-49 -52 -49 -184v-539q0 -132 49 -184t123 -52t123 52t49 178v22q0 22 14.5 37 t36.5 15h70q22 0 36.5 -15t14.5 -37v-30q0 -172 -86 -271q-95 -110 -258 -110t-258 110q-86 99 -86 271zM303 1442q0 12 25 47l119 160q20 26 36.5 33.5t49.5 7.5h94q21 0 33 -12.5t12 -30.5q0 -28 -29 -48l-256 -186q-22 -16 -41 -16q-20 0 -31.5 13t-11.5 32z" />
<glyph unicode="&#x108;" horiz-adv-x="946" d="M127 367v956q0 169 88 270q100 111 264 111q168 0 264 -111q88 -98 88 -270v-109q0 -22 -14.5 -36.5t-36.5 -14.5h-71q-22 0 -38 15t-16 36v95q0 132 -49 184q-48 51 -127 51q-77 0 -125 -51q-51 -51 -51 -184v-928q0 -133 51 -184q49 -52 125 -52q78 0 127 52t49 184 v111q0 21 16 36t38 15h71q22 0 36.5 -14.5t14.5 -36.5v-125q0 -173 -88 -271q-95 -110 -264 -110q-165 0 -264 110q-88 101 -88 271zM258 1839q0 16 27 47l147 180q21 25 47 25t47 -25l148 -180q26 -30 26 -47q0 -19 -13 -32t-34 -13q-15 0 -35 16l-94 72q-30 21 -45 21 q-17 0 -43 -21l-96 -72q-20 -16 -35 -16q-21 0 -34 13t-13 32z" />
<glyph unicode="&#x109;" horiz-adv-x="917" d="M125 367v567q0 171 86 270q96 111 258 111t258 -111q86 -99 86 -252v-47q0 -22 -14.5 -36.5t-36.5 -14.5h-70q-22 0 -36.5 14.5t-14.5 36.5v45q0 102 -49 154q-48 51 -123 51t-123 -51q-49 -52 -49 -184v-539q0 -132 49 -184t123 -52t123 52t49 178v22q0 22 14.5 37 t36.5 15h70q22 0 36.5 -15t14.5 -37v-30q0 -172 -86 -271q-95 -110 -258 -110t-258 110q-86 99 -86 271zM246 1452q0 16 27 47l147 180q21 25 47 25t47 -25l148 -180q26 -30 26 -47q0 -19 -13 -32t-34 -13q-15 0 -35 16l-94 72q-30 21 -45 21q-17 0 -43 -21l-96 -72 q-20 -16 -35 -16q-21 0 -34 13t-13 32z" />
<glyph unicode="&#x10a;" horiz-adv-x="946" d="M127 367v956q0 169 88 270q100 111 264 111q168 0 264 -111q88 -98 88 -270v-109q0 -22 -14.5 -36.5t-36.5 -14.5h-71q-22 0 -38 15t-16 36v95q0 132 -49 184q-48 51 -127 51q-77 0 -125 -51q-51 -51 -51 -184v-928q0 -133 51 -184q49 -52 125 -52q78 0 127 52t49 184 v111q0 21 16 36t38 15h71q22 0 36.5 -14.5t14.5 -36.5v-125q0 -173 -88 -271q-95 -110 -264 -110q-165 0 -264 110q-88 101 -88 271zM387 1898v82q0 22 14.5 37t36.5 15h82q22 0 36.5 -15t14.5 -37v-82q0 -22 -14.5 -36.5t-36.5 -14.5h-82q-22 0 -36.5 14.5t-14.5 36.5z" />
<glyph unicode="&#x10b;" horiz-adv-x="917" d="M125 367v567q0 171 86 270q96 111 258 111t258 -111q86 -99 86 -252v-47q0 -22 -14.5 -36.5t-36.5 -14.5h-70q-22 0 -36.5 14.5t-14.5 36.5v45q0 102 -49 154q-48 51 -123 51t-123 -51q-49 -52 -49 -184v-539q0 -132 49 -184t123 -52t123 52t49 178v22q0 22 14.5 37 t36.5 15h70q22 0 36.5 -15t14.5 -37v-30q0 -172 -86 -271q-95 -110 -258 -110t-258 110q-86 99 -86 271zM375 1556v82q0 22 14.5 37t36.5 15h82q22 0 36.5 -15t14.5 -37v-82q0 -22 -14.5 -36.5t-36.5 -14.5h-82q-22 0 -36.5 14.5t-14.5 36.5z" />
<glyph unicode="&#x10c;" horiz-adv-x="946" d="M127 367v956q0 169 88 270q100 111 264 111q168 0 264 -111q88 -98 88 -270v-109q0 -22 -14.5 -36.5t-36.5 -14.5h-71q-22 0 -38 15t-16 36v95q0 132 -49 184q-48 51 -127 51q-77 0 -125 -51q-51 -51 -51 -184v-928q0 -133 51 -184q49 -52 125 -52q78 0 127 52t49 184 v111q0 21 16 36t38 15h71q22 0 36.5 -14.5t14.5 -36.5v-125q0 -173 -88 -271q-95 -110 -264 -110q-165 0 -264 110q-88 101 -88 271zM258 2046q0 19 13 32t34 13q15 0 35 -16l96 -72q26 -21 43 -21q15 0 45 21l94 72q20 16 35 16q21 0 34 -13t13 -32q0 -17 -26 -47 l-148 -180q-21 -25 -47 -25t-47 25l-147 180q-27 31 -27 47z" />
<glyph unicode="&#x10d;" horiz-adv-x="917" d="M125 367v567q0 171 86 270q96 111 258 111t258 -111q86 -99 86 -252v-47q0 -22 -14.5 -36.5t-36.5 -14.5h-70q-22 0 -36.5 14.5t-14.5 36.5v45q0 102 -49 154q-48 51 -123 51t-123 -51q-49 -52 -49 -184v-539q0 -132 49 -184t123 -52t123 52t49 178v22q0 22 14.5 37 t36.5 15h70q22 0 36.5 -15t14.5 -37v-30q0 -172 -86 -271q-95 -110 -258 -110t-258 110q-86 99 -86 271zM246 1659q0 19 13 32t34 13q15 0 35 -16l96 -78q26 -21 43 -21q15 0 45 21l94 78q20 16 35 16q21 0 34 -13t13 -32q0 -17 -26 -47l-148 -180q-21 -25 -47 -25t-47 25 l-147 180q-27 31 -27 47z" />
<glyph unicode="&#x10e;" d="M127 51v1587q0 22 15.5 37t37.5 15h301q166 0 262 -111q88 -98 88 -270v-928q0 -170 -90 -270q-96 -111 -262 -111h-299q-22 0 -37.5 14.5t-15.5 36.5zM258 2046q0 19 13 32t34 13q15 0 35 -16l96 -72q26 -21 43 -21q15 0 45 21l94 72q20 16 35 16q21 0 34 -13t13 -32 q0 -17 -26 -47l-148 -180q-21 -25 -47 -25t-47 25l-147 180q-27 31 -27 47zM303 211q0 -45 45 -45h133q77 0 125 51q49 52 49 184v887q0 135 -47 185q-48 51 -125 51h-129q-51 0 -51 -45v-1268z" />
<glyph unicode="&#x10f;" horiz-adv-x="1220" d="M125 367v567q0 173 86 272q92 109 235 109q46 0 105 -17q30 -10 47 -10q20 0 32.5 13.5t12.5 33.5q0 12 -1 27t-1 31v245q0 22 14.5 37t36.5 15h70q22 0 36.5 -15t14.5 -37v-1581q0 -36 -20 -53q-17 -14 -43 -14q-27 0 -56 22l-8 6q-23 17 -45 17q-7 0 -18 -4t-31 -12 t-35 -13q-72 -20 -123 -20q-133 0 -225 108q-84 97 -84 273zM297 381q0 -132 49 -184t123 -52t123 52t49 184v539q0 132 -49 184q-48 51 -123 51t-123 -51q-49 -52 -49 -184v-539zM969 1368q0 17 18 53l8 19q35 82 35 198v7q0 45 45 45h55q46 0 46 -45v-11q0 -67 -30 -145.5 t-63 -118.5q-38 -47 -67 -47q-20 0 -33.5 12t-13.5 33z" />
<glyph unicode="&#x110;" d="M-10 840v24q0 22 15 36.5t38 14.5h23q20 0 32.5 13.5t12.5 34.5l-2 675q0 22 15.5 37t37.5 15h299q166 0 262 -111q88 -98 88 -270v-928q0 -170 -90 -270q-96 -111 -262 -111h-297q-22 0 -37.5 14.5t-15.5 36.5l2 690q0 20 -12.5 33.5t-32.5 13.5h-23q-23 0 -38 15 t-15 37zM285 213q0 -20 12.5 -33.5t32.5 -13.5h129h2q77 0 125 51q49 52 49 184v887q0 135 -47 185q-48 51 -125 51h-133q-20 0 -32.5 -13.5t-12.5 -33.5v-514q0 -21 12.5 -34.5t32.5 -13.5h86q23 0 38 -14.5t15 -36.5v-24q0 -22 -15 -37t-38 -15h-86q-20 0 -32.5 -13.5 t-12.5 -33.5v-528z" />
<glyph unicode="&#x111;" horiz-adv-x="937" d="M125 367v567q0 173 86 272q92 109 235 109q46 0 105 -17q30 -10 47 -10q20 0 32.5 13.5t12.5 33.5q0 12 -1 47.5t-1 51.5q0 20 -12.5 33.5t-32.5 13.5h-158q-45 0 -45 45v22q0 20 11.5 32.5t33.5 12.5h158q20 0 32.5 14t12.5 35q0 16 6 25q13 23 39 23h82q31 0 41 -23 q4 -12 4 -25q0 -21 12.5 -35t32.5 -14h62q45 0 45 -45v-22q0 -20 -11.5 -32.5t-33.5 -12.5h-62q-20 0 -32.5 -13.5t-12.5 -33.5v-1377q0 -36 -20 -53q-17 -14 -43 -14q-27 0 -56 22l-8 6q-23 17 -45 17q-7 0 -18 -4t-31 -12t-35 -13q-72 -20 -123 -20q-133 0 -225 108 q-84 97 -84 273zM297 381q0 -132 49 -184t123 -52t123 52t49 184v539q0 132 -49 184q-48 51 -123 51t-123 -51q-49 -52 -49 -184v-539z" />
<glyph unicode="&#x112;" horiz-adv-x="751" d="M127 51v1587q0 22 15.5 37t37.5 15h430q22 0 37 -15t15 -37v-65q0 -40 -52 -51h-262q-20 0 -32.5 -13.5t-12.5 -33.5v-490q0 -20 12.5 -33.5t32.5 -13.5h262q22 0 37 -14.5t15 -36.5v-66q0 -22 -15 -36.5t-37 -14.5h-262q-20 0 -32.5 -13.5t-12.5 -33.5v-508 q0 -20 12.5 -33.5t32.5 -13.5h262q22 0 37 -14.5t15 -36.5v-66q0 -22 -15 -36.5t-37 -14.5h-430q-22 0 -37.5 14.5t-15.5 36.5zM160 1927v19q0 45 45 45h368q45 0 45 -45v-19q0 -45 -45 -45h-368q-45 0 -45 45z" />
<glyph unicode="&#x113;" horiz-adv-x="935" d="M125 367v567q0 171 86 270q96 111 258 111t258 -111q86 -99 86 -270v-281q0 -22 -15.5 -37.5t-37.5 -15.5h-418q-20 0 -32.5 -12.5t-12.5 -32.5v-174q0 -132 49 -184t123 -52t123 52t49 184v16q0 22 14.5 37t36.5 15h70q22 0 36.5 -15t14.5 -37v-30q0 -172 -86 -271 q-95 -110 -258 -110t-258 110q-86 99 -86 271zM206 1544v31q0 45 45 45h431q45 0 45 -45v-31q0 -45 -45 -45h-431q-45 0 -45 45zM297 801q0 -45 45 -45h252q20 0 33.5 13.5t13.5 33.5v117q0 132 -49 184q-48 51 -123 51t-123 -51q-49 -52 -49 -184v-119z" />
<glyph unicode="&#x114;" horiz-adv-x="751" d="M127 51v1587q0 22 15.5 37t37.5 15h430q22 0 37 -15t15 -37v-65q0 -40 -52 -51h-262q-20 0 -32.5 -13.5t-12.5 -33.5v-490q0 -20 12.5 -33.5t32.5 -13.5h262q22 0 37 -14.5t15 -36.5v-66q0 -22 -15 -36.5t-37 -14.5h-262q-20 0 -32.5 -13.5t-12.5 -33.5v-508 q0 -20 12.5 -33.5t32.5 -13.5h262q22 0 37 -14.5t15 -36.5v-66q0 -22 -15 -36.5t-37 -14.5h-430q-22 0 -37.5 14.5t-15.5 36.5zM190 1987q0 51 12 75.5t44 24.5q22 0 35 -16q12 -15 12 -46v-10q0 -43 27 -68.5t67 -25.5t67 25.5t27 68.5v10q0 30 13 46t34 16q32 0 44 -24.5 t12 -75.5q0 -87 -57.5 -138t-139.5 -51q-80 0 -138.5 51t-58.5 138z" />
<glyph unicode="&#x115;" horiz-adv-x="935" d="M125 367v567q0 171 86 270q96 111 258 111t258 -111q86 -99 86 -270v-281q0 -22 -15.5 -37.5t-37.5 -15.5h-418q-20 0 -32.5 -12.5t-12.5 -32.5v-174q0 -132 49 -184t123 -52t123 52t49 184v16q0 22 14.5 37t36.5 15h70q22 0 36.5 -15t14.5 -37v-30q0 -172 -86 -271 q-95 -110 -258 -110t-258 110q-86 99 -86 271zM271 1597q0 51 11.5 76t43.5 25q21 0 35 -17q12 -15 12 -45v-10q0 -43 27 -68.5t67 -25.5t67 25.5t27 68.5v10q0 29 13 45q14 17 34 17q32 0 44 -25t12 -76q0 -87 -57.5 -137.5t-139.5 -50.5q-80 0 -138 50.5t-58 137.5z M297 801q0 -45 45 -45h252q20 0 33.5 13.5t13.5 33.5v117q0 132 -49 184q-48 51 -123 51t-123 -51q-49 -52 -49 -184v-119z" />
<glyph unicode="&#x116;" horiz-adv-x="751" d="M127 51v1587q0 22 15.5 37t37.5 15h430q22 0 37 -15t15 -37v-65q0 -40 -52 -51h-262q-20 0 -32.5 -13.5t-12.5 -33.5v-490q0 -20 12.5 -33.5t32.5 -13.5h262q22 0 37 -14.5t15 -36.5v-66q0 -22 -15 -36.5t-37 -14.5h-262q-20 0 -32.5 -13.5t-12.5 -33.5v-508 q0 -20 12.5 -33.5t32.5 -13.5h262q22 0 37 -14.5t15 -36.5v-66q0 -22 -15 -36.5t-37 -14.5h-430q-22 0 -37.5 14.5t-15.5 36.5zM299 1898v82q0 22 14.5 37t36.5 15h82q22 0 36.5 -15t14.5 -37v-82q0 -22 -14.5 -36.5t-36.5 -14.5h-82q-22 0 -36.5 14.5t-14.5 36.5z" />
<glyph unicode="&#x117;" horiz-adv-x="935" d="M125 367v567q0 171 86 270q96 111 258 111t258 -111q86 -99 86 -270v-281q0 -22 -15.5 -37.5t-37.5 -15.5h-418q-20 0 -32.5 -12.5t-12.5 -32.5v-174q0 -132 49 -184t123 -52t123 52t49 184v16q0 22 14.5 37t36.5 15h70q22 0 36.5 -15t14.5 -37v-30q0 -172 -86 -271 q-95 -110 -258 -110t-258 110q-86 99 -86 271zM297 801q0 -45 45 -45h252q20 0 33.5 13.5t13.5 33.5v117q0 132 -49 184q-48 51 -123 51t-123 -51q-49 -52 -49 -184v-119zM375 1556v82q0 22 14.5 37t36.5 15h82q22 0 36.5 -15t14.5 -37v-82q0 -22 -14.5 -36.5t-36.5 -14.5 h-82q-22 0 -36.5 14.5t-14.5 36.5z" />
<glyph unicode="&#x118;" horiz-adv-x="751" d="M127 51v1587q0 22 15.5 37t37.5 15h430q22 0 37 -15t15 -37v-65q0 -40 -52 -51h-262q-20 0 -32.5 -13.5t-12.5 -33.5v-490q0 -20 12.5 -33.5t32.5 -13.5h262q22 0 37 -14.5t15 -36.5v-66q0 -22 -15 -36.5t-37 -14.5h-262q-20 0 -32.5 -13.5t-12.5 -33.5v-508 q0 -20 12.5 -33.5t32.5 -13.5h262q22 0 37 -14.5t15 -36.5v-88q0 -34 -8 -50.5t-36 -44.5l-73 -71q-3 -3 -11 -10.5t-10 -9.5t-6.5 -7.5t-5.5 -8t-3 -7t-2.5 -9t-0.5 -10.5q0 -19 14 -31t31 -12q13 0 32 12.5t31 12.5q20 0 32.5 -14t12.5 -31q0 -35 -41.5 -60.5 t-105.5 -25.5q-53 0 -95 30.5t-42 84.5q0 61 71 127l21 18q20 20 20 43q0 19 -13 32t-32 13h-262q-22 0 -37.5 14.5t-15.5 36.5z" />
<glyph unicode="&#x119;" horiz-adv-x="935" d="M125 367v567q0 171 86 270q96 111 258 111t258 -111q86 -99 86 -270v-270q0 -22 -15.5 -38t-37.5 -16h-418q-20 0 -32.5 -12.5t-12.5 -32.5v-184q0 -132 49 -184t123 -52t123 52t49 184v16q0 22 14.5 37t36.5 15h70q22 0 36.5 -15t14.5 -37v-24q0 -156 -78 -285 q-50 -83 -110 -164l-39 -53q-5 -6 -12 -15t-9 -12.5t-5 -9t-4 -11t-1 -13.5q0 -19 14 -31t31 -12q11 0 30 12t32 12q20 0 32.5 -14t12.5 -31q0 -34 -42.5 -65t-115.5 -31q-63 0 -103 34.5t-40 77.5q0 31 12 55t37.5 51t27.5 30l9 10q14 17 14 33q0 19 -13 32t-32 13 q-155 0 -250 110q-86 99 -86 271zM297 811q0 -45 45 -45h252q20 0 33.5 13.5t13.5 33.5v107q0 132 -49 184q-48 51 -123 51t-123 -51q-49 -52 -49 -184v-109z" />
<glyph unicode="&#x11a;" horiz-adv-x="751" d="M127 51v1587q0 22 15.5 37t37.5 15h430q22 0 37 -15t15 -37v-65q0 -40 -52 -51h-262q-20 0 -32.5 -13.5t-12.5 -33.5v-490q0 -20 12.5 -33.5t32.5 -13.5h262q22 0 37 -14.5t15 -36.5v-66q0 -22 -15 -36.5t-37 -14.5h-262q-20 0 -32.5 -13.5t-12.5 -33.5v-508 q0 -20 12.5 -33.5t32.5 -13.5h262q22 0 37 -14.5t15 -36.5v-66q0 -22 -15 -36.5t-37 -14.5h-430q-22 0 -37.5 14.5t-15.5 36.5zM170 2046q0 19 13 32t34 13q15 0 35 -16l96 -72q26 -21 43 -21q15 0 45 21l94 72q20 16 35 16q21 0 34 -13t13 -32q0 -17 -26 -47l-148 -180 q-21 -25 -47 -25t-47 25l-147 180q-27 31 -27 47z" />
<glyph unicode="&#x11b;" horiz-adv-x="935" d="M125 367v567q0 171 86 270q96 111 258 111t258 -111q86 -99 86 -270v-281q0 -22 -15.5 -37.5t-37.5 -15.5h-418q-20 0 -32.5 -12.5t-12.5 -32.5v-174q0 -132 49 -184t123 -52t123 52t49 184v16q0 22 14.5 37t36.5 15h70q22 0 36.5 -15t14.5 -37v-30q0 -172 -86 -271 q-95 -110 -258 -110t-258 110q-86 99 -86 271zM246 1659q0 19 13 32t34 13q15 0 35 -16l96 -78q26 -21 43 -21q15 0 45 21l94 78q20 16 35 16q21 0 34 -13t13 -32q0 -17 -26 -47l-148 -180q-21 -25 -47 -25t-47 25l-147 180q-27 31 -27 47zM297 801q0 -45 45 -45h252 q20 0 33.5 13.5t13.5 33.5v117q0 132 -49 184q-48 51 -123 51t-123 -51q-49 -52 -49 -184v-119z" />
<glyph unicode="&#x11c;" horiz-adv-x="935" d="M127 367v956q0 169 88 270q100 111 264 111q168 0 264 -111q88 -98 88 -270v-109q0 -22 -14.5 -36.5t-36.5 -14.5h-71q-22 0 -38 15t-16 36v95q0 132 -49 184q-48 51 -127 51q-77 0 -125 -51q-51 -51 -51 -184v-928q0 -133 51 -184q49 -52 125 -52q78 0 127 52t49 184 v283q0 19 -12 32t-33 13h-65q-22 0 -36.5 14.5t-14.5 36.5v67q0 22 14.5 37t36.5 15h235q22 0 36.5 -15t14.5 -37v-770q0 -36 -20 -53q-17 -14 -45 -14q-26 0 -55 22l-9 6q-23 17 -47 17q-7 0 -18 -4t-29.5 -11t-32.5 -12q-68 -22 -124 -22q-59 0 -118 24t-95 60 q-57 61 -84 122.5t-27 174.5zM258 1839q0 16 27 47l147 180q21 25 47 25t47 -25l148 -180q26 -30 26 -47q0 -19 -13 -32t-34 -13q-15 0 -35 16l-94 72q-30 21 -45 21q-17 0 -43 -21l-96 -72q-20 -16 -35 -16q-21 0 -34 13t-13 32z" />
<glyph unicode="&#x11d;" horiz-adv-x="935" d="M125 494v440q0 177 84 274q91 107 225 107q20 0 40.5 -3t30.5 -5.5t29.5 -8t22.5 -6.5q16 -5 35 -13.5t30.5 -12.5t18.5 -4q24 0 45 16l8 6q31 23 56 23t43 -15q20 -17 20 -53v-1204q0 -180 -98 -283q-99 -102 -246 -102t-246 102q-42 44 -68 102t-26 115v6q0 22 14.5 37 t36.5 15h64q48 0 57 -54l2 -10q14 -75 43 -104q49 -49 123 -49t123 49q49 52 49 174v63q0 20 -11.5 32.5t-31.5 12.5q-9 0 -27 -6.5t-24 -7.5l-23 -6q-41 -12 -92 -12q-52 0 -109.5 23.5t-101.5 70.5q-96 101 -96 291zM246 1452q0 17 26 47l148 180q21 25 47 25t47 -25 l148 -180q26 -30 26 -47q0 -19 -13 -32t-34 -13q-15 0 -35 16l-94 72q-30 21 -45 21q-17 0 -43 -21l-96 -72q-20 -16 -35 -16q-21 0 -34 13t-13 32zM297 504q0 -133 49 -185q48 -51 123 -51t123 51q49 52 49 185v416q0 132 -49 184q-48 51 -123 51t-123 -51 q-49 -52 -49 -184v-416z" />
<glyph unicode="&#x11e;" horiz-adv-x="935" d="M127 367v956q0 169 88 270q100 111 264 111q168 0 264 -111q88 -98 88 -270v-109q0 -22 -14.5 -36.5t-36.5 -14.5h-71q-22 0 -38 15t-16 36v95q0 132 -49 184q-48 51 -127 51q-77 0 -125 -51q-51 -51 -51 -184v-928q0 -133 51 -184q49 -52 125 -52q78 0 127 52t49 184 v283q0 19 -12 32t-33 13h-65q-22 0 -36.5 14.5t-14.5 36.5v67q0 22 14.5 37t36.5 15h235q22 0 36.5 -15t14.5 -37v-770q0 -36 -20 -53q-17 -14 -45 -14q-26 0 -55 22l-9 6q-23 17 -47 17q-7 0 -18 -4t-29.5 -11t-32.5 -12q-68 -22 -124 -22q-59 0 -118 24t-95 60 q-57 61 -84 122.5t-27 174.5zM283 1987q0 51 11.5 75.5t43.5 24.5q22 0 35 -16q12 -15 12 -46v-10q0 -43 27 -68.5t67 -25.5t67 25.5t27 68.5v10q0 30 13 46t35 16q32 0 43.5 -24.5t11.5 -75.5q0 -87 -57.5 -138t-139.5 -51q-80 0 -138 51t-58 138z" />
<glyph unicode="&#x11f;" horiz-adv-x="935" d="M125 494v440q0 177 84 274q91 107 225 107q20 0 40.5 -3t30.5 -5.5t29.5 -8t22.5 -6.5q16 -5 35 -13.5t30.5 -12.5t18.5 -4q24 0 45 16l8 6q31 23 56 23t43 -15q20 -17 20 -53v-1204q0 -180 -98 -283q-99 -102 -246 -102t-246 102q-42 44 -68 102t-26 115v6q0 22 14.5 37 t36.5 15h64q48 0 57 -54l2 -10q14 -75 43 -104q49 -49 123 -49t123 49q49 52 49 174v63q0 20 -11.5 32.5t-31.5 12.5q-9 0 -27 -6.5t-24 -7.5l-23 -6q-41 -12 -92 -12q-52 0 -109.5 23.5t-101.5 70.5q-96 101 -96 291zM270 1597q0 51 12 76t44 25q20 0 34 -17q13 -16 13 -45 v-10q0 -43 27 -68.5t67 -25.5t67 25.5t27 68.5v10q0 30 12 45q14 17 35 17q32 0 44 -25t12 -76q0 -87 -57.5 -137.5t-139.5 -50.5q-80 0 -138.5 51t-58.5 137zM297 504q0 -133 49 -185q48 -51 123 -51t123 51q49 52 49 185v416q0 132 -49 184q-48 51 -123 51t-123 -51 q-49 -52 -49 -184v-416z" />
<glyph unicode="&#x120;" d="M127 367v956q0 169 88 270q100 111 264 111q168 0 264 -111q88 -98 88 -270v-109q0 -22 -14.5 -36.5t-36.5 -14.5h-71q-22 0 -38 15t-16 36v95q0 132 -49 184q-48 51 -127 51q-77 0 -125 -51q-51 -51 -51 -184v-928q0 -133 51 -184q49 -52 125 -52q78 0 127 52t49 184 v283q0 19 -12 32t-33 13h-65q-22 0 -36.5 14.5t-14.5 36.5v67q0 22 14.5 37t36.5 15h235q22 0 36.5 -15t14.5 -37v-770q0 -36 -20 -53q-17 -14 -45 -14q-26 0 -55 22l-9 6q-23 17 -47 17q-7 0 -18 -4t-29.5 -11t-32.5 -12q-68 -22 -124 -22q-59 0 -118 24t-95 60 q-57 61 -84 122.5t-27 174.5zM387 1898v82q0 22 14.5 37t36.5 15h82q22 0 36.5 -15t14.5 -37v-82q0 -22 -14.5 -36.5t-36.5 -14.5h-82q-22 0 -36.5 14.5t-14.5 36.5z" />
<glyph unicode="&#x121;" horiz-adv-x="935" d="M125 494v440q0 177 84 274q91 107 225 107q20 0 40.5 -3t30.5 -5.5t29.5 -8t22.5 -6.5q16 -5 35 -13.5t30.5 -12.5t18.5 -4q24 0 45 16l8 6q31 23 56 23t43 -15q20 -17 20 -53v-1204q0 -180 -98 -283q-99 -102 -246 -102t-246 102q-42 44 -68 102t-26 115v6q0 22 14.5 37 t36.5 15h64q48 0 57 -54l2 -10q14 -75 43 -104q49 -49 123 -49t123 49q49 52 49 174v63q0 20 -11.5 32.5t-31.5 12.5q-9 0 -27 -6.5t-24 -7.5l-23 -6q-41 -12 -92 -12q-52 0 -109.5 23.5t-101.5 70.5q-96 101 -96 291zM297 504q0 -133 49 -185q48 -51 123 -51t123 51 q49 52 49 185v416q0 132 -49 184q-48 51 -123 51t-123 -51q-49 -52 -49 -184v-416zM375 1556v82q0 22 14.5 37t36.5 15h82q22 0 36.5 -15t14.5 -37v-82q0 -22 -14.5 -36.5t-36.5 -14.5h-82q-22 0 -36.5 14.5t-14.5 36.5z" />
<glyph unicode="&#x122;" d="M127 367v956q0 169 88 270q100 111 264 111q168 0 264 -111q88 -98 88 -270v-109q0 -22 -14.5 -36.5t-36.5 -14.5h-71q-22 0 -38 15t-16 36v95q0 132 -49 184q-48 51 -127 51q-77 0 -125 -51q-51 -51 -51 -184v-928q0 -133 51 -184q49 -52 125 -52q78 0 127 52t49 184 v283q0 19 -12 32t-33 13h-65q-22 0 -36.5 14.5t-14.5 36.5v67q0 22 14.5 37t36.5 15h235q22 0 36.5 -15t14.5 -37v-770q0 -36 -20 -53q-17 -14 -45 -14q-26 0 -55 22l-9 6q-23 17 -47 17q-7 0 -18 -4t-29.5 -11t-32.5 -12q-68 -22 -124 -22q-59 0 -118 24t-95 60 q-57 61 -84 122.5t-27 174.5zM344 -299q0 9 3.5 17t7.5 12.5t11.5 12.5t10.5 11q43 51 43 148v2q0 19 14 32t35 13h55q21 0 35 -13t14 -32q0 -81 -49.5 -151.5t-95.5 -92.5q-19 -8 -37 -8q-20 0 -33.5 12.5t-13.5 36.5z" />
<glyph unicode="&#x123;" horiz-adv-x="935" d="M125 494v440q0 177 84 274q91 107 225 107q20 0 40.5 -3t30.5 -5.5t29.5 -8t22.5 -6.5q16 -5 35 -13.5t30.5 -12.5t18.5 -4q24 0 45 16l8 6q31 23 56 23t43 -15q20 -17 20 -53v-1204q0 -180 -98 -283q-99 -102 -246 -102t-246 102q-42 44 -68 102t-26 115v6q0 22 14.5 37 t36.5 15h64q48 0 57 -54l2 -10q14 -75 43 -104q49 -49 123 -49t123 49q49 52 49 174v63q0 20 -11.5 32.5t-31.5 12.5q-9 0 -27 -6.5t-24 -7.5l-23 -6q-41 -12 -92 -12q-52 0 -109.5 23.5t-101.5 70.5q-96 101 -96 291zM297 504q0 -133 49 -185q48 -51 123 -51t123 51 q49 52 49 185v416q0 132 -49 184q-48 51 -123 51t-123 -51q-49 -52 -49 -184v-416zM350 1454q0 81 49.5 151.5t96.5 92.5q19 8 36 8q20 0 34 -13t14 -36q0 -9 -3.5 -17t-7.5 -12.5t-11.5 -12.5t-10.5 -11q-43 -51 -43 -148v-2q0 -19 -14 -32t-35 -13h-56q-21 0 -35 13 t-14 32z" />
<glyph unicode="&#x124;" d="M127 51v1587q0 22 15.5 37t37.5 15h72q22 0 36.5 -15t14.5 -37v-657q0 -45 45 -45h260q20 0 33.5 12.5t13.5 32.5v657q0 22 16 37t38 15h71q22 0 36.5 -15t14.5 -37v-1587q0 -22 -14.5 -36.5t-36.5 -14.5h-71q-22 0 -38 15t-16 36v674q0 20 -13.5 33.5t-33.5 13.5h-260 q-20 0 -32.5 -13.5t-12.5 -33.5v-674q0 -22 -14.5 -36.5t-36.5 -14.5h-72q-22 0 -37.5 14.5t-15.5 36.5zM258 1839q0 16 27 47l147 180q21 25 47 25t47 -25l148 -180q26 -30 26 -47q0 -19 -13 -32t-34 -13q-15 0 -35 16l-94 72q-30 21 -45 21q-17 0 -43 -21l-96 -72 q-20 -16 -35 -16q-21 0 -34 13t-13 32z" />
<glyph unicode="&#x125;" horiz-adv-x="937" d="M125 51v1587q0 22 14.5 37t36.5 15h70q22 0 36.5 -15t14.5 -37v-198q0 -26 -2 -57t-2 -44q0 -27 12.5 -44t32.5 -17t47 12l21 8q49 17 102 17q58 0 115 -24t100 -70q90 -97 90 -285v-885q0 -22 -14.5 -36.5t-36.5 -14.5h-70q-22 0 -36.5 14.5t-14.5 36.5v869 q0 132 -49 184q-48 51 -123 51t-123 -51q-49 -52 -49 -184v-869q0 -22 -14.5 -36.5t-36.5 -14.5h-70q-22 0 -36.5 14.5t-14.5 36.5zM246 1839q0 17 26 47l148 180q21 25 47 25t47 -25l148 -180q26 -30 26 -47q0 -19 -13 -32t-34 -13q-15 0 -35 16l-94 72q-30 21 -45 21 q-17 0 -43 -21l-96 -72q-20 -16 -35 -16q-21 0 -34 13t-13 32z" />
<glyph unicode="&#x126;" horiz-adv-x="1097" d="M66 1257v74q0 45 47 45h41q20 0 32.5 13.5t12.5 33.5v222q0 45 47 45h84q45 0 45 -45v-222q0 -21 13 -34t34 -13h254q20 0 32.5 13.5t12.5 33.5v222q0 45 47 45h84q45 0 45 -45v-222q0 -21 13 -34t34 -13h41q22 0 33.5 -12.5t11.5 -32.5v-74q0 -45 -45 -45h-41 q-21 0 -34 -14t-13 -35v-1118q0 -45 -45 -45h-84q-47 0 -47 45v680q0 20 -13.5 33.5t-33.5 13.5h-252q-21 0 -34 -13t-13 -34v-680q0 -45 -45 -45h-84q-47 0 -47 45v1118q0 21 -12.5 35t-32.5 14h-41q-47 0 -47 45zM375 981q0 -45 47 -45h252q20 0 33.5 12.5t13.5 32.5v182 q0 21 -12.5 35t-32.5 14h-254q-21 0 -34 -14t-13 -35v-182z" />
<glyph unicode="&#x127;" horiz-adv-x="937" d="M-27 1524v24q0 45 45 45h62q20 0 32.5 14t12.5 35v3q0 45 45 45h82q45 0 45 -45v-3q0 -21 12.5 -35t32.5 -14h158q22 0 33.5 -12.5t11.5 -32.5v-24q0 -45 -45 -45h-158q-20 0 -32.5 -13.5t-12.5 -33.5v-46q0 -26 -2 -30t-2 -17q0 -27 12.5 -44t32.5 -17t47 12l21 8 q49 17 102 17q58 0 115 -24t100 -70q90 -97 90 -285v-885q0 -22 -14.5 -36.5t-36.5 -14.5h-70q-22 0 -36.5 14.5t-14.5 36.5v869q0 132 -49 184q-48 51 -123 51t-123 -51q-49 -52 -49 -184v-869q0 -22 -14.5 -36.5t-36.5 -14.5h-70q-22 0 -36.5 14.5t-14.5 36.5v1381 q0 20 -12.5 33.5t-32.5 13.5h-62q-22 0 -33.5 12.5t-11.5 32.5z" />
<glyph unicode="&#x128;" horiz-adv-x="466" d="M-8 1880q0 59 49.5 108.5t103.5 49.5q70 0 119 -43l21 -19q29 -26 49 -26q33 0 43 37l4 16q11 37 47 37q19 0 33 -14t14 -35q0 -61 -47 -110.5t-100 -49.5q-74 0 -123 43l-21 18q-30 27 -49 27q-33 0 -43 -37l-4 -16q-5 -16 -18 -26.5t-31 -10.5q-19 0 -33 14t-14 37z M145 51v1587q0 22 16 37t38 15h71q22 0 37 -15t15 -37v-1587q0 -22 -15 -36.5t-37 -14.5h-71q-22 0 -38 15t-16 36z" />
<glyph unicode="&#x129;" horiz-adv-x="456" d="M-15 1532q0 59 50 108.5t104 49.5q70 0 119 -43l20 -19q29 -26 49 -26q34 0 43 36l4 17q11 37 47 37q19 0 33.5 -14.5t14.5 -35.5q0 -60 -47 -109.5t-101 -49.5q-74 0 -123 43l-20 18q-30 27 -49 27q-33 0 -43 -37l-5 -16q-5 -16 -18 -26.5t-31 -10.5q-19 0 -33 14 t-14 37zM141 51v1198q0 22 15 36.5t37 14.5h69q22 0 36.5 -14.5t14.5 -36.5v-1198q0 -22 -14.5 -36.5t-36.5 -14.5h-69q-22 0 -37 14.5t-15 36.5z" />
<glyph unicode="&#x12a;" horiz-adv-x="466" d="M4 1927v19q0 45 45 45h369q45 0 45 -45v-19q0 -45 -45 -45h-369q-45 0 -45 45zM145 51v1587q0 22 16 37t38 15h71q22 0 37 -15t15 -37v-1587q0 -22 -15 -36.5t-37 -14.5h-71q-22 0 -38 15t-16 36z" />
<glyph unicode="&#x12b;" horiz-adv-x="456" d="M-33 1544v31q0 45 45 45h430q45 0 45 -45v-31q0 -45 -45 -45h-430q-45 0 -45 45zM141 51v1198q0 22 15 36.5t37 14.5h69q22 0 36.5 -14.5t14.5 -36.5v-1198q0 -22 -14.5 -36.5t-36.5 -14.5h-69q-22 0 -37 14.5t-15 36.5z" />
<glyph unicode="&#x12e;" horiz-adv-x="466" d="M61 -219q0 27 10.5 52t43.5 69l12 16q10 13 14 43q4 28 4 43v1634q0 22 16 37t38 15h71q22 0 37 -15t15 -37v-1591q0 -41 -11 -64.5t-41 -60.5l-34 -39q-18 -23 -22.5 -33.5t-4.5 -31.5q0 -19 16.5 -33t32.5 -14q12 0 32 12t32 12q20 0 32.5 -14t12.5 -31q0 -34 -41 -67 t-105 -33q-67 0 -113.5 34.5t-46.5 96.5z" />
<glyph unicode="&#x12f;" horiz-adv-x="454" d="M57 -219q0 27 10.5 52t43.5 69l12 16q11 13 14 41q4 28 4 104v1186q0 22 15 36.5t37 14.5h69q22 0 36.5 -14.5t14.5 -36.5v-1202q0 -41 -11 -65t-40 -60l-33 -39q-18 -22 -22 -33t-4 -32q0 -19 16.5 -33t32.5 -14q11 0 29.5 12t31.5 12q20 0 32.5 -14t12.5 -31 q0 -34 -40.5 -67t-102.5 -33q-66 0 -112 35t-46 96zM141 1567v71q0 22 15 37t37 15h69q22 0 36.5 -15t14.5 -37v-71q0 -22 -14.5 -36.5t-36.5 -14.5h-69q-22 0 -37 14.5t-15 36.5z" />
<glyph unicode="&#x130;" horiz-adv-x="466" d="M141 1898v82q0 22 15 37t37 15h81q22 0 37 -15t15 -37v-82q0 -22 -15 -36.5t-37 -14.5h-81q-22 0 -37 14.5t-15 36.5zM145 51v1587q0 22 16 37t38 15h71q22 0 37 -15t15 -37v-1587q0 -22 -15 -36.5t-37 -14.5h-71q-22 0 -38 15t-16 36z" />
<glyph unicode="&#x131;" horiz-adv-x="456" d="M141 51v1198q0 22 15 36.5t37 14.5h69q22 0 36.5 -14.5t14.5 -36.5v-1198q0 -22 -14.5 -36.5t-36.5 -14.5h-69q-22 0 -37 14.5t-15 36.5z" />
<glyph unicode="&#x132;" horiz-adv-x="1140" d="M141 51v1587q0 22 15 37t37 15h69q22 0 36.5 -15t14.5 -37v-1587q0 -22 -14.5 -36.5t-36.5 -14.5h-69q-22 0 -37 14.5t-15 36.5zM522 51v66q0 22 15.5 36.5t37.5 14.5h76q76 0 127 51q47 52 47 184v1235q0 22 15.5 37t38.5 15h69q23 0 37 -15t14 -37v-1257 q0 -169 -88 -270q-96 -111 -258 -111h-78q-22 0 -37.5 14.5t-15.5 36.5z" />
<glyph unicode="&#x133;" horiz-adv-x="913" d="M135 1556v82q0 22 14.5 37t36.5 15h82q22 0 36.5 -15t14.5 -37v-82q0 -22 -14.5 -36.5t-36.5 -14.5h-82q-22 0 -36.5 14.5t-14.5 36.5zM141 51v1198q0 22 15 36.5t37 14.5h69q22 0 36.5 -14.5t14.5 -36.5v-1198q0 -22 -14.5 -36.5t-36.5 -14.5h-69q-22 0 -37 14.5 t-15 36.5zM401 -227q0 22 15 36.5t37 14.5h18q72 0 100 39q27 38 27 108v1278q0 22 14.5 36.5t36.5 14.5h70q22 0 36.5 -14.5t14.5 -36.5v-1245q0 -177 -74 -260q-76 -82 -235 -82h-8q-22 0 -37 14.5t-15 36.5v60zM592 1556v82q0 22 14.5 37t36.5 15h82q22 0 36.5 -15 t14.5 -37v-82q0 -22 -14.5 -36.5t-36.5 -14.5h-82q-22 0 -36.5 14.5t-14.5 36.5z" />
<glyph unicode="&#x134;" horiz-adv-x="665" d="M82 51v66q0 22 15.5 36.5t37.5 14.5h55q76 0 127 51q48 53 48 184v1235q0 22 15 37t38 15h69q23 0 37.5 -15t14.5 -37v-1257q0 -169 -88 -270q-96 -111 -258 -111h-58q-22 0 -37.5 14.5t-15.5 36.5zM231 1839q0 16 27 47l148 180q21 25 47 25t47 -25l147 -180 q27 -31 27 -47q0 -19 -13 -32t-34 -13q-15 0 -35 16l-94 72q-30 21 -45 21q-17 0 -43 -21l-97 -72q-20 -16 -34 -16q-21 0 -34.5 13t-13.5 32z" />
<glyph unicode="&#x135;" horiz-adv-x="456" d="M-53 -227q0 22 14.5 36.5t36.5 14.5h18q73 0 101 39q26 36 26 108v1278q0 22 15 36.5t37 14.5h69q22 0 36.5 -14.5t14.5 -36.5v-1245q0 -178 -73 -260q-76 -82 -236 -82h-8q-22 0 -36.5 14.5t-14.5 36.5v60zM8 1452q0 16 27 47l147 180q21 25 47 25t47 -25l148 -180 q27 -31 27 -47q0 -19 -13.5 -32t-34.5 -13q-14 0 -34 16l-95 72q-30 21 -45 21q-17 0 -43 -21l-96 -72q-20 -16 -35 -16q-21 0 -34 13t-13 32z" />
<glyph unicode="&#x136;" horiz-adv-x="962" d="M127 51v1587q0 22 15.5 37t37.5 15h72q22 0 36.5 -15t14.5 -37v-657q0 -45 45 -45h131q79 0 127 51q49 52 49 184v467q0 22 16 37t38 15h71q22 0 36.5 -15t14.5 -37v-462q0 -89 -16.5 -158.5t-66.5 -118.5l-17 -16q-16 -16 -16 -33t16 -33l17 -16q50 -49 66.5 -117 t16.5 -156v-477q0 -22 -14.5 -36.5t-36.5 -14.5h-71q-22 0 -38 15t-16 36v484q0 132 -49 184q-50 53 -127 53h-133q-20 0 -31.5 -13t-11.5 -34v-674q0 -22 -14.5 -36.5t-36.5 -14.5h-72q-22 0 -37.5 14.5t-15.5 36.5zM350 -299q0 9 3.5 17t7.5 12.5t11.5 12.5t10.5 11 q43 51 43 148v2q0 19 14 32t35 13h55q22 0 36 -13t14 -32q0 -81 -49.5 -151.5t-96.5 -92.5q-19 -8 -37 -8q-20 0 -33.5 12.5t-13.5 36.5z" />
<glyph unicode="&#x137;" horiz-adv-x="935" d="M125 51v1587q0 22 14.5 37t36.5 15h70q22 0 36.5 -15t14.5 -37v-827q0 -45 45 -45h125q77 0 125 51q49 52 49 184v248q0 22 14.5 36.5t36.5 14.5h70q22 0 36.5 -14.5t14.5 -36.5v-248q0 -86 -16.5 -152.5t-65.5 -115.5l-16 -16q-17 -17 -17 -33t17 -33l16 -16 q49 -49 65.5 -115.5t16.5 -152.5v-316q0 -22 -14.5 -36.5t-36.5 -14.5h-70q-22 0 -36.5 14.5t-14.5 36.5v322q0 132 -49 184q-50 53 -125 53h-127q-20 0 -31.5 -13t-11.5 -34v-512q0 -22 -14.5 -36.5t-36.5 -14.5h-70q-22 0 -36.5 14.5t-14.5 36.5zM338 -299q0 9 3.5 17 t7.5 12.5t11.5 12.5t10.5 11q43 51 43 148v2q0 19 14 32t35 13h55q21 0 35 -13t14 -32q0 -81 -49.5 -151.5t-95.5 -92.5q-19 -8 -37 -8q-20 0 -33.5 12.5t-13.5 36.5z" />
<glyph unicode="&#x138;" horiz-adv-x="952" d="M125 45v1210q0 45 45 45h84q43 0 43 -45v-440q0 -45 45 -45h129q73 0 122.5 43t49.5 123v319q0 45 45 45h80q45 0 45 -45v-182q0 -248 -106 -340l-17 -14q-16 -16 -16 -31t16 -31l17 -14q106 -92 106 -340v-258q0 -45 -45 -45h-82q-45 0 -45 45v393q0 80 -49 123t-121 43 h-131q-20 0 -31.5 -13t-11.5 -34v-512q0 -45 -45 -45h-82q-45 0 -45 45z" />
<glyph unicode="&#x139;" horiz-adv-x="722" d="M127 51v1587q0 22 15.5 37t37.5 15h72q22 0 36.5 -15t14.5 -37v-1423q0 -20 12.5 -33.5t32.5 -13.5h246q22 0 36.5 -14.5t14.5 -36.5v-66q0 -22 -14.5 -36.5t-36.5 -14.5h-414q-22 0 -37.5 14.5t-15.5 36.5zM170 1831q0 12 25 47l118 160q20 26 36.5 33.5t49.5 7.5h95 q21 0 33 -12.5t12 -30.5q0 -27 -29 -47l-256 -187q-22 -16 -41 -16q-20 0 -31.5 13t-11.5 32z" />
<glyph unicode="&#x13a;" horiz-adv-x="454" d="M141 51v1587q0 22 15 37t37 15h69q22 0 36.5 -15t14.5 -37v-1587q0 -22 -14.5 -36.5t-36.5 -14.5h-69q-22 0 -37 14.5t-15 36.5zM141 1831q0 12 25 47l119 160q20 26 36.5 33.5t49.5 7.5h94q21 0 33 -12.5t12 -30.5q0 -27 -29 -47l-256 -187q-22 -16 -41 -16 q-20 0 -31.5 13t-11.5 32z" />
<glyph unicode="&#x13b;" horiz-adv-x="722" d="M127 51v1587q0 22 15.5 37t37.5 15h72q22 0 36.5 -15t14.5 -37v-1423q0 -20 12.5 -33.5t32.5 -13.5h246q22 0 36.5 -14.5t14.5 -36.5v-66q0 -22 -14.5 -36.5t-36.5 -14.5h-414q-22 0 -37.5 14.5t-15.5 36.5zM262 -299q0 9 3.5 17t7.5 12.5t11.5 12.5t10.5 11 q43 51 43 148v2q0 19 14 32t35 13h55q22 0 36 -13t14 -32q0 -81 -49.5 -151.5t-96.5 -92.5q-19 -8 -37 -8q-20 0 -33.5 12.5t-13.5 36.5z" />
<glyph unicode="&#x13c;" horiz-adv-x="454" d="M76 -299q0 9 3.5 17t7.5 12.5t11.5 12.5t10.5 11q43 51 43 148v2q0 19 14 32t35 13h55q21 0 35 -13t14 -32q0 -81 -49.5 -151.5t-95.5 -92.5q-19 -8 -37 -8q-20 0 -33.5 12.5t-13.5 36.5zM141 51v1587q0 22 15 37t37 15h69q22 0 36.5 -15t14.5 -37v-1587 q0 -22 -14.5 -36.5t-36.5 -14.5h-69q-22 0 -37 14.5t-15 36.5z" />
<glyph unicode="&#x13d;" horiz-adv-x="722" d="M127 51v1587q0 22 15.5 37t37.5 15h72q22 0 36.5 -15t14.5 -37v-1423q0 -20 12.5 -33.5t32.5 -13.5h246q22 0 36.5 -14.5t14.5 -36.5v-66q0 -22 -14.5 -36.5t-36.5 -14.5h-414q-22 0 -37.5 14.5t-15.5 36.5zM444 1368q0 15 19 53l8 19q35 82 35 198v7q0 45 45 45h55 q45 0 45 -45v-11q0 -67 -29.5 -146t-62.5 -118q-38 -47 -67 -47q-20 0 -34 12t-14 33z" />
<glyph unicode="&#x13e;" horiz-adv-x="741" d="M141 51v1587q0 22 15 37t37 15h69q22 0 36.5 -15t14.5 -37v-1587q0 -22 -14.5 -36.5t-36.5 -14.5h-69q-22 0 -37 14.5t-15 36.5zM483 1368q0 15 19 53l8 19q35 82 35 198v7q0 45 45 45h55q45 0 45 -45v-11q0 -67 -29.5 -146t-62.5 -118q-38 -47 -68 -47q-20 0 -33.5 12 t-13.5 33z" />
<glyph unicode="&#x13f;" horiz-adv-x="794" d="M127 51v1587q0 22 15.5 37t37.5 15h72q22 0 36.5 -15t14.5 -37v-1423q0 -20 12.5 -33.5t32.5 -13.5h246q22 0 36.5 -14.5t14.5 -36.5v-66q0 -22 -14.5 -36.5t-36.5 -14.5h-414q-22 0 -37.5 14.5t-15.5 36.5zM498 811v92q0 22 14.5 36.5t36.5 14.5h82q22 0 36.5 -14.5 t14.5 -36.5v-92q0 -22 -14.5 -36.5t-36.5 -14.5h-82q-22 0 -36.5 14.5t-14.5 36.5z" />
<glyph unicode="&#x140;" horiz-adv-x="778" d="M141 51v1587q0 22 15 37t37 15h69q22 0 36.5 -15t14.5 -37v-1587q0 -22 -14.5 -36.5t-36.5 -14.5h-69q-22 0 -37 14.5t-15 36.5zM512 811v92q0 22 14.5 36.5t36.5 14.5h82q22 0 36.5 -14.5t14.5 -36.5v-92q0 -22 -14.5 -36.5t-36.5 -14.5h-82q-22 0 -36.5 14.5 t-14.5 36.5z" />
<glyph unicode="&#x141;" horiz-adv-x="731" d="M-68 780v8q0 25 11 41t37 29l73 39q39 20 39 68v673q0 22 14.5 37t36.5 15h72q22 0 36.5 -15t14.5 -37v-563q0 -28 18.5 -38t47.5 5l51 29q32 17 58 0t26 -55v-8q0 -25 -10 -41t-35 -29l-117 -61q-39 -20 -39 -68v-594q0 -21 13 -34t34 -13h260q23 0 38.5 -14.5 t15.5 -36.5v-66q0 -22 -15.5 -36.5t-38.5 -14.5h-430q-22 0 -36.5 14.5t-14.5 36.5v647q0 28 -18 38t-47 -5l-11 -6q-31 -17 -57.5 0t-26.5 55z" />
<glyph unicode="&#x142;" horiz-adv-x="636" d="M78 780v8q0 25 10 41t35 29l74 39q34 19 34 68v673q0 22 15 37t37 15h69q22 0 36.5 -15t14.5 -37v-563q0 -28 17.5 -37.5t46.5 4.5l10 7q31 17 56.5 -0.5t25.5 -55.5v-8q0 -25 -10 -41t-35 -29l-74 -38q-37 -20 -37 -68v-758q0 -22 -14.5 -36.5t-36.5 -14.5h-69 q-22 0 -37 14.5t-15 36.5l2 647q0 28 -17 37.5t-46 -4.5l-10 -6q-31 -17 -56.5 0t-25.5 55z" />
<glyph unicode="&#x143;" d="M127 51v1577q0 37 23 53q18 15 43 15t57 -21l8 -6q21 -16 45 -16q7 0 18 3.5t31.5 11.5t36.5 13q76 23 129 23q59 0 118.5 -24t102.5 -70q92 -95 92 -285v-1274q0 -22 -14.5 -36.5t-36.5 -14.5h-71q-22 0 -38 15t-16 36v1258q0 130 -51 184q-48 51 -125 51t-125 -51 q-51 -51 -51 -184v-1258q0 -22 -14.5 -36.5t-36.5 -14.5h-72q-22 0 -37.5 14.5t-15.5 36.5zM315 1831q0 12 25 47l119 160q20 26 36.5 33.5t49.5 7.5h94q21 0 33 -12.5t12 -30.5q0 -27 -29 -47l-256 -187q-22 -16 -41 -16q-20 0 -31.5 13t-11.5 32z" />
<glyph unicode="&#x144;" horiz-adv-x="937" d="M125 51v1188q0 36 20 53q18 15 43 15t56 -23l8 -6q21 -16 45 -16q7 0 18.5 4t30.5 12.5t35 13.5q76 23 127 23q58 0 115 -24t100 -70q90 -97 90 -285v-885q0 -22 -14.5 -36.5t-36.5 -14.5h-70q-22 0 -36.5 14.5t-14.5 36.5v869q0 132 -49 184q-48 51 -123 51t-123 -51 q-49 -52 -49 -184v-869q0 -22 -14.5 -36.5t-36.5 -14.5h-70q-22 0 -36.5 14.5t-14.5 36.5zM303 1442q0 12 25 47l119 160q20 26 36.5 33.5t49.5 7.5h94q21 0 33 -12.5t12 -30.5q0 -28 -29 -48l-256 -186q-22 -16 -41 -16q-20 0 -31.5 13t-11.5 32z" />
<glyph unicode="&#x145;" d="M127 51v1577q0 37 23 53q18 15 43 15t57 -21l8 -6q21 -16 45 -16q7 0 18 3.5t31.5 11.5t36.5 13q76 23 129 23q59 0 118.5 -24t102.5 -70q92 -95 92 -285v-1274q0 -22 -14.5 -36.5t-36.5 -14.5h-71q-22 0 -38 15t-16 36v1258q0 130 -51 184q-48 51 -125 51t-125 -51 q-51 -51 -51 -184v-1258q0 -22 -14.5 -36.5t-36.5 -14.5h-72q-22 0 -37.5 14.5t-15.5 36.5zM336 -299q0 9 3.5 17t7.5 12.5t11.5 12.5t10.5 11q43 51 43 148v2q0 19 14 32t35 13h55q21 0 35 -13t14 -32q0 -81 -49.5 -151.5t-95.5 -92.5q-19 -8 -37 -8q-20 0 -33.5 12.5 t-13.5 36.5z" />
<glyph unicode="&#x146;" horiz-adv-x="937" d="M125 51v1188q0 36 20 53q18 15 43 15t56 -23l8 -6q21 -16 45 -16q7 0 18.5 4t30.5 12.5t35 13.5q76 23 127 23q58 0 115 -24t100 -70q90 -97 90 -285v-885q0 -22 -14.5 -36.5t-36.5 -14.5h-70q-22 0 -36.5 14.5t-14.5 36.5v869q0 132 -49 184q-48 51 -123 51t-123 -51 q-49 -52 -49 -184v-869q0 -22 -14.5 -36.5t-36.5 -14.5h-70q-22 0 -36.5 14.5t-14.5 36.5zM315 -299q0 9 3.5 17t7.5 12.5t11.5 12.5t10.5 11q43 51 43 148v2q0 19 14 32t35 13h56q21 0 35 -13t14 -32q0 -81 -49.5 -151.5t-96.5 -92.5q-19 -8 -37 -8q-20 0 -33.5 12.5 t-13.5 36.5z" />
<glyph unicode="&#x147;" d="M127 51v1577q0 37 23 53q18 15 43 15t57 -21l8 -6q21 -16 45 -16q7 0 18 3.5t31.5 11.5t36.5 13q76 23 129 23q59 0 118.5 -24t102.5 -70q92 -95 92 -285v-1274q0 -22 -14.5 -36.5t-36.5 -14.5h-71q-22 0 -38 15t-16 36v1258q0 130 -51 184q-48 51 -125 51t-125 -51 q-51 -51 -51 -184v-1258q0 -22 -14.5 -36.5t-36.5 -14.5h-72q-22 0 -37.5 14.5t-15.5 36.5zM258 2046q0 19 13 32t34 13q15 0 35 -16l96 -72q26 -21 43 -21q15 0 45 21l94 72q20 16 35 16q21 0 34 -13t13 -32q0 -17 -26 -47l-148 -180q-21 -25 -47 -25t-47 25l-147 180 q-27 31 -27 47z" />
<glyph unicode="&#x148;" horiz-adv-x="937" d="M125 51v1188q0 36 20 53q18 15 43 15t56 -23l8 -6q21 -16 45 -16q7 0 18.5 4t30.5 12.5t35 13.5q76 23 127 23q58 0 115 -24t100 -70q90 -97 90 -285v-885q0 -22 -14.5 -36.5t-36.5 -14.5h-70q-22 0 -36.5 14.5t-14.5 36.5v869q0 132 -49 184q-48 51 -123 51t-123 -51 q-49 -52 -49 -184v-869q0 -22 -14.5 -36.5t-36.5 -14.5h-70q-22 0 -36.5 14.5t-14.5 36.5zM246 1659q0 19 13 32t34 13q15 0 35 -16l96 -78q26 -21 43 -21q15 0 45 21l94 78q20 16 35 16q21 0 34 -13t13 -32q0 -17 -26 -47l-148 -180q-21 -25 -47 -25t-47 25l-147 180 q-27 31 -27 47z" />
<glyph unicode="&#x149;" horiz-adv-x="937" d="M-41 1368q0 17 18 53l9 19q34 80 34 198v7q0 45 46 45h55q45 0 45 -45v-11q0 -67 -29.5 -146t-62.5 -118q-38 -47 -68 -47q-20 0 -33.5 12t-13.5 33zM125 51v1188q0 36 20 53q18 15 43 15t56 -23l8 -6q21 -16 45 -16q7 0 18.5 4t30.5 12.5t35 13.5q76 23 127 23 q58 0 115 -24t100 -70q90 -97 90 -285v-885q0 -22 -14.5 -36.5t-36.5 -14.5h-70q-22 0 -36.5 14.5t-14.5 36.5v869q0 132 -49 184q-48 51 -123 51t-123 -51q-49 -52 -49 -184v-869q0 -22 -14.5 -36.5t-36.5 -14.5h-70q-22 0 -36.5 14.5t-14.5 36.5z" />
<glyph unicode="&#x14c;" d="M127 367v956q0 169 88 270q100 111 264 111t264 -111q88 -101 88 -270v-956q0 -170 -88 -271q-99 -110 -264 -110t-264 110q-88 101 -88 271zM250 1927v19q0 45 45 45h369q45 0 45 -45v-19q0 -45 -45 -45h-369q-45 0 -45 45zM303 381q0 -133 51 -184q49 -52 125 -52 t125 52q51 51 51 184v928q0 133 -51 184q-48 51 -125 51t-125 -51q-51 -51 -51 -184v-928z" />
<glyph unicode="&#x14d;" horiz-adv-x="937" d="M125 367v567q0 171 86 270q96 111 258 111t258 -111q86 -99 86 -270v-567q0 -172 -86 -271q-95 -110 -258 -110t-258 110q-86 99 -86 271zM206 1544v31q0 45 45 45h431q45 0 45 -45v-31q0 -45 -45 -45h-431q-45 0 -45 45zM297 381q0 -132 49 -184t123 -52t123 52t49 184 v539q0 132 -49 184q-48 51 -123 51t-123 -51q-49 -52 -49 -184v-539z" />
<glyph unicode="&#x14e;" horiz-adv-x="956" d="M125 367v956q0 169 88 270q100 111 264 111t264 -111q88 -101 88 -270v-956q0 -170 -88 -271q-99 -110 -264 -110t-264 110q-88 101 -88 271zM283 1987q0 51 11.5 75.5t43.5 24.5q22 0 35 -16q12 -15 12 -46v-10q0 -43 27 -68.5t67 -25.5t67 25.5t27 68.5v10q0 30 13 46 t35 16q32 0 43.5 -24.5t11.5 -75.5q0 -87 -57.5 -138t-139.5 -51q-80 0 -138 51t-58 138zM301 381q0 -133 51 -184q49 -52 125 -52t125 52q51 51 51 184v928q0 133 -51 184q-48 51 -125 51t-125 -51q-51 -51 -51 -184v-928z" />
<glyph unicode="&#x14f;" horiz-adv-x="937" d="M125 367v567q0 171 86 270q96 111 258 111t258 -111q86 -99 86 -270v-567q0 -172 -86 -271q-95 -110 -258 -110t-258 110q-86 99 -86 271zM270 1597q0 51 12 76t44 25q20 0 34 -17q13 -16 13 -45v-10q0 -43 27 -68.5t67 -25.5t67 25.5t27 68.5v10q0 30 12 45q14 17 35 17 q32 0 44 -25t12 -76q0 -87 -57.5 -137.5t-139.5 -50.5q-80 0 -138.5 51t-58.5 137zM297 381q0 -132 49 -184t123 -52t123 52t49 184v539q0 132 -49 184q-48 51 -123 51t-123 -51q-49 -52 -49 -184v-539z" />
<glyph unicode="&#x150;" d="M147 367v956q0 168 89 270q100 111 264 111t264 -111q88 -101 88 -270v-956q0 -170 -88 -271q-99 -110 -264 -110t-264 110q-89 102 -89 271zM229 1827q0 18 25 47l137 164q22 25 38 33t48 8h51q19 0 32 -13.5t13 -29.5q0 -24 -20 -41l-242 -197q-20 -16 -35 -16 q-21 0 -34 13t-13 32zM324 381q0 -133 51 -184q49 -52 125 -52t125 52q51 51 51 184v928q0 133 -51 184q-48 51 -125 51t-125 -51q-51 -51 -51 -184v-928zM516 1827q0 18 25 47l137 164q22 25 38 33t48 8h51q19 0 32 -13.5t13 -29.5q0 -24 -20 -41l-242 -197 q-20 -16 -35 -16q-21 0 -34 13t-13 32z" />
<glyph unicode="&#x151;" horiz-adv-x="937" d="M152 367v567q0 171 86 270q96 111 258 111t258 -111q86 -99 86 -270v-567q0 -172 -86 -271q-95 -110 -258 -110t-258 110q-86 99 -86 271zM250 1438q0 19 24 47l138 164q22 25 38 33t48 8h51q19 0 32 -13.5t13 -29.5q0 -23 -21 -41l-241 -197q-20 -16 -35 -16 q-21 0 -34 13t-13 32zM324 381q0 -132 49 -184t123 -52q73 0 122 52q50 53 50 184v539q0 131 -50 184q-48 51 -122 51q-75 0 -123 -51q-49 -52 -49 -184v-539zM537 1438q0 19 24 47l137 164q22 25 38 33t48 8h52q19 0 32 -13.5t13 -29.5q0 -23 -21 -41l-242 -197 q-20 -16 -34 -16q-21 0 -34 13t-13 32z" />
<glyph unicode="&#x152;" horiz-adv-x="1226" d="M127 365v960q0 166 82 268q93 111 244 111q77 0 163 -35q12 -4 21 -4q13 0 33 10q26 15 53 15h360q22 0 38 -15t16 -37v-65q0 -40 -54 -51h-231q-21 0 -34 -13t-13 -34v-490q0 -21 13 -34t34 -13h231q22 0 38 -15t16 -36v-66q0 -21 -16 -36t-38 -15h-231q-21 0 -34 -13 t-13 -34v-508q0 -21 13 -34t34 -13h231q22 0 38 -15t16 -36v-66q0 -21 -16 -36t-38 -15h-360q-29 0 -53 14q-22 11 -33 11q-6 0 -21 -5q-83 -34 -163 -34q-152 0 -244 110q-82 102 -82 269zM303 379q0 -134 47 -184q46 -52 117 -52q69 0 115 52q47 52 47 184v932 q0 132 -47 184q-45 51 -115 51q-72 0 -117 -51q-47 -50 -47 -184v-932z" />
<glyph unicode="&#x153;" horiz-adv-x="1406" d="M125 352v594q0 157 82 256q44 52 109 82.5t141 30.5q118 0 200 -62l19 -14q18 -18 33 -18q14 0 32 18l19 14q79 62 198 62q75 0 138.5 -30.5t105.5 -82.5q80 -96 80 -256v-282q0 -22 -15.5 -38t-35.5 -16h-395q-41 0 -41 -45v-186q0 -134 47 -184q43 -52 112 -52 q65 0 111 52q47 52 47 184v16q0 23 14 38.5t33 15.5h74q20 0 34.5 -15.5t14.5 -38.5v-30q0 -171 -84 -271q-92 -110 -242 -110q-119 0 -196 71l-19 17q-16 16 -32 16q-15 0 -31 -16l-19 -17q-80 -71 -208 -71q-145 0 -235.5 101.5t-90.5 266.5zM297 358q0 -100 39 -153 q39 -62 125 -62q84 0 124 58t40 151v568q0 133 -50 186q-42 51 -114 51q-78 0 -117 -51q-44 -47 -47 -154v-594zM795 811q0 -24 9 -34.5t32 -10.5h231q18 0 31.5 13.5t13.5 33.5v107q0 134 -47 186q-45 51 -117 51q-64 0 -106 -51q-47 -50 -47 -186v-109z" />
<glyph unicode="&#x154;" d="M131 51v1587q0 22 15.5 37t37.5 15h295q164 0 260 -111q88 -98 88 -270v-181q0 -86 -17 -152.5t-67 -115.5l-16 -16q-16 -16 -16 -33t16 -33l16 -16q50 -49 67 -115.5t17 -152.5v-443q0 -22 -14.5 -36.5t-36.5 -14.5h-71q-22 0 -38 15t-16 36v443q0 132 -49 184 q-50 53 -127 53h-123q-20 0 -32.5 -13.5t-12.5 -33.5v-633q0 -22 -14.5 -36.5t-36.5 -14.5h-72q-22 0 -37.5 14.5t-15.5 36.5zM295 1831q0 14 24 47l119 160q20 26 36.5 33.5t49.5 7.5h94q21 0 33.5 -12.5t12.5 -30.5q0 -27 -29 -47l-256 -187q-22 -16 -41 -16 q-20 0 -31.5 13t-11.5 32zM307 940q0 -45 47 -45h121q79 0 127 51q49 52 49 184v158q0 135 -47 185q-48 51 -125 51h-119q-53 0 -53 -45v-539z" />
<glyph unicode="&#x155;" horiz-adv-x="645" d="M152 51v1188q0 36 20 53q18 15 43 15q24 0 55 -23l9 -6q21 -16 45 -16q8 0 84 26q65 21 122 21h37q24 0 39 -14t15 -38v-67q0 -22 -15 -36.5t-37 -14.5h-59q-99 0 -143 -47q-43 -48 -43 -177v-864q0 -22 -15 -36.5t-37 -14.5h-69q-22 0 -36.5 14.5t-14.5 36.5zM213 1442 q0 12 25 47l118 160q20 26 36.5 33.5t49.5 7.5h95q21 0 33 -12.5t12 -30.5q0 -28 -29 -48l-256 -186q-22 -16 -41 -16q-20 0 -31.5 13t-11.5 32z" />
<glyph unicode="&#x156;" d="M131 51v1587q0 22 15.5 37t37.5 15h295q164 0 260 -111q88 -98 88 -270v-181q0 -86 -17 -152.5t-67 -115.5l-16 -16q-16 -16 -16 -33t16 -33l16 -16q50 -49 67 -115.5t17 -152.5v-443q0 -22 -14.5 -36.5t-36.5 -14.5h-71q-22 0 -38 15t-16 36v443q0 132 -49 184 q-50 53 -127 53h-123q-20 0 -32.5 -13.5t-12.5 -33.5v-633q0 -22 -14.5 -36.5t-36.5 -14.5h-72q-22 0 -37.5 14.5t-15.5 36.5zM307 940q0 -45 47 -45h121q79 0 127 51q49 52 49 184v158q0 135 -47 185q-48 51 -125 51h-119q-53 0 -53 -45v-539zM338 -299q0 9 3.5 17 t7.5 12.5t11.5 12.5t10.5 11q43 51 43 148v2q0 19 14 32t35 13h55q21 0 35 -13t14 -32q0 -81 -49.5 -151.5t-95.5 -92.5q-19 -8 -37 -8q-20 0 -33.5 12.5t-13.5 36.5z" />
<glyph unicode="&#x157;" horiz-adv-x="645" d="M27 -299q0 9 3.5 17t7 12.5t11 12.5t10.5 11q43 51 43 148v2q0 19 14 32t36 13h55q21 0 35 -13t14 -32q0 -81 -49.5 -151.5t-95.5 -92.5q-19 -8 -37 -8q-20 0 -33.5 12.5t-13.5 36.5zM94 51v1188q0 35 21 53q18 15 43 15q24 0 55 -23l8 -6q21 -16 45 -16q8 0 84 26 q65 21 123 21h37q24 0 38.5 -14t14.5 -38v-67q0 -22 -14.5 -36.5t-36.5 -14.5h-59q-100 0 -144 -47q-43 -48 -43 -177v-864q0 -22 -14.5 -36.5t-36.5 -14.5h-70q-22 0 -36.5 14.5t-14.5 36.5z" />
<glyph unicode="&#x158;" d="M131 51v1587q0 22 15.5 37t37.5 15h295q164 0 260 -111q88 -98 88 -270v-181q0 -86 -17 -152.5t-67 -115.5l-16 -16q-16 -16 -16 -33t16 -33l16 -16q50 -49 67 -115.5t17 -152.5v-443q0 -22 -14.5 -36.5t-36.5 -14.5h-71q-22 0 -38 15t-16 36v443q0 132 -49 184 q-50 53 -127 53h-123q-20 0 -32.5 -13.5t-12.5 -33.5v-633q0 -22 -14.5 -36.5t-36.5 -14.5h-72q-22 0 -37.5 14.5t-15.5 36.5zM258 2046q0 19 13 32t34 13q15 0 35 -16l96 -72q26 -21 43 -21q15 0 45 21l94 72q20 16 35 16q21 0 34 -13t13 -32q0 -17 -26 -47l-148 -180 q-21 -25 -47 -25t-47 25l-147 180q-27 31 -27 47zM307 940q0 -45 47 -45h121q79 0 127 51q49 52 49 184v158q0 135 -47 185q-48 51 -125 51h-119q-53 0 -53 -45v-539z" />
<glyph unicode="&#x159;" horiz-adv-x="645" d="M90 51v1188q0 35 21 53q18 15 43 15q24 0 55 -23l8 -6q21 -16 45 -16q8 0 84 26q65 21 123 21h37q24 0 38.5 -14t14.5 -38v-67q0 -22 -14.5 -36.5t-36.5 -14.5h-59q-100 0 -144 -47q-43 -48 -43 -177v-864q0 -22 -14.5 -36.5t-36.5 -14.5h-70q-22 0 -36.5 14.5 t-14.5 36.5zM96 1659q0 19 13 32t34 13q15 0 35 -16l96 -78q26 -21 43 -21q15 0 45 21l95 78q20 16 35 16q21 0 34 -13t13 -32q0 -16 -27 -47l-147 -180q-21 -25 -48 -25q-26 0 -47 25l-147 180q-27 31 -27 47z" />
<glyph unicode="&#x15a;" horiz-adv-x="948" d="M123 367v125q0 22 15.5 36.5t37.5 14.5h72q22 0 36.5 -14.5t14.5 -36.5v-111q0 -132 47 -184q52 -52 133 -52q73 0 123 50q47 52 47 180v117q0 101 -31 145q-29 43 -112 82l-162 72q-101 46 -160 129q-59 86 -59 235v174q0 197 121 297q97 78 231 78q164 0 258 -109 q86 -95 86 -268v-113q0 -22 -15 -36.5t-38 -14.5h-70q-23 0 -38 14.5t-15 36.5v101q0 125 -49 180q-52 49 -123 49q-73 0 -125 -49q-47 -52 -47 -180v-152q0 -101 31 -143q25 -40 110 -82l162 -74q109 -48 162 -123q31 -44 45 -98t14 -139v-144q0 -201 -120 -297 q-96 -77 -230 -77q-165 0 -264 110q-88 101 -88 271zM315 1831q0 12 25 47l119 160q20 26 36.5 33.5t49.5 7.5h94q21 0 33 -12.5t12 -30.5q0 -27 -29 -47l-256 -187q-22 -16 -41 -16q-20 0 -31.5 13t-11.5 32z" />
<glyph unicode="&#x15b;" horiz-adv-x="923" d="M121 367v30q0 22 14.5 37t36.5 15h70q22 0 36.5 -15t14.5 -37v-2q0 -146 47 -198q49 -52 121 -52q77 0 125 48q47 47 47 147v8q0 83 -29 127q-29 46 -100 78l-144 63q-79 35 -116.5 64t-67.5 70q-51 71 -51 198v19q0 161 93 254.5t241 93.5q162 0 258 -111 q86 -99 86 -252v-14q0 -22 -14.5 -36.5t-36.5 -14.5h-70q-22 0 -36.5 14.5t-14.5 36.5q0 114 -49 166q-48 51 -123 51q-74 0 -121 -47q-43 -43 -43 -147v-5q0 -64 27 -110q22 -37 94 -70l143 -63q81 -36 121.5 -66t69.5 -69q53 -74 53 -191v-53q0 -160 -96.5 -254 t-245.5 -94q-159 0 -254 110q-86 99 -86 271zM303 1442q0 12 25 47l119 160q20 26 36.5 33.5t49.5 7.5h94q21 0 33 -12.5t12 -30.5q0 -28 -29 -48l-256 -186q-22 -16 -41 -16q-20 0 -31.5 13t-11.5 32z" />
<glyph unicode="&#x15c;" horiz-adv-x="948" d="M123 367v125q0 22 15.5 36.5t37.5 14.5h72q22 0 36.5 -14.5t14.5 -36.5v-111q0 -132 47 -184q52 -52 133 -52q73 0 123 50q47 52 47 180v117q0 101 -31 145q-29 43 -112 82l-162 72q-101 46 -160 129q-59 86 -59 235v174q0 197 121 297q97 78 231 78q164 0 258 -109 q86 -95 86 -268v-113q0 -22 -15 -36.5t-38 -14.5h-70q-23 0 -38 14.5t-15 36.5v101q0 125 -49 180q-52 49 -123 49q-73 0 -125 -49q-47 -52 -47 -180v-152q0 -101 31 -143q25 -40 110 -82l162 -74q109 -48 162 -123q31 -44 45 -98t14 -139v-144q0 -201 -120 -297 q-96 -77 -230 -77q-165 0 -264 110q-88 101 -88 271zM258 1839q0 16 27 47l147 180q21 25 47 25t47 -25l148 -180q26 -30 26 -47q0 -19 -13 -32t-34 -13q-15 0 -35 16l-94 72q-30 21 -45 21q-17 0 -43 -21l-96 -72q-20 -16 -35 -16q-21 0 -34 13t-13 32z" />
<glyph unicode="&#x15d;" horiz-adv-x="923" d="M121 367v30q0 22 14.5 37t36.5 15h70q22 0 36.5 -15t14.5 -37v-2q0 -146 47 -198q49 -52 121 -52q77 0 125 48q47 47 47 147v8q0 83 -29 127q-29 46 -100 78l-144 63q-79 35 -116.5 64t-67.5 70q-51 71 -51 198v19q0 161 93 254.5t241 93.5q162 0 258 -111 q86 -99 86 -252v-14q0 -22 -14.5 -36.5t-36.5 -14.5h-70q-22 0 -36.5 14.5t-14.5 36.5q0 114 -49 166q-48 51 -123 51q-74 0 -121 -47q-43 -43 -43 -147v-5q0 -64 27 -110q22 -37 94 -70l143 -63q81 -36 121.5 -66t69.5 -69q53 -74 53 -191v-53q0 -160 -96.5 -254 t-245.5 -94q-159 0 -254 110q-86 99 -86 271zM246 1452q0 16 27 47l147 180q21 25 47 25t47 -25l148 -180q26 -30 26 -47q0 -19 -13 -32t-34 -13q-15 0 -35 16l-94 72q-30 21 -45 21q-17 0 -43 -21l-96 -72q-20 -16 -35 -16q-21 0 -34 13t-13 32z" />
<glyph unicode="&#x15e;" horiz-adv-x="948" d="M123 367v125q0 22 15.5 36.5t37.5 14.5h72q22 0 36.5 -14.5t14.5 -36.5v-111q0 -132 47 -184q52 -52 133 -52q73 0 123 50q47 52 47 180v117q0 101 -31 145q-29 43 -112 82l-162 72q-101 46 -160 129q-59 86 -59 235v174q0 197 121 297q97 78 231 78q164 0 258 -109 q86 -95 86 -268v-113q0 -22 -15 -36.5t-38 -14.5h-70q-23 0 -38 14.5t-15 36.5v101q0 125 -49 180q-52 49 -123 49q-73 0 -125 -49q-47 -52 -47 -180v-152q0 -101 31 -143q25 -40 110 -82l162 -74q109 -48 162 -123q31 -44 45 -98t14 -139v-144q0 -201 -120 -297 q-96 -77 -230 -77q-165 0 -264 110q-88 101 -88 271zM350 -98q0 33 39 43q24 8 61 8q69 0 114.5 -41.5t45.5 -110.5t-45.5 -110t-114.5 -41q-30 0 -57 6q-43 10 -43 45q0 16 5 26t16.5 14.5t21 6t29.5 2.5q30 1 46.5 15t16.5 36t-16.5 36.5t-46.5 15.5q-20 1 -29.5 2.5 t-21 6t-16.5 14.5t-5 26z" />
<glyph unicode="&#x15f;" horiz-adv-x="923" d="M121 367v30q0 22 14.5 37t36.5 15h70q22 0 36.5 -15t14.5 -37v-2q0 -146 47 -198q49 -52 121 -52q77 0 125 48q47 47 47 147v8q0 83 -29 127q-29 46 -100 78l-144 63q-79 35 -116.5 64t-67.5 70q-51 71 -51 198v19q0 161 93 254.5t241 93.5q162 0 258 -111 q86 -99 86 -252v-14q0 -22 -14.5 -36.5t-36.5 -14.5h-70q-22 0 -36.5 14.5t-14.5 36.5q0 114 -49 166q-48 51 -123 51q-74 0 -121 -47q-43 -43 -43 -147v-5q0 -64 27 -110q22 -37 94 -70l143 -63q81 -36 121.5 -66t69.5 -69q53 -74 53 -191v-53q0 -160 -96.5 -254 t-245.5 -94q-159 0 -254 110q-86 99 -86 271zM338 -98q0 33 39 43q24 8 61 8q69 0 114.5 -41.5t45.5 -110.5t-45.5 -110t-114.5 -41q-30 0 -57 6q-43 10 -43 45q0 16 5 26t16.5 14.5t21 6t29.5 2.5q30 1 46.5 15t16.5 36t-16.5 36.5t-46.5 15.5q-20 1 -29.5 2.5t-21 6 t-16.5 14.5t-5 26z" />
<glyph unicode="&#x160;" horiz-adv-x="948" d="M123 367v125q0 22 15.5 36.5t37.5 14.5h72q22 0 36.5 -14.5t14.5 -36.5v-111q0 -132 47 -184q52 -52 133 -52q73 0 123 50q47 52 47 180v117q0 101 -31 145q-29 43 -112 82l-162 72q-101 46 -160 129q-59 86 -59 235v174q0 197 121 297q97 78 231 78q164 0 258 -109 q86 -95 86 -268v-113q0 -22 -15 -36.5t-38 -14.5h-70q-23 0 -38 14.5t-15 36.5v101q0 125 -49 180q-52 49 -123 49q-73 0 -125 -49q-47 -52 -47 -180v-152q0 -101 31 -143q25 -40 110 -82l162 -74q109 -48 162 -123q31 -44 45 -98t14 -139v-144q0 -201 -120 -297 q-96 -77 -230 -77q-165 0 -264 110q-88 101 -88 271zM252 2046q0 19 13 32t34 13q15 0 35 -16l96 -72q26 -21 43 -21q15 0 45 21l94 72q20 16 35 16q21 0 34 -13t13 -32q0 -17 -26 -47l-148 -180q-21 -25 -47 -25t-47 25l-147 180q-27 31 -27 47z" />
<glyph unicode="&#x161;" horiz-adv-x="923" d="M121 367v30q0 22 14.5 37t36.5 15h70q22 0 36.5 -15t14.5 -37v-2q0 -146 47 -198q49 -52 121 -52q77 0 125 48q47 47 47 147v8q0 83 -29 127q-29 46 -100 78l-144 63q-79 35 -116.5 64t-67.5 70q-51 71 -51 198v19q0 161 93 254.5t241 93.5q162 0 258 -111 q86 -99 86 -252v-14q0 -22 -14.5 -36.5t-36.5 -14.5h-70q-22 0 -36.5 14.5t-14.5 36.5q0 114 -49 166q-48 51 -123 51q-74 0 -121 -47q-43 -43 -43 -147v-5q0 -64 27 -110q22 -37 94 -70l143 -63q81 -36 121.5 -66t69.5 -69q53 -74 53 -191v-53q0 -160 -96.5 -254 t-245.5 -94q-159 0 -254 110q-86 99 -86 271zM238 1659q0 19 13 32t34 13q15 0 35 -16l96 -78q26 -21 43 -21q15 0 45 21l94 78q20 16 35 16q21 0 34 -13t13 -32q0 -17 -26 -47l-148 -180q-21 -25 -47 -25t-47 25l-147 180q-27 31 -27 47z" />
<glyph unicode="&#x162;" horiz-adv-x="843" d="M57 1573v65q0 22 16 37t38 15h624q22 0 36.5 -15t14.5 -37v-65q0 -22 -14.5 -36.5t-36.5 -14.5h-180q-20 0 -32.5 -14t-12.5 -35v-1422q0 -22 -15 -36.5t-38 -14.5h-70q-23 0 -38 14.5t-15 36.5v1422q0 21 -12.5 35t-32.5 14h-178q-22 0 -38 15t-16 36zM287 -98 q0 33 39 43q24 8 61 8q69 0 114.5 -41.5t45.5 -110.5t-45.5 -110t-114.5 -41q-30 0 -57 6q-43 10 -43 45q0 16 5 26t16.5 14.5t21 6t29.5 2.5q30 1 46.5 15t16.5 36t-16.5 36.5t-46.5 15.5q-20 1 -29.5 2.5t-21 6t-16.5 14.5t-5 26z" />
<glyph unicode="&#x163;" horiz-adv-x="688" d="M53 1190v59q0 22 14.5 36.5t36.5 14.5h76q20 0 32.5 14.5t12.5 35.5v143q0 22 14.5 36.5t36.5 14.5h70q22 0 36.5 -14.5t14.5 -36.5v-143q0 -21 12.5 -35.5t32.5 -14.5h142q22 0 36.5 -14.5t14.5 -36.5v-59q0 -22 -14.5 -36.5t-36.5 -14.5h-142q-20 0 -32.5 -13.5 t-12.5 -33.5v-826q0 -56 27 -80q24 -24 65 -24h95q22 0 36.5 -14.5t14.5 -36.5v-60q0 -22 -14.5 -36.5t-36.5 -14.5h-70q-161 0 -229 74q-60 66 -60 200v818q0 20 -12.5 33.5t-32.5 13.5h-76q-22 0 -36.5 14.5t-14.5 36.5zM238 -98q0 33 38 43q24 8 62 8q69 0 114.5 -41.5 t45.5 -110.5t-45.5 -110t-114.5 -41q-30 0 -57 6q-43 10 -43 45q0 16 4.5 26t16 14.5t21.5 6t29 2.5q30 1 47 15t17 36t-17 36.5t-47 15.5q-19 1 -29 2.5t-21.5 6t-16 14.5t-4.5 26z" />
<glyph unicode="&#x164;" horiz-adv-x="843" d="M57 1573v65q0 22 16 37t38 15h624q22 0 36.5 -15t14.5 -37v-65q0 -22 -14.5 -36.5t-36.5 -14.5h-180q-20 0 -32.5 -14t-12.5 -35v-1422q0 -22 -15 -36.5t-38 -14.5h-70q-23 0 -38 14.5t-15 36.5v1422q0 21 -12.5 35t-32.5 14h-178q-22 0 -38 15t-16 36zM201 2046 q0 19 13 32t34 13q15 0 35 -16l96 -72q26 -21 43 -21q15 0 45 21l94 72q20 16 35 16q21 0 34 -13t13 -32q0 -16 -27 -47l-147 -180q-21 -25 -47 -25t-47 25l-148 180q-26 30 -26 47z" />
<glyph unicode="&#x165;" horiz-adv-x="688" d="M53 1190v59q0 22 14.5 36.5t36.5 14.5h76q20 0 32.5 14.5t12.5 35.5v143q0 22 14.5 36.5t36.5 14.5h70q22 0 36.5 -14.5t14.5 -36.5v-143q0 -21 12.5 -35.5t32.5 -14.5h142q22 0 36.5 -14.5t14.5 -36.5v-59q0 -22 -14.5 -36.5t-36.5 -14.5h-142q-20 0 -32.5 -13.5 t-12.5 -33.5v-826q0 -56 27 -80q24 -24 65 -24h95q22 0 36.5 -14.5t14.5 -36.5v-60q0 -22 -14.5 -36.5t-36.5 -14.5h-70q-161 0 -229 74q-60 66 -60 200v818q0 20 -12.5 33.5t-32.5 13.5h-76q-22 0 -36.5 14.5t-14.5 36.5zM469 1419q0 18 18 54l9 18q32 75 32 149v7 q0 45 45 45h56q45 0 45 -45v-11q0 -52 -28 -113t-62 -102q-38 -47 -68 -47q-20 0 -33.5 12t-13.5 33z" />
<glyph unicode="&#x166;" horiz-adv-x="843" d="M57 1567v78q0 20 12.5 32.5t34.5 12.5h635q45 0 45 -45v-78q0 -20 -11.5 -32.5t-33.5 -12.5h-184q-20 0 -32.5 -12.5t-12.5 -32.5v-498q0 -20 12.5 -33.5t32.5 -13.5h115q51 0 51 -45v-66q0 -20 -13.5 -32.5t-37.5 -12.5h-115q-20 0 -32.5 -14t-12.5 -35v-680 q0 -47 -47 -47h-84q-20 0 -32.5 13.5t-12.5 33.5v680q0 21 -12.5 35t-32.5 14h-115q-24 0 -37.5 12.5t-13.5 32.5v66q0 45 51 45h115q20 0 32.5 13.5t12.5 33.5v498q0 20 -12.5 32.5t-32.5 12.5h-185q-47 0 -47 45z" />
<glyph unicode="&#x167;" horiz-adv-x="688" d="M53 651v72q0 45 45 45h82q20 0 32.5 14t12.5 35v275q0 20 -12.5 33.5t-32.5 13.5h-82q-22 0 -33.5 12.5t-11.5 32.5v71q0 45 45 45h82q20 0 32.5 14.5t12.5 35.5v149q0 20 12.5 33.5t32.5 13.5h82q45 0 45 -47v-149q0 -21 12.5 -35.5t32.5 -14.5h148q22 0 33.5 -12.5 t11.5 -32.5v-71q0 -45 -45 -45h-148q-20 0 -32.5 -13.5t-12.5 -33.5v-275q0 -21 12.5 -35t32.5 -14h107q22 0 33.5 -12.5t11.5 -32.5v-72q0 -45 -45 -45h-107q-20 0 -32.5 -13.5t-12.5 -33.5v-227q0 -78 31.5 -121t91.5 -43h70q22 0 33.5 -12.5t11.5 -32.5v-78 q0 -45 -45 -45h-51q-146 0 -230 76.5t-84 232.5v250q0 20 -12.5 33.5t-32.5 13.5h-82q-22 0 -33.5 12.5t-11.5 32.5z" />
<glyph unicode="&#x168;" d="M127 367v1271q0 22 15.5 37t37.5 15h72q22 0 36.5 -15t14.5 -37v-1257q0 -133 51 -184q49 -52 125 -52q78 0 127 52t49 184v1257q0 22 16 37t38 15h71q22 0 36.5 -15t14.5 -37v-1271q0 -173 -88 -271q-95 -110 -264 -110q-165 0 -264 110q-88 101 -88 271zM238 1880 q0 59 49.5 108.5t103.5 49.5q70 0 119 -43l20 -19q29 -26 50 -26q33 0 43 37l4 16q11 37 47 37q19 0 33 -14t14 -35q0 -60 -47.5 -110t-100.5 -50q-73 0 -122 43l-21 18q-30 27 -49 27q-33 0 -43 -37l-4 -16q-5 -16 -18 -26.5t-31 -10.5q-19 0 -33 14t-14 37z" />
<glyph unicode="&#x169;" horiz-adv-x="937" d="M125 365v884q0 22 14.5 36.5t36.5 14.5h70q22 0 36.5 -14.5t14.5 -36.5v-868q0 -132 49 -184t123 -52t123 52t49 184v868q0 22 14.5 36.5t36.5 14.5h70q22 0 36.5 -14.5t14.5 -36.5v-1192q0 -36 -20 -53q-17 -14 -43 -14q-27 0 -56 22l-8 6q-23 17 -45 17q-7 0 -18 -4 t-31 -12t-35 -13q-66 -20 -127 -20q-58 0 -115 24t-100 70q-90 97 -90 285zM225 1532q0 59 50 108.5t104 49.5q70 0 119 -43l20 -19q29 -26 49 -26q34 0 43 36l4 17q11 37 47 37q19 0 33.5 -14.5t14.5 -35.5q0 -60 -47 -109.5t-101 -49.5q-74 0 -123 43l-20 18 q-30 27 -49 27q-33 0 -43 -37l-5 -16q-5 -16 -18 -26.5t-31 -10.5q-19 0 -33 14t-14 37z" />
<glyph unicode="&#x16a;" d="M127 367v1271q0 22 15.5 37t37.5 15h72q22 0 36.5 -15t14.5 -37v-1257q0 -133 51 -184q49 -52 125 -52q78 0 127 52t49 184v1257q0 22 16 37t38 15h71q22 0 36.5 -15t14.5 -37v-1271q0 -173 -88 -271q-95 -110 -264 -110q-165 0 -264 110q-88 101 -88 271zM250 1927v19 q0 45 45 45h369q45 0 45 -45v-19q0 -45 -45 -45h-369q-45 0 -45 45z" />
<glyph unicode="&#x16b;" horiz-adv-x="937" d="M125 365v884q0 22 14.5 36.5t36.5 14.5h70q22 0 36.5 -14.5t14.5 -36.5v-868q0 -132 49 -184t123 -52t123 52t49 184v868q0 22 14.5 36.5t36.5 14.5h70q22 0 36.5 -14.5t14.5 -36.5v-1192q0 -36 -20 -53q-17 -14 -43 -14q-27 0 -56 22l-8 6q-23 17 -45 17q-7 0 -18 -4 t-31 -12t-35 -13q-66 -20 -127 -20q-58 0 -115 24t-100 70q-90 97 -90 285zM206 1544v31q0 45 45 45h431q45 0 45 -45v-31q0 -45 -45 -45h-431q-45 0 -45 45z" />
<glyph unicode="&#x16c;" d="M127 367v1271q0 22 15.5 37t37.5 15h72q22 0 36.5 -15t14.5 -37v-1257q0 -133 51 -184q49 -52 125 -52q78 0 127 52t49 184v1257q0 22 16 37t38 15h71q22 0 36.5 -15t14.5 -37v-1271q0 -173 -88 -271q-95 -110 -264 -110q-165 0 -264 110q-88 101 -88 271zM283 1987 q0 51 11.5 75.5t43.5 24.5q22 0 35 -16q12 -15 12 -46v-10q0 -43 27 -68.5t67 -25.5t67 25.5t27 68.5v10q0 30 13 46t35 16q32 0 43.5 -24.5t11.5 -75.5q0 -87 -57.5 -138t-139.5 -51q-80 0 -138 51t-58 138z" />
<glyph unicode="&#x16d;" horiz-adv-x="937" d="M125 365v884q0 22 14.5 36.5t36.5 14.5h70q22 0 36.5 -14.5t14.5 -36.5v-868q0 -132 49 -184t123 -52t123 52t49 184v868q0 22 14.5 36.5t36.5 14.5h70q22 0 36.5 -14.5t14.5 -36.5v-1192q0 -36 -20 -53q-17 -14 -43 -14q-27 0 -56 22l-8 6q-23 17 -45 17q-7 0 -18 -4 t-31 -12t-35 -13q-66 -20 -127 -20q-58 0 -115 24t-100 70q-90 97 -90 285zM271 1597q0 51 11.5 76t43.5 25q21 0 35 -17q12 -15 12 -45v-10q0 -43 27 -68.5t67 -25.5t67 25.5t27 68.5v10q0 29 13 45q14 17 34 17q32 0 44 -25t12 -76q0 -87 -57.5 -137.5t-139.5 -50.5 q-80 0 -138 50.5t-58 137.5z" />
<glyph unicode="&#x16e;" d="M127 367v1271q0 22 15.5 37t37.5 15h72q22 0 36.5 -15t14.5 -37v-1257q0 -133 51 -184q49 -52 125 -52q78 0 127 52t49 184v1257q0 22 16 37t38 15h71q22 0 36.5 -15t14.5 -37v-1271q0 -173 -88 -271q-95 -110 -264 -110q-165 0 -264 110q-88 101 -88 271zM319 1933 q0 66 47 113t113 47t113 -47t47 -113t-47 -112.5t-113 -46.5t-113 46.5t-47 112.5zM420 1933q0 -25 17 -42t42 -17t42.5 17t17.5 42t-17.5 42.5t-42.5 17.5t-42 -17.5t-17 -42.5z" />
<glyph unicode="&#x16f;" horiz-adv-x="937" d="M125 365v884q0 22 14.5 36.5t36.5 14.5h70q22 0 36.5 -14.5t14.5 -36.5v-868q0 -132 49 -184t123 -52t123 52t49 184v868q0 22 14.5 36.5t36.5 14.5h70q22 0 36.5 -14.5t14.5 -36.5v-1192q0 -36 -20 -53q-17 -14 -43 -14q-27 0 -56 22l-8 6q-23 17 -45 17q-7 0 -18 -4 t-31 -12t-35 -13q-66 -20 -127 -20q-58 0 -115 24t-100 70q-90 97 -90 285zM307 1544q0 66 47 113t113 47t112.5 -47t46.5 -113t-46.5 -113t-112.5 -47t-113 47t-47 113zM407 1544q0 -25 17.5 -42t42.5 -17t42 17t17 42t-17 42.5t-42 17.5t-42.5 -17.5t-17.5 -42.5z" />
<glyph unicode="&#x170;" d="M143 367v1271q0 22 16 37t38 15h71q22 0 36.5 -15t14.5 -37v-1257q0 -132 52 -184q49 -52 125 -52q78 0 127 52t49 184v1257q0 22 15.5 37t37.5 15h72q22 0 36.5 -15t14.5 -37v-1271q0 -173 -88 -271q-95 -110 -264 -110q-166 0 -265 110q-88 101 -88 271zM229 1827 q0 18 25 47l137 164q22 25 38 33t48 8h51q19 0 32 -13.5t13 -29.5q0 -24 -20 -41l-242 -197q-20 -16 -35 -16q-21 0 -34 13t-13 32zM516 1827q0 18 25 47l137 164q22 25 38 33t48 8h51q19 0 32 -13.5t13 -29.5q0 -24 -20 -41l-242 -197q-20 -16 -35 -16q-21 0 -34 13t-13 32 z" />
<glyph unicode="&#x171;" horiz-adv-x="937" d="M174 365v884q0 22 14.5 36.5t36.5 14.5h70q22 0 36.5 -14.5t14.5 -36.5v-868q0 -132 49 -184t123 -52t123 52t49 184v868q0 22 14.5 36.5t36.5 14.5h70q22 0 36.5 -14.5t14.5 -36.5v-1192q0 -36 -20 -53q-17 -14 -43 -14q-27 0 -56 22l-8 6q-23 17 -45 17q-7 0 -18 -4 t-31 -12t-35 -13q-66 -20 -127 -20q-58 0 -115 24t-100 70q-90 97 -90 285zM254 1438q0 18 25 47l137 164q22 25 38 33t48 8h51q19 0 32 -13.5t13 -29.5q0 -23 -20 -41l-242 -197q-20 -16 -35 -16q-21 0 -34 13t-13 32zM541 1438q0 19 24 47l137 164q22 25 38 33t48 8h52 q19 0 32 -13.5t13 -29.5q0 -23 -21 -41l-241 -197q-20 -16 -35 -16q-21 0 -34 13t-13 32z" />
<glyph unicode="&#x172;" d="M127 367v1271q0 22 15.5 37t37.5 15h72q22 0 36.5 -15t14.5 -37v-1257q0 -133 51 -184q49 -52 125 -52t125 52t49 184v1257q0 22 16 37t38 15h71q22 0 36.5 -15t14.5 -37v-1261q0 -87 -17 -147t-69 -132l-161 -225q-4 -5 -11.5 -15.5t-11 -15.5t-7 -13.5t-3.5 -16.5 q0 -19 15 -31t32 -12q11 0 29.5 12t31.5 12q22 0 36 -15t14 -32q0 -40 -46 -68t-106 -28q-71 0 -114.5 35t-43.5 86q0 17 4 32.5t12 28.5t14 21t17.5 20t14.5 16l14 19q16 16 16 37q0 19 -12.5 31t-32.5 14l-22 2q-129 11 -207 104q-88 101 -88 271z" />
<glyph unicode="&#x173;" horiz-adv-x="937" d="M125 365v884q0 22 14.5 36.5t36.5 14.5h70q22 0 36.5 -14.5t14.5 -36.5v-868q0 -132 49 -184t123 -52t123 52t49 184v868q0 22 14.5 36.5t36.5 14.5h70q22 0 36.5 -14.5t14.5 -36.5v-1220q0 -72 -43 -115l-57 -49q-5 -4 -14.5 -12t-13 -11.5l-9.5 -9.5t-8 -10t-4 -10 t-2 -13q0 -19 14 -31t31 -12q11 0 29.5 12.5t31.5 12.5q20 0 32.5 -14t12.5 -31q0 -29 -41 -57.5t-115 -28.5q-65 0 -105 33.5t-40 91.5q0 25 14 50.5t26.5 38t33.5 30.5l57 47q24 20 30.5 29t6.5 22q0 19 -13 32t-30 13q-9 0 -20.5 -4.5t-29.5 -13t-34 -13.5 q-62 -20 -117 -20q-134 0 -221 94q-90 97 -90 285z" />
<glyph unicode="&#x174;" horiz-adv-x="1449" d="M127 1638q0 22 15.5 37t37.5 15h72q22 0 36.5 -15t14.5 -37v-1269q0 -127 47 -174q47 -50 119 -50q75 0 119 50q49 52 49 174v1269q0 22 15.5 37t37.5 15h72q22 0 36.5 -15t14.5 -37v-1269q0 -127 47 -174q47 -50 119 -50q75 0 119 50q49 52 49 174v1269q0 22 15.5 37 t37.5 15h72q22 0 36.5 -15t14.5 -37v-1276q0 -170 -102 -280q-43 -46 -102.5 -71t-117.5 -25q-135 0 -227 69l-16 13q-18 12 -31 12q-16 0 -31 -12l-14 -13q-80 -69 -229 -69q-59 0 -122.5 25.5t-105.5 70.5q-96 103 -96 280zM504 1839q0 17 26 47l148 180q21 25 47 25 t47 -25l148 -180q26 -30 26 -47q0 -19 -13 -32t-34 -13q-15 0 -35 16l-94 72q-30 21 -45 21q-17 0 -43 -21l-96 -72q-20 -16 -35 -16q-21 0 -34 13t-13 32z" />
<glyph unicode="&#x175;" horiz-adv-x="1419" d="M125 352v897q0 22 14.5 36.5t36.5 14.5h70q22 0 36.5 -14.5t14.5 -36.5v-882q0 -122 47 -172q45 -48 117 -48t117 48t45 172v882q0 22 14.5 36.5t36.5 14.5h69q22 0 37 -14.5t15 -36.5v-882q0 -120 49 -172q45 -48 117 -48q71 0 116 48t45 172v882q0 22 15 36.5t37 14.5 h53q23 0 45 -15t22 -36v-897q0 -164 -100 -272q-41 -44 -100 -69t-115 -25q-119 0 -201 51q-21 14 -39 29q-15 12 -28 12q-16 0 -31 -12q-7 -6 -19 -15l-16 -12q-90 -53 -205 -53q-57 0 -118.5 25t-102.5 69q-94 98 -94 272zM488 1452q0 16 27 47l147 180q21 25 47 25 t47 -25l148 -180q26 -30 26 -47q0 -19 -13 -32t-34 -13q-15 0 -35 16l-94 72q-30 21 -45 21q-17 0 -43 -21l-96 -72q-20 -16 -35 -16q-21 0 -34 13t-13 32z" />
<glyph unicode="&#x176;" d="M127 1049v589q0 22 15.5 37t37.5 15h72q22 0 36.5 -15t14.5 -37v-577q0 -133 51 -184q49 -52 125 -52q78 0 127 52t49 184v577q0 22 16 37t38 15h71q22 0 36.5 -15t14.5 -37v-589q0 -141 -61 -235.5t-147 -125.5l-23 -8q-31 -16 -31 -43v-586q0 -22 -15.5 -36.5 t-37.5 -14.5h-72q-22 0 -36.5 14.5t-14.5 36.5v582q0 29 -28 45l-25 10q-213 93 -213 361zM258 1839q0 16 27 47l147 180q21 25 47 25t47 -25l148 -180q26 -30 26 -47q0 -19 -13 -32t-34 -13q-15 0 -35 16l-94 72q-30 21 -45 21q-17 0 -43 -21l-96 -72q-20 -16 -35 -16 q-21 0 -34 13t-13 32z" />
<glyph unicode="&#x177;" horiz-adv-x="937" d="M125 494v755q0 22 14.5 36.5t36.5 14.5h70q22 0 36.5 -14.5t14.5 -36.5v-745q0 -133 49 -185q48 -51 123 -51t123 51q49 52 49 185v745q0 22 14.5 36.5t36.5 14.5h70q22 0 36.5 -14.5t14.5 -36.5v-1214q0 -180 -98 -283q-99 -102 -246 -102t-246 102q-42 44 -68 102 t-26 115v6q0 22 14.5 37t36.5 15h64q48 0 57 -54l2 -10q14 -75 43 -104q49 -49 123 -49t123 49q49 52 49 174v61q0 21 -11.5 34t-31.5 13q-9 0 -27 -6.5t-24 -7.5l-23 -6q-41 -12 -92 -12q-52 0 -109.5 23.5t-101.5 70.5q-96 101 -96 291zM246 1452q0 16 27 47l147 180 q21 25 47 25t47 -25l148 -180q26 -30 26 -47q0 -19 -13 -32t-34 -13q-15 0 -35 16l-94 72q-30 21 -45 21q-17 0 -43 -21l-96 -72q-20 -16 -35 -16q-21 0 -34 13t-13 32z" />
<glyph unicode="&#x178;" d="M127 1049v589q0 22 15.5 37t37.5 15h72q22 0 36.5 -15t14.5 -37v-577q0 -133 51 -184q49 -52 125 -52q78 0 127 52t49 184v577q0 22 16 37t38 15h71q22 0 36.5 -15t14.5 -37v-589q0 -141 -61 -235.5t-147 -125.5l-23 -8q-31 -16 -31 -43v-586q0 -22 -15.5 -36.5 t-37.5 -14.5h-72q-22 0 -36.5 14.5t-14.5 36.5v582q0 29 -28 45l-25 10q-213 93 -213 361zM201 1909v65q0 22 14.5 36.5t36.5 14.5h65q22 0 37 -14.5t15 -36.5v-65q0 -22 -15 -36.5t-37 -14.5h-65q-22 0 -36.5 14.5t-14.5 36.5zM592 1909v65q0 22 14.5 36.5t36.5 14.5h66 q22 0 36.5 -14.5t14.5 -36.5v-65q0 -22 -14.5 -36.5t-36.5 -14.5h-66q-22 0 -36.5 14.5t-14.5 36.5z" />
<glyph unicode="&#x179;" horiz-adv-x="831" d="M111 51v49q0 53 16 99l371 1247q6 12 6 29q0 20 -12.5 32.5t-34.5 12.5h-285q-23 0 -38 14.5t-15 36.5v67q0 22 15 37t38 15h485q23 0 38.5 -15t15.5 -37v-69q0 -21 -17 -78l-370 -1247q-7 -14 -7 -29q0 -19 12 -32t33 -13h304q23 0 38 -14.5t15 -36.5v-68 q0 -22 -15 -36.5t-38 -14.5h-502q-23 0 -38 14.5t-15 36.5zM252 1831q0 14 24 47l119 160q20 26 36.5 33.5t49.5 7.5h94q21 0 33.5 -12.5t12.5 -30.5q0 -27 -29 -47l-256 -187q-22 -16 -41 -16q-20 0 -31.5 13t-11.5 32z" />
<glyph unicode="&#x17a;" horiz-adv-x="790" d="M106 51v49q0 50 17 99l332 866q6 12 6 29q0 19 -12 32t-33 13h-252q-22 0 -36.5 14.5t-14.5 36.5v59q0 22 14.5 36.5t36.5 14.5h454q22 0 37 -14.5t15 -36.5v-69q0 -31 -17 -78l-334 -866q-6 -12 -6 -29q0 -19 12 -32t33 -13h277q22 0 36.5 -14.5t14.5 -36.5v-60 q0 -22 -14.5 -36.5t-36.5 -14.5h-477q-22 0 -37 14.5t-15 36.5zM219 1442q0 12 25 47l119 160q20 26 36.5 33.5t49.5 7.5h94q21 0 33 -12.5t12 -30.5q0 -28 -29 -48l-256 -186q-22 -16 -41 -16q-20 0 -31.5 13t-11.5 32z" />
<glyph unicode="&#x17b;" horiz-adv-x="831" d="M111 51v49q0 53 16 99l371 1247q6 12 6 29q0 20 -12.5 32.5t-34.5 12.5h-285q-23 0 -38 14.5t-15 36.5v67q0 22 15 37t38 15h485q23 0 38.5 -15t15.5 -37v-69q0 -21 -17 -78l-370 -1247q-7 -14 -7 -29q0 -19 12 -32t33 -13h304q23 0 38 -14.5t15 -36.5v-68 q0 -22 -15 -36.5t-38 -14.5h-502q-23 0 -38 14.5t-15 36.5zM315 1898v82q0 22 15 37t37 15h82q22 0 36.5 -15t14.5 -37v-82q0 -22 -14.5 -36.5t-36.5 -14.5h-82q-22 0 -37 14.5t-15 36.5z" />
<glyph unicode="&#x17c;" horiz-adv-x="790" d="M106 51v49q0 50 17 99l332 866q6 12 6 29q0 19 -12 32t-33 13h-252q-22 0 -36.5 14.5t-14.5 36.5v59q0 22 14.5 36.5t36.5 14.5h454q22 0 37 -14.5t15 -36.5v-69q0 -31 -17 -78l-334 -866q-6 -12 -6 -29q0 -19 12 -32t33 -13h277q22 0 36.5 -14.5t14.5 -36.5v-60 q0 -22 -14.5 -36.5t-36.5 -14.5h-477q-22 0 -37 14.5t-15 36.5zM293 1556v82q0 22 14.5 37t36.5 15h82q22 0 36.5 -15t14.5 -37v-82q0 -22 -14.5 -36.5t-36.5 -14.5h-82q-22 0 -36.5 14.5t-14.5 36.5z" />
<glyph unicode="&#x17d;" horiz-adv-x="831" d="M111 51v49q0 53 16 99l371 1247q6 12 6 29q0 20 -12.5 32.5t-34.5 12.5h-285q-23 0 -38 14.5t-15 36.5v67q0 22 15 37t38 15h485q23 0 38.5 -15t15.5 -37v-69q0 -21 -17 -78l-370 -1247q-7 -14 -7 -29q0 -19 12 -32t33 -13h304q23 0 38 -14.5t15 -36.5v-68 q0 -22 -15 -36.5t-38 -14.5h-502q-23 0 -38 14.5t-15 36.5zM190 2046q0 19 13.5 32t34.5 13q14 0 34 -16l97 -72q26 -21 43 -21q15 0 45 21l94 72q20 16 35 16q21 0 34 -13t13 -32q0 -16 -27 -47l-147 -180q-21 -25 -47 -25t-47 25l-148 180q-27 31 -27 47z" />
<glyph unicode="&#x17e;" horiz-adv-x="790" d="M104 51v49q0 50 17 99l332 866q6 12 6 29q0 19 -12 32t-33 13h-252q-22 0 -36.5 14.5t-14.5 36.5v59q0 22 14.5 36.5t36.5 14.5h454q22 0 37 -14.5t15 -36.5v-69q0 -31 -17 -78l-334 -866q-6 -12 -6 -29q0 -19 12 -32t33 -13h277q22 0 36.5 -14.5t14.5 -36.5v-60 q0 -22 -14.5 -36.5t-36.5 -14.5h-477q-22 0 -37 14.5t-15 36.5zM172 1659q0 19 13 32t34 13q15 0 35 -16l96 -78q26 -21 43 -21q15 0 45 21l94 78q20 16 35 16q21 0 34 -13t13 -32q0 -17 -26 -47l-148 -180q-21 -25 -47 -25t-47 25l-147 180q-27 31 -27 47z" />
<glyph unicode="&#x17f;" horiz-adv-x="559" d="M53 1190v59q0 22 14.5 36.5t36.5 14.5h91q20 0 32.5 13.5t12.5 34.5v26q0 78 12 131q17 67 61 111q22 21 44 35t70 26.5t112 12.5h57q22 0 36.5 -15t14.5 -37v-59q0 -22 -14.5 -36.5t-36.5 -14.5h-41q-87 0 -117 -33q-26 -29 -26 -100v-1344q0 -22 -15 -36.5t-37 -14.5 h-69q-22 0 -36.5 14.5t-14.5 36.5v1039q0 21 -12.5 35t-32.5 14h-91q-22 0 -36.5 14.5t-14.5 36.5z" />
<glyph unicode="&#x192;" horiz-adv-x="753" d="M-109 -215q0 20 12 32.5t34 12.5h32q69 0 100.5 31.5t41.5 95.5q27 192 53.5 375t41 282t26 181t16 116.5t4.5 42.5q0 20 -12.5 33.5t-32.5 13.5h-62q-22 0 -33.5 13t-11.5 33v71q0 45 45 45h99q20 0 32.5 14t12.5 35l33 224q13 84 41.5 138.5t76 81.5t99.5 36.5t129 9.5 h10q45 0 45 -45v-78q0 -20 -11.5 -32.5t-33.5 -12.5h-43q-74 0 -106 -30t-40 -91q-28 -191 -28 -205q0 -20 12.5 -32.5t32.5 -12.5h61q22 0 33.5 -12.5t11.5 -32.5v-71q0 -46 -45 -46h-98q-38 0 -45 -49l-143 -1022q-21 -149 -107.5 -208.5t-236.5 -59.5q-46 0 -46 45v78z " />
<glyph unicode="&#x218;" horiz-adv-x="948" d="M123 367v125q0 22 15.5 36.5t37.5 14.5h72q22 0 36.5 -14.5t14.5 -36.5v-111q0 -132 47 -184q52 -52 133 -52q73 0 123 50q47 52 47 180v117q0 101 -31 145q-29 43 -112 82l-162 72q-101 46 -160 129q-59 86 -59 235v174q0 197 121 297q97 78 231 78q164 0 258 -109 q86 -95 86 -268v-113q0 -22 -15 -36.5t-38 -14.5h-70q-23 0 -38 14.5t-15 36.5v101q0 125 -49 180q-52 49 -123 49q-73 0 -125 -49q-47 -52 -47 -180v-152q0 -101 31 -143q25 -40 110 -82l162 -74q109 -48 162 -123q31 -44 45 -98t14 -139v-144q0 -201 -120 -297 q-96 -77 -230 -77q-165 0 -264 110q-88 101 -88 271zM328 -299q0 9 3.5 17t7 12.5t11 12.5t10.5 11q43 51 43 148v2q0 19 14 32t36 13h55q21 0 35 -13t14 -32q0 -81 -49.5 -151.5t-95.5 -92.5q-19 -8 -37 -8q-20 0 -33.5 12.5t-13.5 36.5z" />
<glyph unicode="&#x219;" horiz-adv-x="923" d="M121 367v30q0 22 14.5 37t36.5 15h70q22 0 36.5 -15t14.5 -37v-2q0 -146 47 -198q49 -52 121 -52q77 0 125 48q47 47 47 147v8q0 83 -29 127q-29 46 -100 78l-144 63q-79 35 -116.5 64t-67.5 70q-51 71 -51 198v19q0 161 93 254.5t241 93.5q162 0 258 -111 q86 -99 86 -252v-14q0 -22 -14.5 -36.5t-36.5 -14.5h-70q-22 0 -36.5 14.5t-14.5 36.5q0 114 -49 166q-48 51 -123 51q-74 0 -121 -47q-43 -43 -43 -147v-5q0 -64 27 -110q22 -37 94 -70l143 -63q81 -36 121.5 -66t69.5 -69q53 -74 53 -191v-53q0 -160 -96.5 -254 t-245.5 -94q-159 0 -254 110q-86 99 -86 271zM326 -299q0 9 3.5 17t7 12.5t11 12.5t10.5 11q43 51 43 148v2q0 19 14 32t36 13h55q21 0 35 -13t14 -32q0 -81 -49.5 -151.5t-95.5 -92.5q-19 -8 -37 -8q-20 0 -33.5 12.5t-13.5 36.5z" />
<glyph unicode="&#x21a;" horiz-adv-x="843" d="M57 1573v65q0 22 16 37t38 15h624q22 0 36.5 -15t14.5 -37v-65q0 -22 -14.5 -36.5t-36.5 -14.5h-180q-20 0 -32.5 -14t-12.5 -35v-1422q0 -22 -15 -36.5t-38 -14.5h-70q-23 0 -38 14.5t-15 36.5v1422q0 21 -12.5 35t-32.5 14h-178q-22 0 -38 15t-16 36zM268 -299 q0 9 3.5 17t7.5 12.5t11.5 12.5t10.5 11q43 51 43 148v2q0 19 14 32t35 13h56q21 0 35 -13t14 -32q0 -81 -49.5 -151.5t-96.5 -92.5q-19 -8 -37 -8q-20 0 -33.5 12.5t-13.5 36.5z" />
<glyph unicode="&#x21b;" horiz-adv-x="745" d="M53 1190v59q0 22 14.5 36.5t36.5 14.5h76q20 0 32.5 14.5t12.5 35.5v143q0 22 14.5 36.5t36.5 14.5h70q22 0 36.5 -14.5t14.5 -36.5v-143q0 -21 12.5 -35.5t32.5 -14.5h142q22 0 36.5 -14.5t14.5 -36.5v-59q0 -22 -14.5 -36.5t-36.5 -14.5h-142q-20 0 -32.5 -13.5 t-12.5 -33.5v-826q0 -56 27 -80q24 -24 65 -24h95q22 0 36.5 -14.5t14.5 -36.5v-60q0 -22 -14.5 -36.5t-36.5 -14.5h-70q-161 0 -229 74q-60 66 -60 200v818q0 20 -12.5 33.5t-32.5 13.5h-76q-22 0 -36.5 14.5t-14.5 36.5zM233 -299q0 9 3.5 17t7.5 12.5t11.5 12.5t10.5 11 q43 51 43 148v2q0 19 14 32t35 13h56q21 0 35 -13t14 -32q0 -81 -49.5 -151.5t-96.5 -92.5q-19 -8 -36 -8q-20 0 -34 13t-14 36z" />
<glyph unicode="&#x2c6;" horiz-adv-x="937" d="M209 1452q0 16 27 47l147 180q21 25 47 25t47 -25l148 -180q26 -30 26 -47q0 -19 -13 -32t-34 -13q-15 0 -35 16l-94 72q-30 21 -45 21q-17 0 -43 -21l-96 -72q-20 -16 -35 -16q-21 0 -34 13t-13 32z" />
<glyph unicode="&#x2c7;" horiz-adv-x="937" d="M209 1659q0 19 13 32t34 13q15 0 35 -16l96 -78q26 -21 43 -21q15 0 45 21l94 78q20 16 35 16q21 0 34 -13t13 -32q0 -17 -26 -47l-148 -180q-21 -25 -47 -25t-47 25l-147 180q-27 31 -27 47z" />
<glyph unicode="&#x2c9;" d="M188 1927v19q0 45 45 45h369q45 0 45 -45v-19q0 -45 -45 -45h-369q-45 0 -45 45z" />
<glyph unicode="&#x2d8;" horiz-adv-x="937" d="M236 1597q0 51 11.5 76t43.5 25q21 0 35 -17q12 -15 12 -45v-10q0 -43 27 -68.5t67 -25.5t67 25.5t27 68.5v10q0 29 13 45q14 17 34 17q32 0 44 -25t12 -76q0 -87 -57.5 -137.5t-139.5 -50.5q-80 0 -138 50.5t-58 137.5z" />
<glyph unicode="&#x2d9;" horiz-adv-x="937" d="M326 1556v82q0 22 14.5 37t36.5 15h82q22 0 36.5 -15t14.5 -37v-82q0 -22 -14.5 -36.5t-36.5 -14.5h-82q-22 0 -36.5 14.5t-14.5 36.5z" />
<glyph unicode="&#x2da;" horiz-adv-x="937" d="M289 1544q0 66 47 113t113 47t112.5 -47t46.5 -113t-46.5 -113t-112.5 -47t-113 47t-47 113zM389 1544q0 -25 17.5 -42t42.5 -17t42 17t17 42t-17 42.5t-42 17.5t-42.5 -17.5t-17.5 -42.5z" />
<glyph unicode="&#x2db;" horiz-adv-x="937" d="M285 -199q0 63 37 103q46 49 122 49q101 0 101 -51q0 -27 -14.5 -37t-43.5 -12h-14q-30 -1 -46.5 -15.5t-16.5 -36.5q0 -26 20 -39q15 -12 43 -12h12q31 -2 45.5 -11.5t14.5 -37.5t-33 -43q-20 -8 -68 -8q-73 0 -118 45q-41 44 -41 106z" />
<glyph unicode="&#x2dc;" horiz-adv-x="937" d="M178 1532q0 59 50 108.5t104 49.5q70 0 119 -43l20 -19q29 -26 49 -26q34 0 43 36l4 17q11 37 47 37q19 0 33.5 -14.5t14.5 -35.5q0 -60 -47 -109.5t-101 -49.5q-74 0 -123 43l-20 18q-30 27 -49 27q-33 0 -43 -37l-5 -16q-5 -16 -18 -26.5t-31 -10.5q-19 0 -33 14 t-14 37z" />
<glyph unicode="&#x2dd;" horiz-adv-x="937" d="M78 1438q0 19 24 47l138 164q22 25 38 33t48 8h51q19 0 32 -13.5t13 -29.5q0 -23 -21 -41l-241 -197q-20 -16 -35 -16q-21 0 -34 13t-13 32zM365 1438q0 19 24 47l137 164q22 25 38 33t48 8h52q19 0 32 -13.5t13 -29.5q0 -23 -21 -41l-242 -197q-20 -16 -34 -16 q-21 0 -34 13t-13 32z" />
<glyph unicode="&#x3c0;" horiz-adv-x="1122" d="M57 1184v71q0 45 45 45h918q22 0 33.5 -12.5t11.5 -32.5v-71q0 -45 -45 -45h-96q-20 0 -32.5 -13.5t-12.5 -33.5v-822q0 -57 26 -80q24 -24 66 -24h49q22 0 33.5 -12.5t11.5 -32.5v-76q0 -20 -11.5 -32.5t-33.5 -12.5h-25q-161 0 -229 74q-59 65 -59 200v818 q0 20 -12.5 33.5t-32.5 13.5h-207q-20 0 -32.5 -14t-12.5 -35v-1043q0 -20 -12.5 -33.5t-32.5 -13.5h-82q-45 0 -45 47v1043q0 21 -12.5 35t-32.5 14h-91q-22 0 -33.5 12.5t-11.5 32.5z" />
<glyph unicode="&#x1e80;" horiz-adv-x="1449" d="M127 1638q0 22 15.5 37t37.5 15h72q22 0 36.5 -15t14.5 -37v-1269q0 -127 47 -174q47 -50 119 -50q75 0 119 50q49 52 49 174v1269q0 22 15.5 37t37.5 15h72q22 0 36.5 -15t14.5 -37v-1269q0 -127 47 -174q47 -50 119 -50q75 0 119 50q49 52 49 174v1269q0 22 15.5 37 t37.5 15h72q22 0 36.5 -15t14.5 -37v-1276q0 -170 -102 -280q-43 -46 -102.5 -71t-117.5 -25q-135 0 -227 69l-16 13q-18 12 -31 12q-16 0 -31 -12l-14 -13q-80 -69 -229 -69q-59 0 -122.5 25.5t-105.5 70.5q-96 103 -96 280zM459 2036q0 18 12 30.5t33 12.5h94 q33 0 49.5 -7.5t36.5 -33.5l119 -160q24 -33 24 -47q0 -19 -11.5 -32t-31.5 -13q-19 0 -41 16l-256 187q-28 19 -28 47z" />
<glyph unicode="&#x1e81;" horiz-adv-x="1419" d="M125 352v897q0 22 14.5 36.5t36.5 14.5h70q22 0 36.5 -14.5t14.5 -36.5v-882q0 -122 47 -172q45 -48 117 -48t117 48t45 172v882q0 22 14.5 36.5t36.5 14.5h69q22 0 37 -14.5t15 -36.5v-882q0 -120 49 -172q45 -48 117 -48q71 0 116 48t45 172v882q0 22 15 36.5t37 14.5 h53q23 0 45 -15t22 -36v-897q0 -164 -100 -272q-41 -44 -100 -69t-115 -25q-119 0 -201 51q-21 14 -39 29q-15 12 -28 12q-16 0 -31 -12q-7 -6 -19 -15l-16 -12q-90 -53 -205 -53q-57 0 -118.5 25t-102.5 69q-94 98 -94 272zM442 1647q0 18 12 30.5t33 12.5h89q32 0 48 -8 t38 -33l129 -162q24 -28 24 -45q0 -19 -11.5 -32t-31.5 -13q-22 0 -41 16l-270 193q-19 17 -19 41z" />
<glyph unicode="&#x1e82;" horiz-adv-x="1449" d="M127 1638q0 22 15.5 37t37.5 15h72q22 0 36.5 -15t14.5 -37v-1269q0 -127 47 -174q47 -50 119 -50q75 0 119 50q49 52 49 174v1269q0 22 15.5 37t37.5 15h72q22 0 36.5 -15t14.5 -37v-1269q0 -127 47 -174q47 -50 119 -50q75 0 119 50q49 52 49 174v1269q0 22 15.5 37 t37.5 15h72q22 0 36.5 -15t14.5 -37v-1276q0 -170 -102 -280q-43 -46 -102.5 -71t-117.5 -25q-135 0 -227 69l-16 13q-18 12 -31 12q-16 0 -31 -12l-14 -13q-80 -69 -229 -69q-59 0 -122.5 25.5t-105.5 70.5q-96 103 -96 280zM629 1831q0 14 24 47l119 160q20 26 36.5 33.5 t49.5 7.5h94q21 0 33 -12.5t12 -30.5q0 -28 -28 -47l-256 -187q-22 -16 -41 -16q-20 0 -31.5 13t-11.5 32z" />
<glyph unicode="&#x1e83;" horiz-adv-x="1419" d="M125 352v897q0 22 14.5 36.5t36.5 14.5h70q22 0 36.5 -14.5t14.5 -36.5v-882q0 -122 47 -172q45 -48 117 -48t117 48t45 172v882q0 22 14.5 36.5t36.5 14.5h69q22 0 37 -14.5t15 -36.5v-882q0 -120 49 -172q45 -48 117 -48q71 0 116 48t45 172v882q0 22 15 36.5t37 14.5 h53q23 0 45 -15t22 -36v-897q0 -164 -100 -272q-41 -44 -100 -69t-115 -25q-119 0 -201 51q-21 14 -39 29q-15 12 -28 12q-16 0 -31 -12q-7 -6 -19 -15l-16 -12q-90 -53 -205 -53q-57 0 -118.5 25t-102.5 69q-94 98 -94 272zM622 1442q0 12 25 47l119 160q20 26 36.5 33.5 t49.5 7.5h94q21 0 33 -12.5t12 -30.5q0 -28 -29 -48l-256 -186q-22 -16 -41 -16q-20 0 -31.5 13t-11.5 32z" />
<glyph unicode="&#x1e84;" horiz-adv-x="1449" d="M127 1638q0 22 15.5 37t37.5 15h72q22 0 36.5 -15t14.5 -37v-1269q0 -127 47 -174q47 -50 119 -50q75 0 119 50q49 52 49 174v1269q0 22 15.5 37t37.5 15h72q22 0 36.5 -15t14.5 -37v-1269q0 -127 47 -174q47 -50 119 -50q75 0 119 50q49 52 49 174v1269q0 22 15.5 37 t37.5 15h72q22 0 36.5 -15t14.5 -37v-1276q0 -170 -102 -280q-43 -46 -102.5 -71t-117.5 -25q-135 0 -227 69l-16 13q-18 12 -31 12q-16 0 -31 -12l-14 -13q-80 -69 -229 -69q-59 0 -122.5 25.5t-105.5 70.5q-96 103 -96 280zM446 1909v65q0 22 15 36.5t37 14.5h65 q22 0 36.5 -14.5t14.5 -36.5v-65q0 -22 -14.5 -36.5t-36.5 -14.5h-65q-22 0 -37 14.5t-15 36.5zM838 1909v65q0 22 14.5 36.5t36.5 14.5h65q22 0 37 -14.5t15 -36.5v-65q0 -22 -15 -36.5t-37 -14.5h-65q-22 0 -36.5 14.5t-14.5 36.5z" />
<glyph unicode="&#x1e85;" horiz-adv-x="1419" d="M125 352v897q0 22 14.5 36.5t36.5 14.5h70q22 0 36.5 -14.5t14.5 -36.5v-882q0 -122 47 -172q45 -48 117 -48t117 48t45 172v882q0 22 14.5 36.5t36.5 14.5h69q22 0 37 -14.5t15 -36.5v-882q0 -120 49 -172q45 -48 117 -48q71 0 116 48t45 172v882q0 22 15 36.5t37 14.5 h53q23 0 45 -15t22 -36v-897q0 -164 -100 -272q-41 -44 -100 -69t-115 -25q-119 0 -201 51q-21 14 -39 29q-15 12 -28 12q-16 0 -31 -12q-7 -6 -19 -15l-16 -12q-90 -53 -205 -53q-57 0 -118.5 25t-102.5 69q-94 98 -94 272zM430 1526v65q0 22 14.5 36.5t36.5 14.5h66 q22 0 36.5 -14.5t14.5 -36.5v-65q0 -22 -14.5 -36.5t-36.5 -14.5h-66q-22 0 -36.5 14.5t-14.5 36.5zM821 1526v65q0 22 15 36.5t37 14.5h65q22 0 36.5 -14.5t14.5 -36.5v-65q0 -22 -14.5 -36.5t-36.5 -14.5h-65q-22 0 -37 14.5t-15 36.5z" />
<glyph unicode="&#x1e9e;" horiz-adv-x="966" d="M129 51v1252q0 156 74 260q94 127 286 127h242q43 0 68 -19q37 -26 37 -76q0 -22 -17 -79l-170 -543q-6 -18 -6 -31t9 -24.5t22 -16.5q78 -34 119 -86q75 -98 75 -293v-98q0 -196 -82 -303q-95 -121 -272 -121h-22q-22 0 -38 15t-16 36v66q0 21 16 36t38 15h18 q78 0 128 42.5t50 123.5v284q0 80 -49.5 121t-124.5 41h-20q-25 0 -40.5 13.5t-15.5 35.5q0 34 25 105l147 465q17 63 17 84q0 20 -13 33q-12 12 -49 12h-65q-95 0 -152 -60q-43 -50 -43 -153v-1264q0 -22 -14.5 -36.5t-36.5 -14.5h-72q-22 0 -37.5 14.5t-15.5 36.5z" />
<glyph unicode="&#x2000;" horiz-adv-x="1057" />
<glyph unicode="&#x2001;" horiz-adv-x="2114" />
<glyph unicode="&#x2002;" horiz-adv-x="1057" />
<glyph unicode="&#x2003;" horiz-adv-x="2114" />
<glyph unicode="&#x2004;" horiz-adv-x="704" />
<glyph unicode="&#x2005;" horiz-adv-x="528" />
<glyph unicode="&#x2006;" horiz-adv-x="352" />
<glyph unicode="&#x2007;" horiz-adv-x="352" />
<glyph unicode="&#x2008;" horiz-adv-x="264" />
<glyph unicode="&#x2009;" horiz-adv-x="422" />
<glyph unicode="&#x200a;" horiz-adv-x="117" />
<glyph unicode="&#x2010;" horiz-adv-x="667" d="M129 651v76q0 22 14.5 36.5t36.5 14.5h305q22 0 37 -14.5t15 -36.5v-76q0 -22 -15 -36.5t-37 -14.5h-305q-22 0 -36.5 14.5t-14.5 36.5z" />
<glyph unicode="&#x2011;" horiz-adv-x="667" d="M129 651v76q0 22 14.5 36.5t36.5 14.5h305q22 0 37 -14.5t15 -36.5v-76q0 -22 -15 -36.5t-37 -14.5h-305q-22 0 -36.5 14.5t-14.5 36.5z" />
<glyph unicode="&#x2012;" horiz-adv-x="667" d="M129 651v76q0 22 14.5 36.5t36.5 14.5h305q22 0 37 -14.5t15 -36.5v-76q0 -22 -15 -36.5t-37 -14.5h-305q-22 0 -36.5 14.5t-14.5 36.5z" />
<glyph unicode="&#x2013;" horiz-adv-x="1124" d="M152 653v66q0 22 14.5 36.5t36.5 14.5h719q22 0 36.5 -14.5t14.5 -36.5v-66q0 -22 -14.5 -36.5t-36.5 -14.5h-719q-22 0 -36.5 14.5t-14.5 36.5z" />
<glyph unicode="&#x2014;" horiz-adv-x="2048" d="M141 653v66q0 22 15 36.5t37 14.5h1662q22 0 37 -14.5t15 -36.5v-66q0 -22 -15 -36.5t-37 -14.5h-1662q-22 0 -37 14.5t-15 36.5z" />
<glyph unicode="&#x2018;" horiz-adv-x="454" d="M135 1348v102q0 93 35 152q13 23 35 49q50 53 96 53q20 0 33.5 -12.5t13.5 -36.5t-33 -53q-21 -16 -32 -29q-29 -33 -29 -72q0 -27 31 -35l8 -2q35 -10 35 -49v-67q0 -22 -15 -37t-37 -15h-90q-22 0 -36.5 15t-14.5 37z" />
<glyph unicode="&#x2019;" horiz-adv-x="454" d="M115 1331q0 25 32 53q8 6 33 31q29 37 29 70q0 27 -31 35l-8 2q-35 11 -35 49v67q0 22 14.5 37t36.5 15h90q22 0 37 -15t15 -37v-102q0 -93 -35 -152q-9 -17 -25 -36q-54 -66 -106 -66q-20 0 -33.5 12.5t-13.5 36.5z" />
<glyph unicode="&#x201a;" horiz-adv-x="454" d="M115 -164q0 25 32 53q8 6 33 31q29 37 29 70q0 27 -31 35l-8 2q-35 11 -35 49v67q0 22 14.5 37t36.5 15h90q22 0 37 -15t15 -37v-102q0 -93 -35 -152q-9 -17 -25 -36q-54 -66 -106 -66q-20 0 -33.5 12.5t-13.5 36.5z" />
<glyph unicode="&#x201c;" horiz-adv-x="880" d="M168 1348v102q0 93 35 152q13 23 35 49q50 53 96 53q20 0 33.5 -12.5t13.5 -36.5t-33 -53q-24 -18 -33 -29q-28 -31 -28 -72q0 -27 30 -35l9 -2q34 -10 34 -49v-67q0 -22 -14.5 -37t-36.5 -15h-90q-22 0 -36.5 15t-14.5 37zM512 1348v102q0 93 35 152q13 23 35 49 q50 53 96 53q20 0 33.5 -12.5t13.5 -36.5t-33 -53q-24 -18 -33 -29q-28 -31 -28 -72q0 -27 31 -35l8 -2q35 -10 35 -49v-67q0 -22 -15 -37t-37 -15h-90q-22 0 -36.5 15t-14.5 37z" />
<glyph unicode="&#x201d;" horiz-adv-x="880" d="M156 1331q0 25 32 53q8 6 33 31q29 37 29 70q0 27 -31 35l-8 2q-35 11 -35 49v67q0 22 14.5 37t36.5 15h90q22 0 37 -15t15 -37v-102q0 -93 -35 -152q-10 -17 -25 -36q-54 -66 -106 -66q-20 0 -33.5 12.5t-13.5 36.5zM500 1331q0 25 32 53q8 6 33 31q29 37 29 70 q0 27 -31 35l-8 2q-35 11 -35 49v67q0 22 14.5 37t36.5 15h91q22 0 36.5 -15t14.5 -37v-102q0 -93 -35 -152q-10 -17 -25 -36q-54 -66 -106 -66q-20 0 -33.5 12.5t-13.5 36.5z" />
<glyph unicode="&#x201e;" horiz-adv-x="880" d="M156 -164q0 25 32 53q8 6 33 31q29 37 29 70q0 27 -31 35l-8 2q-35 11 -35 49v67q0 22 14.5 37t36.5 15h90q22 0 37 -15t15 -37v-102q0 -93 -35 -152q-10 -17 -25 -36q-54 -66 -106 -66q-20 0 -33.5 12.5t-13.5 36.5zM500 -164q0 25 32 53q8 6 33 31q29 37 29 70 q0 27 -31 35l-8 2q-35 11 -35 49v67q0 22 14.5 37t36.5 15h91q22 0 36.5 -15t14.5 -37v-102q0 -93 -35 -152q-10 -17 -25 -36q-54 -66 -106 -66q-20 0 -33.5 12.5t-13.5 36.5z" />
<glyph unicode="&#x2020;" horiz-adv-x="935" d="M63 1106v41q0 22 15 36.5t37 14.5h229q45 0 45 41v399q0 22 14.5 37t36.5 15h49q22 0 37 -15t15 -37v-399q0 -41 45 -41h227q22 0 36.5 -14.5t14.5 -36.5v-41q0 -22 -14.5 -36.5t-36.5 -14.5h-227q-45 0 -45 -39v-1221q0 -22 -15 -36.5t-37 -14.5h-49q-22 0 -36.5 14.5 t-14.5 36.5v1221q0 39 -45 39h-229q-22 0 -37 14.5t-15 36.5z" />
<glyph unicode="&#x2021;" horiz-adv-x="935" d="M63 287v41q0 22 15 36.5t37 14.5h229q45 0 45 39v598q0 39 -45 39h-229q-22 0 -37 14.5t-15 36.5v41q0 22 15 36.5t37 14.5h229q45 0 45 41v399q0 22 14.5 37t36.5 15h49q22 0 37 -15t15 -37v-399q0 -41 45 -41h227q22 0 36.5 -14.5t14.5 -36.5v-41q0 -22 -14.5 -36.5 t-36.5 -14.5h-227q-45 0 -45 -39v-598q0 -39 45 -39h227q22 0 36.5 -14.5t14.5 -36.5v-41q0 -22 -14.5 -36.5t-36.5 -14.5h-227q-45 0 -45 -41v-400q0 -22 -15 -36.5t-37 -14.5h-49q-22 0 -36.5 14.5t-14.5 36.5v400q0 41 -45 41h-229q-22 0 -37 14.5t-15 36.5z" />
<glyph unicode="&#x2022;" horiz-adv-x="1124" d="M428 680v174q0 22 14.5 36.5t36.5 14.5h164q22 0 36.5 -14.5t14.5 -36.5v-174q0 -22 -14.5 -36.5t-36.5 -14.5h-164q-22 0 -36.5 14.5t-14.5 36.5z" />
<glyph unicode="&#x2026;" horiz-adv-x="1400" d="M141 51v92q0 22 15 37t37 15h81q22 0 37 -15t15 -37v-92q0 -22 -15 -36.5t-37 -14.5h-81q-22 0 -37 14.5t-15 36.5zM608 51v92q0 22 14.5 37t36.5 15h82q22 0 37 -15t15 -37v-92q0 -22 -15 -36.5t-37 -14.5h-82q-22 0 -36.5 14.5t-14.5 36.5zM1075 51v92q0 22 14.5 37 t36.5 15h82q22 0 37 -15t15 -37v-92q0 -22 -15 -36.5t-37 -14.5h-82q-22 0 -36.5 14.5t-14.5 36.5z" />
<glyph unicode="&#x202f;" horiz-adv-x="422" />
<glyph unicode="&#x2030;" horiz-adv-x="2308" d="M205 1255v154q0 134 65 209q79 86 201 86q123 0 199 -86q67 -73 67 -209v-154q0 -132 -67 -208q-74 -84 -199 -84q-124 0 -201 84q-65 71 -65 208zM367 1247q0 -82 28 -112q27 -31 76 -31t76 31q31 34 31 112v168q0 81 -31 115q-31 31 -76 31t-76 -31q-28 -30 -28 -115 v-168zM473 43q0 9 8 37l568 1565q16 45 53 45h61q45 0 45 -43q0 -9 -8 -37l-567 -1565q-16 -45 -53 -45h-62q-45 0 -45 43zM946 279v153q0 133 66 209q79 86 200 86q123 0 199 -86q68 -74 68 -209v-153q0 -132 -68 -209q-74 -84 -199 -84q-123 0 -200 84q-66 72 -66 209z M1108 270q0 -80 29 -112q27 -31 75 -31q49 0 76 31q31 34 31 112v168q0 81 -31 115q-31 31 -76 31q-44 0 -75 -31q-29 -32 -29 -115v-168zM1569 279v153q0 134 65 209q79 86 201 86q123 0 199 -86q67 -73 67 -209v-153q0 -133 -67 -209q-74 -84 -199 -84q-124 0 -201 84 q-65 71 -65 209zM1731 270q0 -82 28 -112q27 -31 76 -31t76 31q31 34 31 112v168q0 81 -31 115q-31 31 -76 31t-76 -31q-28 -30 -28 -115v-168z" />
<glyph unicode="&#x2039;" horiz-adv-x="454" d="M72 829q0 28 22 50l178 186q23 27 50 27q16 0 28 -12t12 -33q0 -11 -14 -39l-80 -148q-10 -20 -10 -31q0 -10 10 -30l80 -150q14 -23 14 -37q0 -21 -12 -33t-28 -12q-27 0 -50 27l-178 186q-22 22 -22 49z" />
<glyph unicode="&#x203a;" horiz-adv-x="454" d="M92 612q0 14 14 37l80 150q11 22 11 30q0 9 -11 31l-80 148q-14 28 -14 39q0 21 12.5 33t28.5 12q26 0 49 -27l178 -186q23 -23 23 -50q0 -26 -23 -49l-178 -186q-23 -27 -49 -27q-16 0 -28.5 12t-12.5 33z" />
<glyph unicode="&#x2044;" horiz-adv-x="409" d="M-39 35q0 23 4 37l383 1581q6 26 17 35.5t32 9.5q13 0 19 -2q33 -6 33 -41q0 -14 -13 -74l-375 -1544q-6 -26 -17 -35.5t-32 -9.5q-12 0 -28 4q-23 9 -23 39z" />
<glyph unicode="&#x205f;" horiz-adv-x="528" />
<glyph unicode="&#x20ac;" horiz-adv-x="1019" d="M49 678v61q0 22 14.5 37t36.5 15h45q22 0 33.5 16t11.5 37v28q0 46 -45 46h-45q-22 0 -36.5 14.5t-14.5 36.5v61q0 22 14.5 36.5t36.5 14.5h45q17 0 31 22t14 38v182q0 171 89 270q100 111 262 111q164 0 264 -111q88 -98 88 -270v-109q0 -22 -15 -36.5t-38 -14.5h-70 q-23 0 -38 14.5t-15 36.5v95q0 132 -49 184q-51 51 -127 51q-74 0 -125 -51q-49 -52 -49 -184v-162q0 -21 13.5 -43.5t31.5 -22.5h188q22 0 37.5 -14.5t15.5 -36.5v-61q0 -22 -15.5 -36.5t-37.5 -14.5h-188q-45 0 -45 -46v-28q0 -21 11.5 -37t33.5 -16h188q22 0 37.5 -15 t15.5 -37v-61q0 -22 -15.5 -36.5t-37.5 -14.5h-188q-45 0 -45 -45v-201q0 -132 49 -184q52 -52 125 -52q75 0 127 52q49 52 49 184v111q0 22 15 36.5t38 14.5h70q23 0 38 -14.5t15 -36.5v-125q0 -173 -88 -271q-99 -110 -264 -110q-163 0 -262 110q-89 99 -89 271v215 q0 45 -45 45h-45q-22 0 -36.5 14.5t-14.5 36.5z" />
<glyph unicode="&#x2122;" horiz-adv-x="1359" d="M135 1645v14q3 31 33 31h303q14 0 22.5 -10t10.5 -23v-12q0 -15 -8.5 -25t-24.5 -10h-72q-32 0 -32 -35v-477q0 -42 -41 -45h-7q-47 0 -47 45v477q0 35 -32 35h-72q-33 0 -33 35zM629 1098v547q0 24 12 38.5t33 14.5q10 0 22 -4l4 -2q12 -6 21 -6q13 0 34.5 6t37.5 6 q43 0 77 -17q20 -10 31 -10q1 0 31 10q49 17 84 17q65 0 110 -44.5t45 -133.5v-422q0 -42 -41 -45h-6q-47 0 -47 45v454q0 27 -19.5 44.5t-47.5 17.5t-46 -17t-18 -45v-454q0 -42 -43 -45h-4q-45 0 -45 45v454q0 27 -20 44.5t-48 17.5t-45.5 -17t-17.5 -45v-454 q0 -42 -41 -45h-6q-47 0 -47 45z" />
<glyph unicode="&#x2206;" horiz-adv-x="1017" d="M125 43q0 9 4 37l201 1546q9 64 80 64h200q68 0 80 -64l199 -1546q4 -28 4 -37q0 -43 -45 -43h-676q-47 0 -47 43zM317 205q0 -15 11 -26t28 -11h306q17 0 28.5 11t11.5 26q0 4 -2.5 20.5t-3.5 24.5l-147 1249q-3 26 -10.5 37.5t-26.5 11.5q-37 0 -43 -47l-145 -1251 q-1 -9 -4 -25t-3 -20z" />
<glyph unicode="&#x2212;" horiz-adv-x="1124" d="M152 653v66q0 22 14.5 36.5t36.5 14.5h719q22 0 36.5 -14.5t14.5 -36.5v-66q0 -22 -14.5 -36.5t-36.5 -14.5h-719q-22 0 -36.5 14.5t-14.5 36.5z" />
<glyph unicode="&#x221e;" horiz-adv-x="1183" d="M45 686q0 154 80.5 229.5t196.5 75.5q130 0 223 -108l16 -17q16 -16 33 -16t33 16l16 17q97 108 223 108q116 0 196.5 -75.5t80.5 -229.5t-80.5 -229.5t-196.5 -75.5q-129 0 -221 106l-16 19q-16 16 -33 16t-33 -16l-16 -17q-97 -108 -225 -108q-116 0 -196.5 75.5 t-80.5 229.5zM213 686q0 -71 35 -108t84 -37q85 0 157 118q9 15 9 27t-9 27q-72 118 -157 118q-49 0 -84 -37t-35 -108zM690 686q0 -14 8 -27q72 -118 156 -118q49 0 85 37t36 108t-36 108t-85 37q-84 0 -156 -118q-8 -13 -8 -27z" />
<glyph unicode="&#x2248;" horiz-adv-x="1124" d="M152 436v78q0 28 22 41q42 28 105 47t116 19q66 0 167.5 -32t158.5 -32q81 0 168 45l8 4q20 10 31 10q45 0 45 -45v-77q0 -28 -23 -41q-41 -28 -104 -46t-117 -18q-66 0 -170 32t-166 32q-69 0 -157 -45l-9 -5q-20 -10 -30 -12q-45 0 -45 45zM152 803v78q0 28 22 41 q41 28 104 46.5t117 18.5q65 0 168 -31.5t164 -31.5q75 0 162 45l8 4q20 10 31 10q45 0 45 -45v-78q0 -28 -23 -41q-41 -28 -104 -45.5t-117 -17.5q-67 0 -170 31.5t-164 31.5q-71 0 -159 -45l-9 -4q-20 -10 -30 -12q-45 0 -45 45z" />
<glyph unicode="&#x2260;" horiz-adv-x="1124" d="M131 469v66q0 22 14.5 36.5t36.5 14.5h219q39 0 50 32l28 97q6 18 6 33q0 38 -36 38h-267q-22 0 -36.5 15t-14.5 37v65q0 22 14.5 36.5t36.5 14.5h330q41 0 49 31l43 166q7 25 26.5 39t41.5 14h65q58 0 58 -49q0 -7 -4 -31l-29 -100q-8 -21 -8 -35q0 -15 11 -25t28 -10 h147q22 0 36.5 -14.5t14.5 -36.5v-65q0 -22 -14.5 -37t-36.5 -15h-211q-40 0 -51 -34l-27 -95q-8 -21 -8 -34q0 -15 11 -26t28 -11h258q22 0 36.5 -14.5t14.5 -36.5v-66q0 -22 -14.5 -36.5t-36.5 -14.5h-324q-40 0 -51 -35l-55 -170q-13 -45 -74 -45h-51q-59 0 -59 41 q0 20 8 39l33 98q6 18 6 33q0 39 -37 39h-154q-22 0 -36.5 14.5t-14.5 36.5z" />
<glyph unicode="&#x2264;" horiz-adv-x="1124" d="M152 51v66q0 22 14.5 36.5t36.5 14.5h721q22 0 36.5 -14.5t14.5 -36.5v-66q0 -22 -14.5 -36.5t-36.5 -14.5h-721q-22 0 -36.5 14.5t-14.5 36.5zM152 643v86q0 50 23 77.5t73 41.5l647 178q24 6 37 6q43 0 43 -45v-43q0 -21 -9.5 -32.5t-35.5 -18.5l-549 -160 q-23 -7 -35 -16.5t-12 -28.5t12 -28.5t35 -16.5l545 -160q28 -9 37.5 -20.5t9.5 -32.5v-63q0 -45 -45 -45q-17 0 -35 6l-645 196q-55 17 -75.5 42.5t-20.5 76.5z" />
<glyph unicode="&#x2265;" horiz-adv-x="1124" d="M152 51v66q0 22 14.5 36.5t36.5 14.5h721q22 0 36.5 -14.5t14.5 -36.5v-66q0 -22 -14.5 -36.5t-36.5 -14.5h-721q-22 0 -36.5 14.5t-14.5 36.5zM152 367v63q0 21 9.5 32.5t35.5 18.5l548 160q48 14 48 45t-48 45l-546 160q-28 9 -37.5 20.5t-9.5 32.5v64q0 45 45 45 q16 0 34 -6l648 -197q55 -17 75.5 -42.5t20.5 -76.5v-86q0 -51 -20.5 -76.5t-75.5 -42.5l-648 -198q-24 -6 -36 -6q-43 0 -43 45z" />
<glyph unicode="&#x25ca;" horiz-adv-x="1124" d="M123 846q0 10 6 22l391 809q12 27 41 27t41 -27l391 -809q6 -12 6 -22q0 -11 -6 -23l-391 -811q-11 -26 -41 -26t-41 26l-391 811q-6 12 -6 23zM270 844q0 -7 11 -29l241 -508q5 -9 16 -16.5t23 -7.5t23 7.5t16 16.5l242 508q10 20 10 29q0 13 -10 33l-242 505 q-5 10 -16.5 17.5t-22.5 7.5t-22.5 -7.5t-16.5 -17.5l-241 -505q-11 -22 -11 -33z" />
<glyph unicode="&#x25fc;" horiz-adv-x="1300" d="M0 0v1300h1300v-1300h-1300z" />
<glyph unicode="&#xf6c3;" horiz-adv-x="937" d="M324 -299q0 9 3.5 17t7 12.5t11 12.5t10.5 11q43 51 43 148v2q0 19 14 32t36 13h55q21 0 35 -13t14 -32q0 -81 -49.5 -151.5t-95.5 -92.5q-19 -8 -37 -8q-20 0 -33.5 12.5t-13.5 36.5z" />
<glyph unicode="&#xf8ff;" horiz-adv-x="1382" d="M45 252v260q0 20 12 20q8 0 17 -6l569 -327q25 -15 45 -15q21 0 45 15l244 141q33 18 33 49q0 29 -33 49l-541 316q-18 9 -18 20q0 10 18 19l234 135q12 6 20 6q12 0 21 -6l616 -355q10 -7 10 -22v-309q0 -29 -22 -43l-594 -344q-14 -7 -31 -7q-14 0 -28 7l-592 340 q-25 16 -25 57zM45 608v310q0 29 23 43l594 344q12 6 30 6q17 0 29 -6l592 -340q24 -15 24 -58v-260q0 -20 -12 -20q-7 0 -16 6l-570 328q-23 14 -45 14q-23 0 -45 -14l-243 -142q-33 -18 -33 -49q0 -29 33 -49l540 -315q19 -10 19 -21q0 -9 -19 -18l-233 -136 q-12 -6 -21 -6q-11 0 -20 6l-617 355q-10 7 -10 22z" />
<glyph d="M219 1839q0 16 27 47l147 180q21 25 47 25t47 -25l148 -180q27 -31 27 -47q0 -19 -13.5 -32t-34.5 -13q-14 0 -34 16l-95 72q-30 21 -45 21q-17 0 -43 -21l-96 -72q-20 -16 -35 -16q-21 0 -34 13t-13 32z" />
<glyph d="M219 2046q0 19 13 32t34 13q15 0 35 -16l96 -72q26 -21 43 -21q15 0 45 21l95 72q20 16 34 16q21 0 34.5 -13t13.5 -32q0 -16 -27 -47l-148 -180q-21 -25 -47 -25t-47 25l-147 180q-27 31 -27 47z" />
<glyph d="M246 1987q0 51 11.5 75.5t43.5 24.5q22 0 35 -16q12 -15 12 -46v-10q0 -43 27 -68.5t67 -25.5t67.5 25.5t27.5 68.5v10q0 31 12 46q13 16 35 16q32 0 43.5 -24.5t11.5 -75.5q0 -87 -57.5 -138t-139.5 -51q-80 0 -138 51t-58 138z" />
<glyph d="M336 1898v82q0 22 14.5 37t36.5 15h82q22 0 36.5 -15t14.5 -37v-82q0 -22 -14.5 -36.5t-36.5 -14.5h-82q-22 0 -36.5 14.5t-14.5 36.5z" />
<glyph d="M299 1933q0 66 47 113t113 47t112.5 -47t46.5 -113t-46.5 -112.5t-112.5 -46.5t-113 46.5t-47 112.5zM399 1933q0 -25 17.5 -42t42.5 -17t42 17t17 42t-17 42.5t-42 17.5t-42.5 -17.5t-17.5 -42.5z" />
<glyph d="M184 1880q0 59 50 108.5t104 49.5q70 0 119 -43l20 -19q29 -26 49 -26q33 0 43 37l4 16q11 37 48 37q19 0 33 -14t14 -35q0 -60 -47.5 -110t-100.5 -50q-74 0 -123 43l-20 18q-30 27 -49 27q-33 0 -43 -37l-4 -16q-5 -16 -18.5 -26.5t-31.5 -10.5q-19 0 -33 14t-14 37z " />
<glyph d="M111 1827q0 19 24 47l137 164q22 25 38 33t48 8h52q19 0 32 -13.5t13 -29.5q0 -23 -21 -41l-241 -197q-20 -16 -35 -16q-21 0 -34 13t-13 32zM397 1827q0 18 25 47l137 164q22 25 38 33t48 8h51q19 0 32 -13.5t13 -29.5q0 -24 -20 -41l-242 -197q-20 -16 -35 -16 q-21 0 -34 13t-13 32z" />
<glyph d="M332 1368q0 17 18 53l8 19q35 82 35 198v7q0 45 45 45h56q45 0 45 -45v-11q0 -67 -30 -145.5t-63 -118.5q-38 -47 -67 -47q-20 0 -33.5 12t-13.5 33z" />
<glyph d="M260 2036q0 18 12 30.5t33 12.5h94q33 0 49.5 -7.5t36.5 -33.5l119 -160q25 -35 25 -47q0 -19 -11.5 -32t-31.5 -13q-19 0 -41 16l-256 187q-29 20 -29 47z" />
<glyph d="M279 1831q0 14 24 47l119 160q20 26 36.5 33.5t49.5 7.5h94q21 0 33 -12.5t12 -30.5q0 -27 -29 -47l-256 -187q-22 -16 -40 -16q-20 0 -31.5 13t-11.5 32z" />
<glyph d="M145 1909v65q0 22 15 36.5t37 14.5h65q22 0 36.5 -14.5t14.5 -36.5v-65q0 -22 -14.5 -36.5t-36.5 -14.5h-65q-22 0 -37 14.5t-15 36.5zM537 1909v65q0 22 14.5 36.5t36.5 14.5h65q22 0 37 -14.5t15 -36.5v-65q0 -22 -15 -36.5t-37 -14.5h-65q-22 0 -36.5 14.5t-14.5 36.5 z" />
<glyph d="M188 1927v19q0 45 45 45h369q45 0 45 -45v-19q0 -45 -45 -45h-369q-45 0 -45 45z" />
<glyph horiz-adv-x="1124" d="M412 1454q0 81 49.5 151.5t95.5 92.5q19 8 37 8q20 0 33.5 -12.5t13.5 -36.5q0 -9 -3.5 -17t-7.5 -12.5t-11.5 -12.5t-10.5 -11q-43 -51 -43 -148v-2q0 -19 -14 -32t-35 -13h-55q-21 0 -35 13t-14 32z" />
<glyph d="M127 367v956q0 169 88 270q100 111 264 111t264 -111q88 -101 88 -270v-956q0 -170 -88 -271q-99 -110 -264 -110t-264 110q-88 101 -88 271zM303 381q0 -133 51 -184q49 -52 125 -52t125 52q51 51 51 184v928q0 133 -51 184q-48 51 -125 51t-125 -51q-51 -51 -51 -184 v-928z" />
<glyph d="M115 51v66q0 22 15.5 36.5t37.5 14.5h176q21 0 34 14t13 35v1129q0 38 -47 38h-176q-22 0 -37.5 15t-15.5 37v53q0 22 15.5 36.5t37.5 14.5h160q43 0 53 43l16 66q12 51 66 51h51q22 0 37.5 -14.5t15.5 -36.5v-1432q0 -21 12.5 -35t32.5 -14h181q22 0 36.5 -14.5 t14.5 -36.5v-66q0 -22 -14.5 -36.5t-36.5 -14.5h-625q-22 0 -37.5 14.5t-15.5 36.5z" />
<glyph d="M129 51v142q0 60 16 120.5t38 108t61.5 105.5t69.5 95t79 95l35 41q143 170 185 250t42 192v109q0 132 -49 184q-48 51 -125 51t-125 -51q-49 -49 -49 -184v-95q0 -22 -14.5 -36.5t-36.5 -14.5h-72q-22 0 -38.5 15t-16.5 36v109q0 169 88 270q100 111 264 111 q166 0 262 -111q88 -98 88 -270v-100q0 -83 -18 -156t-58 -144.5t-83.5 -130t-114.5 -141.5l-35 -41q-215 -252 -215 -381v-12q0 -49 43 -49h430q22 0 36.5 -14.5t14.5 -36.5v-66q0 -22 -14.5 -36.5t-36.5 -14.5h-598q-22 0 -37.5 14.5t-15.5 36.5z" />
<glyph d="M127 367v125q0 22 15.5 36.5t37.5 14.5h72q22 0 36.5 -14.5t14.5 -36.5v-103q0 -133 51 -184q50 -53 127 -53t125 51q49 52 49 184v148q0 132 -49 184q-48 51 -125 51h-73q-22 0 -37 14.5t-15 36.5v66q0 22 15 36.5t37 14.5h71q79 0 127 51q49 52 49 185v129 q0 134 -47 184q-54 57 -129 57q-77 0 -125 -51q-51 -51 -51 -184v-95q0 -22 -14.5 -36.5t-36.5 -14.5h-72q-22 0 -37.5 14.5t-15.5 36.5v109q0 169 88 270q100 111 264 111q168 0 264 -111q88 -98 88 -270v-168q0 -87 -16.5 -153t-66.5 -115l-17 -17q-16 -16 -16 -32 q0 -17 16 -33l17 -17q50 -49 66.5 -115t16.5 -153v-153q0 -171 -90 -271q-95 -110 -262 -110q-165 0 -264 110q-88 101 -88 271z" />
<glyph d="M84 406v75q0 8 1 18t4.5 27.5t7.5 35t11.5 50.5t14.5 62.5t19.5 83t23.5 100.5l186 787q7 30 23.5 41.5t48.5 11.5h55q23 0 38 -13.5t15 -37.5v-5q0 -36 -153 -645l-19 -71q-86 -337 -86 -365q6 -37 52 -37l159 2q20 0 32.5 14t12.5 35v328q0 22 15.5 36.5t38.5 14.5h69 q23 0 38.5 -14.5t15.5 -36.5v-328q0 -21 12.5 -35t32.5 -14h73q22 0 37 -14.5t15 -36.5v-67q0 -22 -15 -37t-37 -15h-73q-20 0 -32.5 -13.5t-12.5 -33.5v-258q0 -22 -15.5 -36.5t-38.5 -14.5h-69q-23 0 -38.5 14.5t-15.5 36.5v258q0 20 -12.5 33.5t-32.5 13.5h-356 q-20 0 -32.5 14.5t-12.5 35.5z" />
<glyph d="M129 367v125q0 22 15.5 36.5t37.5 14.5h72q22 0 36.5 -14.5t14.5 -36.5v-111q0 -133 51 -184q49 -52 125 -52t125 52t49 184v246q0 132 -49 184q-48 51 -125 51q-66 0 -137 -31l-27 -12q-30 -12 -49 -12h-8q-35 0 -59.5 25t-24.5 65v741q0 22 14.5 37t36.5 15h490 q22 0 36.5 -15t14.5 -37v-65q0 -22 -14.5 -36.5t-36.5 -14.5h-320q-20 0 -33.5 -13.5t-13.5 -33.5v-209q0 -57 -0.5 -104.5t-1 -75t-0.5 -35.5q0 -43 43 -43q4 0 39 6t74 6q167 0 258 -123q35 -48 52 -103.5t17 -138.5v-288q0 -173 -88 -271q-95 -110 -262 -110 q-165 0 -264 110q-88 101 -88 271z" />
<glyph d="M127 367v956q0 169 88 270q100 111 264 111q168 0 264 -111q88 -98 88 -270v-109q0 -22 -14.5 -36.5t-36.5 -14.5h-69q-22 0 -39 15t-17 36v95q0 132 -49 184q-48 51 -127 51q-77 0 -125 -51q-51 -51 -51 -184v-328q0 -20 12.5 -33.5t32.5 -13.5h131q168 0 264 -111 q88 -98 88 -270v-186q0 -173 -88 -271q-95 -110 -264 -110q-165 0 -264 110q-88 101 -88 271zM303 381q0 -133 51 -184q49 -52 125 -52q80 0 129 52q47 50 47 184v158q0 137 -45 184q-48 51 -129 51h-133q-20 0 -32.5 -13.5t-12.5 -33.5v-346z" />
<glyph d="M84 1573v65q0 22 14.5 37t36.5 15h643q22 0 36.5 -15t14.5 -37v-71q0 -55 -81 -377l-123 -504q-128 -523 -136 -569l-12 -64q-6 -30 -22.5 -41.5t-48.5 -11.5h-56q-23 0 -38 13.5t-15 37.5v4q0 42 197 826l59 241q86 337 86 363q0 37 -51 37h-453q-22 0 -36.5 14.5 t-14.5 36.5z" />
<glyph d="M127 367v168q0 184 84 268l16 16q19 19 19 33t-19 33l-16 16q-84 84 -84 268v154q0 169 88 270q100 111 262 111q166 0 266 -111q88 -101 88 -270v-154q0 -185 -83 -268l-17 -16q-18 -18 -18 -33t18 -33l17 -16q83 -83 83 -268v-168q0 -167 -90 -271q-99 -110 -264 -110 q-161 0 -260 110q-90 104 -90 271zM303 387q0 -133 51 -184q48 -51 125 -51t125 51q51 51 51 184v152q0 133 -51 184q-48 51 -125 51t-125 -51q-51 -51 -51 -184v-152zM303 1169q0 -133 51 -184q48 -51 123 -51q79 0 127 51q51 51 51 184v134q0 135 -49 184q-48 51 -125 51 q-81 0 -129 -51q-49 -49 -49 -184v-134z" />
<glyph d="M127 1137v186q0 169 88 270q100 111 266 111t262 -111q88 -98 88 -270v-956q0 -173 -88 -271q-95 -110 -262 -110q-165 0 -264 110q-88 101 -88 271v125q0 22 15.5 36.5t37.5 14.5h70q22 0 37.5 -14.5t15.5 -36.5v-111q0 -133 51 -184q49 -52 125 -52t125 52t49 184v328 q0 20 -12.5 33.5t-32.5 13.5h-131q-165 0 -264 110q-88 101 -88 271zM303 1151q0 -69 10 -113t37 -71q49 -52 127 -52h133q20 0 32.5 13.5t12.5 34.5v346q0 132 -49 184q-48 51 -129 51q-79 0 -127 -51q-27 -27 -37 -71t-10 -113v-158z" />
<glyph d="M127 367v188q0 170 90 270q96 111 262 111h131q20 0 32.5 13.5t12.5 33.5v320q0 134 -47 184q-54 57 -129 57q-77 0 -125 -51q-51 -51 -51 -184v-95q0 -22 -14.5 -36.5t-36.5 -14.5h-72q-22 0 -37.5 14.5t-15.5 36.5v109q0 169 88 270q100 111 264 111q168 0 264 -111 q88 -98 88 -270v-1266q0 -36 -20 -53q-17 -14 -45 -14q-26 0 -55 22l-9 6q-23 17 -47 17q-7 0 -18 -4t-29.5 -11t-32.5 -12q-68 -22 -124 -22q-59 0 -118 24t-95 60q-57 61 -84 122.5t-27 174.5zM303 381q0 -133 51 -184q49 -52 125 -52q78 0 127 52t49 184v348q0 45 -45 45 h-133q-71 0 -125 -57q-49 -52 -49 -185v-151z" />
<glyph d="M127 367v956q0 169 88 270q100 111 264 111q168 0 264 -111q88 -98 88 -270v-483q0 -29 -18 -47.5t-45 -18.5h-420q-45 0 -45 -45v-348q0 -133 51 -184q49 -52 125 -52q78 0 127 52t49 184v111q0 21 16 36t38 15h71q22 0 36.5 -14.5t14.5 -36.5v-125q0 -173 -88 -271 q-95 -110 -264 -110q-165 0 -264 110q-88 101 -88 271zM303 983q0 -20 12.5 -33.5t32.5 -13.5h262q20 0 32.5 14t12.5 35v324q0 132 -49 184q-48 51 -127 51q-77 0 -125 -51q-51 -51 -51 -184v-326z" />
<glyph d="M127 367v188q0 170 90 270q96 111 262 111h131q20 0 32.5 13.5t12.5 33.5v320q0 134 -47 184q-54 57 -129 57q-77 0 -125 -51q-51 -51 -51 -184v-95q0 -22 -14.5 -36.5t-36.5 -14.5h-72q-22 0 -37.5 14.5t-15.5 36.5v109q0 169 88 270q100 111 264 111q168 0 264 -111 q88 -98 88 -270v-1266q0 -36 -20 -53q-17 -14 -45 -14q-26 0 -55 22l-9 6q-23 17 -47 17q-7 0 -18 -4t-29.5 -11t-32.5 -12q-68 -22 -124 -22q-59 0 -118 24t-95 60q-57 61 -84 122.5t-27 174.5zM203 1909v65q0 22 14.5 36.5t36.5 14.5h65q22 0 37 -14.5t15 -36.5v-65 q0 -22 -15 -36.5t-37 -14.5h-65q-22 0 -36.5 14.5t-14.5 36.5zM303 381q0 -133 51 -184q49 -52 125 -52q78 0 127 52t49 184v348q0 45 -45 45h-133q-71 0 -125 -57q-49 -52 -49 -185v-151zM594 1909v65q0 22 14.5 36.5t36.5 14.5h66q22 0 36.5 -14.5t14.5 -36.5v-65 q0 -22 -14.5 -36.5t-36.5 -14.5h-66q-22 0 -36.5 14.5t-14.5 36.5z" />
<glyph d="M127 367v188q0 170 90 270q96 111 262 111h131q20 0 32.5 13.5t12.5 33.5v320q0 134 -47 184q-54 57 -129 57q-77 0 -125 -51q-51 -51 -51 -184v-95q0 -22 -14.5 -36.5t-36.5 -14.5h-72q-22 0 -37.5 14.5t-15.5 36.5v109q0 169 88 270q100 111 264 111q168 0 264 -111 q88 -98 88 -270v-1266q0 -36 -20 -53q-17 -14 -45 -14q-26 0 -55 22l-9 6q-23 17 -47 17q-7 0 -18 -4t-29.5 -11t-32.5 -12q-68 -22 -124 -22q-59 0 -118 24t-95 60q-57 61 -84 122.5t-27 174.5zM303 381q0 -133 51 -184q49 -52 125 -52q78 0 127 52t49 184v348q0 45 -45 45 h-133q-71 0 -125 -57q-49 -52 -49 -185v-151zM319 1933q0 66 47 113t113 47t113 -47t47 -113t-47 -112.5t-113 -46.5t-113 46.5t-47 112.5zM420 1933q0 -25 17 -42t42 -17t42.5 17t17.5 42t-17.5 42.5t-42.5 17.5t-42 -17.5t-17 -42.5z" />
<glyph d="M127 367v956q0 169 88 270q100 111 264 111q168 0 264 -111q88 -98 88 -270v-483q0 -29 -18 -47.5t-45 -18.5h-420q-45 0 -45 -45v-348q0 -133 51 -184q49 -52 125 -52q78 0 127 52t49 184v111q0 21 16 36t38 15h71q22 0 36.5 -14.5t14.5 -36.5v-125q0 -173 -88 -271 q-95 -110 -264 -110q-165 0 -264 110q-88 101 -88 271zM303 983q0 -20 12.5 -33.5t32.5 -13.5h262q20 0 32.5 14t12.5 35v324q0 132 -49 184q-48 51 -127 51q-77 0 -125 -51q-51 -51 -51 -184v-326zM319 1831q0 12 25 47l119 160q20 26 36.5 33.5t49.5 7.5h94q21 0 33 -12.5 t12 -30.5q0 -27 -29 -47l-256 -187q-22 -16 -41 -16q-20 0 -31.5 13t-11.5 32z" />
<glyph horiz-adv-x="1486" d="M127 367v188q0 170 90 270q96 111 262 111h131q20 0 32.5 13.5t12.5 33.5v320q0 134 -47 184q-54 57 -129 57q-77 0 -125 -51q-51 -51 -51 -184v-95q0 -22 -14.5 -36.5t-36.5 -14.5h-72q-22 0 -37.5 14.5t-15.5 36.5v109q0 169 88 270q100 111 270 111q124 0 209 -62 l19 -14q22 -18 35 -18q16 0 34 18l19 14q82 62 207 62q168 0 264 -111q88 -98 88 -270v-483q0 -29 -19.5 -47.5t-46.5 -18.5h-417q-46 0 -46 -45v-348q0 -132 52 -184q49 -52 125 -52q78 0 127 52t49 184v111q0 22 15.5 36.5t37.5 14.5h72q22 0 36.5 -14.5t14.5 -36.5v-125 q0 -173 -88 -271q-95 -110 -264 -110q-134 0 -215 61l-19 14q-19 19 -35 19q-11 0 -34 -19l-19 -14q-84 -61 -209 -61q-156 0 -253 101.5t-97 279.5zM303 381q0 -133 51 -184q49 -52 125 -52q78 0 127 52t49 184v348q0 45 -45 45h-133q-71 0 -125 -57q-49 -52 -49 -185v-151 zM831 983q0 -20 13 -33.5t33 -13.5h262q20 0 32.5 14t12.5 35v324q0 132 -49 184q-48 51 -127 51q-77 0 -125 -51q-52 -52 -52 -184v-326z" />
<glyph d="M127 367v188q0 170 90 270q96 111 262 111h131q20 0 32.5 13.5t12.5 33.5v320q0 134 -47 184q-54 57 -129 57q-77 0 -125 -51q-51 -51 -51 -184v-95q0 -22 -14.5 -36.5t-36.5 -14.5h-72q-22 0 -37.5 14.5t-15.5 36.5v109q0 169 88 270q100 111 264 111q168 0 264 -111 q88 -98 88 -270v-1266q0 -36 -20 -53q-17 -14 -45 -14q-26 0 -55 22l-9 6q-23 17 -47 17q-7 0 -18 -4t-29.5 -11t-32.5 -12q-68 -22 -124 -22q-59 0 -118 24t-95 60q-57 61 -84 122.5t-27 174.5zM260 2036q0 18 12 30.5t33 12.5h94q33 0 49.5 -7.5t36.5 -33.5l119 -160 q25 -35 25 -47q0 -19 -11.5 -32t-31.5 -13q-19 0 -41 16l-256 187q-29 20 -29 47zM303 381q0 -133 51 -184q49 -52 125 -52q78 0 127 52t49 184v348q0 45 -45 45h-133q-71 0 -125 -57q-49 -52 -49 -185v-151z" />
<glyph d="M127 367v188q0 170 90 270q96 111 262 111h131q20 0 32.5 13.5t12.5 33.5v320q0 134 -47 184q-54 57 -129 57q-77 0 -125 -51q-51 -51 -51 -184v-95q0 -22 -14.5 -36.5t-36.5 -14.5h-72q-22 0 -37.5 14.5t-15.5 36.5v109q0 169 88 270q100 111 264 111q168 0 264 -111 q88 -98 88 -270v-1266q0 -36 -20 -53q-17 -14 -45 -14q-26 0 -55 22l-9 6q-23 17 -47 17q-7 0 -18 -4t-29.5 -11t-32.5 -12q-68 -22 -124 -22q-59 0 -118 24t-95 60q-57 61 -84 122.5t-27 174.5zM240 1880q0 59 49.5 108.5t103.5 49.5q70 0 119 -43l20 -19q29 -26 50 -26 q33 0 43 37l4 16q11 37 47 37q19 0 33 -14t14 -35q0 -60 -47.5 -110t-100.5 -50q-73 0 -122 43l-21 18q-30 27 -49 27q-33 0 -43 -37l-4 -16q-5 -16 -18 -26.5t-31 -10.5q-19 0 -33 14t-14 37zM303 381q0 -133 51 -184q49 -52 125 -52q78 0 127 52t49 184v348q0 45 -45 45 h-133q-71 0 -125 -57q-49 -52 -49 -185v-151z" />
<glyph horiz-adv-x="1486" d="M127 367v956q0 169 88 270q100 111 270 111q124 0 209 -62l19 -14q22 -18 35 -18q16 0 34 18l19 14q82 62 207 62q168 0 264 -111q88 -98 88 -270v-483q0 -29 -19.5 -47.5t-46.5 -18.5h-417q-46 0 -46 -45v-348q0 -132 52 -184q49 -52 125 -52q78 0 127 52t49 184v111 q0 22 15.5 36.5t37.5 14.5h72q22 0 36.5 -14.5t14.5 -36.5v-125q0 -173 -88 -271q-95 -110 -264 -110q-134 0 -215 61l-19 14q-19 19 -35 19q-11 0 -34 -19l-19 -14q-84 -61 -209 -61q-156 0 -253 101.5t-97 279.5zM303 381q0 -133 51 -184q49 -52 125 -52q78 0 127 52 t49 184v922q0 134 -47 184q-54 57 -129 57q-77 0 -125 -51q-51 -51 -51 -184v-928zM831 983q0 -20 13 -33.5t33 -13.5h262q20 0 32.5 14t12.5 35v324q0 132 -49 184q-48 51 -127 51q-77 0 -125 -51q-52 -52 -52 -184v-326z" />
<glyph d="M127 367v188q0 170 90 270q96 111 262 111h131q20 0 32.5 13.5t12.5 33.5v320q0 134 -47 184q-54 57 -129 57q-77 0 -125 -51q-51 -51 -51 -184v-95q0 -22 -14.5 -36.5t-36.5 -14.5h-72q-22 0 -37.5 14.5t-15.5 36.5v109q0 169 88 270q100 111 264 111q168 0 264 -111 q88 -98 88 -270v-1266q0 -36 -20 -53q-17 -14 -45 -14q-26 0 -55 22l-9 6q-23 17 -47 17q-7 0 -18 -4t-29.5 -11t-32.5 -12q-68 -22 -124 -22q-59 0 -118 24t-95 60q-57 61 -84 122.5t-27 174.5zM260 1839q0 16 27 47l147 180q21 25 47 25t47 -25l148 -180q26 -30 26 -47 q0 -19 -13 -32t-34 -13q-14 0 -34 16l-95 72q-30 21 -45 21q-17 0 -43 -21l-96 -72q-20 -16 -35 -16q-21 0 -34 13t-13 32zM303 381q0 -133 51 -184q49 -52 125 -52q78 0 127 52t49 184v348q0 45 -45 45h-133q-71 0 -125 -57q-49 -52 -49 -185v-151z" />
<glyph d="M127 367v956q0 169 88 270q100 111 264 111q168 0 264 -111q88 -98 88 -270v-483q0 -29 -18 -47.5t-45 -18.5h-420q-45 0 -45 -45v-348q0 -133 51 -184q49 -52 125 -52q78 0 127 52t49 184v111q0 21 16 36t38 15h71q22 0 36.5 -14.5t14.5 -36.5v-125q0 -173 -88 -271 q-95 -110 -264 -110q-165 0 -264 110q-88 101 -88 271zM260 1839q0 16 27 47l147 180q21 25 47 25t47 -25l148 -180q26 -30 26 -47q0 -19 -13 -32t-34 -13q-14 0 -34 16l-95 72q-30 21 -45 21q-17 0 -43 -21l-96 -72q-20 -16 -35 -16q-21 0 -34 13t-13 32zM303 983 q0 -20 12.5 -33.5t32.5 -13.5h262q20 0 32.5 14t12.5 35v324q0 132 -49 184q-48 51 -127 51q-77 0 -125 -51q-51 -51 -51 -184v-326z" />
<glyph d="M127 367v188q0 170 90 270q96 111 262 111h131q20 0 32.5 13.5t12.5 33.5v320q0 134 -47 184q-54 57 -129 57q-77 0 -125 -51q-51 -51 -51 -184v-95q0 -22 -14.5 -36.5t-36.5 -14.5h-72q-22 0 -37.5 14.5t-15.5 36.5v109q0 169 88 270q100 111 264 111q168 0 264 -111 q88 -98 88 -270v-1266q0 -36 -20 -53q-17 -14 -45 -14q-26 0 -55 22l-9 6q-23 17 -47 17q-7 0 -18 -4t-29.5 -11t-32.5 -12q-68 -22 -124 -22q-59 0 -118 24t-95 60q-57 61 -84 122.5t-27 174.5zM303 381q0 -133 51 -184q49 -52 125 -52q78 0 127 52t49 184v348q0 45 -45 45 h-133q-71 0 -125 -57q-49 -52 -49 -185v-151zM317 1831q0 12 25 47l119 160q20 26 36.5 33.5t49.5 7.5h94q21 0 33 -12.5t12 -30.5q0 -27 -29 -47l-256 -187q-22 -16 -41 -16q-20 0 -31.5 13t-11.5 32z" />
<glyph d="M127 367v956q0 169 88 270q100 111 264 111q168 0 264 -111q88 -98 88 -270v-483q0 -29 -18 -47.5t-45 -18.5h-420q-45 0 -45 -45v-348q0 -133 51 -184q49 -52 125 -52q78 0 127 52t49 184v111q0 21 16 36t38 15h71q22 0 36.5 -14.5t14.5 -36.5v-125q0 -173 -88 -271 q-95 -110 -264 -110q-165 0 -264 110q-88 101 -88 271zM203 1909v65q0 22 14.5 36.5t36.5 14.5h65q22 0 37 -14.5t15 -36.5v-65q0 -22 -15 -36.5t-37 -14.5h-65q-22 0 -36.5 14.5t-14.5 36.5zM303 983q0 -20 12.5 -33.5t32.5 -13.5h262q20 0 32.5 14t12.5 35v324 q0 132 -49 184q-48 51 -127 51q-77 0 -125 -51q-51 -51 -51 -184v-326zM594 1909v65q0 22 14.5 36.5t36.5 14.5h66q22 0 36.5 -14.5t14.5 -36.5v-65q0 -22 -14.5 -36.5t-36.5 -14.5h-66q-22 0 -36.5 14.5t-14.5 36.5z" />
</font>
</defs>
</svg>
