<svg xmlns="http://www.w3.org/2000/svg" fill="none" viewBox="0 0 500 1093">
  <g clip-path="url(#a)">
    <path fill="url(#b)" fill-opacity=".1"
      d="M-377.838 0c.319 4.231 3.002 7.477 4.729 11.098 3.564 7.487 2.786 10.742-3.199 16.118-14.513 13.04-22.768 29.336-24.992 48.774-1.097 9.598-2.176 19.167-1.97 28.867.16 7.384 2.571 14.176 7.083 19.42 14.653 17.065 30.348 33.173 50.077 44.572 8.105 4.681 16.567 8.734 24.85 13.087 5.366 2.824 9.597 6.717 12.59 12.13 5.028 9.091 9.634 18.191 8.733 29.064-.178 2.121.601 4.306.751 6.474 1.267 18.003-6.257 32.61-17.871 45.528-5.507 6.117-13.565 7.984-20.554 11.596-8.706 4.503-16.624 9.841-21.877 18.416-.638 1.041-1.614 1.904-2.505 2.767-9.062 8.791-10.751 19.861-5.985 30.509 7.805 17.44 20.592 30.387 40.02 35.124 4.24 1.032 8.452 1.455 12.927.563 18.875-3.752 34.401-12.674 45.208-28.838 7.608-11.38 16.689-21.343 27.168-30.078 5.844-4.869 12.411-5.844 19.719-3.94 19.128 4.963 38.275 9.898 57.488 14.532 8.199 1.98 16.754 1.032 25.104 2.186 20.329 2.814 40.085 7.374 58.125 17.722 5.544 3.18 11.323 5.957 16.84 9.184 7.157 4.194 12.673 10.01 16.36 17.534 1.023 2.083 2.186 4.306 3.865 5.817 5.16 4.653 4.963 11.276 6.192 17.14.731 3.499-1.801 7.561-1.745 11.352.122 7.674-4.681 13.809-5.816 20.967-1.154 7.224-3.856 13.763-7.365 20.077-4.887 8.8-12.88 14.232-21.257 18.988-7.214 4.1-15.648 5.113-23.397 7.918-.582.206-1.21.432-1.811.422-16.801-.206-33.584 3.706-50.329.826-6.67-1.145-13.218-1.745-19.926-1.783-18.349-.084-32.928 7.036-43.35 22.291-2.336 3.415-2.627 7.524-3.865 11.267-4.55 13.678-1.745 27.591-2.524 41.363-.206 3.659.169 7.637 2.214 10.367 3.246 4.343 2.505 8.227 1.342 12.871-1.408 5.601-1.257 11.483.215 17.131 1.595 6.126 1.717 12.196-1.454 17.703-5.047 8.753-8.518 18.388-15.056 26.315-5.46 6.614-11.399 12.665-18.003 18.153-5 4.156-6.914 9.691-6.811 16.212.216 13.425.057 26.868.207 40.293.037 3.528-.779 6.764-1.914 10.029-1.294 3.687-3.649 4.25-6.998 2.833-8.546-3.612-14.335-10.319-19.522-17.599-2.252-3.162-3.987-6.699-6.07-9.992-3.049-4.831-2.964-9.484-.197-14.532 2.495-4.54 5.619-8.64 5.751-14.522.337-14.476-7.196-23.642-18.659-30.65-7.308-4.465-15.001-8.377-21.877-13.415-7.055-5.17-12.421-12.253-16.924-19.739-2.505-4.166-.178-8.678 1.435-12.524 3.19-7.581 2.599-15.311 1.942-23.041-.441-5.17-3.171-9.373-7.72-12.206-15.657-9.766-40.865-13.922-58.013-1.914-6.258 4.381-11.22 9.626-12.233 17.91-.864 7.101-5.789 12.599-8.856 18.847-7.636 15.592-13.95 31.513-15.085 49.216-.525 8.255-6.117 14.316-12.88 18.556-11.943 7.487-25.011 9.269-38.623 5.517-14.437-3.978-29.147-6.483-43.95-8.509-2.833-.385-5.47-1.295-7.965-2.59-7.139-3.715-14.85-5.61-22.693-6.876-16.905-2.73-26.436-21.268-19.588-36.926 4.006-9.147 10.366-17.037 13.312-26.691.507-1.669 2.036-3.152 3.368-4.428 5.066-4.869 6.914-11.06 7.148-17.749.254-7.299.179-14.42-3.17-21.465-4.438-9.335-12.111-12.637-21.352-13.463-7.458-.666-14.963-.197-22.28 1.754-8.772 2.336-13.865 8.885-18.753 15.93-6.407 9.241-10.732 19.617-16.67 29.121-3.19 5.112-5.094 11.004-8.275 16.23-6.36 10.451-15.328 17.28-27.196 20.104-8.527 2.027-16.126 5.695-22.542 11.671-3.218 3.002-6.942 5.272-10.61 7.618-6.989 4.456-13.265 9.897-19.457 15.292-5.188 4.521-10.985 5.056-17.13 5.863-6.905.91-11.989-.704-14.841-7.683-1.088-2.665-3.18-5.01-5.15-7.196-5.432-6.042-6.877-13.416-7.167-21.099-.554-14.72-12.89-27.788-27.478-26.597-12.12.995-21.07-4.184-30.564-9.963-5.516-3.349-9.456-7.637-13.321-12.656-9.522-12.346-16.126-26.277-22.505-40.256-4.925-10.807-5.826-22.863-8.152-34.449-.526-2.627-.863-5.413-2.205-7.58-3.115-5.066-.882-8.669 2.767-11.718 6.745-5.629 12.271-12.355 18.05-18.894 3.658-4.147 6.726-8.594 9.353-13.378 7.186-13.115 15.685-25.471 21.858-39.177 5-11.099 1.801-23.154-7.411-31.11-8.218-7.092-16.755-13.837-24.063-22.093-6.013-6.802-13.649-12.252-20.91-17.853-12.431-9.588-16.877-27.366-9.269-40.96 3.743-6.68 9.24-12.168 15.873-16.183 9.606-5.817 18.837-12.102 27.871-18.81 9.897-7.355 21.324-11.38 33.913-11.952 18.866-.863 37.365 1.417 55.527 6.135 10.329 2.684 19.4 8.181 28.069 14.457 5.816 4.203 9.324 9.457 12.073 16.043 3.218 7.721 8.49 14.56 12.036 22.168 7.186 15.442 17.458 29.074 25.123 44.234 3.959 7.834 10.375 14.007 16.745 19.992 10.235 9.626 20.958 18.801 33.2 25.687 13.575 7.646 28.097 11.37 43.257 4.25 10.403-4.888 16.051-13.707 18.03-24.702 5.113-28.407-2.392-53.184-22.759-73.664-10.009-10.075-20.882-19.269-34.138-25.029-3.583-1.558-5.694-4.682-7.111-7.778-2.176-4.756-4.943-9.25-5.891-14.663-1.745-9.963-8.912-15.405-17.88-18.641-3.152-1.135-4.719-3.096-5.864-6.051-4.23-10.883-7.711-22.356-15.872-31.044-16.22-17.262-34.936-30.18-59.946-30.039-13.743.084-27.224-2.655-40.874-3.49-11.501-.704-22.843-2.787-34.288-3.941-3.161-.319-5.994-1.585-9.081-2.092-11.942-1.951-23.603.3-35.263 2.149-5.535.872-9.626 4.878-13.96 8.199-11.416 8.744-23.049 17.075-37.13 21.259-3.753 1.116-6.689.778-10.169-.957-8.321-4.137-14.841-10.817-22.806-15.414-11.689-6.745-23.509-11.858-37.581-12.731-13.903-.863-27.587-.591-41.367.526-5.85.469-9.97-1.896-13.48-6.633-6.14-8.256-12.19-16.54-16.99-25.743-1.69.966-.97 2.364-.98 3.443-.06 9.372.63 18.81-.24 28.098-.76 8.152 3.02 13.49 9.04 16.933 6.18 3.528 9.62 8.153 12.38 14.579 6.2 14.448 17.23 24.552 31.49 31.175 5.513 2.561 10.888 5.394 16.019 8.725 6.511 4.212 11.38 9.972 14.579 16.699 5.103 10.714 8.949 21.943 7.58 34.205-.244 2.195-1.013 4.147-2.383 5.976-5.469 7.308-12.796 12.271-20.854 16.061-14.431 6.792-28.101 14.889-41.751 23.051-7.63 4.55-15.58 8.584-22.85 13.725-1.66 1.173-3.17 2.167-3.12 4.719.17 9.194.06 18.397.06 27.685 2.1.037 2.83-1.576 3.78-2.627 8.47-9.476 19.41-15.423 30.07-21.981 19.16-11.793 39.918-20.761 58.755-32.939 9.475-6.126 17.618-15.057 20.282-26.606 1.876-8.115 1.726-16.98-.037-25.133-3.387-15.62-9.081-30.443-20.357-42.442-7.402-7.88-16.436-13.481-26.155-17.74-7.786-3.415-14.228-8.275-19.968-14.307-.84-.882-1.37-2.064-2.03-3.124-1.85-2.955-.81-4.372 2.47-4.381 6.24-.029 12.623-.751 18.702.272 5.685.957 11.502-.094 17.102 1.998 11.107 4.156 20.442 11.014 30.048 17.722 8.696 6.079 17.927 12.89 29.569 10.629 11.051-2.148 21.624-6.173 31.202-12.262 8.021-5.103 16.079-10.179 23.209-16.539 2.58-2.299 5.882-2.411 9.137-2.993 9.184-1.651 18.031-1.051 27.253.619 11.576 2.102 23.312 3.734 35.141 4.475 10.836.675 21.624 2.186 32.44 3.284 2.167.215 4.372.403 6.539.281 17.017-.948 30.948 5.376 43.772 16.418 8.472 7.299 12.271 16.671 16.183 26.259 3.161 7.739 6.21 15.32 13.725 20.029 7.261 4.55 9.7 7.505 13.293 15.001 2.214 4.635 4.296 9.372 6.979 13.735 4.316 7.017 10.282 12.046 17.777 15.995 18.031 9.513 32.994 22.357 40.386 42.273 3.94 10.602 3.865 21.409 1.633 32.217-1.37 6.642-7.365 9.287-15.16 8.068-9.034-1.417-16.164-6.417-23.022-11.774-9.559-7.477-18.978-15.114-26.886-24.495-5.432-6.436-8.18-14.307-12.711-21.165-9.532-14.447-16.596-30.293-25.705-44.966-2.486-4.006-3.358-8.678-5.61-12.843-5.863-10.845-16.023-16.802-25.77-23.107-17.233-11.136-36.952-14.691-56.831-16.821-18.462-1.979-37.065-2.936-55.03 3.659-9.409 3.462-18.133 8.049-25.995 14.523-5.985 4.925-12.711 9.034-19.391 13.012-18.199 10.836-30.516 25.799-34.166 47.114-.994 5.816-.488 11.783 1.614 17.009 4.362 10.854 9.559 21.436 18.34 29.608 3.865 3.602 8.19 6.717 12.111 10.263 11.182 10.132 22.233 20.405 33.416 30.537 2.645 2.392 3.48 4.559 1.529 8.012-10.62 18.829-19.86 38.558-35.048 54.403-4.841 5.048-10.582 9.204-14.729 14.955-1.163 1.613-3.03 1.322-4.746 1.36-6.079.112-12.271-.432-18.219.535-9.268 1.501-15.957 7.477-21.239 14.963-2.364 3.349-5.244 6.033-8.283 8.772-25.864 23.313-29.551 63.278 1.022 85.85 10.263 7.581 20.433 15.273 30.677 22.872 1.792 1.323 3.386 2.759 4.353 4.794 6.285 13.219 11.773 26.635 13.771 41.373 1.407 10.395 2.608 20.93 8.809 30.171 8.875 13.237 13.622 14.56 28.669 12.037 7.889-1.323 14.681-5.207 20.667-10.367 2.486-2.148 3.508-2.186 5.619.75 5.46 7.609 4.559 13.21-4.109 17.816-5.122 2.721-9.212 6.895-13.809 10.376-9.325 7.064-19.851 12.337-29.007 19.664-5.947 4.756-9.296 10.62-9.465 18.406-.404 18.501 5.929 34.083 19.494 46.748 3.968 3.706 4.719 9.335 1.801 13.988-9.034 14.373-31.774 21.578-46.784 6.436-2.533-2.552-4.324-5.798-5.572-9.128-4.991-13.238-9.503-26.775-11.53-40.707-1.482-10.179-.337-20.817 3.059-30.837 3.602-10.648 6.782-21.324 6.876-32.732.038-4.935 1.97-9.682 1.792-14.776-.385-10.986-1.895-21.746-5.826-32-4.071-10.63-12.533-16.831-22.365-22.075-9.465-5.047-19.578-8.941-28.34-15.283-7.036-5.103-10.938-12.064-11.98-20.658-.75-6.191-2.801-12.186-3.551-18.284-2.3-18.829-3.13-37.545 6.234-55.248 4.541-8.584 5.554-18.21 6.999-27.854 1.773-11.83 5.112-23.529 13.949-33.004 12.684-13.603 28.003-23.707 42.778-34.599 4.138-3.049 8.331-6.014 12.477-9.053 12.252-8.979 8.509-32.995-4.277-41.101-10.198-6.454-20.583-6.332-31.427-3.771-7.58 1.792-14.729 5.338-22.234 7.158-15.619 3.79-29.649 11.276-44.239 17.468-11.51 4.888-20.36 12.525-25 24.467-.68 1.736-1.32 3.678-2.55 4.991-6.08 6.464-6.78 14.213-6.44 22.582.41 10.132.09 20.292.09 30.94 9.95-6.417 16.09-15.076 18.52-26.137 1.1-4.972 2.42-9.579 5.75-13.556 2.42-2.89 4.02-6.352 5.36-9.842 2.26-5.901 6.34-9.728 12.12-12.158 6.9-2.89 13.734-5.976 20.479-9.213 5.225-2.505 10.469-4.662 16.211-5.826 9.503-1.913 18.03-6.886 27.486-9.137 3.284-.779 6.511-.892 9.738-.582 2.336.225 4.484 1.389 5.16 4.081.675 2.73-1.192 3.809-3.04 5.132-15.985 11.389-32.374 22.318-46.765 35.725-10.704 9.972-19.139 21.549-22.829 36.278-2.27 9.063-4.51 17.984-5.3 27.375-.41 4.926-2.99 9.823-5.23 14.42-3.88 7.927-6.99 16.108-7.34 24.917-.57 14.57-2.15 29.233 1.88 43.634 1.3 4.653 1.93 9.419 2.67 14.194 2.39 15.517 10.05 27.741 23.363 36.503 10.591 6.961 22.533 11.343 33.218 18.135 3.856 2.448 6.445 5.347 7.796 9.428 3.471 10.48 4.428 21.015 2.636 32.132-1.332 8.275-1.323 16.877-4.512 24.674-5.516 13.471-5.863 27.572-6.379 41.719-.16 4.288.731 8.444 1.904 12.421 4.737 16.043 7.139 32.93 16.389 47.396 9.015 14.1 21.933 21.587 38.697 22.544 16.258.928 29.982-4.841 41.54-15.893 5.807-5.554 10.441-12.074 11.698-20.32.394-2.589 1.623-3.696 4.128-4.203 12.758-2.561 22.655-9.419 29.335-20.574 6.126-10.244 14.653-18.585 21.783-28.022 4.55-6.023 12.167-6.089 18.706-7.431 12.205-2.504 24.513-1.06 36.68 1.145 9.906 1.801 19.297.488 27.824-4.972 11.614-7.449 22.018-16.014 29.514-28.079 5.741-9.241 13.593-17.037 21.933-24.092 3.217-2.721 7.261-4.109 11.642-4.287 2.88-.113 4.568.675 4.156 3.912-.076.619.093 1.266-.038 1.867-3.884 18.613-3.527 38.286-13.997 55.248-5.638 9.128-10.76 18.594-20.46 24.401-4.024 2.411-8.133 3.8-12.768 3.828-8.255.056-16.435.037-24.672-1.623-5.873-1.192-11.942-.254-17.946 1.707-8.246 2.693-17.233 2.927-25.245 6.548-6.116 2.768-13.18 2.815-18.809 6.755-8.612 6.032-12.993 14.907-16.089 24.57-2.664 8.322-7.552 15.32-12.843 22.113-1.998 2.561-4.878 3.827-7.448 5.572-12.543 8.481-24.26 18.003-35.545 28.07-2.205 1.97-4.363 4.024-6.708 5.807-4.203 3.199-9.006 1.848-13.471 1.06-18.547-3.246-36.465-9.363-55.152-12.111-13.378-1.971-26.614-4.954-40.011-6.718-11.848-1.557-22.543 1.736-31.209 10.451-.98.985-2.1 1.933-3.33 2.543-10.62 5.328-19.95 12.74-30.19 18.678-4.97 2.881-10.39 1.698-15.6 1.605-4.28-.085-5.83 1.116-5.46 5.488.38 4.494.19 9.053.05 13.584-.08 2.552.76 3.34 3.42 3.64 16.57 1.867 30.68-3.452 43.13-14.081 1.41-1.201 3.03-2.271 4.7-3.049 7.397-3.462 14.282-7.656 20.39-13.116 3.78-3.377 8.18-3.856 13.058-2.992 16.999 3.02 34.082 5.572 51.024 8.884 12.665 2.477 25.095 6.117 37.74 8.715 10.564 2.167 21.521 4.081 31.352-2.148 5.732-3.631 10.732-8.49 15.761-13.115 10.234-9.429 21.37-17.619 33.003-25.218 7.354-4.794 11.951-12.158 16.632-19.363 4.372-6.727 7.421-14.063 9.86-21.653 1.66-5.188 4.803-8.472 10.319-9.607 3.021-.619 5.967-1.801 8.8-3.049 9.231-4.071 19.409-4.268 28.969-7.12 5.3-1.586 10.976 1.491 16.557 2.017 19.963 1.904 38.266-2.139 52.056-17.347 11.577-12.768 20.207-27.713 25.039-44.506 2.636-9.137 3.827-18.509 5.047-27.957.994-7.693 2.833-15.226 2.626-23.097-.29-11.277-10.15-21.09-21.529-21.718-16.38-.901-28.969 5.629-39.908 17.534-8.687 9.447-15.901 20.048-24.4 29.486-6.952 7.721-14.963 16.662-27.196 14.701-12.092-1.942-24.222-3.387-36.286-2.261-14.851 1.388-30.217 3.143-40.602 15.883-8.546 10.488-17.805 20.48-24.794 32.169-1.839 3.077-4.428 5.216-7.458 6.886-4.372 2.421-8.077 3.565-12.974-.413-8.772-7.148-13.519-15.976-15.17-26.878-.638-4.203 1.051-6.801 4.503-9.259 8.631-6.155 18.293-10.789 26.361-17.741 5.094-4.39 10.92-7.74 16.239-11.792 12.439-9.485 17.243-26.353 8.302-41.157-7.927-13.125-12.233-27.61-11.388-43.202.262-4.972 3.893-8.228 7.439-10.761 5.075-3.63 11.22-4.484 17.43-3.584 2.936.423 4.662 2.346 5.038 5.367.675 5.394 1.322 10.798 2.035 16.192.976 7.402 6.173 12.487 10.301 18.06 2.514 3.405 4.953 6.82 6.801 10.582 3.931 7.993 10.873 11.483 19.119 12.384 8.387.91 16.83-.132 25.198-.985 4.4-.451 8.321-2.674 11.82-5.338 12.74-9.71 25.367-19.589 38.134-29.271 3.237-2.458 6.933-4.447 10.958-5.122 16.041-2.702 27.74-12.703 38.059-23.961 5.066-5.535 6.97-13.847 11.07-20.414 4.944-7.918 7.927-16.868 13.452-24.439.826-1.135 1.886-2.214 2.327-3.499 3.677-10.62 12.233-11.089 21.379-10.451 1.52.103 2.721.591 3.509 1.914 1.388 2.326.497 11.173-1.116 13.462-10.31 14.56-19.429 30.124-23.585 47.321-4.493 18.594 1.82 37.273 19.626 48.559 9.062 5.741 18.603 9.128 28.819 11.398 1.96.441 3.996.957 5.75 1.895 9.588 5.132 20.095 6.295 30.63 7.599 8.03.995 15.929 2.852 23.725 5.057 20.76 5.873 40.948 4.906 59.41-6.867 13.931-8.885 23.388-21.137 24.401-38.718.863-15.095 7.439-28.454 14.203-41.673 3.574-6.98 8.321-13.218 9.531-21.596.826-5.723 7.73-5.976 12.702-6.83 4.681-.807 9.278.713 13.809 1.811 6.924 1.679 8.265 4.137 6.051 10.939-2.326 7.13-4.456 14.26-4.081 21.924.169 3.547.929 6.774 2.871 9.72 9.681 14.738 20.62 28.06 36.98 36.118 4.391 2.168 8.744 4.785 12.853 7.599 5.825 3.988 6.322 6.483 3.33 12.853-1.961 4.184-4.456 8.003-5.516 12.778-2.392 10.817 1.942 19.448 7.251 28.098 3.593 5.844 7.393 11.501 11.774 16.811 7.58 9.175 16.989 15.583 28.303 18.979 14.025 4.203 21.802-1.548 29.25-13.087 3.809-5.901 5.376-12.862 5.282-20.105-.169-12.965-.019-25.93-.188-38.886-.037-3.134 1.032-5.123 3.499-7.065 11.933-9.39 20.733-21.408 27.506-34.842 2.589-5.142 5.647-10.011 7.936-15.358 4.156-9.654 4.137-19.364 2.139-29.317-1.313-6.511-1.248-6.399 4.953-5.967 11.23.779 22.421-.131 33.463-2.223 5.047-.957 10.019-2.458 15.197-2.308 16.718.478 32.525-4.766 48.717-7.599 9.165-1.605 18.452-2.562 27.683-3.791 2.871-.384 3.63 1.389 4.231 3.8 1.689 6.736 2.768 13.369.047 20.133-1.538 3.828-1.444 8.087-1.341 12.018.431 15.61-5.695 30.874-3.152 46.372 2.13 13.022 2.814 25.978 2.692 39.084-.037 4.072-.929 7.505-2.908 11.342-10.432 20.264-7.224 35.293 9.56 49.506 6.51 5.517 13.049 11.099 21.041 14.608 17.308 7.599 33.894 6.126 50.067-3.378 12.946-7.599 26.333-9.297 40.705-3.584 15.507 6.164 31.315 7.684 47.356 1.107 4.081-1.669 8.819-1.726 13.256-2.514 7.927-1.416 15.385-4.099 21.924-8.856 2.439-1.773 4.925-2.477 7.852-2.336 16.135.751 30.864-3.49 44.138-12.665 3.302-2.289 6.951-1.736 10.432-1.463 13.162 1.041 26.351 1.669 39.363 4.503 13.162 2.87 22.862 10.104 30.123 21.108.685 1.041 1.248 2.205 2.083 3.105 12.477 13.519.122 33.352-16.033 34.384-6.332.403-12.739.3-19.072 1.416-9.962 1.755-18.565-3.264-27.383-6.576-16.905-6.361-33.979-11.22-52.347-10.31-9.588.478-18.096 3.095-24.982 9.906-5.253 5.207-7.148 12.215-7.974 19.064-1.539 12.834-1.792 25.808.234 38.661.582 3.687 2.045 7.196 3.819 10.526 1.444 2.721 1.116 4.991-1.314 7.055-13.152 11.183-13.049 24.824-7.279 39.534 3.649 9.306 6.463 18.81 6.763 28.932.113 3.894-1.632 6.586-4.709 8.566-10.695 6.895-29.813 6.389-40.076-.891-2.346-1.661-4.11-3.828-4.034-6.502.253-8.772-1.558-17.365-1.867-26.062-.441-12.468 3.049-24.373 6.726-36.109 3.171-10.095 5.788-20.368 9.916-30.19 3.068-7.289.403-14.71-1.294-21.981-2.9-12.402-8.94-22.844-18.763-31.072-3.499-2.936-7.599-3.987-11.942-4.906-8.959-1.895-18.096-2.374-27.008-1.267-12.993 1.605-27.262 13.735-20.901 32.742 3.649 10.92 6.266 22.187 11.52 32.582 2.223 4.409 2.927 8.79-1.905 12.9-5.094 4.334-6.398 11.295-9.522 17.008C9.238 880.71 3.29 888.178.148 897.034c-6.464 18.2-5.291 35.978 3.827 53.24 7.036 13.313 14.804 26.043 26.08 36.25 7.533 6.821 16.239 12.131 24.663 17.676 8.987 5.91 11.98 18.55 10.779 27.61-.14 1.07-.647 1.64-1.698 1.9-13.152 3.29-26.248 3.96-37.534-4.81-5.554-4.31-10.939-9.23-15.207-15.04-3.621-4.92-7.692-9.37-12.486-13.21-3.847-3.074-5.413-7.605-6.107-12.277-2.458-16.653-9.213-31.325-20.48-43.756-5.13-5.657-10.422-10.807-12.964-18.472-3.434-10.385-10.563-17.497-21.69-19.945-6.407-1.417-12.28-.873-18.574 1.763-9.569 4.006-18.856 8.397-26.511 15.311-7.083 6.398-14.635 12.721-17.083 22.788-2.749 11.305.966 20.302 9.794 27.3 7.261 5.76 15.45 9.813 24.231 12.881 9.128 3.18 16.717 8.274 22.3 16.787 6.547 10 2.86 16.34-5.526 21.91-5.713 3.8-11.014 8.12-16.69 11.94-8.152 5.48-16.548 10.22-25.76 13.85-7.618 3-14.597 7.63-21.896 11.46-5.985 3.14-12.345 5.55-19.137 5.24-15.019-.68-27.665 4.55-38.998 14.02-3.771 3.15-8.199 5.52-11.567 10.51 14.776-.7 28.904 1.19 42.938-1.27 2.495-.44 4.944-.62 7.43-.58 11.707.2 22.43-3.12 32.337-9.16 9.587-5.85 20.066-9.88 30.104-14.8 10.169-5 18.997-11.83 28.124-18.34 5.282-3.76 11.117-6.55 15.226-12.05 3.968-5.31 7.796-10.7 9.644-16.97 2.767-9.4-1.314-17.78-5.713-25.717-8.668-15.639-22.646-24.43-39.251-29.777-4.766-1.539-8.96-4.372-13.049-7.28-3.002-2.139-2.89-4.86-.779-7.224 6.605-7.355 13.8-13.997 23.481-17.187a23.14 23.14 0 0 0 1.754-.657c9.325-3.968 11.258-3.433 14.682 6.145 2.552 7.13 6.576 12.956 11.97 18.116 10.958 10.498 17.046 23.332 19.382 38.417 1.257 8.104 4.306 16.224 10.994 21.734 8.969 7.4 15.714 16.82 23.754 25.07 16.538 16.96 36.389 20.27 58.491 16.62 1.689-.28 3.358-.76 5.056-.82 12.993-.53 18.594-5.55 19.448-18.34.46-6.84 1.097-13.93-.16-20.58-2.43-12.85-8.312-24.003-19.766-31.546-7.542-4.962-15.028-10.056-22.158-15.582-4.794-3.715-8.603-8.659-11.952-13.697-5.253-7.9-10.713-15.968-13.256-25.124-4.165-14.964.029-28.623 8.922-41.016 3.48-4.841 6.107-10.141 8.246-15.705.966-2.505 2.364-4.719 4.41-6.529 6.876-6.098 8.292-13.96 7.166-22.6-.769-5.93-2.683-11.493-5.375-16.831-3.893-7.711-5.328-16.277-8.227-24.345-1.032-2.88 0-4.728 3.555-4.86 5.648-.206 11.21.582 16.774 1.154 4.568.469 7.355 3.987 9.503 7.627 3.518 5.986 4.578 12.872 6.341 19.486.3 1.116-.215 2.111-.59 3.152-7.065 19.317-13.434 38.868-16.643 59.226-1.154 7.327-.816 14.898.141 22.384.685 5.394.197 10.92.675 16.352 1.642 18.322 13.416 27.554 29.739 32.517 15.263 4.643 30.254 3.799 44.626-3.096 16.689-8.003 24.682-23.051 19.372-43.137-2.43-9.184-4.634-18.406-8.049-27.319-2.486-6.473-1.229-9.334 4.325-13.659 6.745-5.245 10.647-16.915 6.416-25.94-5.544-11.811-4.944-23.914-4.925-36.185 0-.938-.122-1.914.094-2.805 2.251-9.391 2.392-12.318 13.79-12.712 14.869-.506 28.904 3.462 42.056 9.513 18.631 8.575 37.637 7.881 57.253 6.089 10.366-.948 18.35-6.023 26.108-11.521 4.944-3.499 8.171-9.316 10.788-15.029 7.149-15.573 4.231-29.833-5.188-43.587-6.857-10.019-14.569-19.035-25-25.405-9.644-5.891-20.592-7.702-31.436-10.019-10.892-2.327-22.009-1.67-32.957-3.35-8.555-1.313-17.054.301-24.419 5.779-8.565 6.361-18.405 9.138-28.978 8.857-8.987-.244-17.214.807-24.391 7.186-3.846 3.424-9.409 4.109-14.494 4.794-6.52.872-12.768 2.392-19.016 4.531-9.54 3.274-18.706.225-27.768-2.983-7.167-2.543-14.325-5.395-22.195-4.935-12.421.723-24.504 2.965-35.255 9.541-17.29 10.564-29.485 6.774-44.335-6.163-1.764-1.539-3.377-3.247-5.02-4.916-5.703-5.845-6.097-12.243-.918-18.688 3.47-4.316 5.281-8.941 4.99-14.626-.356-6.858-.272-13.744-.037-20.611.31-9.41-.91-18.613-2.636-27.836-.854-4.549-1.192-9.428.422-13.894 1.792-4.972 2.082-9.991 2.139-15.169.103-9.495.788-18.848 3.227-28.192 2.064-7.899.375-16.146-1.792-23.998-1.726-6.276 1.088-10.939 5.563-14.241 3.818-2.824 8.556-1.848 12.852.197 13.209 6.276 25.986 13.444 40.086 17.872 6.079 1.904 12.27 2.617 18.35 2.908 13.546.657 26.905 3.33 40.517 3.124 5.806-.084 9.897-2.505 13.565-6.886 4.85-5.798 8.377-12.355 12.073-18.838 6.38-11.192 3.565-23.407-4.409-34.759-9.212-13.096-23.537-15.47-36.502-20.883-5.554-2.317-11.52-3.837-17.608-4.531-2.965-.338-5.939-.732-8.79.3-6.314 2.289-12.412.666-18.275-1.323-6.642-2.261-6.951-5.075-7.073-14.147-.15-11.371 13.65-28.83 23.772-31.775 7.673-2.243 13.311.112 19.156 4.043 6.257 4.203 11.407 9.644 16.858 14.767 8.105 7.617 18.265 11.126 28.819 13.725 3.02.741 6.032 1.548 8.996 2.495 6.173 1.989 10.545 5.77 12.261 12.309 3.518 13.406 7.43 26.709 10.667 40.181 3.011 12.505 10.441 21.849 20.01 29.711 6.435 5.282 14.287 5.948 22.214 5.029 4.231-.488 7.73-2.984 9.832-6.586 6.351-10.93 10.685-22.234 8.462-35.481-1.38-8.228-2.946-16.549-2.43-25.068.178-3.039 1.107-5.131 3.64-6.473 5.778-3.058 11.182-6.848 17.58-8.715 2.045-.601 4.071-1.689 5.779-2.974 5.6-4.222 11.229-8.387 16.914-12.496 7.12-5.151 10.976-13.059 15.451-20.358 1.219-1.989 2.092-4.184 3.105-6.295 3.799-7.946 9.128-12.9 18.865-13.172 22.018-.629 41.559-9.128 59.299-21.596 8.611-6.051 16.867-12.806 21.914-22.61 3.237-6.285 8.424-11.164 13.274-16.22 2.364-2.468 4.081-2.777 5.188 1.332 1.998 7.402 2.664 14.982 3.893 22.497 1.792 10.929.404 21.802-.272 32.629-.882 14.034-6.201 26.69-19.907 32.319-9.296 3.818-19.541 6.53-30.085 5.122-11.295-1.51-22.59-2.495-33.969-.675-3.162.506-5.92 1.904-8.809 3.011-3.199 1.229-6.248 3.143-9.55 3.762-9.513 1.802-16.567 7.449-23.35 13.744-3.471 3.227-6.801 6.577-8.067 11.258-3.246 11.99-10.47 22.272-14.363 33.98-1.482 4.456-2.636 8.922-2.711 13.688-.056 3.574-.957 7.083-2.205 10.469-1.688 4.569-2.945 9.288-2.392 14.185.694 6.145-1.951 11.155-5.685 15.339-4.1 4.597-8.987 8.443-13.903 12.299-6.623 5.198-13.443 5.141-20.91 5.395-17.299.581-34.579-.601-51.869-.282-11.023.197-19.269 4.025-24.991 14.044-7.196 12.59-18.79 15.968-32.215 10.564-5.788-2.336-11.576-4.597-17.73-5.892-2.561-.544-5.31-1.304-7.383-2.777-5.132-3.658-10.789-5.46-16.924-6.135-6.492-.713-12.993-1.342-19.475-2.177-13.95-1.81-31.99 9.288-35.217 25.246-2.448 12.102-4.137 24.045-1.05 35.997 2.72 10.517 8.133 20.077 16.21 27.366 6.632 5.976 15.638 6.595 24.269 6.924 7.186.272 14.315.638 21.145 3.189 1.304.488 2.711 1.023 4.072 1.014 14.343-.029 28.575 2.129 42.88 2.12 3.425 0 6.868-1.914 10.282-2.993 12.262-3.884 25.029-6.182 37.675-5.751 15.066.516 29.71-2.129 44.542-3.199 10.873-.779 16.389-6.576 19.222-17.375.825-3.133.619-6.933 2.889-9.231 2.984-3.011 5.854 1.116 8.959 1.295 8.152.478 15.113 4.606 22.365 7.805 6.604 2.918 13.312 5.479 20.732 3.509 1.492-.394 3.265-.732 4.278-1.726 5.619-5.554 12.12-1.708 18.218-1.952 1.004-.037 1.717.807 1.867 1.811 1.867 12.158 9.644 21.465 15.291 31.803 8.171 14.945 17.496 29.102 28.819 41.879 1.239 1.398 2.289 3.003 3.668 4.231 9.203 8.209 11.577 19.195 12.44 30.706.356 4.804-2.336 8.387-5.517 11.905-10.394 11.483-17.608 24.918-21.942 39.703-1.839 6.276.15 13.125-.872 19.57-.985 6.211-.197 12.046 1.2 18.003 3.678 15.705 13.884 25.293 28.613 30.499 5.272 1.867 10.769 2.956 16.464 3.143 7.186.235 12.036-3.152 14.831-9.325 3.969-8.79 6.689-18.088 11.286-26.662 3.912-7.299 9.043-13.444 15.047-18.951 3.649-3.349 10.132-4.24 14.391-1.557 8.434 5.31 16.811 10.751 24.832 16.652 5.947 4.381 5.328 11.502.272 17.009-7.364 8.011-14.419 16.399-19.822 25.921-2.233 3.94-5.179 7.008-8.744 9.531-5.338 3.781-10.694 7.571-16.332 10.855-5.207 3.03-8.828 7.402-11.971 12.233-5.863 9.007-12.261 18.069-14.25 28.68-2.729 14.485-2.326 28.923 3.687 43.102 4.456 10.5 6.023 21.7 2.214 33.24-4.634 14.07-4.69 28.14 1.989 41.86 1.088 2.24 2.223 3.02 4.54 2.98 5.779-.1 11.567-.17 17.337.03 3.105.1 4.015-.77 2.692-3.68-.769-1.7-1.21-3.57-2.101-5.2-5.582-10.1-5.469-20.53-2.111-31.24 5.113-16.28 2.317-32.09-3.433-47.54-4.813-12.913-5.789-25.4 1.876-37.596 2.232-3.555 3.48-7.599 5.835-11.164 4.615-6.989 12.233-10.038 18.621-14.56 8.941-6.323 16.164-13.603 22.009-23.06 4.718-7.636 9.915-15.535 17.739-20.883 1.792-1.229 3.096-3.03 4.166-4.991 7.279-13.294 4.146-32.038-7.571-41.635-10.01-8.2-21.126-14.87-32.065-21.793-9.991-6.324-31.577-1.689-39.204 5.309-12.749 11.699-21.21 25.997-27.421 41.87-.891 2.289-1.191 6.126-3.105 6.38-3.386.45-6.979-.938-9.981-3.181-9.185-6.848-9.457-16.483-8.453-26.54.113-1.079.507-2.167.45-3.227-.928-16.118 7.796-27.91 17.412-39.393 7.786-9.288 12.12-19.514 10.103-32.226-2.026-12.824-4.446-25.283-13.705-35.059-7.852-8.284-15.142-17.093-21.427-26.502-8.274-12.393-15.348-25.593-23.237-38.971 5.403-.469 10.103-1.032 14.822-1.248 4.766-.216 9.344-1.135 13.453-3.481 2.889-1.651 3.921-.534 5.356 1.905 7.993 13.603 12.571 28.201 15.507 43.727 2.88 15.254 11.914 26.569 27.703 30.997 4.034 1.135 5.432 4.053 5.6 7.693.901 19.25 11.614 33.276 25.058 45.35 7.514 6.745 16.839 8.931 27.468 7.346 9.174-1.37 18.696-.573 28.068-.469 3.565.037 4.916 3.133 4.709 5.938-1.013 13.791 4.681 25.508 12.064 36.166 7.637 11.033 18.556 18.2 32.112 20.639v-24.364c-6.905-1.604-11.895-5.675-15.254-11.848-3.827-7.037-6.313-14.195-6.501-22.554-.253-11.52-7.524-24.232-20.648-25.865-2.439-.3-3.959-1.472-3.602-4.353.15-1.163-.347-2.439-.666-3.621-2.43-8.884-1.351-17.234 3.762-24.983.806-1.219 1.81-2.139 3.339-2.298 6.323-.666 12.515-2.271 18.978-1.989 6.849.291 13.725.056 20.583.047v-22.497c-15.226.394-30.62-1.295-45.555 2.974-3.781 1.079-5.535-.404-7.111-3.246-1.661-2.993-3.086-6.164-5.066-8.932-5.948-8.312-6.342-13.922-.985-22.656 3.03-4.944 5.31-10.226 7.383-15.601 2.214-5.761 1.895-11.446-1.923-16.381-4.944-6.398-10.291-12.458-16.361-17.871-7.589-6.764-12.599-14.833-11.914-25.528.207-3.274 1.435-4.953 5.047-4.052 13.153 3.283 25.01 9.25 36.183 16.858 7.524 5.123 13.65 11.849 20.873 17.225 5.939 4.418 11.783 9.25 19.429 10.676V635.43c-2.993-.751-5.188-2.739-7.252-4.85-4.165-4.241-8.781-7.937-13.452-11.587-16.446-12.833-34.495-22.478-55.209-26.043-12.636-2.176-22.43 2.449-26.229 15.17-1.877 6.295-2.336 12.6-1.792 18.96.666 7.731 2.167 14.936 7.186 21.709 5.929 7.993 13.077 14.654 19.878 21.7 2.834 2.936 3.171 5.263 1.201 8.574-2.626 4.41-5.3 8.791-6.932 13.744-3.49 10.583-4.738 21.296 1.097 31.222 3.443 5.845 6.98 11.793 11.042 17.196 3.565 4.729 4.268 8.228 1.961 13.895-3.481 8.509-1.811 17.815-1.229 26.821.093 1.464 1.097 4.006-.77 4.006-6.266.01-13.227 2.805-18.677-1.454-9.991-7.796-16.746-17.909-17.656-31.025-.872-12.646-9.353-23.294-21.445-26.305-4.456-1.108-7.205-4.063-9.625-7.618-2.364-3.471-3.134-7.487-3.612-11.483-2.289-19.101-10.826-35.659-21.051-51.449-2.073-3.199-2.364-5.328-.047-8.143 6.323-7.693 5.131-16.633 1.491-24.279-7.467-15.677-20.544-23.595-38.284-23.426-5.816.056-11.333 2.036-17.139 1.951-11.811-.168-21.446 5.508-29.814 12.797-6.426 5.591-11.257 12.778-12.655 21.831-.657 4.231-2.58 8.349-4.447 12.271-1.116 2.355-2.823 5.385-6.351 3.677-10.666-5.169-21.764-8.959-33.143-12.308-12.327-3.622-26.155 2.026-31.239 13.856-1.426 3.331-2.252 6.802-3.293 10.226-.516 1.689-1.023 3.171-3.312 3.265-13.368.544-26.576 3.021-40.039 2.777-11.839-.216-23.546 1.773-35.104 4.4-7.233 1.642-14.118 5.535-21.867 3.949-7.44-1.519-14.926-.816-22.402-.928-3.162-.047-6.314-.385-9.194-1.436-6.557-2.401-13.274-3.321-20.179-3.236-4.55.056-8.977-.788-13.415-1.567-1.36-.235-2.702-.413-3.555-1.867-4.503-7.665-9.25-15.048-8.321-24.73.431-4.54 1.482-8.884 2.204-13.321.929-5.629 4.325-8.66 10.047-8.191 10.573.873 21.005 1.154 31.155 6.249 10.601 5.319 22.45 8.265 33.923 11.68 6.313 1.885 13.077 1.501 19.494.225 13.452-2.683 22.589-11.802 30.882-21.934 1.229-1.501 1.717-3.678 4.306-3.809 3.415-.169 6.764-1.013 10.226-.826 18.396.995 36.811.985 55.226.91 6.004-.028 11.324-1.773 16.014-5.525 1.82-1.455 3.64-3.049 5.723-4.006 8.227-3.819 14.024-10.536 19.512-17.206 4.785-5.826 9.935-12.6 9.625-20.396-.478-12.158 5.601-22.966 5.648-34.871.009-3.152 1.473-5.995 2.542-8.94 2.571-7.065 7.58-13.003 9.569-20.274 1.773-6.501 4.775-11.755 10.404-15.883 3.846-2.824 8.386-3.189 12.308-5.357 10.976-6.051 22.721-6.539 34.869-5.122 20.132 2.336 39.017-.338 56.644-11.811 15.92-10.367 21.914-25.565 23.697-42.883 1.444-14.054 2.064-28.257.319-42.471-1.304-10.563-3.002-20.977-6.924-30.874-6.069-15.33-20.272-19.861-33.65-10.16-9.625 6.98-18.03 15.601-23.744 26.146-4.155 7.655-10.535 12.825-17.289 17.356-15.122 10.151-31.887 15.873-50.274 16.905-7.289.413-14.737 1.727-20.329 7.168-5.957 5.798-11.06 12.355-14.296 20.067-5.882 14.025-16.952 22.947-29.945 29.364-9.409 4.644-18.659 9.363-27.074 15.62-4.691 3.49-7.045 8.19-7.12 14.054-.132 10.301.478 20.48 2.307 30.696 1.004 5.573 2.017 11.709-1.501 17.262-1.388 2.196-2.195 2.468-4.118.629-5.131-4.907-8.199-10.826-9.935-17.666-3.095-12.224-6.679-24.326-9.653-36.578-4.653-19.138-18.171-28.013-36.089-32.244-6.961-1.642-14.363-2.89-19.785-7.9-6.642-6.135-13.077-12.458-20.573-17.599-8.508-5.836-17.514-10.986-28.134-9.541C15.148 418.06.345 434.168-7.976 456.852c-4.381 11.953-4.231 24.374 2.383 35.688 8.968 15.339 27.89 18.904 44.616 16.858 3.48-.431 6.745-.478 10.141.423 8.63 2.279 16.68 6.088 25.02 9.118 4.672 1.699 6.529 5.489 9.437 8.566 4.297 4.559.873 8.209-1.463 12.027-1.05 1.726-1.642 3.752-2.805 5.394-1.801 2.543-3.593 4.25-7.627 3.772-7.702-.92-15.385-2.318-23.228-2.318-15.432 0-29.55-4.728-43.19-11.802-8.369-4.334-16.408-9.963-26.108-11.042-9.335-1.041-18.65-1.773-26.174 6.183-2.711 2.861-6.595 4.606-8.79 8.209-.835 1.36-2.336 2.073-4.043 1.96-3.771-.262-7.486.263-11.145.995-10.357 2.064-20.92 2.402-31.305 4.831-13.706 3.218-27.477 7.102-41.849 6.37-5.057-.253-9.916.92-14.747 2.149-8.378 2.139-16.971 2.308-25.489 2.411-8.724.103-13.443-5.263-13.471-13.941-.028-6.089-.422-12.205 0-18.266.45-6.323 1.332-12.947 5.15-18.097 5.657-7.646 22.956-12.28 32.065-9.053 4.512 1.595 9.024 2.101 13.734 2.242 12.805.385 25.516-.938 38.265-1.52 20.339-.919 38.867-6.267 55.359-18.256 12.467-9.063 21.51-20.771 26.06-35.566 2.327-7.57 3.884-15.367 7.346-22.581.947-1.979.938-4.212 1.098-6.408.244-3.405.271-6.979 1.397-10.132 3.612-10.16 1.023-20.236-2.486-29.129-3.62-9.194-10.572-17.15-16.482-25.349-2.317-3.218-5.047-6.229-8.237-8.866-7.674-6.342-16.943-9.916-25.18-15.207-15.009-9.654-32.12-13.472-48.922-18.022-11.754-3.18-24.025-3.068-36.098-4.278-21.615-2.177-41.85-10.742-63.014-15.208-10.047-2.12-20.028-2.289-29.213 2.383-12.711 6.464-22.289 16.934-31.473 27.535-6.614 7.637-11.642 16.568-19.279 23.445-6.219 5.6-13.987 7.13-21.595 9.147-1.407.375-3.171.084-4.606-.385-10.207-3.33-17.13-10.442-22.186-19.617-1.323-2.392-1.408-5.122.215-7.12 5.179-6.37 9.944-13.116 17.674-17.009 5.151-2.599 10.77-3.922 15.733-7.093 14.39-9.193 23.771-22.234 30.319-37.629.826-1.932 1.286-3.283 3.931-2.064 9.025 4.147 18.678 2.815 28.144 2.665 2.579-.038 5.197-1.201 7.195-3.087 7.505-7.064 13.546-15.348 19.494-23.698.169-.244.225-.581.31-.882 2.861-10.263 7.898-19.673 11.529-29.617 2.167-5.929 5.094-10.939 9.822-15.011 5.16-4.456 7.974-10.282 9.569-16.802.366-1.51.703-3.096 1.444-4.437 9.222-16.709 13.809-35.069 18.444-53.316 2.58-10.188 4.803-21.014-2.739-30.452-6.351-7.946-15.414-12.628-24.936-13.294-12.42-.863-24.794-2.233-37.205-3.124-1.379-.103-3.03.263-3.743-1.304-2.88-6.313-4.269-13.012-1.21-19.429 2.335-4.897 7.898-5.91 12.72-6.323 4.841-.413 9.625-.854 14.25-2.261 9.419-2.87 19.204-1.998 28.754-2.336 7.045-.244 14.306.544 21.464.61 6.848.056 12.523 2.383 17.083 7.327 8.443 9.166 15.554 19.11 17.345 31.906.61 4.316 1.389 8.613 1.755 12.938 1.032 12.392 3.555 24.504-5.92 35.856-9.315 11.164-17.027 23.744-25.395 35.725-9.878 14.156-21.37 27.187-29.363 42.648-4.287 8.293-10.544 15.508-13.415 24.58-2.561 8.087-5.112 16.361-1.013 24.476 6.745 13.359 15.695 25.133 27.787 34.186 6.361 4.757 13.359 7.487 21.689 7.384 11.23-.141 22.403-1.755 33.651-1.154 1.754.094 3.339-.554 4.972-1.154 5.835-2.167 11.604-5.62 17.58-6.051 14.54-1.032 28.931.656 42.318 7.336a90.025 90.025 0 0 0 11.201 4.71c11.276 3.837 19.57 10.901 23.763 22.14 3.809 10.216 8.377 20.152 11.914 30.434 5.347 15.536 16.276 24.27 31.811 26.972 12.243 2.129 23.81 6.069 35.377 10.235 4.062 1.463 8.593 2.477 11.266 6.257 5.892 8.331 14.232 13.876 22.037 20.058 9.559 7.562 19.334 14.982 30.742 19.401 10.582 4.1 21.558 7.243 32.787 9.231 10.535 1.867 21.004 2.843 30.976-2.72 10.423-5.807 19.035-14.044 28.679-20.893 7.157-5.085 12.383-11.755 15.863-19.851.723-1.689 1.951-3.199 3.133-4.635 10.686-12.965 12.665-28.079 6.145-42.592-6.06-13.481-8.34-27.61-12.111-41.504-2.702-9.954-7.552-18.397-15.742-24.814-3.668-2.88-8.17-5.188-10.788-8.837-8.349-11.643-17.261-22.694-27.468-32.779-5.516-5.451-5.197-7.327-.976-13.772 5.779-8.81 13.8-15.621 20.78-23.332 9.118-10.076 13.462-21.24 10.629-34.637-5.882-27.844-33.623-32.779-52.713-21.681-7.402 4.306-14.062 10.292-19.166 17.563-2.598 3.696-5.281 7.242-9.203 9.813-12.561 8.237-26.52 8.068-40.648 7.092-.45-.028-.873-.319-1.314-.488-7.551-2.936-16.463-17.712-15.638-25.79.178-1.716.629-3.011 2.44-3.527 5.543-1.557 10.994-3.771 16.641-4.531 6.089-.826 10.864-3.246 15.123-7.468 6.567-6.501 15.188-10.31 22.12-16.38.873-.76 2.271-1.098 3.472-1.276 6.304-.91 12.523-2.308 18.996-2.139 11.99.31 23.932.45 35.93 1.426 15.592 1.266 31.661 2.467 45.977-6.661.901-.572 2.111-.629 3.058-1.154 7.008-3.903 14.991-6.454 19.326-14.082 3.442-6.079 6.688-12.308 10.61-18.078 7.148-10.488 11.107-21.202 5.197-33.66-1.295-2.73-3.546-6.38-1.042-8.66 2.289-2.083 6.314-1.229 9.363.113 12.055 5.282 24.072 11.08 32.693 21.22 11.436 13.454 16.276 21.231 5.845 38.559-6.389 10.61-13.368 20.574-25.958 25.161-5.619 2.055-10.76 5.648-15.817 9.006-9.672 6.427-15.253 16.437-20.854 26.044-6.951 11.905-8.865 25.827-13.349 38.745-3.378 9.72-2.308 20.368-6.342 30.049-1.745 4.194-4.963 7.637-5.873 12.149-2.804 13.998-1.172 27.357 6.633 39.525 6.229 9.71 12.261 19.504 17.974 29.542 7.571 13.331 17.215 24.927 32.178 30.697 15.863 6.116 23.527 4.306 34.306-8.481a546.32 546.32 0 0 0 13.228-16.259c1.576-2.017 3.565-3.349 6.051-4.174 11.379-3.781 23.34-5.31 34.738-9.082 4.972-1.641 10.319-2.504 15.563-2.936 12.806-1.041 25.376 9.26 29.495 23.266 3.818 12.994 7.889 25.912 12.045 38.802 3.256 10.104 4.175 19.917-1.885 29.411-1.501 2.355-2.59 4.991-3.79 7.524-4.785 10.095-8.518 20.377-7.261 31.916.619 5.723 2.176 10.864 5.562 15.602 8.209 11.511 20.17 18.397 31.606 25.921 1.613 1.06 3.79 1.398 5.769 1.764 10.132 1.895 20.47 1.594 30.658 2.823 7.992.967 15.282-2.88 23.096-2.795v-22.497c-2.495 0-5.15-.572-7.467.084-11.436 3.218-22.928 1.257-34.401.845-3.115-.113-6.501-.113-9.006-1.905-6.576-4.691-13.509-8.837-19.184-14.851-4.569-4.841-5.038-10.019-3.19-15.489 2.692-7.965 5.366-16.192 10.226-23.041 8.283-11.67 5.29-24.382 2.861-36.081-3.331-16.08-9.503-31.597-14.729-47.264-5.234-15.714-14.747-27.591-30.929-33.286-7.533-2.655-14.813-4.925-23.172-3.612-16.342 2.571-31.971 7.928-48.116 11.249-7.092 1.454-14.353 3.921-19.297 9.841-5.375 6.445-11.848 11.98-16.041 19.429-1.567 2.796-3.987 3.396-7.224 2.355-7.946-2.561-13.04-8.566-17.58-14.832-7.674-10.611-12.609-22.957-20.611-33.408-2.795-3.659-4.568-7.927-5.806-12.196-1.323-4.55-1.248-9.213 1.247-13.96 3.978-7.571 6.942-15.676 8.274-24.223 3.462-22.234 7.974-44.065 22.215-62.5 2.345-3.03 4.831-5.544 8.274-7.345 7.327-3.819 14.85-7.412 21.633-12.065 14.935-10.235 23.819-25.255 30.404-41.645 3.415-8.5 3.03-17.609.526-26.221-3.809-13.069-12.196-23.379-22.196-32.32-7.252-6.482-15.854-11.041-24.26-15.789-9.09-5.14-18.772-8.377-29.485-7.533-8.199.647-14.4 4.072-18.528 11.492-5.337 9.598-4.484 19.176-.713 28.811 1.483 3.8 1.558 6.811-1.069 10.263-2.608 3.444-4.231 7.628-6.51 11.352-2.43 3.96-4.269 9.138-7.862 11.343-9.081 5.582-18.584 10.76-29.87 10.985-9.39.188-18.621-1.548-27.946-1.82-10.3-.309-20.62-.084-30.93.047-13.846.178-26.501 3.087-37.599 12.571-10.47 8.941-22.093 16.287-36.277 18.914-19.006 3.518-24.55 18.969-21.858 35.265 1.435 8.687 7.26 15.385 11.163 22.966 4.269 8.284 11.08 12.411 19.157 15.31 11.51 4.138 23.462 3.594 35.132 1.605 14.888-2.533 28.641-8.266 38.313-20.574 4.371-5.563 9.278-10.432 14.456-15.151 5.094-4.644 15.01-5.001 18.359-.657 3.79 4.916 3.18 13.481-1.248 18.2-7.88 8.406-15.741 16.812-23.021 25.771-9.119 11.211-10.742 25.509-5.3 34.909 4.099 7.083 8.78 14.063 15.863 18.754 3.649 2.42 6.042 5.835 8.199 9.428 5.591 9.316 12.393 17.412 21.539 23.538 5.451 3.65 8.697 8.725 10.207 15.508 3.096 13.903 5.272 28.07 12.28 40.979 4.315 7.946 3.302 16.258-3.218 23.397-2.298 2.505-4.259 5.394-5.525 8.631-1.952 5-5.676 8.472-9.832 11.624-4.718 3.574-9.343 7.271-14.043 10.864-6.736 5.141-13.34 9.86-22.872 7.824-12.073-2.58-24.484-4.56-35.263-10.461-15.123-8.283-29.513-17.956-40.49-31.756-2.551-3.199-5.75-5.817-9.502-7.468-15.123-6.651-30.32-12.956-46.916-15.329-5.975-.854-12.89-1.989-15.713-8.594-5.085-11.886-9.344-24.12-14.438-36.006-4.587-10.714-10.488-20.78-21.173-26.578-16.436-8.912-33.068-17.684-51.953-20.142-14.812-1.923-29.85-3.959-43.95 3.546-4.363 2.317-5.404.76-4.944-3.49.112-1.041-.188-2.167-.45-3.218-2.074-8.255.985-15.967 5.122-22.149 5.309-7.918 12.927-14.298 19.569-21.334.638-.675 1.36-1.426 2.41-1.163 7.159 1.81 14.635 1.435 21.484 5.572 12.645 7.656 24.925 16.165 39.053 21.09 12.111 4.222 23.669 9.672 35.273 15.029 4.456 2.064 7.702 5.066 9.194 9.945 1.041 3.415 2.861 6.529 4.634 9.663 10.676 18.96 25.601 32.45 47.375 37.226 9.381 2.054 17.29 5.704 22.552 14.672 5.113 8.734 12.515 15.742 20.095 22.61 6.895 6.238 12.552 13.819 19.991 19.617 8.086 6.304 16.764 11.126 27.365 10.075 12.195-1.201 19.278-4.278 23.584-16.915 2.889-8.471 2.561-17.196 3.584-25.799.863-7.299-1.136-14.063-4.288-20.761-2.776-5.911-6.595-11.417-8.152-17.825-2.805-11.511-10.31-19.101-20.273-24.383-7.917-4.193-13.452-8.893-16.679-18.406-4.775-14.101-17.768-21.634-31.605-25.424-13.406-3.678-26.042-7.89-36.915-17.028-8.218-6.904-17.308-12.683-23.331-21.971-4.747-7.308-11.539-11.84-20.113-14.232-12.796-3.574-22.45-21.803-15.066-34.027 3.114-5.16 5.122-11.014 7.41-16.643 3.003-7.383 4.898-14.944.873-22.572-2.467-4.69-5.544-9.006-8.921-13.124-3.734-4.55-8.33-8.613-9.785-14.626-.628-2.618-1.764-6.023.61-7.862 2.204-1.707 4.625.657 6.68 2.045 14.587 9.823 28.246 21.043 44.316 28.623 7.861 3.706 14.935 9.185 23.819 10.583 7.035 1.107 14.043 1.51 20.329-2.768 15.197-10.329 19.794-30.602 10.563-46.354-2.683-4.569-6.07-8.725-8.753-13.247-5.14-8.687-6.97-19.326 1.539-27.262 4.756-4.438 11.632-5.91 16.923-.901 3.509 3.321 6.961 6.698 10.047 10.46 9.382 11.455 15.658 25.124 26.221 35.772 10.497 10.573 21.933 19.204 36.718 22.92 15.235 3.827 32.074-10.47 30.057-24.627-1.06-7.477-.451-15.17 1.576-22.722 1.688-6.277 1.679-13.05 3.63-19.214C220.098 13.04 228.551 5.02 239.921 0h-36.559c-3.002 6.295-7.917 11.83-9.128 18.8-2.579 14.823-6.885 29.421-5.985 44.75.357 6.136-.91 6.736-6.792 4.278-13.208-5.525-22.636-15.48-30.263-27.037C141.221 25.668 131.606 10.385 116.183 0H83.377c-.337.319-.647.675-1.013.947-8.415 6.09-15.666 13.566-18.293 23.614-3.659 13.988-1.304 27.572 7.233 39.609 2.617 3.696 5.169 7.42 7.41 11.342 2.008 3.509 1.249 10.404-1.134 13.265-3.33 4.006-7.13 1.895-10.198.272C54.587 82.267 41.35 76.14 29.68 67.463a585.263 585.263 0 0 0-19.382-13.829c-7.26-4.953-15.075-5.657-23.274-4.794-7.956.835-17.056 9.391-17.768 17.187-1.08 11.82-.357 23.294 7.467 33.38 3.809 4.916 8.302 9.297 11.576 14.663 1.37 2.252 1.68 4.175.6 6.548a479.776 479.776 0 0 0-6.735 15.433c-3.405 8.19-6.933 16.155-4.869 25.64 4.25 19.513 14.016 34.083 33.716 40.537 2.899.948 5.807 2.111 7.402 4.607 6.97 10.854 16.858 18.538 26.764 26.484 12.777 10.254 26.511 18.097 42.638 21.258 5.853 1.145 10.816 3.837 15.572 7.121 3.443 2.373 5.863 5.357 6.304 9.86.423 4.278 2.74 7.749 5.47 11.136 4.728 5.873 10.6 10.01 17.28 13.228 6.407 3.086 11.529 7.195 12.946 14.86.581 3.143 2.232 6.164 3.808 9.016 4.71 8.565 8.791 17.102 6.408 27.422-1.051 4.531.9 10.779-4.156 12.918-5.141 2.177-9.466-2.223-13.64-5.272-7.524-5.498-12.44-13.603-19.532-19.411-7.627-6.238-12.965-14.203-18.781-21.905-6.079-8.05-13.021-14.748-23.781-16.868-7.711-1.52-15.526-3.65-22.459-7.778-11.257-6.698-17.88-17.13-22.608-28.914-2.13-5.3-4.944-9.794-9.26-13.753-7.823-7.186-17.655-10.46-26.923-14.691-15-6.849-31.005-11.446-45.002-20.584-8.461-5.525-16.923-11.22-27.027-13.584-2.767-.647-2.214-2.373-1.238-4.287 2.523-4.944 3.574-10.32 3.706-15.789.187-7.806 2.476-13.744 10.563-16.822 6.229-2.364 10.038-7.411 12.364-13.847 4.85-13.425 2.805-25.752-5.01-37.348-3.114-4.625-5.75-9.334-4.634-15.17.61-3.199.985-6.567 2.29-9.494 3.105-6.942 2.804-13.715-.339-20.339-5.544-11.699-12.73-22.487-19.615-33.389C-86.206 20.236-93.983 10.263-101.3 0h-28.125c-.065 1.023.516 1.745 1.117 2.486 10.028 12.337 18.64 25.724 28.33 38.305 6.22 8.077 9.466 17.928 15.93 25.837 3.396 4.156 3.752 8.556 2.148 13.96-3.977 13.406-4.475 26.69 4.522 38.829 1.81 2.449 3.471 5.151 4.447 8.191 2.27 7.054.487 11.548-5.957 14.916-10.62 5.563-16.52 14.42-17.759 26.297-1.041 10-1.923 19.879-12.467 25.311-2.871 1.482-2.224 5.788-4.541 7.993-5.995 5.723-10.929 12.393-16.567 18.425-11.811 12.628-17.58 27.188-14.944 44.61.159 1.041.722 1.96-.104 3.077-3.555 4.784-10.309 6.135-15.375 2.73-8.162-5.47-14.184-12.9-19.475-21.109-2.852-4.428-3.106-8.387-1.173-13.181 3.931-9.775 10.873-17.778 15.451-27.187 3.405-6.99 8.752-12.862 13.077-19.308 5.056-7.533 12.242-13.35 16.333-21.568 6.022-12.074 15.319-21.915 22.946-32.891 3.461-4.982 6.52-9.832 7.542-15.79 2.439-14.203.207-28.257-1.538-42.3-2.036-16.428-8.931-30.64-19.813-43.053-7.787-8.884-16.549-16.314-28.622-18.134-6.595-.995-13.34-.948-20.019-1.37-9.682-.62-19.307.704-28.951.788-6.323.056-12.392 1.041-18.405 2.796-1.633.478-3.368 1.088-5.01.976-9.222-.648-16.867 3.705-24.747 7.42-3.396 1.595-5.761 4.184-7.721 7.262-7.955 12.486-7.439 36.513 1.745 48.118 5.019 6.35 11.52 10.526 20.46 10.422 11.651-.131 23.2 2.111 34.945 2.083 8.612-.019 12.12 6.032 9.794 14.316-1.689 5.995-3.743 11.924-4.944 18.013-3.077 15.648-12.59 28.839-16.455 44.168-.638 2.514-2.964 3.968-4.718 5.713-3.781 3.744-8.012 7.271-9.757 12.412-3.218 9.476-8.443 18.191-11.154 27.741-2.514 8.857-7.983 15.339-13.706 21.888-3.987 4.568-20.291-.057-21.961-5.057-.141-.432-.094-.929-.113-1.398-.319-5.591-.713-11.183-.938-16.784-.216-5.497-.741-11.051-3.274-15.892-2.354-4.494-.694-7.045 2.721-9.391 3.977-2.73 6.651-6.529 8.94-10.638 1.069-1.924 2.289-3.669 3.781-5.31 9.85-10.855 18.949-22.31 26.933-34.609 4.118-6.351 2.786-13.556-2.092-19.326-8.265-9.794-20.385-11.492-31.286-15.733-5.976-2.317-12.44-3.011-18.753-3.49-8.293-.638-12.214-3.715-12.111-12.768.093-7.993-2.843-15.967-1.933-24.12.891-7.983 3.012-16.183 7.955-22.14 8.415-10.132 14.569-21.69 22.421-32.123 2.327-3.095 4.109-6.614 5.169-10.404C-277.534 0-285.968 0-294.411 0c-1.285 1.942-2.364 4.072-3.903 5.788-5.15 5.723-7.495 13.313-12.852 18.895-10.441 10.873-14.306 24.504-15.976 38.952-1.248 10.789 1.651 21.371 2.223 32.085.216 4.053-.178 8.424 2.402 12.215 4.738 6.951 10.638 12.224 19.091 13.95 12.899 2.636 26.051 4.137 38.378 9.278 2.993 1.248 4.24 1.942 2.026 5.113-2.692 3.856-6.313 6.952-8.809 10.864-5.534 8.678-14.128 14.954-18.706 24.401-1.05 2.167-3.217 4.184-5.919 1.22-7.871-8.659-18.246-13.566-28.566-18.294-18.724-8.584-33.35-22.244-47.102-37.001-4.344-4.653-9.213-9.044-8.762-16.774.412-7.167 1.313-14.232 2.026-21.343 1.501-14.992 7.664-27.366 19.607-36.757 8.255-6.492 12.589-14.279 10.9-25.527-.891-5.92-2.955-11.333-4.174-17.046h-25.311V0Zm-538.065 481.657c9.747 0 11.914 1.895 13.078 10.761.018.15 0 .319.028.469 2.392 11.248 3.424 22.882 7.936 33.548 7.289 17.234 16.014 33.708 27.149 48.897 5.272 7.196 10.967 13.397 19.269 17.102 5.629 2.515 5.61 3.406 1.37 8.312-3.096 3.584-6.567 7.384-6.727 12.056-.318 9.137-1.463 18.416 1.239 27.45.61 2.055.797 3.931-1.051 5.563-4.09 3.612-7.993 7.477-12.73 10.236-8.143 4.737-12.017 3.058-14.034-6.239-1.745-8.049-3.331-16.155-4.569-24.298-2.148-14.091-8.34-26.653-14.494-39.225-1.904-3.893-4.615-7.514-8.115-10.188-10.262-7.852-20.479-15.78-31.06-23.172-9.382-6.549-15.132-14.87-14.691-26.512.412-11.042 5.816-19.767 13.996-26.879 3.424-2.974 7.092-5.779 9.381-9.719 3.368-5.807 7.693-9.391 14.016-8.162h.009ZM300.673 653.208c-7.561.891-15.01-1.117-22.543-2.12-2.571-.347-6.257-.047-7.364-1.558-1.304-1.792 1.144-4.812 1.745-7.355 2.195-9.297 11.379-16.933 20.816-16.877 5.029.028 9.916-.854 14.823-1.567 7.429-1.069 14.053 1.876 17.927 8.209.994 1.632 1.463 3.105.385 4.756-1.464 2.233-2.027 4.954-3.359 7.121-3.114 5.085-6.867 9.719-13.837 9.419-2.805-.122-5.61-.019-8.574-.019l-.019-.009Z" />
  </g>
  <defs>
    <linearGradient id="b" x1="570.5" x2="90.93" y1="486" y2="493.303" gradientUnits="userSpaceOnUse">
      <stop stop-color="#08001A" />
      <stop offset="1" stop-color="#fff" />
    </linearGradient>
    <clipPath id="a">
      <path fill="#fff" d="M0 0h500v1093H0z" />
    </clipPath>
  </defs>
</svg>
