<svg width="375" height="647" viewBox="0 0 375 647" fill="none" xmlns="http://www.w3.org/2000/svg">
  <g clip-path="url(#clip0_140_2559)">
    <path
      d="M386.735 -1.67244e-05C386.554 2.39062 385.038 4.22467 384.063 6.27076C382.049 10.5007 382.489 12.3401 385.871 15.3774C394.07 22.7454 398.735 31.9528 399.991 42.936C400.611 48.3586 401.221 53.7654 401.104 59.2463C401.014 63.418 399.652 67.2557 397.102 70.2189C388.823 79.8609 379.955 88.9623 368.808 95.4027C364.229 98.0477 359.447 100.338 354.767 102.797C351.735 104.393 349.345 106.593 347.654 109.651C344.813 114.787 342.21 119.929 342.719 126.073C342.82 127.271 342.38 128.506 342.295 129.73C341.579 139.902 345.83 148.156 352.392 155.455C355.504 158.911 360.057 159.966 364.006 162.006C368.925 164.551 373.398 167.567 376.367 172.412C376.727 173 377.278 173.488 377.782 173.975C382.902 178.942 383.856 185.197 381.164 191.213C376.754 201.068 369.529 208.383 358.552 211.059C356.156 211.643 353.776 211.881 351.248 211.377C340.583 209.257 331.811 204.216 325.704 195.083C321.406 188.653 316.275 183.024 310.354 178.089C307.052 175.338 303.341 174.786 299.212 175.863C288.405 178.667 277.586 181.455 266.731 184.073C262.098 185.192 257.264 184.656 252.547 185.308C241.06 186.899 229.897 189.475 219.705 195.322C216.572 197.119 213.307 198.688 210.19 200.511C206.146 202.88 203.029 206.167 200.946 210.418C200.368 211.595 199.711 212.851 198.762 213.705C195.847 216.334 195.958 220.076 195.264 223.389C194.85 225.366 196.282 227.661 196.25 229.803C196.181 234.139 198.895 237.606 199.536 241.65C200.188 245.732 201.715 249.426 203.697 252.994C206.459 257.966 210.975 261.035 215.708 263.722C219.784 266.039 224.549 266.611 228.927 268.196C229.256 268.313 229.611 268.44 229.95 268.435C239.444 268.318 248.926 270.528 258.388 268.901C262.156 268.254 265.856 267.915 269.646 267.894C280.014 267.846 288.251 271.87 294.14 280.489C295.46 282.418 295.624 284.74 296.324 286.855C298.894 294.583 297.309 302.444 297.749 310.226C297.866 312.293 297.654 314.54 296.498 316.083C294.665 318.537 295.083 320.732 295.741 323.356C296.536 326.52 296.451 329.844 295.619 333.035C294.717 336.496 294.649 339.926 296.44 343.037C299.292 347.983 301.253 353.427 304.948 357.906C308.032 361.643 311.388 365.062 315.119 368.163C317.944 370.511 319.026 373.638 318.967 377.322C318.845 384.908 318.936 392.504 318.851 400.089C318.83 402.082 319.291 403.911 319.932 405.756C320.664 407.839 321.994 408.157 323.886 407.356C328.715 405.316 331.985 401.526 334.917 397.412C336.189 395.626 337.169 393.627 338.346 391.767C340.069 389.037 340.021 386.408 338.457 383.556C337.047 380.991 335.282 378.674 335.208 375.351C335.017 367.171 339.274 361.993 345.751 358.033C349.88 355.51 354.226 353.299 358.112 350.453C362.098 347.532 365.13 343.53 367.674 339.3C369.089 336.947 367.775 334.397 366.863 332.224C365.061 327.941 365.395 323.573 365.766 319.205C366.015 316.284 367.557 313.91 370.128 312.309C378.975 306.791 393.217 304.443 402.906 311.227C406.442 313.703 409.246 316.666 409.818 321.347C410.306 325.359 413.089 328.465 414.822 331.996C419.137 340.806 422.704 349.801 423.345 359.803C423.642 364.468 426.801 367.892 430.623 370.288C437.37 374.518 444.754 375.525 452.445 373.405C460.603 371.158 468.914 369.742 477.278 368.597C478.879 368.38 480.368 367.866 481.778 367.134C485.812 365.035 490.169 363.965 494.6 363.249C504.152 361.706 509.537 351.232 505.668 342.385C503.404 337.217 499.811 332.759 498.146 327.305C497.86 326.361 496.996 325.524 496.243 324.803C493.381 322.052 492.337 318.553 492.204 314.774C492.061 310.65 492.104 306.626 493.996 302.646C496.503 297.371 500.839 295.505 506.06 295.039C510.274 294.663 514.514 294.928 518.649 296.03C523.605 297.35 526.483 301.05 529.244 305.031C532.865 310.252 535.308 316.115 538.663 321.484C540.466 324.373 541.542 327.702 543.338 330.655C546.932 336.56 551.999 340.419 558.705 342.014C563.523 343.159 567.816 345.232 571.442 348.608C573.26 350.305 575.364 351.587 577.437 352.913C581.386 355.43 584.932 358.505 588.43 361.553C591.361 364.108 594.637 364.41 598.109 364.866C602.01 365.38 604.883 364.468 606.494 360.524C607.109 359.019 608.291 357.694 609.404 356.459C612.473 353.045 613.289 348.879 613.454 344.537C613.766 336.22 620.737 328.837 628.979 329.51C635.827 330.072 640.884 327.146 646.248 323.88C649.365 321.988 651.591 319.566 653.775 316.73C659.155 309.754 662.886 301.882 666.491 293.984C669.274 287.878 669.782 281.066 671.097 274.52C671.394 273.036 671.585 271.461 672.343 270.237C674.102 267.375 672.841 265.339 670.779 263.616C666.968 260.436 663.846 256.635 660.581 252.941C658.513 250.598 656.78 248.085 655.296 245.382C651.236 237.971 646.434 230.99 642.946 223.246C640.121 216.975 641.928 210.164 647.133 205.669C651.777 201.661 656.6 197.85 660.729 193.185C664.127 189.342 668.441 186.263 672.544 183.098C679.567 177.681 682.08 167.636 677.781 159.955C675.666 156.181 672.56 153.08 668.812 150.811C663.385 147.525 658.169 143.973 653.065 140.183C647.472 136.028 641.016 133.754 633.903 133.43C623.244 132.942 612.791 134.231 602.529 136.897C596.693 138.413 591.568 141.519 586.67 145.065C583.384 147.44 581.401 150.408 579.848 154.13C578.03 158.492 575.051 162.356 573.048 166.655C568.988 175.38 563.184 183.082 558.853 191.648C556.616 196.074 552.991 199.562 549.392 202.944C543.609 208.383 537.55 213.567 530.633 217.457C522.963 221.778 514.758 223.882 506.192 219.859C500.314 217.097 497.123 212.114 496.005 205.902C493.116 189.851 497.356 175.852 508.864 164.28C514.52 158.587 520.663 153.393 528.152 150.138C530.177 149.258 531.37 147.493 532.17 145.744C533.4 143.056 534.964 140.517 535.499 137.459C536.485 131.829 540.534 128.755 545.602 126.926C547.383 126.285 548.268 125.177 548.915 123.507C551.305 117.358 553.272 110.876 557.883 105.967C567.048 96.2137 577.622 88.9146 591.753 88.9941C599.519 89.0418 607.136 87.494 614.848 87.0222C621.346 86.6247 627.755 85.4479 634.221 84.7959C636.007 84.6157 637.608 83.9001 639.352 83.6138C646.1 82.5113 652.688 83.7834 659.277 84.8277C662.404 85.3207 664.715 87.5841 667.164 89.4605C673.615 94.4008 680.187 99.1079 688.143 101.472C690.264 102.103 691.923 101.912 693.889 100.931C698.591 98.5937 702.275 94.8196 706.775 92.2222C713.379 88.411 720.058 85.5221 728.009 85.0291C735.864 84.5415 743.597 84.6952 751.384 85.326C754.686 85.591 757.013 84.2552 759.001 81.5783C762.467 76.9137 765.886 72.2332 768.6 67.0331C769.554 67.5791 769.146 68.3689 769.151 68.9785C769.188 74.2739 768.796 79.6065 769.289 84.8542C769.718 89.4605 767.582 92.4767 764.179 94.422C760.686 96.4151 758.746 99.0284 757.183 102.659C753.679 110.823 747.451 116.531 739.394 120.274C736.277 121.721 733.24 123.322 730.341 125.203C726.662 127.583 723.911 130.838 722.104 134.639C719.22 140.692 717.047 147.037 717.821 153.965C717.959 155.206 718.393 156.308 719.167 157.342C722.258 161.471 726.397 164.275 730.95 166.417C739.103 170.254 746.825 174.829 754.543 179.441C758.852 182.011 763.342 184.291 767.45 187.196C768.388 187.858 769.241 188.42 769.215 189.862C769.119 195.057 769.178 200.257 769.178 205.504C767.996 205.525 767.582 204.614 767.047 204.02C762.261 198.666 756.075 195.306 750.053 191.6C739.23 184.937 727.5 179.87 716.856 172.99C711.503 169.528 706.902 164.482 705.397 157.957C704.336 153.372 704.421 148.362 705.418 143.756C707.331 134.93 710.549 126.555 716.92 119.775C721.102 115.323 726.206 112.158 731.698 109.752C736.097 107.822 739.739 105.077 742.977 101.668C743.454 101.17 743.756 100.502 744.127 99.903C745.172 98.2333 744.583 97.4329 742.733 97.4276C739.203 97.4117 735.599 97.0035 732.164 97.5813C728.952 98.122 725.666 97.5283 722.501 98.7103C716.226 101.059 710.952 104.933 705.524 108.723C700.61 112.158 695.395 116.007 688.817 114.729C682.573 113.515 676.599 111.241 671.187 107.801C666.655 104.917 662.102 102.05 658.074 98.4559C656.616 97.1572 654.75 97.0936 652.911 96.765C647.722 95.832 642.723 96.1713 637.513 97.1148C630.972 98.3022 624.341 99.2245 617.657 99.6433C611.535 100.025 605.439 100.878 599.328 101.499C598.103 101.62 596.858 101.726 595.633 101.658C586.018 101.122 578.147 104.695 570.901 110.934C566.115 115.058 563.968 120.353 561.758 125.771C559.971 130.144 558.249 134.427 554.003 137.088C549.9 139.659 548.522 141.328 546.492 145.564C545.241 148.182 544.065 150.859 542.549 153.324C540.11 157.289 536.739 160.13 532.504 162.362C522.317 167.737 513.862 174.993 509.685 186.247C507.459 192.237 507.502 198.343 508.763 204.449C509.537 208.202 512.924 209.697 517.329 209.008C522.433 208.208 526.462 205.382 530.336 202.356C535.737 198.131 541.059 193.816 545.528 188.515C548.597 184.879 550.15 180.432 552.71 176.557C558.095 168.394 562.086 159.441 567.233 151.151C568.638 148.887 569.131 146.247 570.403 143.894C573.716 137.766 579.456 134.4 584.963 130.838C594.7 124.546 605.842 122.537 617.074 121.334C627.505 120.215 638.016 119.675 648.167 123.401C653.483 125.357 658.413 127.949 662.855 131.607C666.236 134.39 670.037 136.711 673.811 138.959C684.094 145.081 691.053 153.536 693.115 165.579C693.677 168.866 693.391 172.237 692.204 175.189C689.739 181.322 686.802 187.302 681.841 191.918C679.657 193.954 677.214 195.714 674.998 197.718C668.68 203.442 662.436 209.247 656.118 214.971C654.623 216.323 654.151 217.548 655.254 219.498C661.254 230.137 666.475 241.284 675.056 250.237C677.791 253.089 681.035 255.437 683.378 258.687C684.035 259.598 685.09 259.434 686.06 259.455C689.495 259.519 692.993 259.211 696.354 259.757C701.591 260.605 705.37 263.982 708.354 268.212C709.69 270.104 711.317 271.62 713.035 273.168C727.648 286.341 729.731 308.922 712.457 321.675C706.658 325.958 700.912 330.305 695.124 334.598C694.112 335.346 693.211 336.157 692.665 337.307C689.113 344.776 686.013 352.356 684.884 360.683C684.088 366.557 683.41 372.509 679.906 377.731C674.892 385.21 672.21 385.957 663.708 384.531C659.25 383.784 655.413 381.59 652.031 378.674C650.626 377.46 650.049 377.439 648.856 379.098C645.771 383.397 646.28 386.562 651.178 389.164C654.072 390.701 656.383 393.06 658.98 395.027C664.249 399.018 670.196 401.997 675.369 406.137C678.73 408.825 680.622 412.138 680.717 416.537C680.945 426.99 677.367 435.795 669.703 442.951C667.461 445.045 667.037 448.225 668.685 450.854C673.79 458.975 686.638 463.046 695.119 454.491C696.55 453.049 697.562 451.215 698.267 449.333C701.087 441.854 703.637 434.205 704.782 426.333C705.619 420.582 704.973 414.571 703.054 408.909C701.018 402.893 699.221 396.861 699.168 390.415C699.147 387.627 698.055 384.945 698.156 382.067C698.373 375.859 699.227 369.779 701.448 363.986C703.748 357.98 708.529 354.476 714.084 351.513C719.432 348.661 725.146 346.461 730.097 342.878C734.072 339.995 736.277 336.061 736.866 331.206C737.29 327.708 738.451 324.32 738.875 320.875C740.173 310.236 740.64 299.661 735.35 289.659C732.784 284.809 732.212 279.37 731.396 273.921C730.394 267.237 728.507 260.627 723.514 255.273C716.347 247.587 707.692 241.878 699.343 235.724C697.006 234.001 694.637 232.326 692.294 230.609C685.371 225.536 687.486 211.966 694.711 207.386C700.472 203.739 706.34 203.808 712.467 205.255C716.75 206.268 720.789 208.271 725.03 209.3C733.855 211.441 741.779 215.671 750.027 219.17C756.531 221.931 761.529 226.246 764.153 232.994C764.534 233.975 764.895 235.072 765.589 235.814C769.029 239.466 769.422 243.845 769.231 248.573C768.998 254.298 769.178 260.038 769.178 266.055C763.559 262.429 760.087 257.536 758.715 251.287C758.094 248.477 757.347 245.875 755.465 243.627C754.098 241.995 753.197 240.039 752.439 238.067C751.161 234.733 748.856 232.57 745.59 231.197C741.689 229.564 737.83 227.82 734.019 225.992C731.067 224.576 728.104 223.357 724.86 222.7C719.491 221.619 714.672 218.809 709.33 217.537C707.474 217.097 705.651 217.033 703.828 217.208C702.508 217.336 701.294 217.993 700.912 219.514C700.531 221.057 701.586 221.666 702.63 222.414C711.662 228.849 720.922 235.024 729.053 242.599C735.101 248.234 739.866 254.775 741.954 263.097C743.237 268.217 744.499 273.258 744.944 278.564C745.177 281.347 746.635 284.114 747.901 286.712C750.096 291.191 751.85 295.813 752.046 300.79C752.37 309.022 753.266 317.307 750.986 325.444C750.25 328.073 749.894 330.766 749.476 333.464C748.129 342.232 743.799 349.138 736.277 354.089C730.293 358.022 723.546 360.498 717.508 364.336C715.33 365.719 713.867 367.357 713.104 369.663C711.142 375.584 710.602 381.536 711.614 387.818C712.367 392.493 712.361 397.354 714.164 401.759C717.28 409.371 717.476 417.338 717.768 425.331C717.858 427.754 717.355 430.102 716.692 432.349C714.015 441.414 712.658 450.955 707.432 459.129C702.338 467.096 695.039 471.326 685.567 471.866C676.382 472.391 668.627 469.131 662.097 462.887C658.816 459.749 656.197 456.065 655.487 451.406C655.264 449.943 654.57 449.317 653.155 449.031C645.946 447.584 640.354 443.709 636.58 437.406C633.119 431.618 628.3 426.906 624.272 421.573C621.701 418.17 617.397 418.133 613.703 417.375C606.807 415.959 599.853 416.776 592.978 418.021C587.38 419.039 582.075 418.297 577.256 415.212C570.694 411.003 564.816 406.164 560.581 399.347C557.337 394.126 552.901 389.721 548.188 385.735C546.37 384.197 544.086 383.413 541.61 383.312C539.983 383.249 539.029 383.694 539.262 385.523C539.305 385.872 539.209 386.238 539.284 386.577C541.478 397.094 541.277 408.21 547.192 417.794C550.378 422.951 553.272 428.3 558.752 431.581C561.026 432.943 563.348 433.728 565.966 433.743C570.631 433.775 575.253 433.765 579.907 432.826C583.225 432.153 586.654 432.683 590.047 433.791C594.706 435.312 599.784 435.445 604.31 437.491C607.766 439.055 611.758 439.081 614.938 441.308C619.804 444.716 622.279 449.73 624.028 455.19C625.534 459.892 628.295 463.846 631.285 467.684C632.414 469.131 634.041 469.847 635.493 470.833C642.58 475.625 649.2 481.005 655.577 486.692C656.823 487.806 658.042 488.967 659.367 489.974C661.741 491.781 664.455 491.018 666.978 490.573C677.458 488.739 687.582 485.283 698.14 483.729C705.699 482.616 713.178 480.931 720.747 479.934C727.441 479.054 733.484 480.915 738.382 485.839C738.933 486.396 739.569 486.931 740.263 487.276C746.264 490.286 751.532 494.474 757.32 497.829C760.13 499.457 763.193 498.789 766.135 498.736C768.552 498.688 769.427 499.367 769.22 501.837C769.003 504.376 769.114 506.952 769.194 509.512C769.236 510.954 768.764 511.399 767.259 511.569C757.898 512.624 749.926 509.618 742.887 503.612C742.092 502.934 741.18 502.33 740.232 501.89C736.055 499.934 732.164 497.564 728.714 494.479C726.577 492.571 724.092 492.301 721.335 492.788C711.731 494.495 702.078 495.937 692.506 497.808C685.35 499.208 678.327 501.264 671.182 502.733C665.213 503.957 659.022 505.038 653.467 501.519C650.229 499.467 647.404 496.722 644.562 494.108C638.78 488.781 632.488 484.153 625.915 479.86C621.76 477.151 619.162 472.99 616.517 468.919C614.047 465.119 612.325 460.973 610.947 456.685C610.008 453.754 608.233 451.898 605.116 451.257C603.409 450.907 601.745 450.239 600.144 449.534C594.928 447.234 589.177 447.122 583.776 445.511C580.781 444.615 577.574 446.354 574.421 446.651C563.141 447.727 552.8 445.442 545.008 436.85C538.467 429.635 533.591 421.191 530.861 411.703C529.372 406.54 528.698 401.245 528.009 395.907C527.447 391.56 526.409 387.304 526.525 382.856C526.689 376.485 532.26 370.94 538.69 370.585C547.945 370.076 555.058 373.766 561.238 380.492C566.147 385.83 570.223 391.82 575.025 397.152C578.953 401.515 583.479 406.567 590.391 405.459C597.224 404.361 604.077 403.545 610.894 404.181C619.284 404.966 627.967 405.957 633.834 413.155C638.663 419.082 643.895 424.727 647.844 431.332C648.882 433.07 650.345 434.279 652.057 435.222C654.527 436.59 656.621 437.237 659.388 434.989C664.344 430.95 667.026 425.962 667.959 419.802C668.319 417.428 667.365 415.959 665.415 414.571C660.538 411.093 655.079 408.475 650.52 404.547C647.642 402.066 644.35 400.174 641.345 397.884C634.317 392.525 631.603 382.994 636.654 374.63C641.133 367.214 643.566 359.03 643.089 350.22C642.941 347.41 640.889 345.571 638.886 344.14C636.018 342.088 632.546 341.606 629.037 342.115C627.378 342.353 626.403 343.44 626.191 345.147C625.809 348.195 625.444 351.248 625.041 354.296C624.489 358.478 621.553 361.351 619.221 364.5C617.8 366.424 616.422 368.354 615.378 370.479C613.157 374.995 609.235 376.967 604.575 377.476C599.837 377.99 595.066 377.402 590.338 376.92C587.852 376.665 585.637 375.409 583.659 373.903C576.461 368.417 569.327 362.835 562.113 357.365C560.284 355.976 558.196 354.853 555.922 354.471C546.858 352.944 540.248 347.294 534.418 340.933C531.555 337.805 530.479 333.109 528.163 329.398C525.37 324.925 523.684 319.868 520.562 315.59C520.096 314.949 519.497 314.339 519.248 313.613C517.17 307.612 512.336 307.347 507.168 307.708C506.309 307.766 505.631 308.042 505.185 308.789C504.401 310.104 504.904 315.102 505.816 316.396C511.641 324.622 516.793 333.416 519.142 343.133C521.68 353.639 518.113 364.192 508.053 370.569C502.933 373.813 497.542 375.727 491.77 377.01C490.662 377.259 489.512 377.55 488.52 378.08C483.103 380.98 477.167 381.637 471.214 382.374C466.677 382.936 462.214 383.985 457.809 385.231C446.079 388.549 434.672 388.003 424.241 381.351C416.37 376.331 411.027 369.408 410.454 359.475C409.967 350.946 406.251 343.398 402.429 335.929C400.41 331.985 397.728 328.46 397.044 323.727C396.578 320.493 392.676 320.35 389.867 319.868C387.222 319.412 384.625 320.271 382.065 320.891C378.153 321.84 377.395 323.228 378.646 327.071C379.96 331.1 381.164 335.129 380.952 339.459C380.856 341.463 380.427 343.286 379.33 344.951C373.86 353.278 367.679 360.805 358.435 365.359C355.954 366.583 353.495 368.062 351.173 369.652C347.882 371.905 347.601 373.315 349.292 376.914C350.399 379.278 351.809 381.436 352.408 384.134C353.76 390.246 351.311 395.122 348.311 400.01C346.281 403.312 344.134 406.508 341.659 409.508C337.376 414.693 332.06 418.313 325.667 420.232C317.743 422.607 313.349 419.357 309.14 412.837C306.988 409.503 306.103 405.57 306.156 401.478C306.251 394.152 306.167 386.827 306.262 379.506C306.283 377.736 305.679 376.612 304.285 375.515C297.543 370.209 292.571 363.419 288.744 355.828C287.281 352.923 285.553 350.172 284.26 347.151C281.911 341.696 281.922 336.21 283.051 330.586C283.793 326.907 283.756 326.971 280.252 327.215C273.908 327.654 267.584 327.14 261.345 325.958C258.494 325.418 255.684 324.569 252.759 324.654C243.313 324.925 234.382 321.961 225.233 320.361C220.054 319.454 214.807 318.914 209.591 318.219C207.969 318.002 207.54 319.004 207.201 320.366C206.247 324.172 205.637 327.92 207.174 331.741C208.043 333.904 207.99 336.311 207.932 338.532C207.688 347.352 211.15 355.976 209.713 364.733C208.51 372.091 208.123 379.411 208.192 386.816C208.213 389.117 208.717 391.057 209.835 393.225C215.729 404.674 213.916 413.166 204.434 421.197C200.755 424.313 197.061 427.467 192.545 429.45C182.765 433.743 173.394 432.911 164.256 427.542C156.941 423.248 149.377 422.289 141.257 425.517C132.495 428.999 123.564 429.858 114.5 426.142C112.194 425.199 109.517 425.167 107.01 424.722C102.531 423.921 98.3173 422.405 94.6228 419.718C93.2447 418.716 91.8401 418.318 90.1863 418.398C81.0694 418.822 72.7475 416.426 65.2473 411.242C63.3815 409.948 61.3196 410.261 59.3531 410.415C51.9165 411.003 44.464 411.358 37.1122 412.959C29.6755 414.581 24.1948 418.668 20.0922 424.886C19.7053 425.474 19.3872 426.132 18.9154 426.64C11.8658 434.279 18.8466 445.485 27.9741 446.068C31.5519 446.296 35.1722 446.237 38.75 446.868C44.3792 447.859 49.2398 445.023 54.2223 443.152C63.7738 439.558 73.4207 436.813 83.7992 437.327C89.2163 437.597 94.0238 439.076 97.9144 442.924C100.883 445.866 101.953 449.826 102.42 453.695C103.289 460.947 103.432 468.278 102.287 475.54C101.959 477.623 101.132 479.605 100.13 481.487C99.3138 483.024 99.4992 484.307 100.872 485.473C108.303 491.792 108.245 499.499 104.985 507.811C102.923 513.069 101.333 518.439 101.164 524.158C101.1 526.358 102.086 527.879 103.825 528.998C109.867 532.894 120.67 532.608 126.468 528.494C127.793 527.556 128.79 526.331 128.748 524.821C128.604 519.865 129.627 515.009 129.802 510.095C130.051 503.051 128.08 496.324 126.002 489.693C124.21 483.989 122.731 478.185 120.399 472.635C118.666 468.516 120.171 464.323 121.131 460.215C122.769 453.208 126.182 447.308 131.732 442.659C133.709 441 136.025 440.406 138.479 439.887C143.541 438.816 148.704 438.546 153.74 439.171C161.081 440.078 169.143 446.932 165.549 457.671C163.487 463.841 162.008 470.207 159.04 476.08C157.784 478.572 157.386 481.047 160.116 483.369C162.994 485.818 163.731 489.751 165.496 492.979C168.03 497.617 171.39 501.837 173.166 506.841C176.818 517.124 176.155 527.169 171.003 536.922C167.028 544.444 162.639 551.637 156.268 557.404C152.012 561.258 147.093 564.258 142.333 567.391C137.255 570.73 135.564 577.87 136.243 582.991C136.322 583.595 136.608 583.919 137.202 584.067C144.633 585.922 152.033 586.304 158.409 581.348C161.547 578.909 164.59 576.132 167.001 572.851C169.047 570.068 171.348 567.555 174.056 565.387C176.23 563.649 177.115 561.088 177.507 558.449C178.896 549.04 182.712 540.749 189.078 533.726C191.977 530.53 194.967 527.619 196.403 523.289C198.343 517.421 202.372 513.403 208.658 512.019C212.278 511.219 215.597 511.526 219.153 513.016C224.56 515.279 229.807 517.76 234.133 521.667C238.134 525.282 242.401 528.855 243.785 534.542C245.338 540.93 243.239 546.013 238.251 549.967C234.148 553.222 229.521 555.512 224.56 557.245C219.402 559.042 215.114 561.921 211.96 566.728C208.261 572.379 210.344 575.962 215.082 579.111C218.311 581.258 221.305 583.696 224.512 585.853C229.118 588.954 233.862 591.631 239.067 593.683C243.371 595.379 247.315 597.992 251.439 600.155C254.82 601.931 258.414 603.293 262.252 603.118C270.738 602.731 277.883 605.689 284.286 611.037C286.417 612.818 288.919 614.159 290.822 616.979C282.473 616.582 274.491 617.647 266.561 616.258C265.151 616.009 263.768 615.909 262.363 615.93C255.748 616.046 249.69 614.17 244.092 610.756C238.675 607.454 232.754 605.175 227.083 602.392C221.337 599.566 216.349 595.707 211.192 592.034C208.208 589.908 204.911 588.329 202.589 585.223C200.347 582.222 198.184 579.18 197.14 575.634C195.577 570.322 197.882 565.589 200.368 561.104C205.266 552.268 213.164 547.301 222.546 544.28C225.238 543.41 227.608 541.81 229.919 540.166C231.615 538.958 231.551 537.421 230.359 536.085C226.627 531.929 222.562 528.176 217.091 526.374C216.757 526.262 216.423 526.141 216.1 526.003C210.831 523.761 209.74 524.063 207.805 529.475C206.363 533.503 204.089 536.795 201.041 539.71C194.85 545.642 191.41 552.893 190.09 561.417C189.38 565.997 187.658 570.582 183.878 573.699C178.811 577.876 175 583.203 170.457 587.862C161.113 597.446 149.897 599.317 137.409 597.255C136.455 597.096 135.511 596.826 134.552 596.789C127.21 596.492 124.046 593.656 123.564 586.426C123.304 582.562 122.944 578.554 123.654 574.801C125.027 567.539 128.35 561.237 134.822 556.975C139.084 554.171 143.313 551.293 147.342 548.17C150.05 546.071 152.202 543.278 154.095 540.431C157.063 535.968 160.148 531.41 161.584 526.236C163.938 517.781 161.568 510.063 156.543 503.061C154.577 500.326 153.093 497.331 151.884 494.188C151.338 492.772 150.549 491.521 149.393 490.498C145.508 487.053 144.707 482.611 145.343 477.729C145.778 474.379 146.859 471.236 148.381 468.219C150.58 463.862 151.391 459.023 153.029 454.464C153.612 452.837 153.029 451.792 151.02 451.718C147.829 451.602 144.686 452.047 141.543 452.37C138.962 452.635 137.387 454.623 136.174 456.68C134.186 460.062 133.587 463.952 132.59 467.689C132.421 468.32 132.712 468.882 132.924 469.47C136.916 480.385 140.515 491.431 142.327 502.934C142.979 507.074 142.789 511.352 142.248 515.582C141.861 518.629 142.137 521.752 141.866 524.821C140.939 535.173 134.287 540.389 125.064 543.193C116.44 545.817 107.97 545.34 99.8492 541.444C90.4195 536.922 85.9035 528.42 88.9035 517.071C90.2764 511.882 91.522 506.671 93.4514 501.635C94.856 497.978 94.1457 496.361 91.0079 493.917C87.1968 490.954 84.9917 484.36 87.3823 479.261C90.5149 472.587 90.1757 465.749 90.1651 458.816C90.1651 458.286 90.234 457.735 90.1121 457.231C88.8399 451.925 88.7604 450.271 82.3203 450.049C73.9189 449.762 65.9894 452.004 58.5581 455.423C48.0312 460.268 37.2923 459.876 26.209 458.864C20.3519 458.328 15.8412 455.461 11.4576 452.354C8.66429 450.377 6.84086 447.091 5.36204 443.863C1.32304 435.063 2.97154 427.006 8.29326 419.235C12.168 413.574 16.5249 408.48 22.4192 404.881C27.8681 401.552 34.0538 400.529 40.1811 399.22C46.3351 397.905 52.6161 398.276 58.8019 397.327C63.636 396.585 68.4382 397.497 72.5992 400.593C77.4385 404.186 82.9988 405.756 88.9725 405.596C94.0503 405.459 98.6989 406.052 102.754 409.657C104.927 411.592 108.07 411.979 110.943 412.366C114.627 412.859 118.157 413.717 121.687 414.926C127.078 416.776 132.257 415.053 137.377 413.24C141.426 411.804 145.471 410.192 149.918 410.452C156.936 410.86 163.763 412.127 169.837 415.843C179.606 421.811 186.497 419.67 194.887 412.36C195.884 411.491 196.796 410.526 197.723 409.583C200.946 406.28 201.169 402.665 198.243 399.024C196.282 396.585 195.258 393.972 195.423 390.76C195.624 386.885 195.577 382.994 195.444 379.114C195.269 373.797 195.958 368.597 196.934 363.387C197.416 360.816 197.607 358.059 196.695 355.536C195.683 352.727 195.518 349.891 195.486 346.965C195.428 341.601 195.041 336.316 193.663 331.036C192.497 326.573 193.451 321.914 194.675 317.477C195.651 313.931 194.061 311.296 191.532 309.431C189.375 307.835 186.698 308.386 184.271 309.542C176.807 313.088 169.588 317.138 161.621 319.64C158.187 320.716 154.688 321.119 151.254 321.283C143.6 321.654 136.052 323.165 128.361 323.048C125.08 323 122.769 321.633 120.696 319.157C117.956 315.882 115.963 312.176 113.874 308.514C110.27 302.19 111.86 295.288 116.366 288.874C121.571 281.474 129.665 280.133 136.99 277.075C140.128 275.766 143.499 274.907 146.939 274.515C148.614 274.324 150.294 274.101 151.906 274.684C155.473 275.978 158.918 275.061 162.231 273.937C165.984 272.659 166.159 271.069 166.228 265.943C166.312 259.519 158.515 249.654 152.796 247.99C148.46 246.723 145.275 248.053 141.972 250.274C138.437 252.649 135.527 255.723 132.447 258.618C127.868 262.922 122.127 264.904 116.164 266.373C114.457 266.791 112.756 267.247 111.081 267.783C107.593 268.906 105.123 271.043 104.153 274.737C102.165 282.312 99.9551 289.828 98.1265 297.44C96.425 304.506 92.227 309.786 86.8205 314.228C83.1843 317.212 78.7478 317.588 74.2688 317.069C71.8783 316.793 69.9012 315.383 68.7139 313.348C65.1254 307.172 62.6766 300.785 63.9328 293.3C64.712 288.652 65.5972 283.95 65.3057 279.137C65.2049 277.419 64.6802 276.237 63.249 275.479C59.9839 273.751 56.9308 271.61 53.3158 270.555C52.1603 270.216 51.0155 269.601 50.0508 268.875C46.8863 266.489 43.706 264.136 40.4939 261.814C36.4708 258.904 34.2923 254.435 31.764 250.311C31.0749 249.188 30.582 247.947 30.0094 246.755C27.8628 242.265 24.8521 239.466 19.3501 239.312C6.90984 238.957 -4.13117 234.155 -14.1544 227.11C-19.0203 223.691 -23.6848 219.875 -26.5365 214.335C-28.3652 210.784 -31.2963 208.027 -34.0367 205.17C-35.3724 203.776 -36.3424 203.601 -36.9679 205.923C-38.0969 210.105 -38.4733 214.388 -39.1676 218.634C-40.18 224.81 -39.3955 230.953 -39.0139 237.07C-38.5156 245 -35.5103 252.151 -27.7662 255.331C-22.5134 257.489 -16.7252 259.021 -10.7675 258.225C-4.38563 257.372 1.9962 256.815 8.42577 257.844C10.212 258.13 11.7704 258.92 13.4029 259.545C15.2104 260.24 16.9331 261.321 18.7989 261.671C24.1736 262.689 28.1596 265.88 31.9919 269.436C33.9531 271.26 35.8347 273.152 36.5503 275.797C38.3843 282.572 42.4657 288.381 44.6655 294.997C45.5029 297.514 46.1549 300.038 46.1973 302.73C46.2291 304.75 46.7379 306.732 47.4429 308.646C48.397 311.227 49.1072 313.894 48.7945 316.661C48.4023 320.133 49.897 322.963 52.0066 325.327C54.323 327.925 57.0845 330.098 59.862 332.277C63.6042 335.213 67.4576 335.181 71.6769 335.325C81.451 335.653 91.2146 334.985 100.983 335.166C107.212 335.277 111.871 337.44 115.104 343.101C119.17 350.214 125.721 352.123 133.306 349.069C136.576 347.75 139.847 346.472 143.324 345.741C144.771 345.433 146.324 345.004 147.496 344.172C150.395 342.104 153.591 341.087 157.058 340.705C160.726 340.302 164.399 339.947 168.062 339.475C175.943 338.452 186.136 344.723 187.96 353.739C189.343 360.577 190.297 367.325 188.553 374.078C187.016 380.02 183.958 385.422 179.394 389.541C175.647 392.917 170.558 393.267 165.682 393.453C161.621 393.606 157.593 393.813 153.734 395.255C152.997 395.53 152.202 395.833 151.434 395.827C143.329 395.811 135.288 397.031 127.205 397.025C125.27 397.025 123.325 395.944 121.396 395.334C114.468 393.14 107.254 391.841 100.109 392.085C91.5962 392.376 83.3221 390.882 74.942 390.277C68.7987 389.837 65.682 386.562 64.0812 380.46C63.6148 378.69 63.7314 376.543 62.4487 375.244C60.763 373.543 59.1412 375.875 57.3867 375.976C52.7805 376.246 48.8476 378.579 44.7502 380.386C41.0187 382.035 37.2287 383.482 33.0361 382.369C32.1933 382.146 31.1915 381.955 30.6191 381.393C27.444 378.255 23.7707 380.429 20.3254 380.291C19.7582 380.27 19.3554 380.747 19.2706 381.314C18.2158 388.184 13.8216 393.442 10.6307 399.283C6.01396 407.727 0.745282 415.726 -5.65248 422.946C-6.35213 423.736 -6.94576 424.642 -7.72493 425.336C-12.9247 429.975 -14.2658 436.182 -14.7534 442.686C-14.9549 445.4 -13.4336 447.425 -11.6367 449.412C-5.76375 455.901 -1.6877 463.491 0.761149 471.845C1.80009 475.391 0.676371 479.261 1.25413 482.902C1.81071 486.412 1.36546 489.709 0.575662 493.075C-1.50216 501.948 -7.26913 507.365 -15.591 510.307C-18.5698 511.362 -21.6759 511.977 -24.8933 512.083C-28.9535 512.216 -31.6939 510.302 -33.2735 506.814C-35.5156 501.847 -37.0528 496.594 -39.65 491.749C-41.8603 487.625 -44.7597 484.153 -48.152 481.042C-50.2139 479.15 -53.8766 478.646 -56.283 480.162C-61.0482 483.162 -65.7816 486.237 -70.3135 489.571C-73.674 492.046 -73.3242 496.069 -70.4672 499.181C-66.3064 503.708 -62.3203 508.447 -59.2672 513.827C-58.0057 516.053 -56.3413 517.787 -54.3271 519.213C-51.3111 521.349 -48.2845 523.49 -45.0989 525.345C-42.1571 527.058 -40.1111 529.528 -38.3354 532.258C-35.0226 537.346 -31.4077 542.467 -30.284 548.462C-28.7415 556.646 -28.9694 564.804 -32.3671 572.814C-34.8849 578.75 -35.77 585.074 -33.618 591.599C-30.9995 599.545 -30.9677 607.496 -34.7417 615.251C-35.3566 616.513 -35.998 616.953 -37.3072 616.932C-40.5723 616.873 -43.8427 616.836 -47.1025 616.948C-48.857 617.006 -49.3711 616.513 -48.6237 614.87C-48.1891 613.91 -47.94 612.85 -47.4364 611.933C-44.2826 606.224 -44.3462 600.33 -46.2439 594.282C-49.1326 585.079 -47.5531 576.148 -44.3038 567.417C-41.5847 560.124 -41.0334 553.068 -45.3639 546.177C-46.6255 544.168 -47.3305 541.884 -48.6609 539.869C-51.2688 535.92 -55.5728 534.198 -59.1824 531.643C-64.2338 528.07 -68.3152 523.957 -71.6174 518.614C-74.2836 514.299 -77.2201 509.836 -81.6407 506.814C-82.6531 506.12 -83.3899 505.102 -83.9941 503.994C-88.1073 496.483 -86.337 485.892 -79.7166 480.469C-74.061 475.837 -67.7798 472.068 -61.5994 468.156C-55.9544 464.583 -43.7579 467.202 -39.4486 471.156C-32.2452 477.766 -27.4641 485.844 -23.9552 494.813C-23.4516 496.107 -23.282 498.275 -22.2006 498.418C-20.2872 498.672 -18.2571 497.888 -16.5609 496.621C-11.3717 492.751 -11.218 487.307 -11.7851 481.625C-11.8487 481.015 -12.0714 480.401 -12.0396 479.802C-11.5148 470.695 -16.4443 464.032 -21.8773 457.544C-26.2768 452.296 -28.7256 446.518 -27.586 439.336C-26.4411 432.09 -25.0736 425.05 -19.8419 419.527C-15.4054 414.846 -11.2869 409.869 -7.73555 404.552C-3.06044 397.55 0.93614 390.092 5.3939 382.533C2.3408 382.268 -0.314836 381.95 -2.98097 381.828C-5.67366 381.706 -8.26027 381.187 -10.5819 379.861C-12.2144 378.928 -12.7976 379.559 -13.6085 380.937C-18.1246 388.624 -20.7112 396.871 -22.3703 405.644C-23.9975 414.263 -29.1019 420.656 -38.0227 423.158C-40.302 423.799 -41.0917 425.448 -41.1871 427.504C-41.6959 438.382 -47.7492 446.306 -55.3449 453.128C-59.5905 456.939 -64.8593 458.175 -70.8648 457.279C-76.0487 456.505 -81.4287 456.955 -86.7239 457.014C-88.7381 457.035 -89.5014 458.784 -89.3848 460.369C-88.8123 468.161 -92.0297 474.782 -96.2013 480.803C-100.516 487.037 -106.686 491.087 -114.345 492.465L-114.345 478.699C-110.444 477.793 -107.624 475.492 -105.726 472.004C-103.564 468.029 -102.159 463.984 -102.053 459.261C-101.91 452.752 -97.802 445.569 -90.3866 444.647C-89.0084 444.477 -88.1498 443.815 -88.3512 442.187C-88.436 441.53 -88.155 440.809 -87.9748 440.141C-86.602 435.122 -87.2116 430.404 -90.1004 426.026C-90.5562 425.336 -91.1234 424.817 -91.9873 424.727C-95.5599 424.351 -99.0582 423.444 -102.71 423.603C-106.58 423.767 -110.465 423.635 -114.34 423.63L-114.34 410.918C-105.737 411.141 -97.0387 410.187 -88.6003 412.599C-86.4642 413.208 -85.473 412.371 -84.5825 410.765C-83.6443 409.074 -82.8386 407.282 -81.7202 405.718C-78.3597 401.022 -78.137 397.852 -81.1637 392.917C-82.8757 390.124 -84.1638 387.139 -85.3352 384.102C-86.5861 380.847 -86.4059 377.635 -84.2486 374.847C-81.4552 371.232 -78.4339 367.808 -75.0045 364.749C-70.7163 360.927 -67.8859 356.369 -68.2728 350.326C-68.3894 348.476 -69.0838 347.527 -71.1245 348.036C-78.5559 349.891 -85.2557 353.262 -91.5686 357.561C-95.8196 360.455 -99.2808 364.256 -103.362 367.293C-106.717 369.79 -110.02 372.52 -114.34 373.326L-114.34 359.03C-112.649 358.605 -111.408 357.482 -110.242 356.289C-107.889 353.893 -105.281 351.805 -102.641 349.743C-93.3496 342.491 -83.1514 337.042 -71.4478 335.028C-64.308 333.798 -58.7742 336.411 -56.6275 343.599C-55.5674 347.156 -55.3078 350.718 -55.6152 354.312C-55.9915 358.68 -56.8396 362.751 -59.6753 366.578C-63.0253 371.094 -67.0643 374.858 -70.9072 378.838C-72.508 380.498 -72.6987 381.812 -71.5856 383.683C-70.1015 386.175 -68.5908 388.65 -67.6685 391.449C-65.6967 397.428 -64.9918 403.482 -68.2887 409.09C-70.234 412.392 -72.2323 415.753 -74.5274 418.806C-76.5416 421.478 -76.9392 423.455 -75.6353 426.656C-73.6688 431.464 -74.6122 436.722 -74.9409 441.811C-74.9939 442.638 -75.5611 444.075 -74.5062 444.075C-70.9655 444.08 -67.0325 445.659 -63.9529 443.253C-58.3078 438.848 -54.4914 433.134 -53.9773 425.723C-53.4843 418.578 -48.6926 412.562 -41.8603 410.86C-39.3425 410.235 -37.7894 408.565 -36.422 406.556C-35.0862 404.595 -34.6516 402.326 -34.3812 400.068C-33.0879 389.276 -28.2645 379.92 -22.4869 370.999C-21.3155 369.191 -21.1511 367.988 -22.4604 366.398C-26.0329 362.051 -25.3598 356.999 -23.3032 352.679C-19.0839 343.822 -11.695 339.348 -1.67177 339.443C1.61455 339.475 4.73131 340.594 8.01231 340.546C14.6857 340.45 20.1293 343.657 24.8574 347.776C28.4882 350.935 31.218 354.996 32.0078 360.111C32.3788 362.501 33.4654 364.829 34.5202 367.044C35.151 368.375 36.1157 370.087 38.1087 369.122C44.1354 366.201 50.4059 364.06 56.8354 362.168C63.8003 360.121 71.6133 363.313 74.4862 369.997C75.2919 371.879 75.7583 373.84 76.3467 375.775C76.6382 376.729 76.9244 377.566 78.2177 377.619C85.7709 377.927 93.2341 379.326 100.84 379.188C107.53 379.066 114.145 380.19 120.675 381.674C124.762 382.602 128.652 384.802 133.03 383.906C137.234 383.047 141.464 383.445 145.688 383.381C147.474 383.355 149.255 383.164 150.883 382.57C154.588 381.213 158.383 380.694 162.284 380.741C164.855 380.773 167.357 380.296 169.864 379.856C170.632 379.724 171.39 379.623 171.873 378.801C174.417 374.471 177.099 370.299 176.574 364.829C176.33 362.263 175.737 359.809 175.329 357.301C174.804 354.121 172.885 352.409 169.652 352.674C163.678 353.167 157.784 353.326 152.049 356.204C146.059 359.21 139.364 360.874 132.882 362.804C129.315 363.869 125.493 363.652 121.868 362.931C114.267 361.415 109.104 356.263 104.418 350.538C103.724 349.69 103.448 348.46 101.985 348.386C100.056 348.29 98.1636 347.813 96.2077 347.919C85.8133 348.481 75.4084 348.476 65.0035 348.433C61.6112 348.417 58.6058 347.432 55.9555 345.311C54.9272 344.49 53.8989 343.588 52.7222 343.048C48.0737 340.89 44.798 337.095 41.6971 333.326C38.9939 330.035 36.0839 326.207 36.2588 321.802C36.5292 314.933 33.0944 308.826 33.0679 302.1C33.0626 300.319 32.2357 298.712 31.6315 297.048C30.1791 293.057 27.3486 289.701 26.2249 285.593C25.2231 281.92 23.527 278.951 20.3466 276.619C18.1734 275.023 15.608 274.817 13.3923 273.592C7.19072 270.173 0.554493 269.898 -6.3097 270.698C-17.6846 272.018 -28.3546 270.507 -38.3143 264.024C-47.3092 258.167 -50.6963 249.58 -51.7034 239.795C-52.5197 231.854 -52.8695 223.829 -51.8836 215.798C-51.1468 209.83 -50.1874 203.946 -47.9718 198.354C-44.5424 189.692 -36.5173 187.132 -28.9588 192.613C-23.5205 196.557 -18.7712 201.428 -15.5432 207.386C-13.195 211.711 -9.59071 214.632 -5.77436 217.192C2.77007 222.928 12.2421 226.161 22.6312 226.744C26.7496 226.978 30.9582 227.72 34.1174 230.794C37.4832 234.07 40.3667 237.775 42.1954 242.132C45.5188 250.057 51.7734 255.098 59.1147 258.724C64.4311 261.348 69.6574 264.014 74.412 267.549C77.0622 269.521 78.3926 272.177 78.435 275.49C78.5092 281.31 78.1647 287.061 77.1311 292.834C76.564 295.983 75.9915 299.449 77.9792 302.587C78.7637 303.828 79.2195 303.981 80.3061 302.942C83.2055 300.17 84.9388 296.825 85.9194 292.961C87.6685 286.054 89.6933 279.216 91.3736 272.294C94.0027 261.48 101.641 256.466 111.765 254.075C115.698 253.147 119.88 252.442 122.943 249.612C126.696 246.145 130.332 242.572 134.568 239.668C139.375 236.37 144.464 233.46 150.464 234.277C164.69 236.211 173.055 245.313 177.756 258.13C180.232 264.883 180.147 271.901 176.41 278.294C171.343 286.961 160.651 288.975 151.201 287.819C149.234 287.576 147.39 287.549 145.471 288.058C140.594 289.346 136.046 291.498 131.334 293.21C128.695 294.17 127.645 296.311 126.002 298.05C123.574 300.626 125.509 302.688 126.829 304.845C127.422 305.821 127.756 306.966 128.414 307.893C129.431 309.33 130.444 310.295 132.723 310.024C137.075 309.505 141.416 308.715 145.847 308.715C154.566 308.715 162.544 306.043 170.251 302.047C174.979 299.598 179.521 296.417 185.002 295.808C190.276 295.219 195.539 294.806 199.791 299.301C201.322 300.918 203.517 301.904 204.757 303.939C205.229 304.708 206.077 305.11 207.042 305.047C209.172 304.898 211.271 305.195 213.339 305.609C219.19 306.775 225.159 306.966 231.026 308.339C238.77 310.157 246.552 312.351 254.672 311.938C257.529 311.795 260.275 312.457 263.005 313.152C267.738 314.36 272.593 314.456 277.406 314.514C282.335 314.572 285.002 311.54 285.018 306.637C285.033 303.197 285.256 299.741 285.018 296.317C284.763 292.744 284.265 289.001 282.108 286.091C278.911 281.771 269.137 279.153 263.99 280.976C261.441 281.877 258.891 282.164 256.23 282.243C248.995 282.46 241.813 281.713 234.61 281.384C223.118 280.865 212.65 277.843 203.331 271.069C196.287 265.949 191.177 259.333 188.606 250.974C187.292 246.696 186.412 242.291 184.456 238.215C183.921 237.097 183.926 235.835 183.836 234.595C183.698 232.671 183.682 230.651 183.046 228.87C181.005 223.129 182.468 217.436 184.451 212.411C186.497 207.216 190.424 202.721 193.764 198.089C195.073 196.27 196.615 194.569 198.418 193.079C202.753 189.496 207.99 187.476 212.644 184.487C221.125 179.032 230.793 176.875 240.286 174.304C246.928 172.507 253.861 172.571 260.683 171.887C272.895 170.657 284.328 165.818 296.286 163.295C301.963 162.097 307.603 162.001 312.792 164.641C319.974 168.293 325.386 174.209 330.576 180.199C334.312 184.513 337.153 189.56 341.468 193.445C344.982 196.61 349.371 197.474 353.67 198.613C354.465 198.825 355.462 198.661 356.272 198.396C362.039 196.514 365.951 192.496 368.808 187.312C369.556 185.96 369.603 184.418 368.686 183.289C365.76 179.69 363.068 175.878 358.7 173.679C355.79 172.21 352.615 171.463 349.811 169.671C341.68 164.477 336.38 157.109 332.68 148.41C332.213 147.318 331.954 146.555 330.459 147.244C325.36 149.587 319.906 148.834 314.557 148.749C313.1 148.728 311.621 148.071 310.492 147.005C306.251 143.014 302.838 138.333 299.477 133.616C299.382 133.478 299.35 133.287 299.302 133.117C297.686 127.318 294.839 122.002 292.788 116.383C291.564 113.033 289.91 110.202 287.238 107.902C284.323 105.384 282.733 102.092 281.832 98.4082C281.625 97.5548 281.434 96.6589 281.016 95.9009C275.805 86.4603 273.213 76.0868 270.595 65.7768C269.137 60.0202 267.881 53.9032 272.143 48.5706C275.731 44.0809 280.851 41.4358 286.231 41.0595C293.249 40.5718 300.241 39.7979 307.253 39.2943C308.032 39.236 308.965 39.4428 309.368 38.5575C310.995 34.9901 311.78 31.2054 310.052 27.5797C308.732 24.8127 305.589 24.2403 302.864 24.007C300.129 23.7738 297.426 23.5247 294.813 22.7295C289.491 21.1075 283.963 21.6005 278.567 21.4097C274.586 21.2718 270.484 21.7171 266.439 21.7542C262.57 21.786 259.363 23.1006 256.787 25.8941C252.017 31.0729 247.999 36.6917 246.986 43.9219C246.642 46.3602 246.202 48.788 245.995 51.2316C245.412 58.2339 243.986 65.0771 249.34 71.491C254.603 77.7989 258.96 84.9072 263.688 91.6762C269.27 99.675 275.763 107.038 280.279 115.773C282.701 120.459 286.237 124.536 287.859 129.661C289.306 134.231 290.747 138.906 288.431 143.491C284.62 151.039 279.563 157.692 272.731 162.807C269.137 165.494 265.183 167.037 260.476 166.979C254.131 166.899 247.818 165.987 241.463 166.327C240.472 166.38 239.576 166.014 238.654 165.675C235.357 164.45 232.097 162.499 228.721 162.256C220.505 161.672 212.374 162.627 204.81 166.401C202.764 167.424 200.644 168.325 198.481 169.062C192.11 171.23 187.424 175.221 185.055 181.571C182.903 187.344 180.322 192.957 178.323 198.767C175.302 207.545 169.127 212.48 160.349 214.007C153.432 215.21 146.897 217.436 140.361 219.79C138.066 220.617 135.506 221.189 133.995 223.325C130.666 228.032 125.954 231.165 121.544 234.658C116.143 238.931 110.62 243.124 104.174 245.62C98.1954 247.937 91.9938 249.712 85.649 250.836C79.6965 251.891 73.7812 252.442 68.1467 249.299C62.2578 246.018 57.392 241.364 51.943 237.494C47.8987 234.621 44.9463 230.852 42.9798 226.278C42.5717 225.324 41.8774 224.47 41.2095 223.659C35.1722 216.334 34.0538 207.794 37.7376 199.594C41.1617 191.977 42.4498 183.994 44.5806 176.143C46.1072 170.519 48.8475 165.749 53.4749 162.123C55.5474 160.496 58.0917 159.192 59.5705 157.13C64.288 150.552 69.3235 144.307 75.0904 138.609C78.2071 135.529 78.0269 134.469 75.6417 130.827C72.3765 125.85 67.8446 122.002 63.901 117.645C58.7489 111.952 56.2947 105.644 57.8955 98.0742C61.2189 82.3416 76.8926 79.5534 87.6792 85.8242C91.8613 88.2573 95.6246 91.6391 98.5081 95.7472C99.9764 97.8357 101.492 99.8394 103.708 101.292C110.805 105.946 118.693 105.85 126.675 105.299C126.929 105.283 127.168 105.119 127.417 105.023C131.684 103.364 136.72 95.0157 136.253 90.4518C136.152 89.4817 135.898 88.7502 134.875 88.4587C131.742 87.5788 128.663 86.3278 125.472 85.8984C122.032 85.432 119.334 84.0644 116.927 81.679C113.217 78.0056 108.346 75.8535 104.429 72.424C103.936 71.9946 103.146 71.8038 102.468 71.7031C98.9056 71.1889 95.3914 70.3991 91.734 70.4945C84.96 70.6694 78.2125 70.7489 71.433 71.3002C62.6236 72.0158 53.5438 72.6943 45.4552 67.5367C44.9463 67.2133 44.2626 67.1815 43.7272 66.8847C39.7678 64.6796 35.257 63.2378 32.8082 58.9283C30.8629 55.4934 29.0289 51.9737 26.8132 48.7137C22.7742 42.7875 20.5375 36.7341 23.8768 29.6947C24.6083 28.1522 25.8804 26.0902 24.4651 24.8021C23.1718 23.6254 20.8979 24.1077 19.1752 24.8657C12.3641 27.85 5.57403 31.1259 0.702879 36.856C-5.75842 44.4573 -8.49353 48.8516 -2.59931 58.642C1.01031 64.6372 4.95392 70.2665 12.0673 72.8586C15.2422 74.0195 18.1469 76.0496 21.0039 77.9473C26.4687 81.5783 29.6226 87.2342 32.7869 92.6622C36.7147 99.3888 37.796 107.255 40.3296 114.554C42.2378 120.046 41.6335 126.062 43.9127 131.532C44.8986 133.902 46.7167 135.847 47.2309 138.397C48.8157 146.306 47.8935 153.854 43.4835 160.729C39.9639 166.215 36.5557 171.749 33.3276 177.421C29.0501 184.953 23.6011 191.505 15.1468 194.765C6.18359 198.221 1.85314 197.198 -4.23719 189.973C-6.76551 186.978 -9.28327 183.898 -11.7109 180.787C-12.6014 179.647 -13.7252 178.895 -15.1298 178.428C-21.5593 176.292 -28.3175 175.428 -34.7576 173.297C-37.5668 172.369 -40.5882 171.882 -43.5512 171.638C-50.7864 171.049 -57.889 176.87 -60.216 184.784C-62.3733 192.125 -64.6738 199.424 -67.0219 206.708C-68.8612 212.416 -69.3806 217.961 -65.9565 223.325C-65.1084 224.656 -64.4935 226.145 -63.8151 227.577C-61.1118 233.28 -59.0022 239.09 -59.7125 245.61C-60.0623 248.843 -60.9421 251.748 -62.8557 254.425C-67.4936 260.929 -74.2518 264.82 -80.7131 269.071C-81.6248 269.67 -82.8546 269.86 -83.973 270.067C-89.6975 271.138 -95.5386 270.968 -101.295 271.663C-105.811 272.209 -109.93 270.035 -114.345 270.083L-114.345 257.372C-112.935 257.372 -111.435 257.049 -110.126 257.42C-103.664 259.238 -97.1712 258.13 -90.6887 257.897C-88.9289 257.833 -87.0155 257.833 -85.6002 256.821C-81.8845 254.17 -77.9675 251.827 -74.7606 248.43C-72.1793 245.694 -71.9143 242.768 -72.9584 239.678C-74.4797 235.178 -75.9904 230.529 -78.736 226.66C-83.4164 220.065 -81.7255 212.883 -80.3527 206.273C-78.471 197.187 -74.9832 188.42 -72.0309 179.568C-69.0732 170.689 -63.6984 163.978 -54.5551 160.761C-50.2987 159.261 -46.1855 157.978 -41.4627 158.72C-32.2293 160.172 -23.3986 163.199 -14.2764 165.076C-10.2692 165.897 -6.16657 167.291 -3.37318 170.636C-0.336006 174.278 3.32134 177.405 5.69067 181.614C6.57586 183.193 7.94335 183.533 9.77209 182.944C14.2616 181.497 17.1398 178.105 19.7053 174.564C24.0411 168.569 26.8292 161.593 31.3505 155.688C32.9301 153.621 33.9319 151.209 34.6315 148.797C35.3789 146.226 35.3365 143.592 33.9266 140.909C31.6791 136.632 30.0041 132.052 29.2515 127.223C27.2956 114.66 24.7461 102.325 16.6999 91.9095C15.3748 90.1973 13.9701 88.7767 12.0248 87.759C7.88507 85.6016 3.63409 83.5714 -0.198185 80.9422C-8.6366 75.1591 -13.6563 66.6726 -17.3772 57.4123C-19.3066 52.6098 -19.0892 47.4628 -17.674 42.5967C-15.522 35.2128 -10.7833 29.3873 -5.133 24.3357C-1.03571 20.6728 3.82495 18.0967 8.57422 15.4145C13.7104 12.5097 19.1805 10.681 25.2337 11.158C29.8664 11.5238 33.37 13.4585 35.7022 17.6514C38.7183 23.0741 38.2359 28.4861 36.1051 33.93C35.2676 36.0768 35.2252 37.7783 36.7093 39.729C38.1829 41.6744 39.0999 44.0385 40.3879 46.1429C41.7607 48.3798 42.7996 51.3058 44.8297 52.5515C49.9606 55.7054 55.3301 58.6314 61.7066 58.7586C67.0124 58.8647 72.2281 57.884 77.4968 57.7303C83.3168 57.5554 89.1475 57.6826 94.9727 57.7568C102.796 57.8575 109.947 59.5008 116.217 64.8598C122.133 69.9114 128.7 74.0619 136.714 75.5461C147.453 77.5339 150.586 86.2642 149.065 95.4716C148.253 100.38 144.962 104.165 142.757 108.448C140.345 113.128 136.497 115.461 131.933 117.099C125.429 119.436 118.677 119.129 112.083 118.005C103.671 116.574 95.9003 113.335 90.4354 106.38C87.9654 103.237 85.1932 100.486 82.2673 97.8198C79.3891 95.1959 73.7865 94.9945 71.8942 97.4487C69.7528 100.226 70.0973 105.066 72.5992 107.732C77.0516 112.482 81.4935 117.231 85.6067 122.293C90.7588 128.628 91.6758 136.706 88.6014 142.017C86.2851 146.019 83.6401 149.963 79.6382 152.614C77.5763 153.981 76.2247 155.911 75.0056 157.941C71.8465 163.204 68.0037 167.779 62.8356 171.24C59.756 173.302 57.9221 176.17 57.0687 180.002C55.3195 187.858 54.0897 195.862 50.1302 203.156C47.692 207.646 48.2645 212.342 51.9484 216.376C53.2469 217.791 54.3548 219.424 55.0704 221.253C56.1728 224.078 58.2772 226.039 60.6253 227.82C63.2914 229.84 65.9046 231.928 68.5602 233.959C72.366 236.863 76.0975 239.53 81.4828 238.379C88.3046 236.922 95.3172 235.803 101.407 232.469C109.952 227.789 118.083 222.324 124.285 214.526C125.726 212.719 127.534 211.24 129.654 210.307C138.198 206.549 146.785 202.986 156.162 201.645C159.538 201.163 163.445 200.522 165.04 196.79C167.913 190.074 170.32 183.162 173.198 176.446C175.79 170.392 179.124 164.705 185.161 161.429C194.448 156.393 203.845 151.437 214.515 150.048C222.885 148.961 231.382 147.811 239.348 152.052C241.813 153.361 242.401 152.481 242.142 150.08C242.078 149.491 242.248 148.855 242.396 148.262C243.567 143.597 241.839 139.24 239.502 135.747C236.502 131.273 232.198 127.668 228.445 123.693C228.085 123.311 227.677 122.887 227.083 123.035C223.039 124.058 218.814 123.846 214.945 126.184C207.8 130.509 200.861 135.317 192.879 138.1C186.036 140.485 179.505 143.565 172.949 146.592C170.431 147.758 168.597 149.454 167.754 152.211C167.166 154.14 166.138 155.9 165.136 157.67C159.104 168.383 150.671 176.006 138.368 178.704C133.068 179.865 128.599 181.927 125.626 186.994C122.737 191.929 118.555 195.889 114.272 199.769C110.376 203.294 107.18 207.577 102.976 210.853C98.4074 214.415 93.5044 217.139 87.5148 216.546C80.6241 215.867 76.6222 214.129 74.1893 206.988C72.5568 202.202 72.7423 197.272 72.1645 192.411C71.6769 188.287 72.8059 184.466 74.5868 180.681C76.1558 177.341 78.3132 174.23 79.193 170.609C80.7779 164.105 85.0183 159.817 90.6475 156.833C95.1211 154.463 98.2484 151.808 100.072 146.433C102.77 138.466 110.111 134.209 117.929 132.068C125.504 129.99 132.643 127.61 138.787 122.447C143.43 118.546 148.566 115.28 151.969 110.033C154.651 105.903 158.489 103.343 163.333 101.991C170.563 99.9719 176.018 89.6726 171.846 82.7657C170.086 79.8503 168.952 76.5426 167.659 73.3622C165.963 69.1905 164.892 64.9181 167.166 60.6086C168.56 57.9582 170.298 55.5199 172.207 53.1929C174.316 50.622 176.913 48.3268 177.735 44.929C178.09 43.4501 178.732 41.526 177.391 40.487C176.145 39.5223 174.777 40.8581 173.617 41.6426C165.374 47.1924 157.657 53.5321 148.577 57.8151C144.135 59.9089 140.138 63.0045 135.119 63.7943C131.143 64.4198 127.184 64.6478 123.633 62.2306C115.046 56.3945 112.448 44.9396 117.664 36.0397C119.18 33.4582 121.094 31.11 122.61 28.555C125.514 23.6466 126.548 17.6355 121.74 13.1511C119.053 10.6439 115.168 9.81164 112.178 12.6422C110.196 14.5187 108.245 16.427 106.501 18.5526C101.201 25.0248 97.6547 32.7479 91.6863 38.7643C85.7551 44.7382 79.2937 49.6149 70.9401 51.714C62.332 53.8767 52.8176 45.7983 53.9573 37.7995C54.5562 33.5748 54.2117 29.2282 53.0668 24.9611C52.1127 21.4149 52.118 17.5878 51.0154 14.1052C48.89 7.36799 44.1142 2.83586 37.6899 -3.19816e-05L58.3461 -3.10787e-05C60.0422 3.55676 62.8197 6.6842 63.5034 10.6226C64.9611 18.9978 67.394 27.2458 66.8852 35.9072C66.6838 39.3738 67.3994 39.7131 70.7228 38.3243C78.186 35.2022 83.5129 29.5781 87.8223 23.0476C93.4567 14.5028 98.8898 5.86789 107.604 -2.89256e-05C113.784 -2.86554e-05 119.965 -2.83853e-05 126.14 -2.81153e-05C126.331 0.180197 126.505 0.381625 126.712 0.535346C131.467 3.97553 135.564 8.20021 137.048 13.8773C139.115 21.7807 137.785 29.4562 132.961 36.257C131.483 38.3455 130.041 40.4499 128.774 42.6656C127.64 44.6481 128.069 48.5441 129.415 50.1608C131.297 52.4243 133.444 51.2316 135.177 50.3146C142.407 46.4821 149.886 43.0208 156.48 38.1176C160.084 35.4354 163.72 32.838 167.431 30.3043C171.533 27.5055 175.949 27.1079 180.581 27.5956C185.076 28.0674 190.218 32.9017 190.621 37.3066C191.23 43.9855 190.822 50.4683 186.401 56.1666C184.249 58.9442 181.71 61.4196 179.86 64.4516C179.087 65.7238 178.912 66.8105 179.521 68.1516C180.836 71.0352 182.113 73.94 183.327 76.8713C185.251 81.4988 187.244 85.9991 186.078 91.3582C183.677 102.384 178.159 110.616 167.028 114.263C165.39 114.798 163.747 115.455 162.846 116.865C158.908 122.998 153.321 127.34 147.723 131.829C140.504 137.623 132.744 142.054 123.633 143.841C120.325 144.487 117.521 146.009 114.834 147.864C112.888 149.205 111.521 150.891 111.272 153.435C111.033 155.852 109.724 157.814 108.182 159.727C105.51 163.045 102.192 165.383 98.418 167.201C94.7978 168.945 91.9037 171.267 91.1033 175.598C90.7747 177.373 89.8417 179.08 88.9512 180.692C86.2904 185.531 83.9847 190.355 85.331 196.186C85.9247 198.746 84.8222 202.276 87.6792 203.485C90.5839 204.714 93.0273 202.228 95.3861 200.506C99.6371 197.399 102.415 192.82 106.422 189.538C110.731 186.013 113.747 181.513 117.033 177.161C120.468 172.613 124.391 168.828 130.47 167.63C134.827 166.772 139.243 165.569 143.16 163.236C149.52 159.451 153.262 153.557 155.934 146.899C157.137 143.904 158.727 141.365 161.166 139.128C165.586 135.068 171.141 133.218 176.378 130.827C184.854 126.958 193.896 124.361 201.805 119.198C206.586 116.076 211.367 112.858 217.075 111.522C218.639 111.156 218.326 110.181 217.775 109.1C216.349 106.306 215.756 103.269 215.681 100.179C215.575 95.7684 214.282 92.413 209.713 90.6744C206.194 89.3386 204.042 86.4868 202.727 82.8505C199.987 75.2651 201.142 68.3 205.557 61.7483C207.317 59.135 208.807 56.474 208.176 53.177C207.831 51.3694 207.619 49.4665 206.883 47.8126C205.128 43.8901 205.298 40.0629 207.073 36.3206C210.206 29.7106 214.266 23.6148 218.157 17.4553C221.957 11.4337 226.351 5.79898 230.486 -2.35542e-05C235.781 -2.33228e-05 241.082 -2.30911e-05 246.377 -2.28596e-05C246.414 0.577758 246.085 0.985914 245.746 1.40467C240.08 8.37514 235.214 15.9393 229.738 23.0476C226.224 27.6115 224.39 33.1773 220.738 37.6458C218.819 39.994 218.618 42.4801 219.524 45.5333C221.772 53.1081 222.053 60.6139 216.969 67.4731C215.946 68.8566 215.008 70.3832 214.457 72.1006C213.174 76.0868 214.181 78.6258 217.823 80.5288C223.823 83.6721 227.157 88.676 227.857 95.3867C228.445 101.037 228.943 106.619 234.901 109.688C236.523 110.526 236.157 112.959 237.467 114.204C240.854 117.438 243.642 121.207 246.827 124.615C253.501 131.75 256.76 139.977 255.271 149.82C255.181 150.408 254.863 150.928 255.329 151.559C257.338 154.262 261.155 155.025 264.017 153.101C268.628 150.011 272.031 145.813 275.021 141.175C276.632 138.673 276.775 136.436 275.683 133.727C273.462 128.204 269.54 123.682 266.953 118.365C265.029 114.416 262.008 111.098 259.564 107.457C256.707 103.2 252.647 99.9136 250.336 95.2701C246.933 88.4481 241.681 82.8876 237.371 76.6857C235.415 73.8711 233.687 71.1306 233.11 67.7646C231.731 59.7393 232.993 51.7988 233.979 43.8636C235.129 34.582 239.025 26.5514 245.174 19.5385C249.573 14.5187 254.524 10.3205 261.345 9.29217C265.072 8.73029 268.883 8.7568 272.657 8.51826C278.127 8.16841 283.565 8.91582 289.014 8.96353C292.587 8.99533 296.016 9.55191 299.414 10.5431C300.336 10.8135 301.317 11.158 302.244 11.0944C307.455 10.7287 311.775 13.1882 316.227 15.2873C318.146 16.1884 319.482 17.6514 320.589 19.3901C325.084 26.4454 324.793 40.0205 319.603 46.5776C316.768 50.1662 313.094 52.525 308.043 52.4667C301.46 52.3925 294.935 53.6593 288.299 53.6434C283.433 53.6328 281.45 57.0518 282.765 61.7324C283.719 65.1195 284.88 68.4696 285.558 71.9098C287.297 80.7514 292.672 88.2043 294.855 96.8657C295.216 98.2863 296.53 99.1079 297.521 100.094C299.658 102.209 302.048 104.202 303.034 107.107C304.852 112.46 307.804 117.385 309.336 122.781C310.757 127.785 313.847 131.448 317.08 135.148C319.333 137.729 328.545 135.116 329.489 132.29C329.568 132.047 329.542 131.766 329.553 131.501C329.733 128.341 329.955 125.182 330.083 122.018C330.204 118.911 330.501 115.773 331.932 113.038C333.263 110.499 332.325 109.057 330.395 107.732C328.148 106.19 326.637 104.043 325.344 101.721C324.74 100.634 324.051 99.6485 323.208 98.7209C317.642 92.588 312.501 86.1158 307.99 79.1665C305.663 75.5779 306.416 71.5069 309.172 68.247C313.842 62.713 320.69 61.7536 326.849 59.3576C330.226 58.0484 333.878 57.6561 337.445 57.3858C342.131 57.0253 344.346 55.2867 344.288 50.1715C344.235 45.6552 345.894 41.1496 345.38 36.5433C344.876 32.0323 343.678 27.3995 340.885 24.0335C336.13 18.3087 332.653 11.7782 328.217 5.8838C326.902 4.13456 325.895 2.14678 325.296 0.00528133C330.061 -1.92016e-05 334.827 -1.89933e-05 339.597 -1.87848e-05C340.323 1.09723 340.933 2.3005 341.802 3.27054C344.712 6.50399 346.037 10.7923 349.064 13.9462C354.963 20.0898 357.147 27.7918 358.091 35.9549C358.796 42.0507 357.158 48.03 356.834 54.0834C356.712 56.3733 356.935 58.8435 355.477 60.985C352.801 64.9128 349.467 67.8918 344.691 68.8672C337.403 70.3567 329.971 71.2048 323.006 74.1096C321.316 74.8146 320.611 75.2068 321.861 76.9985C323.383 79.1771 325.429 80.9263 326.839 83.1367C329.966 88.0399 334.821 91.5861 337.408 96.924C338.002 98.1484 339.226 99.2881 340.753 97.6131C345.2 92.7205 351.062 89.9482 356.893 87.2766C367.472 82.4265 375.736 74.7086 383.507 66.3705C385.961 63.7414 388.712 61.2606 388.457 56.8928C388.224 52.843 387.715 48.8516 387.312 44.8336C386.464 36.363 382.982 29.3714 376.234 24.0653C371.57 20.3972 369.121 15.9976 370.075 9.64202C370.579 6.29726 371.745 3.23873 372.434 0.0105841L386.735 0.0105848L386.735 -1.67244e-05ZM690.751 272.145C685.244 272.145 684.02 273.216 683.362 278.225C683.352 278.31 683.362 278.405 683.346 278.49C681.995 284.846 681.412 291.419 678.862 297.446C674.744 307.183 669.814 316.491 663.522 325.073C660.544 329.139 657.326 332.642 652.635 334.736C649.455 336.157 649.465 336.66 651.861 339.433C653.61 341.458 655.572 343.604 655.662 346.244C655.842 351.407 656.489 356.65 654.962 361.754C654.618 362.915 654.512 363.975 655.556 364.897C657.867 366.938 660.072 369.122 662.749 370.681C667.349 373.357 669.539 372.409 670.678 367.156C671.664 362.608 672.56 358.028 673.26 353.427C674.473 345.465 677.972 338.367 681.449 331.264C682.525 329.064 684.057 327.018 686.034 325.508C691.833 321.071 697.605 316.592 703.584 312.415C708.884 308.715 712.134 304.013 711.884 297.435C711.651 291.196 708.598 286.266 703.976 282.248C702.041 280.568 699.969 278.983 698.676 276.757C696.773 273.476 694.329 271.451 690.757 272.145L690.751 272.145ZM3.36375 369.074C7.63597 369.578 11.8446 368.444 16.1009 367.876C17.5533 367.68 19.6363 367.85 20.2618 366.997C20.9986 365.984 19.6152 364.277 19.2759 362.841C18.0356 357.588 12.8464 353.273 7.51408 353.305C4.67302 353.321 1.91142 352.822 -0.860733 352.419C-5.05879 351.815 -8.80092 353.48 -10.9901 357.058C-11.5519 357.98 -11.817 358.812 -11.2074 359.745C-10.3805 361.007 -10.0625 362.544 -9.30983 363.768C-7.55006 366.641 -5.42983 369.26 -1.49153 369.09C0.0933066 369.021 1.67815 369.08 3.35313 369.08L3.36375 369.074Z"
      fill="url(#paint0_linear_140_2559)" fill-opacity="0.04" />
  </g>
  <defs>
    <linearGradient id="paint0_linear_140_2559" x1="-149.093" y1="274.599" x2="121.873" y2="278.725"
      gradientUnits="userSpaceOnUse">
      <stop stop-color="#08001A" />
      <stop offset="1" stop-color="white" />
    </linearGradient>
    <clipPath id="clip0_140_2559">
      <rect width="375" height="647" fill="white" />
    </clipPath>
  </defs>
</svg>
