<svg xmlns="http://www.w3.org/2000/svg" width="2467" height="1722" fill="none">
  <g >
    <path fill="url(#b)" filter="url('#disFilter')" fill-opacity=".1"
      d="M1068.79 1721.97c.5-6.67 4.73-11.79 7.46-17.5 5.62-11.8 4.39-16.93-5.05-25.41-22.88-20.56-35.9-46.25-39.4-76.9-1.73-15.13-3.43-30.21-3.11-45.51.25-11.64 4.06-22.35 11.17-30.62 23.1-26.9 47.85-52.3 78.95-70.27 12.78-7.38 26.12-13.77 39.18-20.63 8.46-4.45 15.14-10.59 19.85-19.12 7.93-14.34 15.19-28.68 13.77-45.83-.28-3.34.95-6.79 1.19-10.2 1.99-28.39-9.87-51.42-28.18-71.78-8.68-9.65-21.39-12.59-32.41-18.28-13.72-7.1-26.21-15.52-34.49-29.04-1-1.64-2.54-3-3.95-4.36-14.29-13.86-16.95-31.31-9.43-48.1 12.3-27.5 32.46-47.91 63.09-55.38 6.69-1.62 13.33-2.29 20.39-.89 29.75 5.92 54.23 19.99 71.27 45.47 12 17.94 26.32 33.65 42.84 47.42 9.21 7.68 19.57 9.22 31.09 6.21 30.16-7.82 60.34-15.6 90.64-22.91 12.92-3.12 26.41-1.62 39.58-3.44 32.05-4.44 63.2-11.63 91.64-27.94 8.74-5.02 17.85-9.4 26.55-14.48 11.28-6.62 19.98-15.79 25.79-27.65 1.62-3.28 3.45-6.79 6.1-9.17 8.13-7.33 7.82-17.78 9.76-27.02 1.15-5.52-2.84-11.92-2.75-17.9.19-12.1-7.38-21.77-9.17-33.06-1.82-11.38-6.08-21.69-11.61-31.65-7.71-13.87-20.31-22.436-33.52-29.935-11.37-6.463-24.67-8.061-36.89-12.483-.91-.326-1.9-.681-2.85-.666-26.49.326-52.95-5.842-79.35-1.301-10.52 1.804-20.84 2.751-31.42 2.81-28.93.133-51.92-11.093-68.35-35.143-3.68-5.384-4.14-11.862-6.09-17.764-7.18-21.565-2.75-43.5-3.98-65.213-.33-5.768.27-12.039 3.49-16.344 5.12-6.848 3.95-12.971 2.12-20.293-2.22-8.83-1.99-18.104.34-27.008 2.51-9.658 2.7-19.228-2.3-27.91-7.95-13.8-13.43-28.99-23.74-41.488-8.6-10.428-17.97-19.968-28.38-28.62-7.88-6.553-10.9-15.28-10.74-25.559.34-21.166.09-42.361.33-63.527.06-5.561-1.23-10.664-3.02-15.811-2.04-5.813-5.75-6.7-11.03-4.467-13.48 5.695-22.6 16.27-30.78 27.748-3.55 4.984-6.29 10.56-9.57 15.752-4.81 7.617-4.68 14.953-.31 22.911 3.93 7.159 8.86 13.622 9.06 22.896.54 22.822-11.34 37.273-29.42 48.322-11.52 7.04-23.65 13.208-34.49 21.151-11.12 8.149-19.58 19.316-26.68 31.12-3.95 6.567-.28 13.681 2.26 19.745 5.03 11.951 4.1 24.139 3.06 36.327-.69 8.149-5 14.776-12.17 19.242-24.69 15.398-64.43 21.95-91.47 3.018-9.86-6.908-17.69-15.176-19.28-28.236-1.36-11.197-9.129-19.864-13.966-29.715-12.039-24.582-21.994-49.682-23.783-77.592-.829-13.016-9.644-22.571-20.308-29.257-18.829-11.803-39.432-14.613-60.894-8.697-22.763 6.272-45.955 10.221-69.295 13.416-4.467.606-8.623 2.041-12.557 4.082-11.256 5.857-23.414 8.845-35.779 10.842-26.654 4.304-41.681 33.53-30.884 58.216 6.316 14.421 16.344 26.86 20.989 42.08.798 2.633 3.209 4.97 5.309 6.981 7.987 7.677 10.901 17.439 11.271 27.985.399 11.507.281 22.733-4.999 33.841-6.996 14.717-19.095 19.923-33.664 21.225-11.759 1.05-23.592.311-35.128-2.766-13.83-3.683-21.861-14.007-29.567-25.115-10.102-14.569-16.921-30.927-26.284-45.91-5.028-8.061-8.031-17.35-13.045-25.589-10.028-16.477-24.168-27.244-42.879-31.696-13.445-3.195-25.425-8.978-35.542-18.4-5.073-4.733-10.945-8.313-16.729-12.01-11.019-7.026-20.914-15.605-30.676-24.109-8.179-7.13-17.32-7.973-27.008-9.245-10.886-1.434-18.903 1.11-23.399 12.114-1.716 4.201-5.014 7.898-8.12 11.345-8.564 9.525-10.842 21.151-11.3 33.264-.873 23.207-20.323 43.811-43.323 41.932-19.109-1.568-33.22 6.597-48.188 15.708-8.697 5.28-14.909 12.04-21.003 19.953-15.013 19.465-25.426 41.429-35.483 63.467-7.766 17.039-9.185 36.046-12.854 54.312-.828 4.142-1.36 8.535-3.475 11.951-4.911 7.987-1.391 13.667 4.363 18.474 10.634 8.875 19.346 19.479 28.457 29.789 5.769 6.54 10.605 13.55 14.747 21.09 11.33 20.68 24.73 40.16 34.463 61.77 7.883 17.5 2.839 36.5-11.685 49.04-12.957 11.19-26.417 21.82-37.939 34.84-9.481 10.72-21.52 19.31-32.969 28.14-19.597 15.12-26.608 43.15-14.613 64.58 5.902 10.53 14.569 19.18 25.026 25.51 15.146 9.18 29.7 19.08 43.944 29.66 15.604 11.6 33.619 17.94 53.469 18.84 29.744 1.36 58.912-2.23 87.547-9.67 16.284-4.23 30.587-12.9 44.254-22.79 9.17-6.63 14.702-14.91 19.036-25.29 5.073-12.18 13.385-22.96 18.976-34.96 11.33-24.34 27.526-45.83 39.61-69.73 6.242-12.35 16.359-22.09 26.402-31.52 16.137-15.18 33.042-29.64 52.344-40.5 21.403-12.05 44.299-17.93 68.201-6.7 16.403 7.71 25.307 21.61 28.428 38.94 8.061 44.79-3.772 83.85-35.883 116.14-15.781 15.89-32.924 30.38-53.823 39.46-5.65 2.46-8.978 7.38-11.212 12.26-3.431 7.5-7.795 14.59-9.288 23.12-2.752 15.71-14.052 24.29-28.192 29.39-4.97 1.79-7.44 4.88-9.244 9.54-6.671 17.16-12.158 35.25-25.026 48.95-25.574 27.21-55.081 47.58-94.514 47.36-21.668-.14-42.923 4.18-64.443 5.5-18.134 1.11-36.016 4.39-54.061 6.21-4.984.5-9.451 2.5-14.317 3.3-18.829 3.07-37.214-.48-55.599-3.39-8.727-1.37-15.175-7.69-22.009-12.93-18-13.78-36.341-26.92-58.542-33.51-5.916-1.76-10.546-1.23-16.033 1.51-13.12 6.52-23.399 17.05-35.957 24.3-18.429 10.63-37.066 18.69-59.252 20.07-21.92 1.36-43.5.93-65.227-.83-9.215-.74-15.708 2.99-21.255 10.46-9.673 13.01-19.213 26.07-26.786 40.58-2.662-1.52-1.523-3.72-1.538-5.42-.104-14.78.99-29.66-.385-44.3-1.198-12.86 4.763-21.27 14.259-26.7 9.747-5.56 15.16-12.85 19.523-22.99 9.777-22.77 27.157-38.7 49.639-49.15 8.697-4.03 17.172-8.5 25.262-13.75 10.265-6.64 17.942-15.72 22.985-26.33 8.046-16.89 14.111-34.59 11.951-53.93-.384-3.46-1.597-6.53-3.757-9.42-8.623-11.52-20.174-19.34-32.88-25.32-22.748-10.71-44.298-23.47-65.834-36.34-12.025-7.17-24.552-13.53-36.015-21.64-2.618-1.85-5-3.42-4.926-7.44.267-14.49.104-29 .104-43.65 3.298-.06 4.452 2.49 5.946 4.14 13.356 14.94 30.617 24.32 47.42 34.66 30.202 18.59 62.934 32.73 92.634 51.93 14.939 9.66 27.777 23.74 31.978 41.95 2.958 12.79 2.721 26.77-.059 39.62-5.34 24.63-14.318 48-32.096 66.92-11.67 12.42-25.914 21.25-41.237 27.96-12.277 5.39-22.438 13.05-31.475 22.56-1.331 1.39-2.174 3.25-3.21 4.93-2.913 4.66-1.272 6.89 3.89 6.9 9.851.05 19.909 1.19 29.493-.43 8.963-1.5 18.134.15 26.964-3.15 17.512-6.55 32.229-17.36 47.375-27.94 13.711-9.58 28.265-20.32 46.621-16.75 17.423 3.38 34.093 9.73 49.194 19.33 12.646 8.04 25.351 16.05 36.592 26.07 4.068 3.63 9.274 3.81 14.407 4.72 14.48 2.61 28.428 1.66 42.967-.97 18.252-3.32 36.755-5.89 55.407-7.06 17.083-1.06 34.092-3.45 51.146-5.18 3.417-.34 6.893-.63 10.31-.44 26.83 1.49 48.794-8.47 69.013-25.88 13.357-11.51 19.347-26.29 25.515-41.4 4.984-12.21 9.791-24.16 21.639-31.58 11.448-7.18 15.293-11.83 20.958-23.65 3.491-7.31 6.775-14.78 11.005-21.66 6.803-11.06 16.21-18.99 28.028-25.21 28.428-15 52.02-35.25 63.675-66.65 6.212-16.72 6.094-33.75 2.573-50.79-2.159-10.48-11.61-14.65-23.902-12.72-14.243 2.23-25.484 10.11-36.296 18.56-15.072 11.79-29.922 23.83-42.391 38.62-8.564 10.14-12.897 22.55-20.041 33.37-15.028 22.77-26.165 47.76-40.527 70.89-3.92 6.31-5.295 13.68-8.845 20.25-9.244 17.1-25.263 26.49-40.631 36.43-27.17 17.55-58.261 23.16-89.602 26.52-29.109 3.12-58.439 4.63-86.763-5.77-14.836-5.46-28.591-12.69-40.986-22.9-9.436-7.76-20.041-14.24-30.573-20.51-28.694-17.09-48.114-40.68-53.868-74.28-1.568-9.17-.769-18.58 2.544-26.82 6.878-17.11 15.072-33.8 28.916-46.68 6.094-5.68 12.913-10.59 19.095-16.18 17.631-15.97 35.055-32.17 52.685-48.14 4.171-3.78 5.488-7.19 2.411-12.63-16.743-29.69-31.312-60.8-55.258-85.78-7.632-7.95-16.684-14.51-23.222-23.57-1.834-2.547-4.777-2.089-7.484-2.148-9.585-.178-19.347.68-28.724-.843-14.613-2.367-25.159-11.789-33.486-23.592-3.728-5.28-8.268-9.51-13.061-13.829-40.778-36.755-46.591-99.764 1.613-135.351 16.181-11.951 32.214-24.079 48.366-36.06 2.825-2.085 5.339-4.349 6.863-7.558 9.909-20.84 18.562-41.991 21.712-65.228 2.219-16.388 4.112-32.998 13.889-47.567 13.992-20.87 21.476-22.955 45.201-18.977 12.439 2.086 23.147 8.209 32.584 16.344 3.92 3.387 5.532 3.446 8.86-1.183 8.608-11.995 7.188-20.825-6.479-28.088-8.075-4.289-14.524-10.871-21.772-16.358-14.702-11.138-31.297-19.45-45.733-31.002-9.377-7.499-14.658-16.743-14.924-29.02-.636-29.167 9.348-53.735 30.735-73.702 6.257-5.843 7.44-14.717 2.84-22.054-14.243-22.659-50.096-34.018-73.762-10.146-3.993 4.023-6.818 9.141-8.785 14.391-7.869 20.87-14.983 42.213-18.178 64.178-2.337 16.048-.533 32.821 4.821 48.617 5.68 16.788 10.694 33.62 10.842 51.605.059 7.78 3.106 15.265 2.825 23.296-.606 17.32-2.988 34.285-9.185 50.452-6.419 16.758-19.76 26.534-35.261 34.802-14.924 7.958-30.869 14.096-44.683 24.095-11.094 8.046-17.247 19.021-18.888 32.569-1.183 9.762-4.423 19.213-5.606 28.827-3.624 29.686-4.925 59.193 9.836 87.104 7.159 13.533 8.756 28.709 11.034 43.914 2.795 18.651 8.061 37.095 21.994 52.032 19.997 21.45 44.15 37.38 67.446 54.55 6.523 4.81 13.134 9.48 19.672 14.27 19.317 14.16 13.415 52.02-6.745 64.8-16.077 10.18-32.451 9.99-49.549 5.95-11.951-2.83-23.222-8.42-35.054-11.29-24.627-5.97-46.74-17.78-69.754-27.54-18.148-7.7-32.096-19.74-39.418-38.57-1.064-2.74-2.07-5.8-4.008-7.87-9.599-10.19-10.694-22.41-10.161-35.6.65-15.98.148-31.995.148-48.783 15.678 10.117 25.366 23.773 29.197 41.203 1.73 7.84 3.816 15.11 9.067 21.38 3.816 4.55 6.33 10.01 8.445 15.51 3.565 9.31 9.999 15.34 19.11 19.17a691.106 691.106 0 0 1 32.288 14.53c8.239 3.95 16.507 7.35 25.559 9.18 14.983 3.02 28.428 10.86 43.337 14.41 5.177 1.23 10.265 1.4 15.353.91 3.683-.35 7.07-2.18 8.135-6.43 1.065-4.3-1.878-6-4.792-8.09-25.204-17.96-51.043-35.19-73.733-56.32-16.876-15.73-30.173-33.98-36-57.199-3.58-14.288-7.1-28.354-8.343-43.16-.65-7.765-4.718-15.486-8.253-22.734-6.123-12.498-11.019-25.395-11.566-39.284-.902-22.97-3.402-46.088 2.958-68.792 2.056-7.337 3.047-14.85 4.215-22.379 3.757-24.464 15.841-43.736 36.83-57.551 16.698-10.975 35.527-17.882 52.374-28.591 6.079-3.86 10.161-8.43 12.291-14.864 5.473-16.522 6.981-33.132 4.156-50.659-2.1-13.046-2.085-26.609-7.114-38.9-8.697-21.239-9.244-43.47-10.058-65.775-.251-6.759 1.154-13.311 3.003-19.583 7.469-25.292 11.256-51.916 25.839-74.723 14.214-22.231 34.581-34.034 61.012-35.542 25.633-1.465 47.272 7.632 65.494 25.055 9.156 8.756 16.462 19.036 18.444 32.037.622 4.082 2.559 5.828 6.508 6.626 20.116 4.038 35.72 14.851 46.251 32.437 9.659 16.151 23.104 29.3 34.345 44.18 7.173 9.496 19.183 9.599 29.493 11.714 19.242 3.949 38.648 1.672 57.832-1.804 15.619-2.84 30.424-.769 43.869 7.839 18.311 11.744 34.714 25.248 46.532 44.269 9.052 14.569 21.432 26.86 34.581 37.983 5.074 4.289 11.448 6.478 18.356 6.759 4.54.178 7.203-1.065 6.552-6.168-.118-.976.148-1.996-.059-2.943-6.123-29.345-5.561-60.361-22.068-87.103-8.889-14.392-16.965-29.316-32.259-38.471-6.345-3.801-12.824-5.99-20.13-6.035-13.016-.089-25.914-.059-38.9 2.559-9.259 1.879-18.829.399-28.295-2.692-13.001-4.245-27.171-4.615-39.802-10.324-9.644-4.363-20.781-4.437-29.656-10.649-13.578-9.511-20.485-23.503-25.366-38.737-4.201-13.12-11.907-24.154-20.249-34.862-3.15-4.038-7.691-6.035-11.744-8.786-19.775-13.371-38.249-28.384-56.042-44.254-3.476-3.106-6.878-6.346-10.575-9.156-6.627-5.043-14.2-2.914-21.24-1.671-29.242 5.117-57.492 14.761-86.955 19.095-21.092 3.106-41.962 7.809-63.083 10.59-18.681 2.455-35.543-2.736-49.21-16.477-1.538-1.553-3.313-3.047-5.25-4.008-16.743-8.402-31.446-20.086-47.597-29.449-7.84-4.541-16.388-2.677-24.597-2.529-6.745.133-9.185-1.76-8.608-8.653.606-7.085.295-14.273.073-21.417-.118-4.023 1.199-5.265 5.4-5.739 26.12-2.943 48.365 5.443 68.007 22.201 2.219 1.894 4.763 3.58 7.41 4.807 11.656 5.458 22.512 12.07 32.141 20.678 5.961 5.325 12.898 6.079 20.589 4.718 26.801-4.762 53.735-8.786 80.447-14.007 19.968-3.905 39.566-9.643 59.504-13.74 16.654-3.417 33.93-6.434 49.431 3.387 9.037 5.724 16.92 13.385 24.848 20.677 16.137 14.865 33.694 27.777 52.034 39.758 11.597 7.558 18.844 19.169 26.225 30.528 6.892 10.605 11.699 22.172 15.545 34.138 2.618 8.179 7.573 13.356 16.27 15.145 4.762.977 9.407 2.84 13.874 4.807 14.554 6.42 30.602 6.73 45.674 11.227 8.356 2.499 17.305-2.352 26.105-3.18 31.475-3.003 60.332 3.372 82.075 27.348 18.252 20.13 31.859 43.692 39.476 70.168 4.157 14.406 6.035 29.182 7.958 44.076 1.568 12.129 4.467 24.006 4.141 36.415-.458 17.779-16.003 33.25-33.945 34.241-25.824 1.42-45.674-8.874-62.92-27.644-13.696-14.894-25.07-31.608-38.471-46.488-10.96-12.172-23.591-26.268-42.878-23.177-19.066 3.062-38.19 5.34-57.211 3.565-23.414-2.189-47.642-4.955-64.015-25.041-13.474-16.536-28.073-32.288-39.092-50.718-2.899-4.851-6.981-8.224-11.759-10.856-6.892-3.816-12.735-5.621-20.456.65-13.829 11.271-21.313 25.189-23.916 42.376-1.006 6.626 1.656 10.723 7.099 14.599 13.608 9.702 28.842 17.009 41.562 27.969 8.032 6.922 17.217 12.203 25.603 18.592 19.613 14.954 27.186 41.548 13.09 64.888-12.498 20.692-19.287 43.529-17.956 68.111.414 7.84 6.138 12.972 11.729 16.966 8.002 5.724 17.69 7.07 27.482 5.65 4.629-.666 7.351-3.698 7.942-8.461 1.065-8.505 2.086-17.024 3.21-25.529 1.538-11.67 9.732-19.686 16.24-28.472 3.964-5.369 7.81-10.753 10.724-16.684 6.197-12.602 17.142-18.104 30.143-19.524 13.223-1.435 26.535.207 39.729 1.553 6.936.71 13.119 4.215 18.636 8.416 20.086 15.308 39.994 30.883 60.125 46.147 5.103 3.876 10.93 7.011 17.275 8.076 25.293 4.26 43.737 20.027 60.007 37.776 7.987 8.727 10.989 21.831 17.453 32.185 7.795 12.483 12.498 26.594 21.21 38.53 1.302 1.79 2.973 3.491 3.668 5.517 5.798 16.743 19.287 17.483 33.709 16.477 2.396-.163 4.289-.932 5.531-3.017 2.189-3.669.784-17.616-1.76-21.225-16.255-22.956-30.632-47.494-37.184-74.605-7.085-29.316 2.869-58.764 30.942-76.558 14.288-9.052 29.331-14.391 45.438-17.97 3.091-.696 6.301-1.509 9.067-2.988 15.116-8.091 31.682-9.925 48.292-11.981 12.661-1.568 25.115-4.496 37.406-7.972 32.732-9.259 64.562-7.736 93.67 10.827 21.964 14.007 36.869 33.324 38.469 61.042 1.36 23.798 11.73 44.86 22.4 65.701 5.63 11.004 13.11 20.84 15.02 34.048 1.3 9.022 12.19 9.422 20.03 10.768 7.38 1.272 14.63-1.124 21.77-2.855 10.92-2.647 13.03-6.523 9.54-17.246-3.67-11.241-7.02-22.482-6.43-34.566.26-5.591 1.46-10.679 4.52-15.323 15.27-23.237 32.51-44.24 58.31-56.945 6.92-3.417 13.78-7.543 20.26-11.981 9.19-6.286 9.97-10.22 5.25-20.263-3.09-6.597-7.02-12.617-8.69-20.145-3.78-17.054 3.06-30.662 11.43-44.299 5.66-9.215 11.65-18.133 18.56-26.505 11.95-14.465 26.79-24.568 44.63-29.922 22.11-6.626 34.37 2.441 46.11 20.633 6.01 9.304 8.48 20.278 8.33 31.697-.26 20.441-.03 40.882-.29 61.308-.06 4.94 1.62 8.076 5.51 11.138 18.82 14.805 32.69 33.752 43.37 54.933 4.08 8.105 8.9 15.782 12.51 24.212 6.55 15.22 6.52 30.529 3.37 46.222-2.07 10.265-1.96 10.087 7.81 9.407 17.71-1.228 35.35.207 52.76 3.505 7.96 1.509 15.8 3.875 23.96 3.639 26.36-.755 51.28 7.513 76.81 11.98 14.45 2.529 29.1 4.038 43.65 5.976 4.53.606 5.72-2.189 6.67-5.991 2.66-10.619 4.36-21.077.08-31.741-2.43-6.034-2.28-12.749-2.12-18.947.68-24.612-8.98-48.676-4.97-73.111 3.36-20.53 4.44-40.956 4.25-61.618-.06-6.42-1.47-11.833-4.59-17.883-16.45-31.948-11.39-55.643 15.07-78.051 10.27-8.697 20.58-17.497 33.18-23.029 27.29-11.981 53.44-9.659 78.94 5.325 20.41 11.98 41.51 14.657 64.17 5.65 24.45-9.718 49.38-12.114 74.67-1.746 6.43 2.633 13.9 2.722 20.9 3.964 12.5 2.234 24.25 6.464 34.56 13.963 3.85 2.795 7.77 3.905 12.38 3.683 25.44-1.184 48.67 5.502 69.59 19.967 5.21 3.609 10.96 2.737 16.45 2.308 20.75-1.642 41.55-2.633 62.06-7.1 20.76-4.526 36.05-15.93 47.5-33.279 1.08-1.642 1.96-3.476 3.28-4.896 19.67-21.314.19-52.581-25.28-54.208-9.98-.636-20.08-.474-30.07-2.234-15.7-2.766-29.27 5.147-43.17 10.369-26.65 10.028-53.57 17.689-82.53 16.255-15.12-.755-28.53-4.881-39.39-15.619-8.28-8.209-11.27-19.258-12.57-30.055-2.43-20.234-2.83-40.69.37-60.953.91-5.813 3.22-11.345 6.02-16.596 2.27-4.289 1.76-7.869-2.07-11.122-20.74-17.631-20.58-39.137-11.48-62.329 5.75-14.673 10.19-29.656 10.66-45.615.18-6.138-2.57-10.383-7.42-13.504-16.86-10.871-47.01-10.073-63.19 1.405-3.7 2.618-6.48 6.035-6.36 10.25.4 13.83-2.45 27.378-2.94 41.089-.7 19.657 4.8 38.427 10.6 56.93 5 15.915 9.13 32.111 15.64 47.597 4.83 11.492.63 23.192-2.05 34.655-4.57 19.553-14.09 36.015-29.58 48.987-5.51 4.63-11.98 6.286-18.83 7.736-14.12 2.987-28.53 3.742-42.58 1.996-20.48-2.529-42.98-21.653-32.95-51.62 5.75-17.216 9.88-34.98 18.16-51.368 3.51-6.952 4.62-13.859-3-20.338-8.03-6.833-10.09-17.808-15.01-26.815-7.07-12.942-16.45-24.716-21.41-38.678-10.19-28.694-8.34-56.723 6.04-83.938 11.09-20.989 23.34-41.06 41.12-57.152 11.87-10.753 25.6-19.125 38.88-27.866 14.17-9.318 18.89-29.241 17-43.53-.23-1.685-1.02-2.588-2.68-3.002-20.74-5.177-41.39-6.242-59.18 7.588-8.76 6.804-17.25 14.554-23.97 23.71-5.71 7.765-12.13 14.775-19.69 20.825-6.07 4.851-8.54 11.995-9.63 19.361-3.88 26.254-14.53 49.387-32.29 68.985-8.09 8.918-16.43 17.039-20.44 29.123-5.41 16.373-16.65 27.585-34.2 31.445-10.1 2.233-19.36 1.376-29.28-2.781-15.09-6.315-29.73-13.237-41.8-24.138-11.17-10.088-23.07-20.057-26.94-35.927-4.33-17.823 1.53-32.008 15.45-43.042 11.44-9.081 24.36-15.471 38.2-20.307 14.39-5.014 26.36-13.046 35.16-26.461 10.32-15.767 4.51-25.766-8.71-34.552-9.01-5.99-17.37-12.794-26.32-18.813-12.85-8.653-26.09-16.123-40.61-21.847-12.01-4.733-23.02-12.024-34.52-18.059-9.44-4.955-19.47-8.756-30.18-8.268-23.68 1.08-43.61-7.174-61.48-22.098-5.95-4.97-12.93-8.711-18.24-16.58 23.3 1.11 45.57-1.864 67.7 2.011 3.93.696 7.79.977 11.71.917 18.46-.325 35.37 4.91 50.99 14.436 15.11 9.215 31.63 15.575 47.46 23.34 16.03 7.884 29.95 18.651 44.34 28.901 8.33 5.931 17.53 10.34 24.01 19.007 6.26 8.371 12.29 16.861 15.2 26.756 4.37 14.821-2.07 28.029-9 40.542-13.67 24.656-35.71 38.515-61.89 46.946-7.51 2.426-14.12 6.893-20.57 11.478-4.74 3.372-4.56 7.661-1.23 11.389 10.41 11.596 21.76 22.068 37.02 27.096.93.311 1.87.651 2.77 1.036 14.7 6.256 17.75 5.413 23.15-9.688 4.02-11.241 10.36-20.426 18.87-28.561 17.27-16.551 26.87-36.785 30.56-60.569 1.98-12.779 6.79-25.573 17.33-34.27 14.14-11.655 24.78-26.52 37.45-39.521 26.08-26.742 57.37-31.963 92.22-26.21 2.66.444 5.3 1.198 7.97 1.302 20.49.828 29.32 8.741 30.67 28.916.72 10.782 1.73 21.965-.26 32.436-3.83 20.264-13.1 37.85-31.16 49.742-11.89 7.824-23.69 15.856-34.94 24.568-7.55 5.857-13.56 13.652-18.84 21.594-8.28 12.454-16.89 25.174-20.9 39.61-6.57 23.591.05 45.127 14.07 64.666 5.48 7.632 9.63 15.988 13 24.759 1.52 3.95 3.73 7.44 6.95 10.295 10.84 9.614 13.08 22.009 11.3 35.631-1.21 9.348-4.23 18.119-8.47 26.535-6.14 12.158-8.41 25.662-12.98 38.382-1.62 4.541 0 7.455 5.61 7.662 8.9.325 17.67-.917 26.45-1.82 7.2-.739 11.59-6.286 14.98-12.025 5.54-9.436 7.22-20.293 10-30.72.47-1.76-.34-3.328-.93-4.97-11.14-30.454-21.19-61.278-26.24-93.374-1.82-11.552-1.29-23.488.22-35.291 1.08-8.505.31-17.217 1.06-25.781 2.59-28.886 21.15-43.44 46.89-51.265 24.06-7.321 47.7-5.99 70.36 4.881 26.31 12.617 38.91 36.341 30.54 68.008-3.83 14.481-7.3 29.02-12.69 43.071-3.92 10.206-1.93 14.717 6.82 21.536 10.64 8.268 16.79 26.668 10.12 40.896-8.74 18.622-7.8 37.702-7.77 57.049 0 1.479-.19 3.017.15 4.422 3.55 14.806 3.77 19.42 21.74 20.042 23.45.798 45.57-5.458 66.31-14.998 29.38-13.519 59.34-12.424 90.27-9.599 16.34 1.493 28.93 9.495 41.16 18.163 7.8 5.517 12.88 14.687 17.01 23.695 11.27 24.552 6.67 47.034-8.18 68.718-10.81 15.796-22.97 30.01-39.42 40.053-15.2 9.289-32.46 12.144-49.56 15.797-17.17 3.668-34.7 2.633-51.96 5.28-13.49 2.071-26.89-.473-38.5-9.111-13.5-10.028-29.02-14.406-45.69-13.962-14.17.384-27.14-1.272-38.46-11.33-6.06-5.399-14.83-6.479-22.85-7.558-10.28-1.376-20.13-3.772-29.98-7.144-15.04-5.162-29.49-.355-43.78 4.703-11.3 4.008-22.58 8.505-34.99 7.78-19.59-1.139-38.64-4.674-55.59-15.042-27.26-16.655-46.49-10.679-69.9 9.717-2.78 2.426-5.32 5.118-7.91 7.751-9 9.215-9.62 19.302-1.45 29.463 5.47 6.804 8.33 14.096 7.87 23.059-.57 10.812-.43 21.669-.06 32.496.49 14.835-1.44 29.345-4.16 43.884-1.34 7.174-1.88 14.865.67 21.905 2.82 7.839 3.28 15.752 3.37 23.917.16 14.968 1.24 29.715 5.09 44.446 3.25 12.454.59 25.456-2.83 37.835-2.72 9.895 1.72 17.246 8.77 22.453 6.02 4.452 13.49 2.914 20.27-.311 20.82-9.895 40.97-21.195 63.2-28.176 9.58-3.003 19.34-4.127 28.93-4.585 21.36-1.036 42.42-5.251 63.88-4.926 9.16.133 15.6 3.949 21.39 10.857 7.64 9.14 13.21 19.479 19.03 29.7 10.06 17.645 5.62 36.903-6.95 54.8-14.52 20.648-37.11 24.39-57.55 32.924-8.76 3.653-18.16 6.05-27.76 7.144-4.68.533-9.36 1.154-13.86-.473-9.95-3.609-19.57-1.05-28.81 2.085-10.48 3.565-10.96 8.002-11.16 22.305-.23 17.926 21.53 45.452 37.48 50.092 12.1 3.54 20.99-.17 30.21-6.37 9.86-6.63 17.98-15.21 26.58-23.28 12.78-12.011 28.79-17.543 45.43-21.64 4.77-1.169 9.51-2.441 14.19-3.935 9.73-3.135 16.62-9.096 19.33-19.405 5.55-21.136 11.71-42.11 16.82-63.349 4.74-19.716 16.46-34.448 31.55-46.843 10.14-8.327 22.52-9.377 35.02-7.928 6.67.769 12.19 4.704 15.5 10.383 10.01 17.232 16.85 35.055 13.34 55.939-2.17 12.972-4.64 26.091-3.83 39.522.28 4.792 1.75 8.09 5.74 10.205 9.11 4.822 17.63 10.798 27.72 13.741 3.22.946 6.42 2.662 9.11 4.689 8.83 6.655 17.7 13.223 26.67 19.701 11.22 8.12 17.3 20.59 24.36 32.1 1.92 3.13 3.3 6.59 4.89 9.92 5.99 12.53 14.4 20.34 29.75 20.77 34.71.99 65.52 14.39 93.49 34.05 13.58 9.54 26.6 20.19 34.55 35.64 5.11 9.91 13.28 17.6 20.93 25.57 3.73 3.89 6.44 4.38 8.18-2.1 3.15-11.67 4.2-23.62 6.14-35.46 2.82-17.24.64-34.38-.43-51.45-1.39-22.12-9.78-42.08-31.39-50.95-14.65-6.02-30.8-10.295-47.43-8.08-17.81 2.38-35.62 3.94-53.56 1.07-4.98-.8-9.33-3.004-13.89-4.75-5.04-1.937-9.85-4.955-15.05-5.931-15-2.84-26.12-11.744-36.82-21.668-5.47-5.088-10.72-10.369-12.72-17.749-5.12-18.903-16.5-35.114-22.64-53.573-2.34-7.025-4.16-14.066-4.28-21.579-.09-5.636-1.51-11.168-3.47-16.507-2.67-7.203-4.65-14.643-3.77-22.364 1.09-9.688-3.08-17.586-8.97-24.183-6.46-7.247-14.17-13.312-21.92-19.391-10.44-8.194-21.19-8.105-32.97-8.504-27.27-.917-54.52.946-81.78.443-17.37-.31-30.38-6.345-39.4-22.142-11.34-19.849-29.62-25.174-50.79-16.654-9.13 3.683-18.25 7.248-27.95 9.289-4.04.858-8.38 2.056-11.64 4.378-8.1 5.768-17.01 8.608-26.69 9.673-10.23 1.124-20.48 2.115-30.7 3.431-22 2.855-50.44-14.643-55.53-39.802-3.86-19.08-6.52-37.909-1.65-56.752 4.28-16.581 12.82-31.653 25.55-43.145 10.46-9.422 24.66-10.398 38.27-10.916 11.33-.429 22.57-1.005 33.34-5.028 2.05-.77 4.27-1.613 6.42-1.598 22.61.044 45.05-3.357 67.6-3.343 5.4 0 10.83 3.018 16.22 4.719 19.33 6.123 39.46 9.747 59.4 9.066 23.75-.813 46.84 3.358 70.22 5.044 17.14 1.228 25.84 10.369 30.31 27.393 1.3 4.94.97 10.93 4.55 14.554 4.71 4.748 9.23-1.76 14.13-2.041 12.85-.754 23.83-7.263 35.26-12.306 10.41-4.6 20.99-8.638 32.69-5.532 2.35.621 5.15 1.154 6.74 2.722 8.86 8.756 19.11 2.691 28.73 3.076 1.58.059 2.7-1.272 2.94-2.855 2.94-19.168 15.21-33.841 24.11-50.141 12.88-23.561 27.58-45.881 45.44-66.026 1.95-2.204 3.61-4.733 5.78-6.67 14.51-12.942 18.25-30.262 19.61-48.411.56-7.573-3.68-13.223-8.69-18.769-16.39-18.104-27.77-39.285-34.6-62.595-2.9-9.895.24-20.693-1.38-30.854-1.55-9.791-.31-18.991 1.9-28.383 5.8-24.76 21.89-39.877 45.11-48.086 8.31-2.943 16.98-4.659 25.96-4.954 11.33-.37 18.97 4.969 23.38 14.702 6.26 13.859 10.55 28.516 17.8 42.035 6.16 11.507 14.25 21.195 23.72 29.878 5.75 5.28 15.97 6.685 22.69 2.455 13.3-8.372 26.5-16.95 39.15-26.254 9.38-6.907 8.4-18.133.43-26.816-11.61-12.631-22.73-25.854-31.25-40.867-3.52-6.212-8.17-11.048-13.79-15.027-8.41-5.961-16.86-11.936-25.75-17.113-8.21-4.778-13.92-11.67-18.87-19.287-9.25-14.2-19.33-28.487-22.47-45.216-4.3-22.837-3.67-45.6 5.81-67.949 7.03-16.566 9.5-34.211 3.49-52.419-7.3-22.171-7.39-44.357 3.14-65.996 1.71-3.52 3.5-4.748 7.16-4.69 9.11.164 18.23.267 27.33-.043 4.9-.163 6.33 1.212 4.25 5.798-1.22 2.677-1.91 5.635-3.32 8.194-8.8 15.93-8.62 32.377-3.33 49.253 8.07 25.677 3.66 50.6-5.41 74.96-7.59 20.352-9.12 40.039 2.96 59.267 3.52 5.606 5.49 11.981 9.2 17.601 7.28 11.019 19.29 15.826 29.36 22.955 14.1 9.969 25.48 21.447 34.7 36.356 7.44 12.04 15.63 24.494 27.97 32.925 2.82 1.937 4.88 4.777 6.57 7.868 11.47 20.959 6.53 50.511-11.94 65.642-15.78 12.927-33.31 23.444-50.56 34.359-15.75 9.969-49.78 2.663-61.81-8.371-20.1-18.445-33.44-40.986-43.23-66.012-1.41-3.609-1.88-9.658-4.9-10.058-5.34-.71-11 1.479-15.73 5.014-14.48 10.798-14.91 25.988-13.33 41.844.18 1.701.8 3.416.71 5.088-1.46 25.41 12.29 44.002 27.45 62.106 12.28 14.643 19.11 30.765 15.93 50.807-3.19 20.219-7.01 39.861-21.61 55.273-12.38 13.061-23.87 26.949-33.78 41.784-13.05 19.539-24.2 40.35-36.64 61.442 8.52.739 15.93 1.626 23.37 1.967 7.52.34 14.73 1.789 21.21 5.487 4.56 2.603 6.18.843 8.45-3.002 12.6-21.447 19.82-44.462 24.45-68.941 4.54-24.049 18.78-41.887 43.67-48.868 6.36-1.79 8.57-6.39 8.83-12.129 1.42-30.351 18.32-52.463 39.51-71.499 11.85-10.634 26.55-14.081 43.31-11.581 14.46 2.16 29.48.902 44.25.74 5.62-.06 7.75-4.941 7.43-9.363-1.6-21.743 7.38-40.216 19.02-57.019 12.04-17.394 29.25-28.694 50.63-32.54v38.412c-10.89 2.529-18.76 8.949-24.05 18.681-6.04 11.093-9.96 22.379-10.25 35.557-.4 18.163-11.86 38.205-32.56 40.779-3.84.473-6.24 2.322-5.68 6.862.24 1.835-.54 3.846-1.05 5.71-3.83 14.007-2.13 27.17 5.93 39.388 1.28 1.922 2.86 3.372 5.27 3.624 9.97 1.05 19.73 3.579 29.92 3.135 10.8-.458 21.64-.089 32.45-.074v35.469c-24-.622-48.27 2.041-71.82-4.689-5.96-1.701-8.73.636-11.21 5.118-2.62 4.718-4.87 9.717-7.99 14.08-9.38 13.105-10 21.95-1.55 35.72 4.77 7.795 8.37 16.122 11.64 24.597 3.49 9.082 2.99 18.045-3.03 25.825-7.8 10.088-16.23 19.643-25.8 28.177-11.97 10.664-19.86 23.384-18.78 40.246.32 5.162 2.26 7.809 7.95 6.389 20.74-5.177 39.44-14.583 57.05-26.579 11.86-8.076 21.52-18.681 32.91-27.156 9.36-6.966 18.58-14.584 30.63-16.832v39.891c-4.72 1.183-8.18 4.319-11.43 7.647-6.57 6.685-13.84 12.513-21.21 18.267-25.93 20.233-54.39 35.439-87.04 41.059-19.93 3.431-35.37-3.86-41.36-23.917-2.96-9.924-3.68-19.864-2.82-29.892 1.05-12.188 3.41-23.547 11.32-34.226 9.35-12.602 20.62-23.103 31.35-34.211 4.46-4.63 5-8.298 1.89-13.519-4.14-6.952-8.36-13.859-10.93-21.669-5.5-16.684-7.47-33.575 1.73-49.224 5.43-9.214 11-18.592 17.41-27.111 5.62-7.455 6.73-12.972 3.09-21.905-5.49-13.416-2.85-28.088-1.94-42.287.15-2.308 1.73-6.316-1.21-6.316-9.88-.015-20.86-4.423-29.45 2.293-15.75 12.291-26.4 28.235-27.84 48.913-1.37 19.938-14.74 36.725-33.81 41.473-7.02 1.746-11.36 6.405-15.17 12.011-3.73 5.472-4.94 11.803-5.7 18.103-3.61 30.115-17.07 56.22-33.19 81.113-3.27 5.044-3.72 8.402-.07 12.839 9.97 12.128 8.09 26.224 2.35 38.278-11.77 24.716-32.39 37.199-60.36 36.933-9.17-.089-17.87-3.209-27.02-3.076-18.63.266-33.82-8.683-47.01-20.175-10.13-8.815-17.75-20.145-19.95-34.418-1.04-6.671-4.07-13.164-7.01-19.347-1.76-3.712-4.46-8.49-10.02-5.798-16.81 8.15-34.31 14.126-52.25 19.406-19.44 5.709-41.24-3.195-49.26-21.846-2.24-5.251-3.55-10.724-5.19-16.122-.81-2.662-1.61-4.999-5.22-5.147-21.08-.858-41.9-4.763-63.13-4.378-18.66.34-37.12-2.796-55.34-6.937-11.41-2.589-22.26-8.727-34.48-6.227-11.73 2.396-23.53 1.286-35.32 1.464-4.99.074-9.96.606-14.5 2.263-10.33 3.786-20.93 5.236-31.81 5.103-7.17-.089-14.16 1.242-21.15 2.47-2.15.37-4.26.651-5.61 2.943-7.1 12.084-14.58 23.725-13.12 38.989.68 7.159 2.34 14.007 3.48 21.003 1.46 8.874 6.82 13.652 15.84 12.912 16.67-1.375 33.12-1.819 49.12-9.85 16.71-8.387 35.39-13.031 53.48-18.415 9.96-2.973 20.62-2.366 30.74-.355 21.21 4.23 35.62 18.607 48.69 34.581 1.94 2.367 2.71 5.798 6.79 6.005 5.38.266 10.66 1.598 16.12 1.302 29.01-1.568 58.04-1.553 87.07-1.435 9.47.044 17.86 2.795 25.25 8.712 2.87 2.292 5.74 4.807 9.03 6.315 12.97 6.02 22.11 16.61 30.76 27.127 7.54 9.185 15.66 19.864 15.18 32.155-.76 19.169 8.83 36.208 8.9 54.978.01 4.969 2.32 9.451 4.01 14.095 4.05 11.138 11.95 20.5 15.08 31.963 2.8 10.25 7.53 18.533 16.41 25.041 6.06 4.452 13.22 5.029 19.4 8.446 17.31 9.54 35.83 10.309 54.98 8.076 31.74-3.683 61.52.532 89.31 18.621 25.1 16.348 34.55 40.308 37.36 67.608 2.28 22.16 3.25 44.55.5 66.96-2.05 16.65-4.73 33.07-10.91 48.68-9.57 24.16-31.97 31.31-53.06 16.01-15.17-11-28.43-24.59-37.43-41.22-6.56-12.07-16.61-20.22-27.26-27.36-23.85-16-50.28-25.03-79.27-26.65-11.49-.65-23.23-2.73-32.05-11.3-9.39-9.14-17.44-19.48-22.54-31.64-9.27-22.11-26.73-36.18-47.21-46.3-14.84-7.318-29.42-14.758-42.69-24.624-7.39-5.502-11.11-12.912-11.23-22.156-.2-16.241.76-32.289 3.64-48.396 1.59-8.786 3.18-18.459-2.36-27.215-2.19-3.461-3.46-3.89-6.5-.991-8.09 7.735-12.92 17.069-15.66 27.851-4.88 19.272-10.53 38.353-15.22 57.669-7.34 30.174-28.65 44.162-56.9 50.832-10.97 2.59-22.64 4.56-31.19 12.46-10.48 9.67-20.62 19.64-32.44 27.75-13.42 9.2-27.61 17.32-44.36 15.04-39.7-5.4-63.04-30.8-76.16-66.56-6.9-18.844-6.67-38.427 3.76-56.265 14.14-24.183 43.97-29.803 70.35-26.579 5.48.681 10.63.754 15.99-.665 13.6-3.595 26.29-9.6 39.44-14.377 7.37-2.677 10.3-8.653 14.88-13.504 6.78-7.189 1.38-12.942-2.31-18.962-1.65-2.722-2.58-5.916-4.42-8.505-2.84-4.008-5.66-6.7-12.02-5.946-12.15 1.45-24.26 3.654-36.62 3.654-24.34 0-46.6 7.454-68.1 18.606-13.2 6.834-25.87 15.708-41.16 17.409-14.72 1.642-29.41 2.796-41.27-9.747-4.28-4.511-10.4-7.262-13.86-12.942-1.32-2.144-3.68-3.269-6.38-3.091-5.94.414-11.8-.414-17.57-1.568-16.33-3.254-32.98-3.786-49.35-7.617-21.61-5.073-43.33-11.197-65.99-10.043-7.97.399-15.63-1.45-23.25-3.387-13.2-3.373-26.75-3.639-40.18-3.802-13.76-.162-21.2 8.298-21.24 21.98-.05 9.599-.67 19.243 0 28.797.71 9.969 2.1 20.412 8.12 28.532 8.92 12.054 36.19 19.361 50.55 14.273 7.12-2.514 14.23-3.313 21.66-3.535 20.19-.606 40.23 1.479 60.33 2.396 32.06 1.45 61.28 9.88 87.28 28.783 19.66 14.288 33.91 32.747 41.09 56.075 3.67 11.93 6.12 24.22 11.58 35.6 1.49 3.12 1.48 6.64 1.73 10.1.38 5.37.43 11.01 2.2 15.97 5.7 16.02 1.62 31.91-3.92 45.93-5.71 14.5-16.67 27.04-25.98 39.97-3.66 5.07-7.96 9.82-12.99 13.97-12.1 10-26.71 15.64-39.7 23.98-23.66 15.22-50.64 21.24-77.13 28.41-18.54 5.02-37.88 4.84-56.92 6.75-34.08 3.43-65.98 16.93-99.35 23.97-15.84 3.35-31.58 3.61-46.06-3.75-20.04-10.2-35.14-26.7-49.62-43.42-10.43-12.04-18.36-26.12-30.4-36.96-9.8-8.83-22.05-11.24-34.04-14.42-2.22-.59-5-.13-7.27.61-16.09 5.25-27 16.46-34.98 30.93-2.08 3.77-2.22 8.07.34 11.22 8.17 10.04 15.68 20.68 27.87 26.82 8.12 4.09 16.98 6.18 24.8 11.18 22.69 14.49 37.48 35.05 47.81 59.32 1.3 3.05 2.02 5.18 6.2 3.26 14.22-6.54 29.44-4.44 44.37-4.2 4.07.06 8.19 1.89 11.34 4.86 11.84 11.14 21.36 24.2 30.74 37.37.26.38.35.91.49 1.39 4.51 16.18 12.45 31.01 18.17 46.69 3.42 9.35 8.04 17.25 15.49 23.67 8.13 7.02 12.57 16.21 15.09 26.49.57 2.38 1.11 4.88 2.27 6.99 14.54 26.35 21.78 55.29 29.08 84.06 4.07 16.06 7.58 33.13-4.32 48.01-10.01 12.53-24.3 19.91-39.31 20.96-19.58 1.36-39.09 3.52-58.66 4.92-2.17.17-4.78-.41-5.9 2.06-4.54 9.95-6.73 20.52-1.91 30.63 3.68 7.72 12.45 9.32 20.06 9.97 7.63.65 15.17 1.35 22.46 3.57 14.85 4.52 30.28 3.15 45.34 3.68 11.11.38 22.55-.86 33.84-.96 10.8-.09 19.74-3.76 26.93-11.55 13.31-14.46 24.53-30.13 27.35-50.31.96-6.8 2.19-13.58 2.77-20.39 1.62-19.54 5.6-38.64-9.34-56.54-14.68-17.6-26.84-37.43-40.03-56.32-15.58-22.32-33.7-42.86-46.3-67.24-6.76-13.07-16.62-24.45-21.15-38.75-4.04-12.75-8.06-25.8-1.6-38.59 10.64-21.06 24.75-39.62 43.81-53.9 10.03-7.5 21.06-11.8 34.2-11.64 17.7.22 35.32 2.77 53.05 1.82 2.77-.15 5.27.87 7.84 1.82 9.2 3.42 18.3 8.86 27.72 9.54 22.93 1.63 45.62-1.03 66.72-11.57 5.71-2.85 11.63-5.36 17.66-7.42 17.78-6.05 30.86-17.19 37.47-34.91 6-16.1 13.21-31.77 18.78-47.98 8.43-24.49 25.66-38.26 50.16-42.52 19.3-3.36 37.54-9.57 55.77-16.14 6.41-2.31 13.55-3.9 17.77-9.86 9.29-13.14 22.44-21.88 34.74-31.63 15.07-11.92 30.49-23.62 48.47-30.58 16.68-6.47 33.99-11.42 51.69-14.56 16.61-2.94 33.12-4.48 48.84 4.29 16.44 9.16 30.01 22.14 45.22 32.94 11.28 8.02 19.52 18.53 25.01 31.3 1.14 2.66 3.08 5.04 4.94 7.3 16.85 20.45 19.97 44.27 9.69 67.15-9.56 21.26-13.15 43.53-19.1 65.44-4.26 15.69-11.9 29-24.82 39.12-5.78 4.54-12.88 8.18-17 13.93-13.17 18.36-27.22 35.78-43.31 51.68-8.7 8.6-8.2 11.55-1.54 21.72 9.11 13.88 21.76 24.62 32.76 36.78 14.38 15.89 21.23 33.49 16.76 54.61-9.27 43.9-53.01 51.68-83.11 34.18-11.67-6.79-22.17-16.23-30.22-27.69-4.09-5.83-8.33-11.42-14.51-15.47-19.8-12.99-41.81-12.72-64.09-11.18-.71.04-1.37.5-2.07.77-11.9 4.63-25.95 27.92-24.65 40.66.28 2.7.99 4.75 3.84 5.56 8.74 2.45 17.34 5.95 26.24 7.14 9.6 1.3 17.13 5.12 23.84 11.78 10.36 10.25 23.95 16.25 34.88 25.82 1.38 1.2 3.58 1.73 5.47 2.01 9.94 1.44 19.75 3.64 29.95 3.38 18.91-.49 37.74-.71 56.65-2.25 24.59-2 49.92-3.89 72.49 10.5 1.42.9 3.33.99 4.83 1.82 11.04 6.15 23.63 10.17 30.46 22.2 5.43 9.58 10.55 19.4 16.73 28.5 11.27 16.54 17.52 33.43 8.2 53.07-2.04 4.3-5.59 10.06-1.64 13.65 3.6 3.29 9.95 1.94 14.76-.18 19-8.32 37.95-17.46 51.54-33.45 18.03-21.21 25.66-33.47 9.22-60.79-10.08-16.73-21.08-32.44-40.93-39.67-8.86-3.24-16.96-8.91-24.94-14.2-15.25-10.13-24.05-25.91-32.88-41.06-10.96-18.77-13.97-40.72-21.04-61.09-5.33-15.32-3.64-32.11-10-47.37-2.75-6.61-7.83-12.04-9.26-19.16-4.42-22.06-1.85-43.13 10.46-62.31 9.82-15.31 19.33-30.75 28.34-46.58 11.93-21.01 27.14-39.29 50.73-48.39 25.01-9.64 37.09-6.79 54.09 13.37 7.05 8.36 14.08 16.95 20.85 25.63 2.49 3.18 5.62 5.28 9.54 6.58 17.94 5.97 36.8 8.38 54.77 14.32 7.84 2.59 16.27 3.95 24.54 4.63 20.19 1.64 40.01-14.6 46.5-36.68 6.02-20.48 12.44-40.85 19-61.17 5.13-15.93 6.58-31.41-2.98-46.37-2.36-3.72-4.08-7.87-5.97-11.87-7.55-15.91-13.43-32.12-11.45-50.31.97-9.03 3.43-17.13 8.77-24.6 12.94-18.15 31.8-29.006 49.83-40.869 2.54-1.671 5.98-2.204 9.1-2.78 15.97-2.988 32.27-2.515 48.33-4.452 12.6-1.524 24.1 4.54 36.42 4.407v35.464c-3.94 0-8.12.91-11.78-.13-18.03-5.072-36.14-1.98-54.23-1.33-4.91.18-10.25.18-14.2 3-10.37 7.4-21.3 13.94-30.25 23.42-7.2 7.63-7.94 15.79-5.03 24.42 4.25 12.55 8.46 25.53 16.12 36.32 13.06 18.4 8.34 38.44 4.51 56.89-5.25 25.35-14.98 49.81-23.22 74.51-8.25 24.78-23.25 43.5-48.76 52.48-11.88 4.19-23.36 7.77-36.54 5.7-25.76-4.06-50.4-12.5-75.86-17.74-11.18-2.29-22.63-6.18-30.42-15.51-8.48-10.16-18.68-18.89-25.3-30.63-2.47-4.41-6.28-5.36-11.38-3.72-12.53 4.04-20.56 13.51-27.72 23.39-12.1 16.73-19.88 36.19-32.5 52.67-4.41 5.77-7.2 12.5-9.15 19.23-2.09 7.17-1.97 14.52 1.96 22 6.27 11.94 10.95 24.72 13.05 38.19 5.46 35.06 12.57 69.48 35.02 98.54 3.7 4.78 7.62 8.74 13.05 11.58 11.55 6.02 23.41 11.69 34.11 19.02 23.54 16.14 37.55 39.82 47.93 65.66 5.39 13.4 4.78 27.76.83 41.34-6 20.6-19.23 36.86-34.99 50.95-11.44 10.22-25 17.41-38.25 24.9-14.33 8.1-29.6 13.21-46.49 11.87-12.93-1.02-22.7-6.42-29.21-18.11-8.42-15.14-7.07-30.24-1.13-45.43 2.34-5.99 2.46-10.74-1.68-16.18-4.11-5.43-6.67-12.02-10.27-17.9-3.83-6.24-6.73-14.4-12.39-17.88-14.32-8.8-29.3-16.96-47.1-17.32-14.8-.29-29.35 2.44-44.06 2.87-16.24.49-32.51.13-48.76-.07-21.83-.28-41.79-4.87-59.28-19.82-16.51-14.1-34.84-25.68-57.2-29.82-29.97-5.55-38.71-29.91-34.46-55.6 2.26-13.7 11.45-24.26 17.6-36.21 6.73-13.06 17.47-19.57 30.2-24.14 18.15-6.52 36.99-5.66 55.39-2.52 23.48 3.99 45.16 13.03 60.41 32.43 6.89 8.77 14.63 16.45 22.79 23.89 8.03 7.32 23.67 7.88 28.95 1.03 5.97-7.75 5.01-21.25-1.97-28.69-12.42-13.25-24.82-26.51-36.3-40.63-14.37-17.68-16.93-40.22-8.35-55.04 6.46-11.16 13.84-22.17 25.01-29.56 5.75-3.82 9.52-9.2 12.92-14.87 8.82-14.69 19.54-27.45 33.96-37.11 8.6-5.75 13.72-13.75 16.1-24.45 4.88-21.92 8.31-44.25 19.36-64.6 6.8-12.53 5.2-25.64-5.08-36.89-3.62-3.95-6.71-8.51-8.71-13.61-3.07-7.88-8.95-13.36-15.5-18.33-7.44-5.63-14.73-11.46-22.14-17.12-10.62-8.11-21.03-15.55-36.06-12.34-19.04 4.07-38.6 7.19-55.6 16.49-23.84 13.06-46.53 28.31-63.84 50.07-4.02 5.04-9.06 9.17-14.98 11.77-23.84 10.49-47.8 20.43-73.97 24.17-9.42 1.35-20.32 3.14-24.77 13.55-8.02 18.74-14.73 38.03-22.77 56.77-7.23 16.89-16.53 32.76-33.38 41.9-25.91 14.05-52.14 27.88-81.91 31.75-23.35 3.04-47.06 6.25-69.3-5.59-6.87-3.65-8.51-1.19-7.79 5.51.18 1.64-.3 3.41-.71 5.07-3.27 13.02 1.55 25.17 8.08 34.92 8.37 12.48 20.38 22.54 30.85 33.63 1.01 1.07 2.14 2.25 3.8 1.84 11.29-2.86 23.07-2.26 33.87-8.79 19.94-12.07 39.3-25.48 61.58-33.25 19.09-6.65 37.31-15.25 55.61-23.69 7.03-3.26 12.14-7.99 14.49-15.68 1.65-5.38 4.52-10.29 7.31-15.23 16.83-29.9 40.37-51.17 74.69-58.69 14.8-3.24 27.26-9 35.56-23.14 8.06-13.77 19.73-24.82 31.68-35.64 10.88-9.84 19.79-21.79 31.52-30.93 12.75-9.94 26.43-17.54 43.15-15.89 19.23 1.9 30.39 6.75 37.18 26.67 4.56 13.36 4.04 27.11 5.65 40.68 1.36 11.5-1.79 22.17-6.76 32.73-4.37 9.32-10.39 18-12.85 28.1-4.42 18.15-16.26 30.12-31.96 38.44-12.49 6.61-21.21 14.02-26.3 29.02-7.53 22.23-28.02 34.11-49.83 40.09-21.14 5.79-41.06 12.43-58.2 26.84-12.96 10.89-27.29 20-36.79 34.64-7.48 11.52-18.19 18.67-31.71 22.44-20.17 5.63-35.39 34.37-23.75 53.64 4.91 8.14 8.07 17.37 11.68 26.24 4.73 11.64 7.72 23.57 1.38 35.59-3.89 7.4-8.75 14.2-14.07 20.69-5.89 7.18-13.13 13.58-15.43 23.06-.99 4.13-2.78 9.5.96 12.4 3.48 2.69 7.3-1.04 10.54-3.23 23-15.48 44.53-33.17 69.87-45.12 12.39-5.85 23.54-14.49 37.55-16.69 11.09-1.74 22.14-2.38 32.05 4.36 23.96 16.29 31.21 48.25 16.66 73.09-4.23 7.2-9.57 13.75-13.8 20.88-8.11 13.7-10.99 30.47 2.42 42.98 7.5 7 18.34 9.32 26.69 1.42 5.53-5.23 10.97-10.56 15.84-16.49 14.79-18.06 24.68-39.61 41.34-56.4 16.55-16.67 34.58-30.27 57.89-36.13 24.02-6.04 50.57 16.51 47.39 38.83-1.67 11.78-.71 23.91 2.48 35.82 2.67 9.89 2.65 20.57 5.73 30.29 5.93 18.8 19.26 31.45 37.18 39.36h-57.64c-4.73-9.93-12.48-18.65-14.39-29.64-4.07-23.37-10.86-46.39-9.44-70.55.57-9.68-1.43-10.62-10.7-6.75-20.83 8.71-35.69 24.41-47.72 42.63-15.72 23.84-30.88 47.94-55.2 64.31h-51.72c-.53-.5-1.02-1.07-1.6-1.5-13.27-9.59-24.7-21.38-28.84-37.22-5.77-22.06-2.06-43.47 11.4-62.45 4.13-5.83 8.15-11.7 11.69-17.88 3.16-5.53 1.96-16.41-1.79-20.92-5.25-6.31-11.24-2.98-16.08-.43-20.18 10.7-41.05 20.36-59.45 34.04a924.337 924.337 0 0 1-30.55 21.8c-11.45 7.81-23.77 8.92-36.7 7.56-12.54-1.32-26.89-14.81-28.01-27.1-1.7-18.64-.57-36.72 11.77-52.62 6.01-7.76 13.09-14.66 18.25-23.12 2.16-3.55 2.65-6.58.95-10.33-3.67-8.04-7.23-16.15-10.62-24.33-5.37-12.91-10.93-25.47-7.68-40.42 6.7-30.77 22.1-53.74 53.16-63.91 4.57-1.5 9.16-3.33 11.67-7.26 10.99-17.12 26.58-29.23 42.2-41.76 20.14-16.17 41.8-28.53 67.22-33.52 9.23-1.8 17.06-6.04 24.56-11.22 5.42-3.74 9.24-8.45 9.94-15.55.66-6.74 4.31-12.21 8.62-17.55 7.45-9.26 16.71-15.79 27.24-20.86 10.11-4.86 18.18-11.34 20.41-23.43.92-4.95 3.53-9.71 6.01-14.21 7.43-13.51 13.86-26.96 10.1-43.23-1.65-7.15 1.42-17-6.55-20.37-8.11-3.43-14.92 3.5-21.51 8.31-11.86 8.67-19.61 21.45-30.79 30.6-12.03 9.84-20.44 22.4-29.61 34.54-9.59 12.69-20.53 23.25-37.5 26.59-12.15 2.4-24.48 5.76-35.41 12.27-17.74 10.56-28.19 27-35.64 45.58-3.36 8.36-7.8 15.44-14.6 21.68-12.34 11.33-27.84 16.5-42.45 23.17-23.65 10.79-48.88 18.04-70.95 32.45-13.34 8.71-26.68 17.69-42.61 21.41-4.37 1.03-3.49 3.75-1.96 6.76 3.98 7.8 5.64 16.27 5.85 24.9.29 12.3 3.9 21.67 16.65 26.52 9.82 3.72 15.83 11.68 19.49 21.83 7.65 21.16 4.43 40.6-7.89 58.88-4.91 7.29-9.07 14.72-7.31 23.92.96 5.04 1.55 10.35 3.61 14.97 4.89 10.94 4.42 21.62-.53 32.06-8.75 18.45-20.07 35.46-30.93 52.64-10.61 16.8-22.87 32.53-34.4 48.71h-44.35c-.1-1.61.82-2.75 1.76-3.92 15.81-19.45 29.39-40.56 44.67-60.39 9.81-12.74 14.92-28.27 25.12-40.74 5.35-6.55 5.91-13.48 3.38-22-6.27-21.14-7.05-42.08 7.13-61.22 2.86-3.86 5.47-8.12 7.01-12.92 3.58-11.12.77-18.2-9.39-23.51-16.74-8.77-26.05-22.74-28-41.46-1.64-15.77-3.03-31.34-19.66-39.91-4.52-2.33-3.5-9.12-7.15-12.6-9.46-9.02-17.24-19.54-26.12-29.05-18.63-19.91-27.72-42.86-23.57-70.33.25-1.64 1.14-3.09-.16-4.85-5.61-7.54-16.25-9.67-24.24-4.3-12.87 8.62-22.37 20.33-30.71 33.27-4.49 6.99-4.89 13.23-1.85 20.79 6.2 15.41 17.15 28.02 24.36 42.86 5.37 11.02 13.8 20.28 20.62 30.44 7.97 11.88 19.3 21.05 25.75 34 9.5 19.04 24.16 34.55 36.18 51.86 5.46 7.85 10.28 15.5 11.89 24.89 3.85 22.4.33 44.55-2.42 66.69-3.21 25.9-14.08 48.31-31.24 67.88-12.28 14.01-26.09 25.72-45.13 28.59-10.4 1.57-21.03 1.49-31.56 2.16-15.26.98-30.44-1.11-45.65-1.24-9.96-.09-19.53-1.64-29.01-4.41-2.58-.75-5.31-1.72-7.9-1.54-14.54 1.02-26.6-5.84-39.02-11.7-5.36-2.51-9.08-6.59-12.17-11.45-12.55-19.68-11.73-57.56 2.75-75.86 7.91-10.01 18.16-16.59 32.26-16.43 18.37.21 36.57-3.33 55.09-3.28 13.58.03 19.11-9.51 15.44-22.58-2.66-9.45-5.9-18.79-7.79-28.39-4.85-24.67-19.85-45.47-25.94-69.64-1.01-3.96-4.68-6.26-7.44-9.01-5.97-5.9-12.64-11.46-15.39-19.56-5.07-14.94-13.31-28.68-17.58-43.74-3.97-13.96-12.59-24.18-21.61-34.51-6.29-7.2-32 .09-34.63 7.97-.22.68-.15 1.47-.18 2.21-.5 8.81-1.12 17.63-1.47 26.46-.34 8.67-1.17 17.42-5.17 25.05-3.71 7.09-1.09 11.11 4.29 14.81 6.27 4.3 10.49 10.29 14.1 16.77 1.68 3.03 3.61 5.79 5.96 8.37 15.53 17.12 29.88 35.18 42.46 54.57 6.5 10.01 4.4 21.37-3.29 30.47-13.04 15.44-32.15 18.12-49.33 24.8-9.42 3.65-19.61 4.75-29.57 5.5-13.07 1.01-19.26 5.86-19.09 20.13.14 12.61-4.49 25.18-3.05 38.03 1.4 12.59 4.75 25.51 12.54 34.91 13.27 15.97 22.97 34.19 35.35 50.64 3.67 4.88 6.48 10.43 8.15 16.4-13.3.02-26.59.02-39.9.02-2.03-3.06-3.73-6.42-6.16-9.13-8.12-9.02-11.82-20.99-20.26-29.79-16.46-17.14-22.56-38.63-25.19-61.41-1.97-17.01 2.6-33.69 3.51-50.58.34-6.39-.29-13.28 3.78-19.26 7.47-10.96 16.78-19.27 30.1-21.99 20.34-4.16 41.08-6.53 60.51-14.63 4.72-1.97 6.69-3.06 3.2-8.06-4.25-6.08-9.96-10.96-13.89-17.13-8.73-13.68-22.28-23.58-29.5-38.47-1.65-3.42-5.07-6.6-9.33-1.92-12.41 13.65-28.77 21.38-45.04 28.84-29.52 13.53-52.58 35.07-74.26 58.33-6.85 7.34-14.53 14.26-13.82 26.45.65 11.3 2.07 22.44 3.2 33.65 2.37 23.63 12.08 43.14 30.91 57.95 13.02 10.23 19.85 22.51 17.19 40.24-1.41 9.34-4.66 17.87-6.58 26.88h-39.91v.03ZM220.448 962.593c15.368 0 18.784-2.988 20.618-16.965.03-.237 0-.503.045-.74 3.771-17.734 5.398-36.075 12.513-52.892 11.492-27.171 25.248-53.144 42.805-77.09 8.312-11.344 17.29-21.121 30.38-26.964 8.874-3.963 8.845-5.369 2.159-13.104-4.881-5.65-10.353-11.641-10.605-19.006-.503-14.407-2.307-29.035 1.953-43.278.961-3.24 1.257-6.198-1.657-8.771-6.449-5.695-12.602-11.789-20.071-16.137-12.838-7.47-18.947-4.822-22.127 9.836-2.751 12.69-5.251 25.47-7.203 38.308-3.387 22.216-13.149 42.021-22.852 61.84-3.003 6.139-7.277 11.848-12.794 16.063-16.181 12.38-32.289 24.878-48.973 36.534-14.79 10.324-23.857 23.443-23.162 41.799.651 17.408 9.17 31.164 22.068 42.375 5.399 4.689 11.182 9.111 14.791 15.324 5.31 9.155 12.128 14.805 22.097 12.868h.015ZM2138.57 692.127c-11.92-1.405-23.67 1.761-35.54 3.343-4.06.547-9.87.074-11.62 2.455-2.05 2.826 1.81 7.588 2.76 11.596 3.46 14.658 17.94 26.698 32.82 26.609 7.92-.044 15.63 1.346 23.37 2.47 11.71 1.686 22.15-2.958 28.26-12.942 1.57-2.573 2.31-4.895.61-7.499-2.31-3.52-3.2-7.809-5.3-11.226-4.91-8.017-10.82-15.323-21.81-14.85-4.43.192-8.85.03-13.52.03l-.03.014Z" />
    <path fill="url(#b)" filter="url('#disFilter')" fill-opacity=".1"
      d="M700.765 1721.97c-7.736-22.26 1.819-35.88 14.258-49.31 13.031-14.07 32.215-19.1 43.737-34.36 3.831-5.08 8.475-9.54 12.764-14.29 7.115-7.9 14.924-14.92 24.331-20.1 4.792-2.63 8.49-6.55 11.729-11.01 6.996-9.61 18.104-14.18 27.245-21.09 12.957-9.77 20.633-22.66 26.224-37.26 3.136-8.2-.074-15.29-5.872-20.7-6.774-6.3-13.992-12.12-22.778-15.96-14.421-6.3-28.916-12.71-42.508-20.56-14.732-8.52-30.618-9.84-46.799-10.98-12.809-.9-25.514 1.11-38.278 1.51-13.741.43-24.08-6.02-33.161-16.12-16.152-17.96-15.841-38.62-11.685-60.26.739-3.84 1.701-7.66 2.322-11.53 3.727-23.26 13.963-43.33 29.7-60.65 4.008-4.4 9.185-6.99 15.131-8.61 16.418-4.45 30.025-13.87 43.278-24.36 12.972-10.26 19.938-25.55 32.466-36 3.209-2.67 6.034-5.72 10.22-7.04 16.492-5.16 31.963-12.94 48.736-17.67 16.803-4.74 30.795-14.97 41.207-29.52 4.393-6.14 4.438-12.81 3.816-19.78-.295-3.36-2.958-4.63-5.443-5.35-13.356-3.89-24.183-12.92-37.021-17.95-11.167-4.36-20.485-12.42-32.022-16.44-6.967-2.44-11.005-9.17-14.333-15.37-8.667-16.18-22.511-28.46-32.273-43.81-2.781-4.38-8.106-6.82-13.401-6.91-9.791-.15-19.568-.59-29.433.84-12.839 1.87-25.914 3.18-38.871 3.01-13.415-.18-24.76-6.78-35.217-15.13-17.911-14.32-36.932-22.94-61.544-19.6-14.88 2.01-24.257 8.83-33.295 18.75-3.505 3.85-4.156 8.17-.443 11.78 12.35 11.99 16.403 27.18 16.847 43.51.843 30.9-10.324 58.51-24.834 84.99-4.541 8.3-13.859 11.51-20.678 17.38-10.028 8.64-19.627 17.72-19.317 32.8.34 16.5-10.353 27.04-21.58 36.83-28.797 25.15-62.89 29.35-99.024 23.7-11.611-1.82-20.19-9.64-28.31-17.75-14.51-14.48-22.319-31.73-20.914-52.33.991-14.54 7.691-27.26 14.746-39.73 7.84-13.84 18.829-25.19 29.567-36.62 9.452-10.04 18.001-20.8 26.742-31.4 10.117-12.28 11.922-27.11 9.451-41.92-1.523-9.14-9.155-16.11-14.82-23.44-9.762-12.62-19.701-25.06-31.164-36.33-7.558-7.44-10.679-18.12-15.279-27.64-10.043-20.843-9.126-43.413-10.221-65.629-.369-7.425 3.299-13.534 7.484-19.554 9.245-13.282 21.906-23.591 30.765-37.361a254.335 254.335 0 0 0 17.587-32.2c4.807-10.561 11.374-17.335 22.526-21.447 25.381-9.377 50.008-20.663 72.549-35.838 15.368-10.339 32.422-10.309 49.727-9.126 3.091.207 6.123 1.79 8.623 3.934 17.453 15.028 31.786 32.363 37.48 55.2 2.736 11.019 2.988 22.29-2.071 33.191-3.549 7.646 3.772 22.26 11.922 27.821 8.593 5.872 18.281 5.813 27.614 6.124 19.095.635 34.241 10.309 48.987 20.322 12.661 8.608 25.958 13.741 41.104 14.199 27.067.814 54.09-.562 81.128-1.538 15.397-.562 28.014-12.764 26.416-28.103-1.198-11.448.03-23.132-.325-34.699-.37-11.906.666-23.547 4.289-34.921 1.583-4.984.548-9.2-2.011-13.903-4.763-8.757-11.241-16.64-12.972-27.082-2.189-13.223 1.494-23.621 10.59-33.502 20.678-22.496 47.198-27.437 75.729-27.096 6.819.073 13.002 3.239 18.238 7.365 33.486 26.358 47.996 61.205 44.978 103.388-.695 9.688-5.265 18.385-10.664 26.432-6.892 10.294-9.85 20.396-4.467 32.983 5.074 11.877 7.366 24.849 5.162 38.16-.798 4.807-2.677 9.126-5.457 12.765-16.995 22.26-34.123 44.435-56.516 61.755-5.177 3.99-6.286 7.98-2.16 13.74 7.13 9.97 17.809 14.83 28.976 8.92 25.869-13.7 54.179-18.71 82.055-25.41 6.14-1.48 7.13-3.15 3.3-8.49-11.253-15.697-14.877-33.298-12.2-52.408 1.568-11.167 7.29-19.761 15.71-26.55 11.64-9.407 23.89-18.074 35.54-27.466 11.63-9.363 25.04-9.126 37.86-5.784 10.91 2.84 20.86 8.431 30.46 15.545 11.8 8.742 30.54 8.121 34.52-12.128 1.75-8.83 1.63-17.645 1.32-26.446-1.29-36.045 9.46-68.319 30.69-97.087 7.56-10.25 16.36-19.775 27.27-26.697 13.14-8.342 29.44-5.858 41.96 3.254 13.86 10.072 21.78 24.404 28.17 38.914 6.62 15.043 6.15 31.697 2.32 48.322-3.4 14.776-12.96 26.845-16.04 41.636-4.21 20.293-2.88 40.128 4.28 59.415 9.89 26.653 25.06 50.096 45.63 69.75 8.33 7.96 17.33 15.27 26.53 22.2 16.72 12.61 34.94 13.89 55.11 8.64 20.7-5.38 39.69-14.15 58.71-23.34 15.94-7.7 32.78-12.2 50.6-10.91 15.43 1.11 26.21 10.76 35.26 22.06 8.98 11.22 13.95 24.85 14.04 38.95.12 19.94-9.51 36.24-24.3 49.3-5.23 4.61-9.72 9.4-12.9 15.76-8.15 16.24-21.95 24.28-39.91 24.44-21.07.19-41.96.62-62.95-5.03-15.66-4.23-32.01-3.77-47.15 7-19.2 13.65-41.52 18.41-65.21 15.9-7.5-.8-12.81-5.62-17.55-10.2-10.56-10.23-21-20.64-31.13-31.28-5.9-6.2-12.14-11.33-19.36-15.53-12.96-7.54-25.92-15.08-39.03-22.35-8.76-4.83-16.04-12.26-26.42-14.3-14.24-2.81-28.18-.62-41.24 4.19-8.01 2.94-11.79 12.26-16.93 19.05-15.96 21.09-37.84 32.37-62.64 38.91-5.12 1.35-8.85 3.57-11.85 7.85-3.65 5.23-7.87 10.05-11.79 15.08-7.5 9.61-8.58 21.56-9.76 32.71-2.53 23.85-14.835 42.5-29.316 59.95-25.647 30.93-59.444 50.02-96.406 64.36-8.475 3.28-16.596 7.3-25.662 8.93-6.316 1.14-9.259 6.97-13.49 10.95-.976.91-.991 2.35.089 3.29 5.443 4.78 9.17 11.64 17.232 13.2 14.243 2.75 27.555 1.61 40.497-5.96 35.853-20.98 71.706-42.01 108.166-61.87 18.5-10.09 38.13-18.49 58.44-24.32 25.08-7.2 38.78.04 51.35 23.04 16.24 29.69 17.4 60.26 4.94 90.86-10.13 24.9-29.05 42.39-53.85 52.94-20.12 8.56-40.34 16.91-61.65 22.29-6.85 1.73-13.593 4.59-19.76 8.02-5.769 3.21-6.464 9.45-5.473 15.54 1.39 8.49 3.283 16.97 2.396 25.61-1.716 16.95-1.686 34.21-8.342 50.34-1.035 2.5-1.731 5.14-2.529 7.71-3.875 12.48-1.775 18.22 9.214 24.61 10.31 5.99 16.104 14.72 19.794 26.24 8.1 25.34 3.72 50.56 1.64 75.89-.73 8.79-1.42 17.59-2.13 26.37h-35.47c.104-4.42-.133-8.89.385-13.26 2.544-21.23 5.147-42.45 4.082-63.86-.518-10.42-3.091-19.25-14.066-25.33-16.714-9.25-22.97-24.13-20.781-44.12 1.671-15.27 8.667-28.92 9.525-44.38.695-12.33 4.866-24.44 1.612-37.05-1.301-5-1.671-10.17-1.301-15.36 1.212-16.9 11.684-36.82 30.809-43.65 19.405-6.95 39.415-12.15 58.455-20.21 19.7-8.34 40.16-15.2 51.34-35.88 11.52-21.3 11.82-42.67.93-64.01-4.91-9.62-8.21-10.56-18.16-6.08-21.7 9.76-43.93 18.22-64.43 30.84-27.603 16.98-56.741 31.44-84.429 48.29-22.704 13.8-46.281 16.43-71.528 10.96-4.822-1.05-9.615-2.1-13.608-5.28-8.505-6.75-16.181-14.39-23.725-22.14-3.505-3.6-5.812-7.89-6.241-13.05-1.953-23.53 14.48-48.05 37.42-54.71 8.49-2.47 16.773-5.22 25.027-8.45 31.578-12.32 60.731-28.28 82.813-54.65 9.896-11.82 18.519-24.31 20.782-40.67 2.233-16.1 3.89-32.65 14.154-46.68 5.517-7.55 12.205-14.19 17.085-22.13 5.86-9.56 14.6-14.18 25.13-16.42 20.11-4.27 37.46-13.12 49.67-30.38 2.54-3.61 5.19-7.17 8.04-10.53 7.4-8.73 15.37-16.8 27.17-19.26 7.66-1.59 15.36-3.25 23.12-4.17 21.63-2.57 42.35-.09 60.44 13.22 7.17 5.29 14.64 10.17 22.61 13.83 31.03 14.29 55.85 36.12 77.58 61.93 2.84 3.38 6.14 4.81 10.77 5.21 13.77 1.2 25.78-4.6 35.78-11.82 21.66-15.65 45.37-16.06 69.17-11.03 17.83 3.75 35.38 5.06 53.35 5.09 7.07 0 11.61-2.4 14.53-8.83 3.92-8.7 10.16-15.85 17.61-21.5 6.31-4.76 10.18-10.81 12.18-17.92 2.67-9.5-.74-17.85-6.78-25.29-5.59-6.88-12.51-7.4-20.65-5.42-8.66 2.12-16.9 4.99-24.84 9.05-17.74 9.06-35.75 17.24-55.34 21.9-19.02 4.52-37.8 9.08-57.27 3.16-16.71-5.09-30.97-14.14-44.55-25.22-28.34-23.09-50.6-50.51-66.21-83.581-12.28-26.017-17.3-53.277-14.6-81.705 1.08-11.344 2.9-23.118 8.66-33.279 4.19-7.366 7.19-14.968 9.68-22.97 4.32-13.874-2.5-37.835-13.6-47.065-3.75-3.121-6.64-3.609-10.69.296-8.06 7.751-15.06 16.3-20.48 25.929-6.66 11.803-11.66 24.641-13.51 37.968-1.88 13.548-1.45 27.451-1.58 41.207-.12 11.256-2 22.275-6.61 32.273-7.69 16.699-21.91 27.926-39.46 30.174-18.42 2.352-37.19-.281-51.94-15.013-8.47-8.46-18.65-8.534-27.65-1.035-8.7 7.232-17.41 14.406-26.58 21.017-1.69 1.213-3.02 2.53-3.17 4.704-.62 9.437-.58 18.71 5.65 26.757a83.562 83.562 0 0 1 6.52 9.803c9 15.74 6.04 42.54-18.04 50.25-9.57 3.06-19.33 5.72-29.213 7.5-18.725 3.37-36.651 8.5-53.838 17.02-22.719 11.26-45.615 11.09-65.612-5.86-25.411-21.55-32.54-47.82-7.159-71.111 13.962-12.809 26.904-26.446 39.861-40.187 11.759-12.483 17.039-25.455 7.543-41.473a3.52 3.52 0 0 1-.295-.681c-7.1-20.662-2.766-39.55 9.14-57.151 3.639-5.384 6.523-10.738 6.597-17.572.296-26.165-9.288-47.611-29.552-64.296-2.1-1.73-4.171-2.189-6.715-2.307-12.291-.562-23.222 4.393-33.782 9.377-9.378 4.438-9.807 9.067-4.378 18.223 1.375 2.322 2.81 4.614 4.156 6.951 6.316 10.96 9.998 22.394 6.656 35.217-2.663 10.206-5.65 20.486-4.393 31.165 1.568 13.267-.444 26.52.207 39.669 1.257 25.499-21.047 48.247-39.773 55.096-15.87 5.798-32.584 3.742-48.869 5.014-18.118 1.42-36.429.399-54.652.369-22.363-.029-42.331-7.158-60.583-19.938-11.463-8.016-23.222-15.619-38.397-14.495-4.792.355-9.91-.414-14.554-1.775-16.078-4.747-30.928-11.596-39.684-27.111-2.514-4.437-4.393-4.733-8.682-1.287-9.954 7.972-21.55 14.066-30.78 22.734-11.389 10.693-24.937 18.503-31.194 35.616-5.561 15.249-4.955 25.115 6.449 35.483 5.842 5.32 7.233 14.08 13.578 19.08 3.846 3.03 5.162 10.21 10.058 9.88 4.836-.31 7.588-6.43 11.285-9.97 9.718-9.27 19.953-18.72 33.738-19.67 13.341-.93 26.505-3.28 40.216-2.62 22.749 1.11 40.187 13.12 57.063 25.1 9.91 7.04 18.681 10.65 30.248 9.41 17.335-1.85 34.684-3.4 52.182-3.05 17.201.34 32.628 5.95 42.834 19.53 11.774 15.66 25.544 29.89 35.217 47.12 1.228 2.19 2.766 4.24 5.029 5.26 21.624 9.81 41.621 22.81 63.645 31.89 8.505 3.51 17.66 7.7 21.269 17.21 7.307 19.25 7.928 38.69-3.136 56.79-13.444 21.98-33.634 35.97-57.137 45.77-13.297 5.53-28.294 6.52-40.364 15.32-1.331.96-3.195 1.45-4.866 1.61-3.979.4-6.685 2.57-9.318 5.34-9.614 10.09-16.669 22.14-27.718 31.33-16.699 13.9-34.478 25.16-54.919 32.27-3.683 1.27-6.374 3.06-8.475 6.45-7.868 12.65-13.814 25.88-15.574 40.88-.962 8.24-3.905 16.17-3.018 24.73 1.124 10.83 8.165 17.31 17.764 15.86 20.367-3.06 40.66-.7 60.953 1.15 14.687 1.33 26.919 9.11 39.684 15.3 22.038 10.67 45.422 19.03 64.088 35.82 10.665 9.6 19.657 20.54 21.462 35.04 3.609 28.97-10.856 51.84-29.552 71.04-13.992 14.37-31.608 25.23-46.872 38.69-10.812 9.54-22.749 17.6-32.126 28.93-6.685 8.09-13.445 17.17-22.763 21.88-10.768 5.44-19.48 12.85-28.177 20.7-3.194 2.89-3.609 4.87-.636 8.49 4.719 5.68 12.055 7.53 16.892 12.8h-53.203ZM409.888 1275.7c20.974 1.08 39.847-5.64 55.451-21.05 2.692-2.65 4.778-5.47 4.881-9.55.651-27.26 16.862-45.11 37.17-60.14 5.842-4.34 10.753-8.73 13.977-15.5 5.029-10.58 6.123-22.23 10.353-32.99 4.29-10.9 2.411-22.29 1.154-33.47-.34-3.02-2.529-5.62-5.221-7.76-4.792-3.82-11.788-7.46-12.557-13.02-1.553-11.06-9.23-15.8-16.699-21.42-1.553-1.16-2.766-2.79-4.171-4.18-13.593-13.59-22.556-30.71-34.507-45.6-10.132-12.619-13.149-27.365-1.849-42.053 3.121-4.052 4.496-9.14 5.044-14.465.724-7.026 3.475-13.4 8.918-18.134 14.969-13.06 28.073-28.265 45.615-38.367 8.756-5.044 15.723-12.483 23.015-19.494 21.624-20.767 22.408-26.372 4.452-52.567-8.594-12.543-19.583-11.921-29.73-5.68-19.923 12.247-40.393 23.355-62.18 32.023-10.605 4.23-21.403 8.253-25.1 21.15-1.317 4.615-4.275 8.831-6.893 12.972-7.972 12.646-15.294 26.106-26.209 36.252-9.629 8.949-15.235 17.454-13.815 31.46 1.45 14.377 3.861 28.014 10.073 41.089 8.726 18.374 25.869 30.014 36.725 46.694 8.742 13.45 21.24 24.63 23.932 41.59 1.124 7.13.503 14.25.577 21.36.177 17.63-5.754 33.5-16.255 47.26-12.661 16.58-26.816 31.99-41.015 47.31-10.339 11.16-18.252 23.71-22.793 38.34-1.065 3.43-1.095 6.6-.399 10.1 3.076 15.55 16.817 30.69 38.071 27.84h-.015Z" />
    <path fill="url(#b)" filter="url('#disFilter')" fill-opacity=".2"
      d="M252.928 1721.97c6.775-8.74 5.872-19.05 6.287-29.23.414-10.05 7.794-17.85 10.072-27.46 1.686-7.1 1.657-13.92.488-21.11-1.124-6.91-5.162-10.15-11.137-12.25-10.886-3.84-22.734-6.19-32.377-12.11-20.101-12.31-42.554-13.53-64.636-17.72-26.195-4.97-50.57-15.26-73.703-28.86-17.335-10.19-19.923-30.29-8.49-46.34 9.806-13.75 21.95-21.56 39.654-20.93 16.196.6 31.83-5.19 47.982-6.4 15.855-1.2 32.037 0 47.404-5.37 10.561-3.68 21.624-4.29 32.555-5.53 14.732-1.67 27.851 3.71 39.373 12.04 16.817 12.14 35.099 21.67 52.892 32.11 4.674 2.74 8.978 1.42 12.454-1.04 11.67-8.22 25.248-8.86 38.574-10.81 11.242-1.64 22.645.12 33.65-.78 13.016-1.05 26.357-1.92 39.269-5.33 17.099-4.51 33.531-4.14 49.831 5.05 19.154 10.79 19.627 10.04 35.01-5.22 4.792-4.75 10.264-8.12 16.506-10.8 16.921-7.28 33.546-15.43 51.768-18.92 15.323-2.93 30.573-8 46.517-3.84 4.038 1.05 8.387 1.61 11.966 3.55 21.136 11.43 44.18 12.4 67.357 12.8 5.695.11 11.256.88 16.566 2.96 12.735 5 20.264 13.89 22.231 27.81 1.301 9.2 3.313 18.3 3.964 27.63.858 12.2-3.047 22.6-10.517 32.08-13.252 16.82-29.078 28.63-51.753 27.42-12.099-.65-23.443-4.67-32.85-11.92-11.463-8.83-21.95-7.71-33.161-.53-2.455 1.57-5.088 3.12-7.869 3.93-21.166 6.14-29.167 24.76-39.299 41.31-.902 1.48-.444 3.85-.444 5.82-.015 9.11.74 18.28-.118 27.31-1.257 13.12 2.145 24.14 11.167 33.71 1.701 1.81 3.964 3.85 3.801 6.93h-42.864c-5.901-10.33-8.342-21.35-7.543-33.28.518-7.84.828-15.83 0-23.61-1.923-18.03 2.958-33.9 12.883-48.77 3.564-5.35 7.721-10.17 11.758-15.08 7.455-9.05 14.111-19.27 26.003-23.24 7.972-2.66 15.486-6.17 22.896-10.03 19.583-10.17 38.634-9.51 57.196 2.8 4.082 2.71 8.387 5.22 12.898 7.11 15.456 6.51 34.448-8.28 32.17-24.92-.533-3.87-1.849-7.71-1.967-11.57-.207-7.18-3.846-8.46-10.413-8.56-24.375-.38-48.677-1.97-71.055-13.15-9.289-4.64-18.548-5.19-28.576-2.59-10.901 2.83-22.334 4-32.658 8.55-15.501 6.84-32.422 11.08-43.042 26.64-5.324 7.79-14.436 11.33-24.464 11.7-15.782.58-28.857-7.16-42.449-13.21-4.896-2.17-9.703-4.11-14.865-2.96-14.85 3.35-29.907 5.17-44.935 7.35-6.389.94-12.557.86-18.976.57-16.374-.79-32.599-.3-47.775 7.92-14.081 7.62-29.448 9.8-43.781 1.62-18.089-10.34-37.036-19.26-53.528-32.43-8.253-6.58-17.63-10.3-29.463-7.88-10.073 2.07-20.101 4.48-30.129 6.67-13.844 3.02-27.881 1.87-41.754 3.6-17.468 2.17-34.611 6.9-52.39 6.55-2.203-.05-4.821-.21-5.383 2.62-.503 2.53 2.026 3.19 3.697 3.92 9.91 4.26 19.938 8.26 29.848 12.52 9.333 4.01 19.066 6.33 29.094 7.65 16.003 2.12 32.821 1.75 47.242 9.78 14.125 7.87 29.093 12.98 44.15 18.31 10.694 3.78 21.343 8.15 28.443 17.58 13.8 18.35 15.102 38.98 9.17 60.26-4.289 15.43-12.039 30.09-9.096 46.87.044.24.03.49.03.74h-41.385l.029-.01ZM2466.97 1584.55c-5.49-8.66-10.96-17.12-17.81-25-13.5-15.53-31.74-23.66-48.23-34.55-8.31-5.49-16.57-11.91-20.75-20.55-7.37-15.22-19.87-26.13-29.38-39.47-5.55-7.77-12.13-14.81-17.72-22.56-6.42-8.89-14.82-12.48-25.65-13.21-33.82-2.27-66.81 3.79-100.04 8.26-18.56 2.5-37.18 5.82-56.37 2.66-23.06-3.8-37.55-17-44.22-38.16-3.73-11.82-8.6-22.96-13.71-34.05-6.01-13.02-6.97-26.61-5.74-40.38.93-10.47 7.98-17.82 16.12-23.69 16.58-12 35.35-15.12 55.33-12.83 11.26 1.29 22.1 4.54 33.07 7.12 8.49 1.99 15.76 6.58 23.23 10.91 14.05 8.12 29.62 6.81 44.47 3.74 20.07-4.14 40.04-4.61 59.98-1.31 11.06 1.83 20.5 9.17 31.44 12.27 4.06 1.16 7.89 2.33 12.15 2.28 9.82-.12 19.59-.15 29.21 2.78 10.78 3.29 19.36 9.31 26.08 18.26 1.76 2.35 3.69 4.71 6.03 6.44 13.64 10.17 22.01 24.91 32.82 37.53 2.91 3.4 5.77 6.62 9.7 8.8v41.37c-15.2-3.98-26.55-14.29-35.81-25.66-13.68-16.79-27.79-33.05-43.13-48.3-2.98-2.97-6.06-4.57-10.35-4.58-19.52-.07-38.88-2.28-56.29-11.57-15.99-8.52-32.35-7.35-48.72-3.9-26.41 5.56-52.16 7.28-76.38-7.4-17.75-10.74-37.14-13.53-57.35-12.45-13.68.72-18.38 7.34-14.94 20.4.57 2.11 1.29 4.24 2.27 6.19 5.87 11.91 11.64 23.74 14.54 36.92 1.73 7.85 7.61 12.01 16.25 13.8 15.06 3.12 29.38-1 43.8-2.84 36.69-4.67 73.09-11.06 110.43-8.19 21.04 1.61 37.25 10.05 50.25 26.62 6.35 8.09 12.81 16.18 18.91 24.43 8.31 11.25 19.98 19.91 25.69 33.03 3.7 8.52 9.8 14.51 17.45 19.36 14.82 9.4 31.74 15.79 43.37 29.84v57.64ZM2466.97 907.823c-13.3 2.84-25.59 8.505-37.85 14.081-5.33 2.425-10.21 6.108-15.92 7.602-19.7 5.192-34.52 18.548-50.24 30.129-23.67 17.424-48.97 17.35-74.03 6.36-21.19-9.289-43.17-15.649-65.06-22.438-8.61-2.677-18.05-2.618-26.64-5.309-22.91-7.189-45.65-15.487-66.34-27.571-13.77-8.046-22.32-20.84-23.56-38.5-2.07-29.478 20.65-54.416 49.08-61.5 2.33-.592 4.89-.562 7.33-.489 22.85.636 45.81-1.553 68.54 1.746 22.13 3.209 41.3 12.306 54.94 30.913.42.591.71 1.286 1.13 1.893 7.5 10.856 10.21 12.04 22.9 8.505 15.19-4.231 29.86-9.629 42.97-18.888 16.55-11.7 36.35-15.812 55.11-22.216 4.94-1.686 9.79-3.387 14.08-6.109 13.39-8.431 28.19-12.454 43.57-14.938v36.932c-8.55.503-16.28 3.713-23.47 7.943-8.96 5.28-18.5 8.593-28.34 11.921-13.38 4.526-27.75 7.174-39.62 15.501-22.2 15.56-47.41 23.458-73.47 29.049-7.54 1.612-15.74 1.612-21.8-3.875-7.62-6.892-15.72-13.652-20.97-22.66-7.09-12.128-18.91-16.373-31.27-18.355-19.7-3.165-39.76-1.701-59.65-1.76-10.93-.03-19.01 5.902-23.94 15.619-3.32 6.567-.81 15.235 5.4 18.666 17.47 9.644 36.12 17.202 55.02 22.675 18.02 5.206 36.73 8.578 54.83 13.903 14.75 4.334 29.17 9.51 43.18 16.033 11.77 5.488 24.11 8.091 36.34-.592 7.2-5.102 14.6-9.969 21.48-15.515 13.23-10.679 29.28-15.634 44.37-22.734 20.07-9.436 40.04-18.636 61.91-22.985v36.933l-.01.03Z" />
    <path fill="url(#b)" filter="url('#disFilter')" fill-opacity=".2"
      d="M2128.51 1721.97c3.53-11.7 10.59-21.71 20.43-27.91 30.26-19.05 62.5-23.09 95.99-8.37 5.16 2.26 9.89 5.45 14.92 8.01 9.37 4.78 19.2-1.28 19.5-11.95.14-5.47-.89-10.75-3.02-15.79-13.82-32.96-29.48-64.85-51.96-92.98-5-6.26-7.4-13.99-8.36-21.83-2.53-20.75.48-40.78 10.62-59.18 7.94-14.39 22.41-19.97 37.35-22.24 15.56-2.37 30.73 1.87 45.01 8.52 2.39 1.12 5.13 2.54 6.54 4.62 11.43 16.98 24.87 33.06 25.7 55.04.36 9.38 7.35 18.67 16.24 21.33 9.17 2.75 18.46 4.64 28.18 4.98 22.79.79 37.08 15.16 48.87 32.51 11.43 16.84 14.37 51.46-5.03 71.37-5.33 5.46-11.32 10.16-18.12 13.74-6.97 3.67-13.83 7.53-20.86 11.03-4.54 2.27-6.43 5.74-6.33 10.67.12 6.15.05 12.31.06 18.46h-35.47c-.04-4.93 0-9.85-.17-14.76-.42-11.02.77-21.54 7.48-30.9 8.45-11.77 21.2-17.26 33.43-23.52 15.99-8.19 18.5-12.48 16.98-30.23-.67-7.87-11.69-21.37-18.96-21.57-9.96-.25-19.39-2.76-29.04-4.51-14.66-2.66-28.11-7.57-37.57-19.79-6.3-8.13-13.5-16.4-14.67-26.83-1.3-11.7-3.37-22.64-10.69-32.15-2.22-2.89-2.66-7.07-6.08-9.07-15.81-9.23-31.37-3.64-36.27 13.67-3.16 11.21-4.69 22.95 2.87 33.26 8 10.9 16.17 21.74 22.66 33.59 15.68 28.59 32.47 56.77 36.86 90.03 1.43 10.86-.87 20.43-8.14 28.74-4.02 4.62-7.92 9.35-11.89 14.02h-60.6c-15.59-11.95-45.63-11.95-63.55 0h-42.87l-.04-.01Z" />
    <path fill="url(#b)" filter="url('#disFilter')" fill-opacity=".2"
      d="M316.484 1721.97c3.328-7.4 10.295-12.44 12.721-20.56 2.336-7.82 3.327-15.86 4.466-23.81.962-6.73 3.254-12.84 5.784-18.94a1865.58 1865.58 0 0 1 17.157-39.9c2.855-6.44 7.676-11.41 13.519-15.27 5.324-3.52 10.915-6.62 15.367-11.31 10.502-11.05 23.976-9.84 37.273-8.73 16.891 1.41 33.516 4.23 49.786 9.31 5.739 1.79 12.144.79 18.193 2.26 17.823 4.32 34.152 19.58 31.105 40.84-2.189 15.26-4.319 30.55-15.959 41.75-7.913 7.62-17.66 13.31-25.81 20.71-8.387 7.66-18.637 13.49-24.671 23.65h-38.427c-.843-5.41.621-10.37 3.698-14.66 5.576-7.75 11.477-15.35 18.843-21.49 12.218-10.19 24.568-20.23 37.17-29.95 6.315-4.87 8.135-11.11 8.578-18.58.37-6.21-2.322-8.59-8.061-8.46-5.931.13-11.788-.15-17.394-2.31-14.864-5.69-30.454-7.04-46.132-7.94-1.938-.12-4.304-.56-5.591 1.12-6.597 8.69-17.217 12.03-22.941 23.42-12.69 25.23-18.059 52.03-24.331 78.85h-44.343Z" />
    <path fill="url(#b)" filter="url('#disFilter')" fill-opacity=".2"
      d="M2466.97 307.921c-16.3-3.668-31.49-9.511-43.46-21.876-3-3.106-6.02-6.611-6.3-10.62-.89-12.823-10.19-18.962-19.03-25.529-12.65-9.392-26.46-18.089-34.53-31.711-10.1-17.069-26.31-29.996-32.76-49.357-3.19-9.57-5.72-19.213-5.94-29.434-.92-43.16 7.16-84.885 19.73-125.914 3.62-11.833 5.25-12.898 17.51-12.898h20.68c9.77 0 10.47.532 4.78 8.904-7.36 10.827-11.33 22.69-14.56 35.128-7.76 30.04-12.59 60.48-12.44 91.541.08 14.184 4.48 27.023 15.22 37.11 2.5 2.337 5.33 4.792 6.69 7.795 8.13 18.045 22.83 29.789 38.2 41.074 9.32 6.833 18.46 13.977 24.32 24.316 1.2 2.115 2.85 4.275 3.15 6.567 1.48 11.093 9.24 15.338 18.69 17.986v36.933l.05-.015ZM184.949 1721.97c-1.908-7.59-3.786-15.19-5.753-22.76-.991-3.81-4.112-5.43-7.455-6.47-4.955-1.52-10.073-2.2-15.279-1.92-52.995 2.88-96.259-19.78-137.126-50.5-13.903-10.44-20.78-21.58-17.734-38.65.473-2.61.06-5.39.06-8.1 0-10.18.103-10.34 9.214-5.04 13.016 7.55 23.769 18.14 35.675 27.18 20.722 15.71 42.687 28.83 68.038 35.81 11.286 3.11 22.822 2.9 34.256 3.76 9.998.74 19.967.13 29.981 2.59 12.158 2.97 21.18 9.92 29.271 18.74 2.514 2.75 4.437 6.12 4.984 9.74 1.82 12.16 6.789 23.52 8.816 35.62h-36.948ZM2466.97 1297.9c-6.2-4.75-12.66-3.03-19.75-2.07-13.1 1.79-26.46.8-39.49-1.8-8.39-1.68-16.2-5.43-21.18-12.41-6.8-9.53-17.79-15.52-22.01-27.19-6.18-17.13-1.57-32.64 9.39-45.33 14.88-17.25 31.39-33.19 49.57-47.1 9.12-6.99 21.31-8.64 30.33-16.24 4.03-3.39 7.43-7.96 13.17-8.92v44.33c-8.23 3.68-17.75 5.81-24.39 11.38-14.05 11.75-27.84 24.05-39.97 37.89-5.84 6.67-5.17 9.05.99 15.44 2.19 2.26 4.01 4.96 5.68 7.63 1.65 2.64 3.7 5.09 6.66 5.39 8.96.88 17.96 3.35 26.98 1.31a91.43 91.43 0 0 1 24.05-2.2v39.89h-.03Z" />
    <path fill="url(#b)" filter="url('#disFilter')" fill-opacity=".2"
      d="M2466.97 204.49c-5.89.118-10.13-3.698-14.5-6.642-22.42-15.175-39.78-34.862-46.99-61.248-6.28-23.045-2.91-46.77-.09-70.153 2.03-16.744 10.64-32.111 10.28-49.476-.1-5.103 3.95-9.407 6.39-13.948 1.32-2.47 3.42-2.44 5.67-2.44 9.36 0 18.71.133 28.07-.044 4.82-.089 6.97 1.819 4.23 6.034-7.31 11.226-9.3 23.74-11.27 36.682-1.76 11.522-8.37 22.053-9.05 34.004-.9 16.092-3.58 32.333-.11 48.307 3.63 16.565 14.54 28.605 27.35 39.032v39.892h.02ZM1571.31 1721.97c1.86-7.57 7.25-13.02 12.82-17.42 14.96-11.81 29.84-23.83 49.57-27.53 6.31-1.18 12.04-5.55 18.6-6.66 24.13-4.06 44.24 2.96 58.49 23.23 7.75 11 19.05 18.26 27.52 28.38h-51.72c-4.07-13.05-17.63-19.91-24.83-17.17-14.03 5.35-29.65 6.99-41.68 17.17h-48.79.02ZM808.664 1721.97c0-16.29 9.658-28.02 19.524-39.2 16.314-18.5 41.621-24.79 64.518-13.93 23.384 11.09 40.556 27.61 54.607 48.4.917 1.36 1.198 3.15 1.775 4.73h-42.864c-5.339-5.02-10.131-10.87-16.181-14.81-6.449-4.18-13.992-8.31-21.624-8.15-8.505.18-20.589 10.7-22.793 22.96h-36.962ZM2064.95 1721.97c5.48-5.8 12.06-5.8 19.22 0h-19.22ZM1146.71.597c-10.34 9.54-18.86 17.646-27.64 25.44-9.72 8.623-17.99 18.71-27.59 27.393-20.09 18.134-41.3 34.256-70.42 34.24-17.26 0-33.707-1.597-50.554-7.41-13.815-4.762-29.478-7.35-45.171.207-12.853 6.198-26.357 12.484-41.059 13.741-18.637 1.612-37.333 2.781-54.978-5.546-2.81-1.332-5.118-1.272-7.262 1.153-4.201 4.778-8.964 8.904-12.351 14.555-7.735 12.897-21.151 18.37-33.959 24.759-18.548 9.259-38.501 16.448-52.537 33.014-2.234 2.647-4.408 5.088-5.68 8.43-1.834 4.837-4.881 8.934-8.135 13.046-9.806 12.38-12.484 27.141-10.768 42.302 1.183 10.501 18.666 24.301 29.641 25.514 2.648.296 3.594-1.065 4.334-2.958 7.203-18.237 21.461-31.564 32.895-46.843a127.517 127.517 0 0 1 15.796-17.468c17.439-16.033 38.723-24.671 60.672-31.845 18.311-5.975 35.054-15.308 52.567-22.94 17.66-7.691 35.601-15.249 55.983-13.622 15.59 1.242 29.582 4.866 42.509 14.273 14.707 10.708 27.537 22.23 31.737 40.808 2.43 10.767 4.84 21.535 7.19 32.303 1.11 5.058 2.28 9.969 5.62 14.229 5.68 7.217 8.08 16.24 12.75 24.064 3.12 5.236 6.36 9.023 13.39 9.585 13.37 1.065 22.33 10.265 31.47 19.021 15.62 14.983 35.32 20.825 56.15 22.748 11.46 1.05 18.98-7.469 19.54-19.051.56-11.684-1.58-23.192-8.58-32.037-7.25-9.17-17.63-15.412-28.98-19.627-9.43-3.505-18.94-7.129-27.73-11.951-19.21-10.531-30.62-26.476-30.9-49.15-.04-3.446.23-6.922-.13-10.339-1.43-13.548 5.81-22.482 15-31.149 12.27-11.567 26.81-19.82 40.32-29.552 5.81-4.186 11.99-7.972 18.94-9.747 10.03-2.574 18.15-8.46 26.7-13.785 4.56-2.84 6.17-7.559 8.71-11.64 9.23-14.821 12.28-30.145 3.33-46.414-3-5.458-1.89-8.431 5.33-7.928 7.84.547 15.76.295 23.63.044 4.01-.133 5.9 1.242 7.65 5.044 7.5 16.314 6.94 32.347-.4 48.425-2.85 6.271-5.5 12.646-8.65 18.755-10.56 20.515-28.56 32.066-49.6 39.033-12.05 3.993-20.82 12.971-31.83 18.34-8.4 4.112-14.21 11.301-21.15 17.084-7.48 6.241-2.01 25.469 8.76 31.001 8.3 4.26 16.95 7.928 25.71 11.138 17.06 6.271 31.31 16.743 43.3 29.907 10.43 11.448 13.36 26.653 15.76 41.414 1.19 7.396.23 15.235-.37 22.822-2.15 27.245-33.36 50.215-64.83 44.654-18.57-3.284-35.93-9.969-52.81-18.074-8.57-4.127-14.8-11.227-21.27-17.927-3.35-3.476-6.55-6.345-11.86-6.345-11.73.015-20.84-5.532-27.38-14.895-17.73-25.395-30.509-52.729-35.745-83.73-3.757-22.261-20.677-34.078-43.145-34.759-19.065-.577-35.675 6.478-51.398 15.486-14.081 8.061-29.271 12.853-44.357 17.927-27.437 9.244-51.251 22.999-67.654 47.759-5.147 7.765-11.196 14.924-16.802 22.379-2.574 3.431-3.269 6.034 2.485 6.611 16.418 1.642 31.445 7.336 45.526 15.826 4.482 2.707 8.15.799 12.75-1.627 17.068-9.022 28.635-24.819 44.254-35.143 24.686-16.314 54.785-17.408 72.179 13.49 3.446 6.123 9.082 10.264 13.401 15.634 7.646 9.495 11.995 19.775 10.708 31.933-.813 7.75 1.908 12.217 9.289 15.234 12.439 5.074 22.479 13.386 31.459 23.651 10.83 12.365 23.47 23.118 33.9 35.942 13.27 16.329 31.21 18.547 50.22 15.486 13.96-2.248 27.68-2.958 41.74-1.183 11.99 1.523 23.48-2.204 34.4-6.553 14.2-5.65 28.61-10.575 43.31-14.584 28.38-7.735 45.69-25.514 51.23-54.652 2.93-15.412 7.04-30.632 9.37-46.118 2.07-13.814 1.34-27.703-4.43-40.941-4.98-11.448-10.48-22.408-17.13-33.161-7.46-12.099-10.35-27.215-8-41.902 1.13-6.996 6.54-12.986 12.47-16.788 8.74-5.605 15.69-13.415 24.61-18.666 3.27-1.923 2.95-5.206 2.13-7.913-7.04-23.68-7.87-48.292-11.4-72.49-1.52-10.412-4.1-20.633-9.44-30.04-3.71-6.523-2.91-7.366 4.37-7.41 8.62-.044 17.26.355 25.85-.148 5.36-.31 7.14 1.982 8.61 6.626 5.1 16.27 7.57 32.984 8.76 49.89 1.21 17.438 5.76 34.24 8.96 51.309 1.51 8.106 2.45 8.712 8.98 3.949 26.15-19.11 55.8-24.582 87.35-22.91 7.35.384 14.66 2.573 19.05 8.415 11.08 14.747 24.98 27.866 27.1 47.967 2.03 19.184.53 36.755-12.35 52.759-11.07 13.741-20.44 28.768-32.78 41.636-8.41 8.771-12.22 20.574-16.42 31.889-1.62 4.393 1.65 6.094 4.22 7.366 9.5 4.718 19.36 8.741 30.1 9.244 9.38.444 16.51 4.482 23.59 10.516 11.66 9.925 17.76 23.977 28.16 34.818 9.16 9.555 19.6 11.596 31.55 8.549 13.96-3.564 27.22-9.318 42.35-8.164 24.14 1.849 44.72 9.732 60.74 28.664 7.64 9.023 16.67 16.965 19.79 28.872 9.57 36.43-5.34 72.593-41.63 85.92-19.62 7.188-40.06 11.67-61 13.223-5.98.444-10.99 3.077-14.95 7.188-23.49 24.331-35.25 52.626-30.01 87.059 1.65 10.871 2.07 22.053 1.79 33.073-.42 15.944 4.7 29.67 13 42.967 14.52 23.31 19.99 48.455 14.55 75.906-5.43 27.364-23.89 43.101-47.88 52.109-16.96 6.374-33.53-1.391-48.11-10.472-15.96-9.925-26.51-24.405-31.7-42.79-4.02-14.273-13.99-25.278-22.17-37.17-18.18-26.431-21.05-55.539-15.55-86.067 2.86-15.886 6.62-31.594 9.69-47.45 5.48-28.176 13.17-56.175 30.41-79.914 8.57-11.803 9.28-23.902 6.17-36.992-5.49-23.148-8.93-24.006-31.16-17.764-9.68 2.721-18.83 7.647-26.36 14.465-6.35 5.739-8.54 14.658-14.54 21.003-8.59 9.082-16.45 18.874-24.66 28.34-3.99 4.614-9.26 7.04-14.94 9.081-23.59 8.461-46.97 8.845-70.46-.562-18.74-7.514-37.79-7.869-56.94-1.272-16.44 5.665-22.32 19.391-24.94 34.552-4.01 23.192-8.27 46.265-14.82 68.895-4.93 16.98-8.68 34.271-10.43 51.842-2.9 29.02-27.23 37.924-51.26 33.146-17.64-3.49-35.12-11.463-46.8-26.253-10.42-13.164-21.923-26.328-25.058-43.678-2.101-11.581-3.18-23.502 1.908-34.758 4.807-10.635 6.79-22.142 9.36-33.265 3.33-14.436 8.61-28.161 12.9-42.198 3.28-10.738 2.94-21.402 2.57-32.111-.17-5.325-2.78-10.487-8.99-12.276-1.64-.474-3.15-1.391-4.69-2.145-13.206-6.464-13.561-6.671-24.211 3.18-8.667 8.017-16.965 16.477-25.04 25.115-3.136 3.357-6.434 7.41-7.499 11.67-3.136 12.676-11.315 22.26-18.415 32.51-6.848 9.866-17.764 13.977-28.443 17.468-20.81 6.819-36.237 20.515-48.839 37.45-5.502 7.396-11.463 13.327-19.775 16.98-16.433 7.218-32.644 15.043-49.387 21.447-17.202 6.582-33.398 1.035-48.795-7.055-12.957-6.804-21.772-16.906-26.298-31.253-3.387-10.753-8.963-20.826-7.248-32.658.252-1.701-.236-3.639.415-5.118 5.753-12.853 6.478-27.126 11.462-40.127 4.852-12.676 4.896-24.272-4.304-35.143-2.44-2.885-4.851-5.222-8.46-6.716-9.777-4.023-19.302-8.593-29.034-12.72-18.489-7.839-29.745-23.576-39.403-39.536-6.301-10.412-15.072-15.042-24.701-19.272-10.117-4.452-20.958-6.168-32.303-6.183-21.964-.029-43.707-1.774-62.654-15.234-7.277-5.162-15.649-6.197-24.686-4.23-19.287 4.2-34.433-3.831-48.972-15.989-22.275-18.637-43.293-38.545-64.474-58.38-16.832-15.767-34.743-31.001-55.421-41.133-14.214-6.966-30.114-11.936-46.621-12.483-1.227-.045-2.662-.311-3.653.192-11.137 5.62-23.547 8.889-33.176 17.305-27.452 23.947-57.861 32.022-93.374 19.968-18.282-6.198-34.714-14.111-48.529-27.984-5.606-5.636-13.09-10.191-21.772-11.567-3.313-.518-6.464-2.352-8.949-4.925-14.125-14.599-31.578-17.498-50.614-13.948-9.85 1.834-9.791 2.174-9.806-7.647 0-6.892.177-13.8-.06-20.677-.147-4.423 1.154-6.435 5.947-7.292 21.18-3.787 40.985.562 60.302 8.978 9.008 3.919 9.644 3.978 13.208-5.369 4.985-13.105 14.303-24.198 17.305-38.19.695-3.21 1.065-6.272.178-9.437-3.432-12.35-3.373-24.804-.43-37.154 1.08-4.571-.813-7.928-3.401-10.635-2.618-2.736-5.532.355-7.957 1.583-7.958 4.052-16.566 6.212-24.982 8.948-2.115.695-4.423.799-5.428 3.21-6.153 14.909-19.184 18.562-33.324 20.441-5.354.71-10.783 1.094-16.019 2.292-4.008.902-5.443.015-5.383-4.097.133-8.86.103-17.734 0-26.594-.045-3.15.606-5.103 4.333-5.31 3.905-.207 7.765-1.39 11.655-1.479 3.757-.089 5.917-1.553 7.248-4.97 3.017-7.72 9.23-11.98 16.743-14.435 14.007-4.6 27.703-9.792 41.326-15.575 11.788-5 25.159-3.21 37.302 1.952 6.198 2.633 8.342 8.638 8.253 14.614-.133 9.037 5.769 16.151 6.716 24.745.103.917 1.493 1.908 2.499 2.484 12.602 7.204 24.538 15.398 36.164 24.05 11.418 8.52 25.218 9.245 38.441 11.242 15.501 2.337 30.159-1.036 44.047-8.683 6.612-3.638 13.948-6.301 21.255-8.312 16.048-4.408 30.498-12.291 45.437-19.228 15.028-6.982 30.602-10.517 45.201 1.139 7.188 5.738 11.522 14.021 15.959 21.875 5.798 10.265 10.812 20.974 15.886 31.638 7.839 16.477 20.337 27.792 36.799 35.409 11.226 5.192 20.012.621 28.68-5.487 7.942-5.606 11.019-12.854 11.019-23.133 0-16.314-3.742-32.141-3.875-48.44-.178-20.086 9.673-32.555 25.987-41.844 9.2-5.235 19.346-8.445 28.458-13.918 9.702-5.812 16.595-15.426 27.481-19.597 3.402-1.302 2.603-4.556 1.242-6.952-4.836-8.505-9.126-17.409-20.574-19.302-6.049-.991-11.522-4.23-16.225-8.387-5.384-4.747-11.212-6.256-18.296-3.771-10.517 3.698-19.376 8.682-23.962 19.79-5.502 13.326-18.636 18.991-29.064 27.407-22.26 17.986-45.969 12.144-70.079 5.266-15.042-4.29-27.644-12.794-39.491-22.29-6.212-4.984-11.3-11.655-15.945-18.222-9.244-13.09-18.473-10.738-31.637-1.42-11.936 8.46-21.935 19.642-32.851 29.552-9.259 8.416-19.834 12.942-32.687 13.075-13.327.148-26.476-1.982-39.773-1.878-3.091.03-6.537-.755-9.244-2.204-17.468-9.363-36.578-15.886-51.591-29.552-5.812-5.296-9.022-12.203-12.232-19.125-1.257-2.692-.059-3.564 2.515-3.55 12.321.045 24.819-1.227 36.873.548 7.854 1.153 15.708 6.167 22.231 10.767 11.596 8.18 24.434 7.47 37.095 9.348 13.593 2.026 24.805-1.908 33.221-12.735 5.221-6.7 11.684-8.268 19.938-8.135 28.324.474 56.649.266 84.973.104 4.511-.03 7.691 1.213 10.99 4.481 14.45 14.348 32.732 20.16 52.477 22.305 4.393.473 8.18-.77 11.67-3.49 8.18-6.346 18.607-10.177 22.823-20.915.976-2.47 3.505-2.307 5.768-2.307 39.418 0 78.82.059 118.238-.06 6.893-.014 9.111 5.444 11.596 9.792 2.914 5.088 5.502 5.428 9.658 2.026C604.64 2.254 618.677-1.045 634.37.405c8.785.813 17.719.148 26.594.148 21.21 0 46.25 19.48 50.984 40.083 2.248 9.821 1.36 19.494-3.447 28.65-13.977 26.638-30.41 51.531-50.614 73.939-7.174 7.958-16.862 11.803-25.411 17.483-6.227 4.141-11.507 8.786-13.001 16.137-3.224 15.855-14.421 26.357-24.124 38.027-11.152 13.415-25.159 22.497-41.103 28.975-14.347 5.813-23.178 15.959-24.967 31.697-.503 4.452 1.227 5.916 5.783 6.064 12.809.429 24.109-4.378 35.187-9.703 12.218-5.886 24.065-11.285 38.338-11.625 16.078-.385 27.363 7.543 37.362 17.704 9.288 9.437 15.989 21.077 21.92 33.073 9.91 20.056 25.425 33.56 46.872 40.941 17.631 6.079 35.823 8.105 54.046 10.634 7.883 1.095 14.879 4.157 21.609 8.668 19.213 12.868 27.807 31.031 28.694 53.557.267 6.73 3.55 11.419 9.703 14.466 8.963 4.422 11.433 3.653 13.741-6.419 3.831-16.744 7.232-33.576 10.679-50.393 3.697-18.015 11.078-34.152 24.627-46.857 14.391-13.475 31.637-22.319 50.14-28.665 6.804-2.337 8.623-5.591 4.645-11.847-1.967-3.077-4.63-5.71-6.982-8.535-2.677-3.194-5.635-6.197-7.987-9.614-8.711-12.705-16.772-13.518-28.413-2.928-7.632 6.952-13.962 15.308-22.659 21.092-8.165 5.428-16.004 11.536-24.716 15.855-16.61 8.224-32.998 5.813-48.218-4.186-11.818-7.779-25.425-8.475-38.678-10.649-28.384-4.674-54.475-14.495-76.439-33.634-10.738-9.363-14.732-22.423-15.663-35.631-1.716-24.124 3.653-46.68 19.05-66.352 5.206-6.656 7.958-15.042 14.081-21.343 14.022-14.436 29.493-26.535 48.41-34.138 9.54-3.83 18.548-9.037 27.704-13.814 2.351-1.228 4.659-2.899 6.36-4.896 14.776-17.26 27.866-35.424 33.338-58.143 1.997-8.297 5.769-16.166 8.342-24.345 1.021-3.254 3.047-3.299 5.606-3.299 8.135.03 16.27.237 24.39-.074 5.251-.207 6.183 1.923 5.517 6.656-1.997 14.303-8.83 27.023-12.898 40.645-1.982 6.656-.044 8.92 5.887 10.191 18.711 3.994 36.312 1.065 53.854-6.449 10.693-4.585 21.151-10.56 33.338-11.21 4.29-.238 5.695-4.556 6.863-7.87 2.781-7.854 5.946-15.663 6.552-24.123.385-5.429 2.337-8.431 8.668-7.899 7.085.607 14.303.547 21.417.03 6.656-.488 7.41 2.559 6.36 7.957-1.997 10.369-4.038 20.722-7.395 30.736-1.228 3.653-.281 4.748 3.032 6.522 16.462 8.816 34.052 8.002 51.132 4.615 12.84-2.559 22.82-12.128 32.38-20.929 9-8.312 17.27-17.394 25.85-26.165 1.63-1.657 3.42-2.633 5.84-2.618 15.96.06 31.92.03 50.28.03l-.12-.03Zm-635.607 165.45c0 5.606.71 12.824-.148 19.835-1.612 13.09-11.759 20.766-20.722 28.62-16.033 14.051-34.404 22.438-56.235 16.374-27.836-7.736-48.883-24.627-62.787-49.949-6.745-12.291-12.395-25.189-18.947-37.598-5.221-9.91-6.863-10.162-16.699-5.384-8.623 4.2-17.142 8.682-25.987 12.35-16.788 6.952-34.67 11.108-50.822 19.82-4.259 2.292-9.126 3.845-13.903 4.763-15.116 2.898-30.321 2.277-45.452.014-18.149-2.706-35.705-6.996-50.2-19.287-2.988-2.529-6.286-4.718-9.526-6.937-3.668-2.514-4.94-1.39-5.147 2.973-.636 13.519-4.925 25.973-11.862 37.554-5.325 8.904-9.082 18.533-13.179 28.014-1.42 3.269-.429 5.162 1.938 7.617 13.119 13.726 29.197 21.891 47.301 26.919 18.326 5.103 34.98-.044 48.174-11.448 14.791-12.779 31.874-20.1 49.179-27.629 3.284-1.435 7.159-1.938 10.783-2.056 23.902-.769 46.606 5.946 67.461 16.033 23.192 11.227 43.248 28.177 62.136 45.689 21.624 20.057 42.672 40.705 65.642 59.282 6.67 5.399 13.415 9.022 22.142 7.07 15.752-3.535 30.898-.902 43.766 8.046 13.681 9.511 28.857 11.241 44.18 11.152 22.807-.118 43.47 5.665 63.467 16.211 11.167 5.887 19.243 13.46 25.115 24.745 5.754 11.079 13.741 21.181 25.204 27.141 9.569 4.985 20.071 8.209 29.552 13.342 20.973 11.33 33.96 28.443 35.587 52.966 1.405 21.136-7.056 40.305-12.425 60.036-1.893 6.951-3.712 13.09.281 19.731 1.376 2.278 2.041 4.999 2.929 7.558 3.919 11.374 19.982 19.553 31.194 15.101 13.696-5.443 27.555-10.575 40.66-17.453 3.062-1.597 6.345-2.825 8.327-5.887 7.44-11.522 17.468-20.529 27.94-29.152 10.679-8.786 21.476-17.661 35.158-21.033 14.376-3.55 22.659-12.646 27.289-25.987 1.701-4.896 3.712-9.6 6.7-13.904 14.628-21.018 32.851-38.441 53.676-53.143 14.244-10.043 29.527-9.378 43.767.961 2.35 1.716 5.07 3.062 7.81 4.082 8.4 3.121 14.72 8.697 19.76 15.945 14.8 21.24 11.54 44.402 6.51 67.387-2.93 13.371-7.86 26.283-11.69 39.462-3.7 12.705-6.52 25.692-10.88 38.16-2.98 8.461-3.73 16.61.34 24.228 8.58 16.033 19.49 29.847 37.95 35.838 9.44 3.061 13.3 1.168 14.14-8.815.68-8.106 2.26-15.989 4.1-23.903 7.05-30.306 15.99-60.183 20.45-91.052 2.65-18.326 9.23-35.039 23.19-47.301 22.12-19.406 49.07-23.429 77.38-20.914 15.56 1.375 29.65 8.682 44.8 11.906 11.8 2.515 24.25 0 32.15-6.552 11.18-9.289 21.52-20.707 28.25-34.448 2.13-4.363 4.62-9.185 8.3-12.04 21.92-16.935 45.23-30.72 74.53-28.945 12.41.754 22.44 5.103 30.4 15.323 8.15 10.472 12.44 22.098 14.88 34.818 4 20.914 3.59 40.749-9.34 59.267-6.82 9.762-12.47 20.47-16.78 31.8-9.66 25.411-11.45 52.611-18.55 78.598-8.14 29.804-2.46 56.708 17.89 80.492 8.39 9.792 13.8 21.58 17.37 33.93 2.68 9.304 8.34 16.137 15.6 21.802 5.92 4.615 13.7 8.682 20.39 6.345 11.07-3.875 19.9-12.113 22.63-24.316 3.78-16.98.41-33.442-8.54-47.907-11.23-18.163-18.93-36.8-19.67-58.543-.39-11.255.1-22.629-1.42-33.856-1.76-13.001-2.2-26.224-.55-39.003 4.1-31.401 19.98-57.196 42.11-79.22 8.67-8.623 19.26-15.057 31.76-15.841 16.83-1.05 32.94-5.191 49.15-9.155 5.81-1.42 11.25-3.861 15.88-7.573 11.58-9.333 15.95-28.665 8.57-40.054-11.54-17.778-26.94-30.365-50.2-29.271-8.67.414-16.05 4.408-24.13 6.331-16.44 3.904-32.85 6.36-48.73-1.968-16.33-8.563-28.48-21.313-37.81-37.184-4.36-7.44-10.43-13.445-20.13-14.11-12.5-.873-23.74-6.094-34.85-11.345-11.1-5.25-18.65-14.229-24.05-25.085-3.07-6.197-4.48-13.282-1.77-19.332 7.29-16.314 12.35-33.989 24.67-47.567 11.92-13.149 22.1-27.585 32.69-41.725 11.87-15.856 7.3-41.621-9.48-52.108-1.16-.725-2.78-.917-4.2-.947-20.99-.65-40.53 3.861-57.67 16.551-11.53 8.535-24.07 14.717-38.31 9.407-7.94-2.958-12.97-1.789-18.06 4.112-1.41 1.627-3.52 2.648-5.25 4.023-7.19 5.695-9.14 12.055-3.68 19.45 8.65 11.714 13.1 25.159 18.94 38.146 8.52 18.917 9.2 38.589 6.39 58.276-2.68 18.651-7.45 37.021-11.74 55.421-8.98 38.574-33.9 62.092-70.92 73.777-13.82 4.348-27.69 8.386-41.26 13.607-18.6 7.174-37.58 12.617-58.14 8.963-7.32-1.301-15.14-1.109-22.72.888-12.82 3.402-25.97 1.937-38.93 1.272-10.66-.547-20.2-5-29.19-11.167-22.22-15.235-36.76-38.101-56.431-55.821-6.33-5.709-11.655-12.557-22.082-9.821-4.778 1.257-10.309-.739-13.416-4.644-5.324-6.715-10.575-5.65-16.624-1.716-1.849 1.198-3.876 2.174-5.932 3.003-18.636 7.617-30.572 20.781-34.314 40.911-1.746 9.392-3.402 18.829-5.769 28.088-3.801 14.924-5.073 30.661-13.814 44.047-4.955 7.573-10.561 14.879-20.057 16.107-18.547 2.396-34.832-3.165-49.046-15.471-13.342-11.552-15.264-27.467-17.305-43.337-1.272-9.91-9.481-19.228-19.613-20.885-18.858-3.091-37.687-5.694-56.235-11.123-26.431-7.735-45.925-23.724-61.87-45.141-8.386-11.271-12.853-24.893-21.55-36.06-7.543-9.688-16.063-12.188-27.008-6.538-14.037 7.248-28.339 13.756-43.944 16.832-15.441 3.047-30.809 4.319-45.023-4.526-7.218-4.496-13.829-9.732-14.495-19.184-.666-9.614.044-19.376 2.381-28.531 6.493-25.337 21.92-43.145 46.591-53.262 21.063-8.623 36.001-24.05 44.195-45.482 5.133-13.459 12.647-24.863 25.263-32.466 12.824-7.735 24.73-16.018 33.886-28.753 10.635-14.806 20.249-30.114 29.434-45.778 2.47-4.215 5.546-8.992.429-13.282-8.209-6.863-17.35-12.01-28.325-13.03-16.403-1.524-30.084 5.502-41.547 15.722-14.673 13.09-31.061 23.843-46.103 36.415-12.351 10.324-27.334 16.448-41.977 22.852-6.049 2.648-8.209 6.656-8.253 13.193-.103 15.028 5.266 29.627 2.722 46.266l-.015-.015ZM2022.28.596h33.73c1.93 0 3.69-.118 4.71 2.396 4.44 10.916 9.16 21.462 8.79 33.886-.39 12.735 3.05 25.218 7.03 37.302 7.83 23.754 18.97 46.355 24.53 70.923 6.42 28.28 6.88 55.998-10.75 80.639-18.52 25.869-39.57 49.683-67.43 66.012-12.68 7.425-16.64 20.796-24.76 31.297-7.46 9.644-8.37 20.515-6.8 31.504 1.78 12.469 11.28 19.377 22.18 23.503 7.94 3.003 13.14-3.254 18.34-8.164 8.21-7.736 13.39-17.572 18.67-27.275 18.59-34.107 37.43-68.126 62.68-97.9 11.18-13.179 22.51-25.973 39.74-33.043 15.59-6.404 23.37-20.027 24.69-37.894 1.42-19.346-5.18-36.711-9.85-54.652-4.02-15.442-11.98-30.085-12.93-46-1.06-17.911-5.8-35.35-5.56-53.335 0-.991-.03-1.968.03-2.959.8-14.273 2.9-16.299 16.85-16.299 6.89 0 13.8.089 20.69-.03 4.11-.074 6.74.917 3.89 5.355-6.85 10.59-6.86 21.698-3.17 33.22 3.07 9.555 0 19.716 2.71 29.256 5.96 21.018 11.97 42.021 18.48 62.876 2.29 7.336 4.62 14.451 4.15 22.275-.69 11.507.76 23.044-1.18 34.596-4.51 27.067-20.69 45.378-44.24 56.959-11.42 5.621-19.47 13.978-27.11 23.118-24.45 29.183-42.25 62.639-60.56 95.741-6.81 12.336-14.6 23.873-25.1 33.472-28.69 26.224-50.83 22.319-77.25.606-15.23-12.527-22.61-29.049-22.44-49.889.15-17.128 4.25-31.771 13.82-45.571 3.9-5.62 6.34-12.232 9.92-18.104 5.62-9.244 14.1-15.707 22.94-21.535 20.06-13.208 37.99-28.591 51.8-48.484 3.89-5.606 9.11-10.177 11.64-16.877 4.9-12.971 4.25-26.475 1.89-39.329-2.63-14.361-7.79-28.25-13.29-42.006-10.83-27.037-20.47-54.445-21.6-84.307-.38-10.236-6.19-20.264-9.85-31.298l-.03.015Z" />
    <path fill="url(#b)" filter="url('#disFilter')" fill-opacity=".2"
      d="M1822.5.597c14.16 0 27.19.059 40.2-.045 3.17-.014 4.74 1.198 5.95 4.216 4.29 10.723 8.83 21.358 9.94 33.013.24 2.529.66 5.058 2.22 6.922 9.8 11.833 12.76 27.038 19.99 40.142 4.56 8.254 5.24 17.808 7.8 26.712 5.15 17.986 7.71 37.909 23.49 50.496 9.61 7.662 18.53 17.897 32.71 17.779 1.41 0 2.71.754 4.23 0 5.12-2.559 11.53-18.636 9.41-24.168-5.87-15.353-11.93-30.632-17.61-46.059-2.07-5.62-5.03-10.65-8.39-15.5-4.48-6.479-8.83-12.972-10.86-20.782-.8-3.047-2.61-5.738-4.76-8.223-4.42-5.103-7.42-10.93-7.88-17.883-.27-3.978-1.62-7.735-3.66-11.137-5.85-9.791-7.2-20.707-8.65-31.697-.46-3.446.81-3.786 3.4-3.772 9.37.015 18.71.075 28.08-.029 2.98-.03 4.6.946 4.79 4.097.8 13.297 8.27 24.568 12.48 36.71 3.27 9.437 8.23 19.406 14.11 27.956 12.06 17.482 18.56 37.287 26.09 56.708 1.25 3.209 1.88 6.715 3.52 9.673 11.29 20.352 6.33 39.122-4.66 57.788-9.45 16.062-28.42 24.109-48.11 22.378-20.97-1.849-32.57-15.87-47.04-26.254-14.79-10.619-21.84-26.934-28.13-43.958-5.47-14.85-6.33-30.913-12.94-45.112-5.87-12.617-9.44-26.387-18.59-37.48-3.6-4.363-5.61-10.043-6.01-15.678-.77-10.517-4.82-19.997-8.25-29.685-1.49-4.201-3.55-8.047-7.77-10.413-2.04-1.154-3.78-2.973-5.08-6.686l-.02-.03ZM1.676 530.376c0-5.177.104-10.339-.03-15.516-.118-4.481 1.702-5.029 5.414-3.269 6.286 3.003 11.507 7.514 17.069 11.552 3.165 2.307 6.197 4.837 10.19 5.724 6.716 1.509 11.463.961 15.65-6.36 5.635-9.865 11.58-20.027 21.476-26.757 2.854-1.937 3.165-4.614 1.834-7.809-4.349-10.398-9.57-20.485-11.611-31.756-.547-3.017-2.84-5.266-5.236-6.967-8.401-5.975-16.166-12.838-25.16-17.985-7.276-4.171-15.027-6.05-23.369-5.073-4.851.562-6.537-1.376-6.315-6.227.325-7.366.414-14.791-.015-22.142-.31-5.399 1.36-7.055 6.922-7.336 18.34-.947 34.374 4.866 48.972 15.352 9.363 6.73 18.888 13.223 27.304 21.24 4.615 4.408 8.15 9.496 9.718 15.412 3.002 11.226 7.721 21.728 11.877 32.496 8.12 21.076 4.866 33.545-12.262 48.484-5.842 5.088-10.427 11.123-14.022 17.823-10.93 20.322-24.36 26.89-47.463 23.473-8.92-1.317-17.113-3.727-24.494-9.111-4.496-3.284-7.366-6.7-6.537-12.72.562-4.112.103-8.357.118-12.543l-.03.015ZM1.677 752.192v-29.507c0-10.295 5.428-18.282 15.19-21.625 7.425-2.544 14.88-5.472 22.57-6.685 6.953-1.08 11.094-5.251 14.644-10.073 4.2-5.694 7.528-12.084 10.871-18.355 3.698-6.937 1.39-12.35-4.615-17.113-14.007-11.138-29.61-15.456-47.36-14.466-9.762.533-11.3-1.848-11.3-11.669 0-8.86-.044-17.72.03-26.565.014-2.026-.104-5.753 3.253-3.343 12.499 8.949 27.615 5.31 41.178 9.038 6.464 1.775 12.661 3.55 18.267 7.351 5.487 3.712 11.256 7.011 16.847 10.546 15.944 10.102 29.419 39.609 17.334 58.911-8.43 13.46-14.332 28.547-27.156 39.048-5.62 4.615-11.33 8.298-18.488 10.088-10.31 2.588-21.003 4.393-28.162 13.962-2.943 3.935-8.268 5.384-13.134 6.153-3.787.592-7.13 1.287-9.984 4.319l.015-.015ZM1.706 1363.13c0-13.65-.045-27.32.03-40.97.029-4.69 4.274-5.03 7.247-6.13 7.78-2.88 16.004-1.99 24.094-2.02 11.507-.05 24.553-14.75 23.384-26.15-.37-3.55-2.292-4.56-5.383-4.56-5.665 0-11.315.05-16.98-.04-3.432-.05-6.834.13-10.25-.83-18.385-5.18-22.157-10.04-22.157-28.92 0-4.92-.074-9.83.015-14.76.118-6.51 1.538-7.33 7.44-4.23 4.999 2.62 10.353 4.84 14.805 8.23 6.434 4.86 13.475 5.45 20.93 4.95 12.616-.86 24.463 1.1 34.98 8.68 7.883 5.7 11.61 13.06 12.29 23.02 1.539 22.7-6.655 41.35-22.097 57.12-8.534 8.71-19.184 14.16-31.74 12.87-14.496-1.48-26.536 2.25-36.579 13.72l-.03.02ZM1766.7.583c-7.72 4.63-14.45 6.168-21.12 6.833-5.74.577-10.45 2.603-14.72 5.96-13.83 10.902-29.72 18.46-45.25 26.151-13.71 6.804-28.93 10.842-43.81 14.82-9.14 2.456-18.65-.34-25.27-7.04-7.67-7.75-16.88-11.448-26.79-14.362-14.57-4.29-25.94-12.557-33.09-26.224-2.14-4.097-1.91-6.286 3.6-6.212 15.01.192 30.07-.562 45.03.28 11.13.622 19.79 8.195 29.01 13.653 3.59 2.13 6.33 2.943 10.15 1.346 11.93-5 25.42-6.05 36.14-14.259 1.2-.917 3.29-.917 4.97-.917 26.35-.059 52.67-.044 81.15-.044v.015Z" />
  </g>
  <defs>
    <linearGradient id="b" x1="90" x2="90.93" y1="0" y2="2000" gradientUnits="userSpaceOnUse">
      <stop stop-color="#08001A" />
      <stop offset="1" stop-color="#fff" />
    </linearGradient>
    <clipPath id="a">
      <path fill="#fff" d="M.893 1721.97V.11h2466.08v1721.86z" />
    </clipPath>
    <filter id="disFilter" display="none">
      <feTurbulence type="turbulence" baseFrequency="0.001" numOctaves="2" seed="90" result="turbulence">
        <animate attributeName="baseFrequency" values="0.001;0.005;0.001;" dur="120s" begin="0.001"
          repeatCount="indefinite">
        </animate>
      </feTurbulence>
      <feDisplacementMap in="SourceGraphic" in2="turbulence" scale="30" xChannelSelector="R" yChannelSelector="B"
        result="displacement"></feDisplacementMap>
    </filter>
  </defs>
</svg>
